<svg id="Camada_1" data-name="Camada 1" xmlns="http://www.w3.org/2000/svg" viewBox="0 0 100 100"><defs><style>.cls-1{fill:#1c3c45;}</style></defs><title>Rascunho</title><path class="cls-1" d="M18.65,64.89a1.5,1.5,0,0,0-1.1-.48,1.46,1.46,0,0,0-1,.4,1.5,1.5,0,0,0-.08,2.12l.58.62h0l0,0h0l0,0h0l0,0h0l0,0h0l0,0h0l0,0h0l0,0h0v0l0,0,0,0h0l0,0,0,0h0l0,0h0l0,0h0l0,0h0l0,0h0l0,0h0l0,0h0l0,0h0l0,0h0l0,0h0l0,0h0l0,0h0l.81.83a1.49,1.49,0,0,0,1.06.44,1.53,1.53,0,0,0,1.06-.44,1.5,1.5,0,0,0,0-2.12C20,66.29,19.3,65.59,18.65,64.89Z"/><path class="cls-1" d="M5.69,45.79c-.35-.87-.68-1.76-1-2.63a1.5,1.5,0,0,0-1.42-1,1.34,1.34,0,0,0-.48.08,1.5,1.5,0,0,0-.95,1.89q.48,1.44,1,2.82a1.49,1.49,0,0,0,1.38.93,1.44,1.44,0,0,0,.57-.11A1.49,1.49,0,0,0,5.69,45.79Z"/><path class="cls-1" d="M14.57,60.23c-.56-.69-1.1-1.38-1.62-2a1.49,1.49,0,0,0-2.1-.28,1.5,1.5,0,0,0-.29,2.1l.25.32h0l0,0h0q.53.68,1.08,1.35h0l0,.06h.05v0h.16l.06.09h0l0,0,.1.12a1.5,1.5,0,0,0,2.1.2,1.52,1.52,0,0,0,.21-2.12Z"/><path class="cls-1" d="M8.18,51a1.5,1.5,0,0,0-1.31-.77,1.47,1.47,0,0,0-.73.19,1.5,1.5,0,0,0-.58,2c.48.87,1,1.73,1.53,2.59a1.5,1.5,0,0,0,2.54-1.6C9.12,52.59,8.63,51.76,8.18,51Z"/><path class="cls-1" d="M30.8,9.81a1.5,1.5,0,0,0-1.35-1.63c-.51,0-1-.09-1.57-.11H27.5l-.87,0h-.18a1.5,1.5,0,1,0,0,3h.07c.9,0,1.78,0,2.63.12h.15A1.5,1.5,0,0,0,30.8,9.81Z"/><path class="cls-1" d="M34.12,78.51q-1.18-.87-2.34-1.77A1.5,1.5,0,1,0,30,79.12l.29.23,0,0h0l0,0h0l0,0h0l0,0h0l0,0h0l0,0h0l0,0h0l0,0h0l0,0h.05l0,0h0l0,0h0l0,0h0l0,0h0l0,0h0l0,0h0l0,0h0l0,0h0l.66.5h0l0,0h0l0,0h0l0,0h0l0,0h0l0,0h0l0,0h0l.53.39a1.49,1.49,0,0,0,.89.3,1.5,1.5,0,0,0,.89-2.71Z"/><path class="cls-1" d="M25,71.07a1.52,1.52,0,0,0-2.12.11A1.51,1.51,0,0,0,23,73.3l1.57,1.39h0l0,0,0,0h0l0,0h0l0,0h0l0,0h0l.53.46A1.5,1.5,0,0,0,27.16,73C26.41,72.36,25.67,71.71,25,71.07Z"/><path class="cls-1" d="M20.71,8.61a1.55,1.55,0,0,0-.31,0c-.52.11-1,.24-1.53.38h-.05l-.06,0h-.1l-.06,0h0c-.36.1-.71.21-1.06.33A1.5,1.5,0,0,0,18,12.36a1.4,1.4,0,0,0,.49-.08,22.35,22.35,0,0,1,2.55-.7,1.5,1.5,0,0,0-.31-3Z"/><path class="cls-1" d="M70.85,11.12H71A26.53,26.53,0,0,1,73.68,11a1.5,1.5,0,0,0,0-3h-3a1.5,1.5,0,0,0,.17,3Z"/><path class="cls-1" d="M2.09,39.43A1.5,1.5,0,0,0,3.32,37.7,21.36,21.36,0,0,1,3,35.07a1.5,1.5,0,0,0-1.5-1.43H1.45A1.5,1.5,0,0,0,0,35.22l0,.48h0v0h0v.07h0c.06.75.15,1.49.28,2.24a1.5,1.5,0,0,0,1.48,1.25Z"/><path class="cls-1" d="M95.84,26.61a22.31,22.31,0,0,1,.69,2.55A1.49,1.49,0,0,0,98,30.36a1.63,1.63,0,0,0,.31,0,1.49,1.49,0,0,0,1.16-1.77l0-.11h0v0h0v0h0v0h0v0h0v0h0v0h0v0h0v0h0v0h0q-.23-1-.51-1.95h0l0-.08h0v0h0v0h0v0h0v0h0v0h0v0h0l0,0h0v0h0v0h0v0h0v0h0v0h0v0h0v0h0v0h0l0-.05h0v0a1.5,1.5,0,0,0-1.42-1,1.6,1.6,0,0,0-.47.08A1.5,1.5,0,0,0,95.84,26.61Z"/><path class="cls-1" d="M34.44,12.27a20.61,20.61,0,0,1,2.43,1,1.55,1.55,0,0,0,.66.15,1.5,1.5,0,0,0,.67-2.84,25.47,25.47,0,0,0-2.81-1.15,1.53,1.53,0,0,0-.47-.07,1.5,1.5,0,0,0-.48,2.92Z"/><path class="cls-1" d="M93.54,21.77a1.51,1.51,0,0,0,1.27.7,1.51,1.51,0,0,0,1.27-2.31H96l0,0h0l0-.06h0a23.26,23.26,0,0,0-1.56-2.13,1.48,1.48,0,0,0-2.1-.22A1.49,1.49,0,0,0,92,19.62,23.34,23.34,0,0,1,93.54,21.77Z"/><path class="cls-1" d="M1.64,30.9l.28,0A1.51,1.51,0,0,0,3.4,29.71,22.44,22.44,0,0,1,4,27.14a1.5,1.5,0,0,0-1-1.88,1.41,1.41,0,0,0-.45-.07,1.5,1.5,0,0,0-1.43,1h0C1,26.87.82,27.45.69,28h0c-.08.35-.16.7-.22,1A1.49,1.49,0,0,0,1.64,30.9Z"/><path class="cls-1" d="M4.19,22.74A1.42,1.42,0,0,0,5,23a1.5,1.5,0,0,0,1.29-.73A25.71,25.71,0,0,1,7.73,20a1.49,1.49,0,0,0-.28-2.1,1.47,1.47,0,0,0-.91-.31,1.51,1.51,0,0,0-1.19.58,25.85,25.85,0,0,0-1.68,2.49A1.49,1.49,0,0,0,4.19,22.74Z"/><path class="cls-1" d="M10.53,16.5a1.48,1.48,0,0,0,1-.34,21.68,21.68,0,0,1,2.15-1.55A1.5,1.5,0,1,0,12,12.08a25,25,0,0,0-2.43,1.75,1.5,1.5,0,0,0,.94,2.67Z"/><path class="cls-1" d="M54.82,86.27a1.46,1.46,0,0,0-.78.22q-1.26.77-2.52,1.5a1.5,1.5,0,0,0,.75,2.8,1.53,1.53,0,0,0,.75-.2l.61-.36h0l0,0h0l.08,0h0l0,0h0l0,0h0l.07,0h0l0,0h0l0,0h0l0,0h0l0,0h0l0,0h0l0,0h0l0,0h.09l.08,0h0l0,0h0l0,0h0l.08,0h0l0,0h0l0,0h0l.12-.07h0l.8-.49a1.5,1.5,0,0,0-.78-2.78Z"/><path class="cls-1" d="M83,64a1.5,1.5,0,0,0-1.1.49c-.65.7-1.32,1.4-2,2.1a1.49,1.49,0,0,0,0,2.12,1.5,1.5,0,0,0,2.12,0c.56-.56,1.11-1.14,1.66-1.72h0l0,0h0l.06-.06h0l0,0h0l0,0h0l0,0h0l0,0v0l0,0,0,0h0l0,0h0v0h0l0-.05h0l0,0A1.51,1.51,0,0,0,84,64.4,1.54,1.54,0,0,0,83,64Z"/><path class="cls-1" d="M41.46,83.58C40.64,83,39.82,82.5,39,82a1.52,1.52,0,0,0-.84-.25,1.5,1.5,0,0,0-.84,2.74l.74.49h0l0,0h0l0,0h0l0,0h0l0,0h0l0,0h0l0,0h0l0,0h0l0,0h.05l0,0h0l0,0h0l0,0h0l0,0h.06l0,0h.06l0,0h0l0,0h0l0,0h0l0,0h0l0,0h0l0,0h0l0,0h0l0,0,.83.54a1.5,1.5,0,0,0,.81.24,1.5,1.5,0,0,0,.82-2.76Z"/><path class="cls-1" d="M90,13.48h0l-.06,0h0l0,0h-.22v0h0l0,0h0l-.06,0h0l0,0h0c-.62-.45-1.25-.87-1.91-1.27a1.54,1.54,0,0,0-.77-.21,1.51,1.51,0,0,0-1.29.72,1.5,1.5,0,0,0,.51,2.06,23.68,23.68,0,0,1,2.2,1.5,1.47,1.47,0,0,0,.91.31A1.5,1.5,0,0,0,90,13.48Z"/><path class="cls-1" d="M81.49,12.2A1.5,1.5,0,0,0,82,9.27a24.7,24.7,0,0,0-2.72-.72h-.18l-.3,0a1.5,1.5,0,0,0-.3,3,22.56,22.56,0,0,1,2.57.67A1.55,1.55,0,0,0,81.49,12.2Z"/><path class="cls-1" d="M97.48,41.67A1.47,1.47,0,0,0,97,41.6a1.52,1.52,0,0,0-1.43,1c-.27.85-.59,1.72-.94,2.6a1.5,1.5,0,0,0,.82,2,1.44,1.44,0,0,0,.57.11,1.5,1.5,0,0,0,1.39-.93c.16-.4.31-.8.46-1.21h0v0h0v0h0v0h0v0h0v0h0v0h0v0h0v0h0v0h0v0h0l0-.13h0v0h0v0h0v0h0v0h0v0h0v0h0v0h0v0h0v0h0v0h0c.1-.27.19-.55.27-.82A1.49,1.49,0,0,0,97.48,41.67Z"/><path class="cls-1" d="M98.53,33.08h0A1.5,1.5,0,0,0,97,34.55c0,.89-.09,1.8-.2,2.69a1.5,1.5,0,0,0,1.31,1.67l.18,0a1.5,1.5,0,0,0,1.49-1.32h0v0h0v0h0v0h0v0h0c.07-.55.12-1.1.16-1.65h0v0h0v0h0v0h0v0h0v0h0v0h0v0h0c0-.33,0-.66,0-1A1.5,1.5,0,0,0,98.53,33.08Z"/><path class="cls-1" d="M76.57,70.29a1.5,1.5,0,0,0-1,.38c-.71.64-1.45,1.29-2.19,1.92a1.5,1.5,0,0,0-.17,2.12,1.49,1.49,0,0,0,2.11.17l1-.89h0l.07-.06h0l0,0h0l.07,0h0l0,0h0l0,0h0l0,0h0l0,0h0l0,0h0l0,0h0v0h0l0,0,0,0h0l0,0h0v0h0l0,0v0h0l0,0,0,0h0l0,0h0l0,0h0l0,0h.05v0h0l0,0h0l0,0h0l0,0h0l0,0h0l0,0h0l0,0h0l.07-.07h0l.08-.08a1.49,1.49,0,0,0,.11-2.12A1.47,1.47,0,0,0,76.57,70.29Z"/><path class="cls-1" d="M94.19,49.82a1.47,1.47,0,0,0-.73-.19,1.49,1.49,0,0,0-1.31.77c-.45.79-.94,1.63-1.46,2.47a1.5,1.5,0,0,0,2.56,1.58c.52-.86,1-1.72,1.52-2.59A1.51,1.51,0,0,0,94.19,49.82Z"/><path class="cls-1" d="M89.52,57.41a1.54,1.54,0,0,0-.88-.29,1.51,1.51,0,0,0-1.22.61c-.56.77-1.15,1.54-1.75,2.3a1.5,1.5,0,0,0,.25,2.1,1.47,1.47,0,0,0,.93.33A1.49,1.49,0,0,0,88,61.89c.62-.78,1.23-1.57,1.82-2.38A1.5,1.5,0,0,0,89.52,57.41Z"/><path class="cls-1" d="M69.66,76a1.43,1.43,0,0,0-.92.32c-.78.6-1.56,1.19-2.35,1.77a1.5,1.5,0,0,0,.9,2.71,1.49,1.49,0,0,0,.89-.3c.81-.6,1.6-1.2,2.39-1.81A1.5,1.5,0,0,0,69.66,76Z"/><path class="cls-1" d="M52.65,23.43c.23-.4.48-.81.72-1.19a1.5,1.5,0,0,0-1.26-2.31,1.52,1.52,0,0,0-1.27.69l-.07.12h-.14v0h0v0h0v0h0v0h0l-.07.1h0v0h0v0h0v0h0v0h0v0h0v0h0v0h0l0,0h0v0h0v0h0l-.12.2h0v0h0v0h0v0h0v0h0v0h0v0h0v0h0v0h0v0a2.17,2.17,0,0,1-.15-.22l-.07-.1c-.11-.15-.19-.26-.26-.37h0v0h-.05v0h0l-.25-.38A1.51,1.51,0,0,0,48,20a1.56,1.56,0,0,0-.82.24,1.5,1.5,0,0,0-.44,2.07c.11.16.21.33.31.49l.37.53.2.29a3,3,0,0,0,2.46,1.28h.13A3,3,0,0,0,52.65,23.43Z"/><path class="cls-1" d="M45.42,18.05a1.51,1.51,0,0,0,.06-2.11,26.86,26.86,0,0,0-2.21-2.08,1.56,1.56,0,0,0-1-.34,1.5,1.5,0,0,0-1,2.65A25.65,25.65,0,0,1,43.3,18a1.51,1.51,0,0,0,2.12.05Z"/><path class="cls-1" d="M49.09,88.28c-.85-.5-1.7-1-2.54-1.51a1.46,1.46,0,0,0-.78-.22A1.5,1.5,0,0,0,45,89.33l2.59,1.54a1.44,1.44,0,0,0,.75.21,1.5,1.5,0,0,0,.76-2.8Z"/><path class="cls-1" d="M66.64,10.38a1.51,1.51,0,0,0-1.42-1,1.61,1.61,0,0,0-.48.08l-.44.15h-.39l-1.15.46h-.6l-.21.1a1.5,1.5,0,0,0,.64,2.85,1.42,1.42,0,0,0,.64-.14,25.25,25.25,0,0,1,2.46-1A1.5,1.5,0,0,0,66.64,10.38Z"/><path class="cls-1" d="M58.92,14a1.49,1.49,0,0,0-1.16-.56,1.54,1.54,0,0,0-.95.34l-.11.09h0l0,0h0v0h0l0,0h0v0h-.67l0,0h-.41v0h-.07v0H55.3l0,0h0v0h0l0,0h0l-.63.63a1.5,1.5,0,0,0,1.08,2.54,1.45,1.45,0,0,0,1.07-.46,23.46,23.46,0,0,1,2-1.79A1.5,1.5,0,0,0,58.92,14Z"/><path class="cls-1" d="M62.37,81.35a1.5,1.5,0,0,0-.85.27c-.81.56-1.62,1.11-2.44,1.65A1.5,1.5,0,0,0,59.91,86a1.47,1.47,0,0,0,.83-.25h0l0,0h0l.12-.08h0l0,0h0l0,0h0l.06,0h0l0,0h0l0,0h0l0,0h0l0,0h0l0,0h0l0,0h0l0,0h0l0,0h0l1.73-1.19h0l0,0h0A1.49,1.49,0,0,0,63.61,82,1.52,1.52,0,0,0,62.37,81.35Z"/></svg>