<svg id="Camada_1" data-name="Camada 1" xmlns="http://www.w3.org/2000/svg" viewBox="0 0 100 100"><defs><style>.cls-1{fill:#1c3c45;}</style></defs><title>Rascunho</title><path class="cls-1" d="M57.77,55c.71.75,1.28,1.12,1.72,1.12h0c.44,0,1-.36,1.69-1.1Q76.5,38.83,91.79,22.67c1.44-1.52,1.46-1.88.13-3.53S89.31,15.9,88,14.29c-2.6-3.21-5.29-6.53-7.87-9.85a4.27,4.27,0,0,0-3.84-1.8c-4,.07-8.1.06-12.06,0H54.89c-4.32,0-8.65,0-13,0h0a3,3,0,0,0-2.6,1.23q-3.93,4.93-7.9,9.84c-1.46,1.8-2.91,3.61-4.36,5.41s-1.35,2,.12,3.54Q42.44,38.84,57.77,55ZM52.24,44.49l-20.87-22H45.51a2,2,0,0,1,1.94,1.47q2.34,6.94,4.7,13.88L54,43.37Zm7.24,4.92-3-8.87c-1.63-4.81-3.2-9.41-4.76-14-.54-1.62-.85-2.5-.29-3.28s1.5-.79,3.21-.79h11.2a2.09,2.09,0,0,1,1.85.66A2.11,2.11,0,0,1,67.76,25C66,30.25,64.2,35.48,62.36,40.9Zm7.11-4.77-.78-.92a2,2,0,0,1-.22-2.3l.06-.14c.56-1.67,1.13-3.33,1.69-5,1.29-3.79,2.62-7.71,3.87-11.59a2.82,2.82,0,0,1,3.11-2.25c2.4,0,4.85,0,7.43,0h5.86ZM78.26,7.26l9.56,11.88H73.33Zm-2.9-1.43L70.51,17.57l-8-11.74ZM67.76,19.2H51.21L59.47,7.07ZM56.34,5.9,48.46,17.58,43.6,5.9ZM40.67,7.29l1.49,3.54c.87,2.05,1.71,4,2.53,6a1.77,1.77,0,0,1,0,1.75,1.88,1.88,0,0,1-1.67.73H31Z"/><path class="cls-1" d="M92.76,70.15a4.56,4.56,0,0,0-2.25-2.93,6.25,6.25,0,0,0-5-.44,107.31,107.31,0,0,1-16.45,4l-.2.06a1.91,1.91,0,0,1-1.76-.15,2.14,2.14,0,0,1-.7-1.76c0-2.42-.89-5.43-5-6a167.11,167.11,0,0,1-21-4.57c-6.16-1.66-11-.33-15.18,4.18a1.93,1.93,0,0,1-.48.36l-1.05.65-.59-.85c-1.84-2.65-2.8-3.33-4.89-3.45-1.1-.06-2.18-.09-3.22-.09s-2.12,0-3.11.1a5.07,5.07,0,0,0-4.86,5c-.08,9.44,0,19,0,27.88a4.45,4.45,0,0,0,2.85,4.39,16.64,16.64,0,0,0,10.23.19A3.46,3.46,0,0,0,22.28,95a2.77,2.77,0,0,1,3.16-1.46c8.07.91,15.51,1.63,22.74,2.18,6.79.51,12.28-.33,17.26-2.66a111,111,0,0,0,20.4-12.42A24.73,24.73,0,0,0,91.5,75C92.74,73.21,93.13,71.7,92.76,70.15ZM19.34,93.26a2.77,2.77,0,0,1-2,.69H17c-1.11-.07-2.26,0-3.37,0h-.79a2.72,2.72,0,0,1-2-.68,2.62,2.62,0,0,1-.71-1.95q0-13.19,0-26.39a2.36,2.36,0,0,1,2.54-2.55H14.3c.92,0,1.85,0,2.77,0a2.92,2.92,0,0,1,2.3.7,3,3,0,0,1,.78,2.33c0,3,0,6.13,0,9.12v7.18c0,3,0,6.09,0,9.13A3.23,3.23,0,0,1,19.34,93.26ZM88.91,73.12l-.12.16a14.93,14.93,0,0,1-2,2.29A93,93,0,0,1,61.65,91.13a21.93,21.93,0,0,1-8.56,1.5c-1,0-2,0-3-.1-7.41-.43-14.89-1.24-22.13-2l-2.37-.26a2.23,2.23,0,0,1-2.26-2.58c0-2,0-4.06,0-6.09V79.19c0-.73,0-1.45,0-2.18,0-1.64,0-3.33,0-5A6.08,6.08,0,0,1,25,67.41a47.05,47.05,0,0,1,4.25-4.29A8.6,8.6,0,0,1,37.33,61c5.53,1.37,11.2,2.62,16.68,3.83l2,.44c.71.16,1.44.25,2.21.35s1.55.2,2.34.37l.13,0c.79.16,2.65.55,2.59,2.68a2.68,2.68,0,0,1-2.46,2.53l-.12,0c-4.13,1-8.21.37-11.65-.43a2.09,2.09,0,0,0-.76-.09s-.07.14-.18.61l0,.16a9.37,9.37,0,0,0-.41,2.31,14,14,0,0,0,2.49.49c8.32,1.29,16.51.06,24.18-1.31a94.82,94.82,0,0,0,12.18-3.12,2.22,2.22,0,0,1,2.7.5A2.11,2.11,0,0,1,88.91,73.12Z"/></svg>