<svg id="Camada_1" data-name="Camada 1" xmlns="http://www.w3.org/2000/svg" viewBox="0 0 70 70"><defs><style>.cls-1{fill:#1c3c45;}</style></defs><title>icon4</title><path class="cls-1" d="M68.72,40.52c-.56-2.19-2.22-4-4.82-5.37a37.34,37.34,0,0,0-6.33-2.37,16.22,16.22,0,0,1-7.85-5.17c-.77-.88-1.56-1.76-2.34-2.63l-.68-.76a15.76,15.76,0,0,0-11.18-5.4,14.93,14.93,0,0,0-11,4.25,29.76,29.76,0,0,0-2.8,3,19.79,19.79,0,0,1-10.88,7.29A18.66,18.66,0,0,0,4.66,36,7.48,7.48,0,0,0,2.34,46.55c.68,1.09,1.44,2.13,2.18,3.14l.6.82A29.39,29.39,0,0,1,8.34,56c.22.51.19.71.16.78A.82.82,0,0,1,8,57.1a3.66,3.66,0,0,0-.82.39l-.13.07a2.21,2.21,0,0,0-1.21,1.36,2.18,2.18,0,0,0,.46,1.75A5.91,5.91,0,0,0,9.4,62.83a31.84,31.84,0,0,0,8.91,1.62c4,.25,8.15.23,12.12.22,1.48,0,3,0,4.43,0h0c1.49,0,3,0,4.47,0H42c3.15,0,6.35,0,9.52-.23a31.42,31.42,0,0,0,9.05-1.64,5.52,5.52,0,0,0,3.16-2.31,2.21,2.21,0,0,0,.31-1.73,2.15,2.15,0,0,0-1.18-1.26c-.68-.35-1.32-.68-1.38-.87a4.34,4.34,0,0,1,.56-1.55c.22-.49.49-1,.76-1.45l.09-.16a36.35,36.35,0,0,1,2.62-3.86c.51-.7,1-1.4,1.52-2.12A8.6,8.6,0,0,0,68.72,40.52ZM58.46,55.74l-.25-.09-.25-.1A70.88,70.88,0,0,0,35.15,52H33.88a68.33,68.33,0,0,0-21.66,3.48c-.57.2-.77.13-.82.1s-.23-.42-.31-.72a3.16,3.16,0,0,0-.34-.93c-.07-.11-.1-.19-.12-.21a2.08,2.08,0,0,1,.46-.16l.38-.12A62.22,62.22,0,0,1,30,49.77c.6,0,1.19-.1,1.76-.15a15.75,15.75,0,0,1,2.39-.13h0c9.8.21,17.18,1.39,23.93,3.81a4.49,4.49,0,0,0,.47.13c.48.12.62.19.63.3A3.78,3.78,0,0,1,58.46,55.74ZM9.89,59.67l.24-.09a49.84,49.84,0,0,1,9.45-2.87A71.64,71.64,0,0,1,38.1,55.16c8.68.44,15.6,1.85,21.76,4.44l.33.11-.06,0a1.69,1.69,0,0,0-.27.1,24.82,24.82,0,0,1-7.24,1.47c-3.65.32-7.24.28-10.71.24l-3.29,0q-1.34,0-2.58,0H31c-3.47,0-6.58,0-9.7,0a40.17,40.17,0,0,1-9.24-1.06,18,18,0,0,1-2-.65L10,59.75l-.16,0ZM35.17,46.55c-1.54,0-3.1,0-4.7.11A62.75,62.75,0,0,0,10,50.77c-.72.29-.93.22-1.35-.44-.57-.88-1.19-1.74-1.79-2.56S5.68,46.14,5.14,45.3a5.08,5.08,0,0,1-.95-3.89,5.17,5.17,0,0,1,2.55-3.16,12.27,12.27,0,0,1,3.73-1.6A25.54,25.54,0,0,0,25,26.92a12.31,12.31,0,0,1,7.2-4.75A11.46,11.46,0,0,1,34.34,22L35,22h0a10.73,10.73,0,0,1,8.55,3.46c1.23,1.24,2.52,2.63,4,4.38a19.7,19.7,0,0,0,9.36,6A31.78,31.78,0,0,1,62.73,38a5.38,5.38,0,0,1,3,3.22,5.22,5.22,0,0,1-.93,4.16c-.74,1.18-1.57,2.34-2.38,3.46-.47.66-.95,1.32-1.41,2-.14.2-.18.27-.57.12A68.57,68.57,0,0,0,35.17,46.55Z"/><path class="cls-1" d="M35,26.78h0a8.61,8.61,0,0,0-6.13,2.58,8.45,8.45,0,0,0-2.52,6A8.57,8.57,0,0,0,35,43.93h0a8.44,8.44,0,0,0,8.55-8.51A8.54,8.54,0,0,0,35,26.78Zm5.55,8.6a5.63,5.63,0,0,1-1.68,4A5.45,5.45,0,0,1,35,41a5.61,5.61,0,0,1,0-11.21h0a5.58,5.58,0,0,1,5.57,5.6Z"/></svg>