<svg id="Camada_1" data-name="Camada 1" xmlns="http://www.w3.org/2000/svg" viewBox="0 0 100 100"><defs><style>.cls-1{fill:#5d6d6a;}.cls-2{fill:#1c3c45;}</style></defs><title>logo-icon</title><path class="cls-1" d="M92.5,44.26a17.74,17.74,0,0,0-.42-2.15c-.14-.54-.5-.81-.92-.72l-4.93,1-1.59.35A36.65,36.65,0,0,0,81.9,35l1.89-.94c.29.61.61,1.2.86,1.82.41,1,.77,2.09,1.15,3.14.25.68.57.85,1.26.66l3.17-.89a.91.91,0,0,0,.71-1.29c-.34-1-.68-2.09-1.1-3.11a30.62,30.62,0,0,0-1.46-3.19c-.87-1.59-1.84-3.12-2.78-4.67a.77.77,0,0,0-1.12-.24c-.4.26-.79.52-1.18.8l-3.56,2.53a8.49,8.49,0,0,1-.74.43,35.1,35.1,0,0,0-5.47-6.14l1.37-1.58a10.81,10.81,0,0,1,.9.75c1,1.05,2,2.11,3,3.17a.89.89,0,0,0,1.27.12c.87-.72,1.74-1.43,2.6-2.16.6-.5.65-.87.15-1.47s-1-1.09-1.44-1.63c-.32-.36-.61-.74-1-1.06Q79.22,19,78,18c-1-.82-2-1.62-3-2.42a11.91,11.91,0,0,0-1.07-.8.91.91,0,0,0-1.43.31l-2.07,3.22L69,20.48a33.74,33.74,0,0,0-7.49-3.59l.72-2c.84.3,1.64.54,2.4.87s1.68.82,2.52,1.23c.64.32,1,.21,1.33-.41l1.56-2.85c.4-.73.29-1.12-.45-1.52a17.35,17.35,0,0,0-1.88-.94c-2-.78-4.11-1.57-6.2-2.26a25.69,25.69,0,0,0-3.18-.7c-.62-.12-1.06.12-1.14.57-.21,1.22-.42,2.43-.62,3.65-.16,1-.3,1.91-.45,2.91A35.68,35.68,0,0,0,47.82,15c0-.71-.09-1.38-.14-2.07l.34,0,5,.1c.71,0,1.06-.25,1.13-.94.13-1.14.25-2.29.39-3.43A.74.74,0,0,0,54,7.78a2.28,2.28,0,0,0-.77-.18,38.27,38.27,0,0,0-7.1.05q-2.31.25-4.59.63c-.71.11-.94.53-.78,1.22q.65,2.94,1.3,5.88c0,.13,0,.25,0,.36a37.9,37.9,0,0,0-7.75,2.78c-.32-.64-.63-1.25-1-1.93.88-.38,1.73-.77,2.6-1.12s1.73-.63,2.59-1a.76.76,0,0,0,.46-1.05c-.31-1.1-.63-2.2-.94-3.3a.92.92,0,0,0-1.26-.69c-1.35.5-2.7,1-4,1.54-.52.21-1,.48-1.52.74-1.1.56-2.21,1.1-3.28,1.7-.74.42-1.43.91-2.14,1.37A.86.86,0,0,0,25.67,16c.3.44.6.88.91,1.31.86,1.2,1.72,2.39,2.57,3.59a.85.85,0,0,1,.2.34.47.47,0,0,1-.1.37c-.62.5-1.27,1-1.88,1.49-1,.9-2.05,1.83-3.06,2.77-.35.31-.64.69-1,1.06l-1.6-1.37c.34-.38.62-.75.94-1.06,1-.95,2-1.88,3-2.82a.77.77,0,0,0,.09-1.24c-.74-.89-1.48-1.78-2.23-2.66-.43-.51-.78-.56-1.3-.15s-1,.83-1.44,1.25-.87.73-1.26,1.14c-.72.76-1.42,1.55-2.09,2.36-.82,1-1.61,2-2.4,3-.29.37-.59.75-.85,1.15s-.3,1.12,0,1.34c.59.41,1.18.8,1.79,1.19l2.61,1.62,1.3.78A33.59,33.59,0,0,0,16.34,39l-2-.72c.32-.88.58-1.73.93-2.54s.79-1.64,1.19-2.45A.8.8,0,0,0,16.07,32c-1-.55-2-1.09-3-1.62-.69-.37-1.05-.23-1.44.47a37.46,37.46,0,0,0-2.81,6.89c-.45,1.41-.73,2.88-1,4.33a.93.93,0,0,0,.89,1.27c1.4.21,2.8.41,4.19.64.67.11,1.34.25,2,.39a36,36,0,0,0-.47,8l-2.07.12c0-.15,0-.22,0-.29,0-1.58.05-3.16.09-4.74,0-.72-.23-1-.95-1.12-1.09-.13-2.19-.25-3.29-.36a.89.89,0,0,0-1.11.9A14.5,14.5,0,0,0,7,48.54c0,2.2.07,4.41.21,6.6a27,27,0,0,0,.55,3.57c.13.67.52.86,1.18.72l4.28-.9,2-.46A37.74,37.74,0,0,0,18,65.86l-1.89.94c-.24-.5-.52-1-.73-1.51-.45-1.14-.86-2.28-1.28-3.43-.26-.7-.58-.88-1.29-.68l-3.13.89a.92.92,0,0,0-.71,1.35c.52,1.4,1,2.79,1.59,4.16a23.13,23.13,0,0,0,1.24,2.67c.77,1.35,1.61,2.66,2.43,4a.81.81,0,0,0,1.28.27l1.94-1.34c.26-.18.49-.39.74-.57.45-.32.91-.62,1.36-.93l1.33-.89A35.23,35.23,0,0,0,26.31,77l-1.45,1.67c-1.28-1.36-2.51-2.66-3.72-4a.88.88,0,0,0-1.36-.14l-2.6,2.15c-.53.44-.62.81-.18,1.34.8,1,1.61,1.91,2.48,2.79s1.57,1.44,2.39,2.13,2,1.58,2.95,2.37c.37.29.75.59,1.14.85a.91.91,0,0,0,1.37-.3c.31-.47.64-.93.94-1.4.52-.82,1-1.65,1.54-2.46.33-.54.68-1.07,1-1.62A34.42,34.42,0,0,0,38.32,84l-.71,2c-.85-.3-1.66-.55-2.43-.89s-1.74-.85-2.61-1.26a.76.76,0,0,0-1.14.34c-.6,1.07-1.2,2.15-1.78,3.24a.62.62,0,0,0,.18.91A13.83,13.83,0,0,0,32,89.5c2.31.89,4.63,1.72,7,2.51a17.39,17.39,0,0,0,2.58.54c.64.12,1.08-.12,1.16-.6.23-1.38.45-2.76.68-4.14.13-.79.27-1.57.4-2.39a35,35,0,0,0,8.3.48c0,.71.08,1.38.13,2.08l-.54,0-4.87-.12a.9.9,0,0,0-1,.89c-.13,1.14-.26,2.28-.38,3.42a.82.82,0,0,0,.55,1,2.18,2.18,0,0,0,.61.11,36.61,36.61,0,0,0,7.1,0c1.57-.16,3.13-.39,4.68-.64.69-.11.91-.54.76-1.2-.44-2-.87-4-1.31-6,0-.1,0-.2,0-.29a37.52,37.52,0,0,0,7.75-2.78c.32.64.63,1.25,1,1.92-.87.39-1.69.79-2.55,1.13s-1.73.62-2.59.95a.79.79,0,0,0-.51,1.08c.31,1.1.62,2.2.94,3.3a.91.91,0,0,0,1.3.67q2.23-.84,4.45-1.72c.37-.15.71-.36,1.07-.54,1.11-.57,2.23-1.11,3.31-1.72.73-.4,1.41-.89,2.11-1.35a.83.83,0,0,0,.23-1.17c-.35-.53-.71-1.06-1.08-1.58l-2.22-3.07a2.85,2.85,0,0,1-.37-.6.39.39,0,0,1,.09-.36c.62-.51,1.28-1,1.88-1.5,1-.9,2.06-1.83,3.07-2.77.34-.32.64-.69,1-1.06l1.59,1.37c-.35.4-.66.78-1,1.12-1,.94-2,1.86-3,2.79a.75.75,0,0,0-.08,1.18q1.11,1.35,2.25,2.7a.81.81,0,0,0,1.34.11c.47-.37.93-.78,1.37-1.19.85-.81,1.73-1.59,2.51-2.46,1-1.19,2-2.45,3-3.69.39-.49.76-1,1.11-1.51a1,1,0,0,0-.32-1.54L81,70.06c-.35-.22-.72-.39-1.11-.6a32.87,32.87,0,0,0,3.59-7.55l2,.73c-.34.92-.64,1.81-1,2.67s-.75,1.55-1.12,2.33a.79.79,0,0,0,.36,1.2c1,.56,2.06,1.08,3.05,1.67a.89.89,0,0,0,1.36-.44,13.74,13.74,0,0,0,.94-1.88c.79-2,1.57-4.11,2.26-6.2a24.94,24.94,0,0,0,.7-3.22c.15-.79-.13-1.14-.9-1.26-1.1-.17-2.21-.32-3.31-.5s-1.93-.34-2.85-.5c.14-1.39.31-2.7.39-4s.06-2.67.08-4l2-.12a3.82,3.82,0,0,1,0,.43c0,1.55-.07,3.09-.11,4.64,0,.61.25,1,.77,1.06,1.17.14,2.34.27,3.52.39a.88.88,0,0,0,1-.83c0-.13,0-.26,0-.4A48.8,48.8,0,0,0,92.5,44.26Zm-1.25,8.83-2.31-.15c0-.35.06-.69.06-1,0-1.49,0-3,0-4.46a.93.93,0,0,0-1.15-1q-1.62.18-3.24.33c-.57,0-.82.39-.8,1,0,1.35.15,2.71.07,4.06-.1,1.62-.33,3.23-.56,4.83-.11.82.07,1.16.88,1.33l5.94,1.27.2.06a40.15,40.15,0,0,1-3.08,9.22l-2.09-1.08c.32-.7.66-1.36.92-2,.41-1.06.78-2.12,1.14-3.19a.83.83,0,0,0-.59-1.16c-1.08-.34-2.16-.67-3.25-1a.8.8,0,0,0-1.1.61c-.38,1-.7,2.06-1.13,3.05s-.89,1.85-1.38,2.75-1,1.79-1.58,2.69a.76.76,0,0,0,.24,1.15c.6.44,1.23.84,1.83,1.27s1.44,1.06,2.17,1.57c.47.34,1,.64,1.47,1a44,44,0,0,1-6.46,7.21c-.54-.59-1.06-1.14-1.49-1.6,1.33-1.42,2.63-2.78,3.9-4.17.42-.47.35-.86-.14-1.26l-2.51-2.06c-.59-.47-.89-.4-1.39.13-1,1-1.93,2.07-3,3s-2.4,1.93-3.6,2.89a2.12,2.12,0,0,0-.56.51,1.05,1.05,0,0,0-.14.73,3.24,3.24,0,0,0,.47,1c.72,1.13,1.45,2.25,2.18,3.38l1,1.49a40.37,40.37,0,0,1-8.74,4.19c-.23-.73-.46-1.44-.71-2.19.42-.14.82-.24,1.2-.4,1-.41,1.9-.84,2.85-1.27.35-.16.71-.29,1.06-.47.67-.34.77-.75.41-1.4-.51-.93-1-1.86-1.5-2.79a.9.9,0,0,0-1.34-.43c-.78.38-1.53.82-2.34,1.12-1.54.58-3.1,1.1-4.67,1.6-.58.18-1.2.23-1.79.36a.84.84,0,0,0-.68,1.1C56.27,86.9,56.62,89,57,91a1.06,1.06,0,0,1,0,.25c-1.27.43-8.26.85-9.58.48,0-.73.09-1.46.14-2.25H48c1.7,0,3.4,0,5.09,0,.7,0,1-.42.88-1.12-.12-1.09-.25-2.19-.39-3.28-.06-.56-.3-.77-.89-.75-.93,0-1.85.11-2.77.12a33.06,33.06,0,0,1-6.35-.59,2,2,0,0,0-1,.08c-.17.06-.32.35-.37.55-.32,1.43-.6,2.86-.91,4.28-.15.68-.32,1.36-.49,2.1-.82-.19-1.62-.3-2.37-.55-1.51-.5-3-1.07-4.49-1.63-.68-.26-1.34-.56-2-.84-.22-.08-.32-.2-.19-.44.31-.58.61-1.18.93-1.8.4.2.76.41,1.14.56,1.36.53,2.72,1,4.09,1.54a.82.82,0,0,0,1.16-.58c.36-1.1.69-2.21,1-3.33.14-.46-.13-.85-.67-1-1-.38-2.12-.7-3.13-1.16a32.36,32.36,0,0,1-5.16-2.83c-.64-.45-1-.38-1.41.25l-3.44,4.88-.33.44c-.33-.26-.65-.51-1-.78-1.37-1.16-2.76-2.3-4.1-3.49-.66-.59-1.23-1.29-1.84-1.93-.24-.24-.16-.4.07-.61.46-.42.89-.87,1.33-1.3a33,33,0,0,0,4.08,4,.78.78,0,0,0,1.3-.11l2.07-2.51c.46-.56.41-.86-.11-1.35a38.47,38.47,0,0,1-4.28-4.47c-.65-.85-1.29-1.71-1.94-2.55a.76.76,0,0,0-1.2-.19c-1.34.83-2.68,1.65-4,2.49-.5.31-1,.64-1.53,1a39.69,39.69,0,0,1-4.15-8.74l2.17-.74c.15.47.27.93.45,1.36.39.92.81,1.83,1.21,2.74.17.36.32.74.5,1.09a.85.85,0,0,0,1.36.36c.93-.52,1.88-1,2.83-1.52a.89.89,0,0,0,.41-1.3c-.37-.77-.8-1.51-1.1-2.3C18,62,17.47,60.47,17,58.92a16,16,0,0,1-.37-1.83c-.14-.69-.49-.89-1.2-.76L9.09,57.41a39.69,39.69,0,0,1-.49-9.63l2.27.15v.46c0,1.65,0,3.31,0,5,0,.8.43,1.11,1.22,1,1-.11,2.07-.21,3.11-.3a.83.83,0,0,0,.86-1A29.94,29.94,0,0,1,16.1,47c.1-1,.26-2,.43-2.92.12-.72-.1-1.09-.83-1.24l-6-1.28-.2-.06a35.37,35.37,0,0,1,3.12-9.2l2,1c-.35.76-.72,1.49-1,2.24-.39,1-.74,2.07-1.07,3.12a.76.76,0,0,0,.55,1c1.12.36,2.25.7,3.38,1,.52.15.84-.08,1.05-.64.39-1.07.72-2.17,1.19-3.21a31.35,31.35,0,0,1,2.79-5.12c.42-.62.34-1-.27-1.39l-3.92-2.78c-.45-.31-.91-.6-1.42-.93a43,43,0,0,1,6.42-7.2l1.57,1.63-1.4,1.4c-.46.47-.94.91-1.39,1.39s-.78.86-1.14,1.3a.78.78,0,0,0,.14,1.3l2.51,2.06c.58.47.88.39,1.38-.15.9-1,1.8-1.95,2.78-2.83,1.2-1.06,2.49-2,3.74-3l.55-.46a.72.72,0,0,0,.14-1c-.46-.74-.92-1.49-1.39-2.23l-1.66-2.54c-.17-.27-.29-.58-.46-.9a39.89,39.89,0,0,1,8.69-4.15l.7,2.15-.68.29L33,15.15c-.36.15-.73.28-1.07.46A.84.84,0,0,0,31.6,17c.5.91,1,1.83,1.48,2.75.37.69.78.8,1.5.44a25.47,25.47,0,0,1,2.3-1.1c1.5-.56,3-1.07,4.55-1.55.58-.18,1.2-.23,1.79-.36A.85.85,0,0,0,43.93,16c-.38-2.12-.74-4.24-1.11-6.36,1-.45,7.76-.83,9.6-.55-.05.75-.1,1.5-.15,2.32-.32,0-.64-.06-1-.06-1.43,0-2.86,0-4.29,0-1,0-1.28.4-1.15,1.39s.23,1.89.33,2.84.33,1,1.12.95a32.47,32.47,0,0,1,9.07.52c.73.14,1.08-.09,1.24-.82.42-1.92.83-3.84,1.25-5.76,0-.14.08-.28.11-.41a35.45,35.45,0,0,1,9.18,3.15l-1,2c-.49-.25-1-.51-1.43-.7-1.24-.48-2.5-.94-3.76-1.39a.82.82,0,0,0-1.21.61c-.34,1.08-.67,2.16-1,3.25a.8.8,0,0,0,.53,1,15.28,15.28,0,0,0,1.6.58,19.71,19.71,0,0,1,4.2,1.93c.94.54,1.86,1.1,2.8,1.65A.76.76,0,0,0,70,22l3.52-5c.09-.14.19-.26.32-.45l1.05.85c1.29,1.09,2.6,2.16,3.87,3.28.65.58,1.24,1.24,1.84,1.88.45.48.43.49-.07.92s-.81.74-1.18,1.08c-1-1-1.91-1.94-2.86-2.87a15.84,15.84,0,0,0-1.25-1.08.77.77,0,0,0-1.26.12l-2.1,2.54c-.43.54-.37.86.12,1.33,1,.91,1.94,1.8,2.82,2.79,1,1.18,2,2.46,3,3.7.06.07.1.15.16.22.68.85.78.9,1.72.34,1.44-.87,2.84-1.8,4.25-2.69.33-.21.67-.38,1.06-.6A39.63,39.63,0,0,1,89.14,37L87,37.78c-.15-.45-.26-.88-.43-1.28-.39-1-.82-1.88-1.24-2.82-.16-.37-.31-.74-.5-1.09-.33-.61-.75-.7-1.36-.36-.93.52-1.88,1-2.82,1.52a.88.88,0,0,0-.42,1.3c.39.82.84,1.62,1.16,2.46.55,1.48,1,3,1.51,4.48a16,16,0,0,1,.37,1.83.87.87,0,0,0,1.15.74c2.12-.38,4.24-.74,6.34-1.1C91.15,44.34,91.58,51.3,91.25,53.09Z"/><path class="cls-2" d="M95.39,74.19,95.5,73a123.38,123.38,0,0,1-14.65-2.55A22.22,22.22,0,0,1,79,65.38c0-2.88,0-7.52.66-9.62.75-2.46.52-13-1.88-13.12s-2,.61-4,6.48c-1.39,4.28,2,12.25,4,16.27a20.26,20.26,0,0,0,1.55,4.72c-1.91-.47-3.9-1-5.91-1.63a14.05,14.05,0,0,0-.94-4.22A35.26,35.26,0,0,0,71.2,51.13a38.07,38.07,0,0,0-7.1-13.6S61.74,44,65.28,52.31a82.77,82.77,0,0,0,5.81,11.51,16.31,16.31,0,0,1,1.18,4.29c-2.37-.76-4.76-1.62-7.08-2.61a13,13,0,0,0-.79-3.76,1.84,1.84,0,0,0,.59-.55s2.06-4.3-.6-6.72-5-3.2-6.08-.39.07,4.26.92,6.22a3.66,3.66,0,0,0,4.06,1.86A14.07,14.07,0,0,1,64,65a51.08,51.08,0,0,1-7.83-4.28h0a25.21,25.21,0,0,1-1.84-4.81c-.11-.68-.19-1.42-.25-2.19a.57.57,0,0,0,0-.13h0a52,52,0,0,1,0-6.72,57.85,57.85,0,0,0-1.75-13.74c-.84-2.62-2.59-.81-2.19,10.62.22,6.58,1.82,10.52,3.13,12.68a21.07,21.07,0,0,0,1,2.88A72.15,72.15,0,0,1,44.52,50a16.46,16.46,0,0,0,1.63-4.76,19.19,19.19,0,0,0,.8-9.49c-1.18-8.28-1.77-15.37-3.55-13.6s-.21,20.9,1,25.32a10.48,10.48,0,0,1-.65,1.6c-1.7-2-3.34-4-4.87-6A15,15,0,0,0,40,40a11.82,11.82,0,0,0,.31-8.13c-1.79-6.27-2.92-11.68-4.48-10.14s1.23,15,2.74,19a13,13,0,0,1-.5,1.36c-1.69-2.23-3.25-4.4-4.63-6.4l.1,0c.61-1.93,0-5.24-.11-5.93-.12-3.09-.53-6.88-1.8-8.79-2.37-3.55-2.37-4.14-3.55-3.55s1.18,7.1,2.36,8.28c.6.59,1.34,2.83,1.93,4.9a16.2,16.2,0,0,1,.22,3.82c-3.44-5.05-5.62-8.75-5.77-9a57.09,57.09,0,0,0-1.4-7.11c-1.19-4.14-.6-13.61-3-14.2S20,8.25,21.23,15.35a32.14,32.14,0,0,0,5.91,13v-.07c1,1.54,2.38,3.76,4.14,6.37-2.54-.73-6.44-3.23-8.56-4.82a48.27,48.27,0,0,0-11.24-5.32c-2.37-.6-1.78,1.77,7.1,7.09,7.06,4.24,11.45,3.78,13,3.41,1.66,2.44,3.6,5.18,5.76,8a28,28,0,0,1-3.38-.42,1.45,1.45,0,0,0,0-.35s-.59-4.73-4.14-5.33-5.91,0-5.32,3,2.36,3.55,4.14,4.73a3.72,3.72,0,0,0,4.71-.93,29.26,29.26,0,0,0,4.9.57c1.44,1.85,3,3.72,4.55,5.54a27.39,27.39,0,0,1-3.73.51,36.93,36.93,0,0,1-8.68-3,48.59,48.59,0,0,0-12-3.08c-2.43-.13-1.4,2.08,8.32,5.61,4.77,1.73,8.2,1.91,10.46,1.64.35,0,.71,0,1.09,0a28.06,28.06,0,0,0,5.49-.69c1.1,1.24,2.22,2.45,3.37,3.61a17,17,0,0,1-2.56,1,2,2,0,0,0-.4-.86s-3.9-3.6-7.55-1.75-5.37,3.9-2.73,6,4.67,1.43,7.13,1.26a4,4,0,0,0,3.56-3.43,18.69,18.69,0,0,0,3.43-1.35c1.56,1.54,3.15,3,4.74,4.26a17.62,17.62,0,0,1-2.6,2.08c-4.69-.34-18.19-1.17-22.63,1.3,0,0,9.57,5.67,17.74,2.95,4-1.32,5.64-3,6.23-3.73a20.73,20.73,0,0,0,2.2-1.87c.63.48,1.25.94,1.88,1.36a48.12,48.12,0,0,0,5.3,3.1A19.16,19.16,0,0,1,59,66.27c-2.77,1.08-7.28,2.71-9.63,2.92-2.74.25-12.82,4.27-11.81,6.4s1.59,1.54,8.21,1.06c4.84-.35,10.94-6.24,13.87-9.39a20.11,20.11,0,0,0,2.32-1.94,89.61,89.61,0,0,0,16.5,5.77,10,10,0,0,1-3.34.92v.07a38.42,38.42,0,0,1-8,.43c-2.73-.37-13.45,1.32-12.94,3.62S55.31,78,61.87,79c5.1.78,13-4.22,16.24-6.49a21,21,0,0,0,2.15-1A125.54,125.54,0,0,0,95.39,74.19Z"/></svg>