<svg id="Camada_1" data-name="Camada 1" xmlns="http://www.w3.org/2000/svg" viewBox="0 0 70 70"><defs><style>.cls-1{fill:#1c3c45;}</style></defs><g id="wE9ajU.tif"><path class="cls-1" d="M.28,50.71c0-2.26,0-4.52,0-6.78A11.65,11.65,0,0,1,6.87,33.14a11.74,11.74,0,0,1,12.62.72c.84.56,1.27.62,2-.21A11.4,11.4,0,0,1,30,29.81c2.78-.06,5.55,0,8.33,0A11.77,11.77,0,0,1,48,34.22c.61.74,1,.83,1.78.21A11.51,11.51,0,0,1,62,32.69,11.64,11.64,0,0,1,69.5,43c.43,5.18.12,10.38.16,15.57,0,1.47-.67,2-2.19,2-5.12,0-10.24,0-15.35,0-1.17,0-1.53.37-1.47,1.5.09,1.38,0,2.78,0,4.16S50.18,68,48.94,68H20a1.44,1.44,0,0,1-1.63-1.59c0-1.39,0-2.78,0-4.17,0-1.65,0-1.66-1.61-1.66-4.69,0-9.37,0-14,0-2.05,0-2.43-.38-2.44-2.41ZM34.55,64.84c3.89,0,7.78,0,11.66,0,.81,0,1.25-.18,1.25-1.12,0-7.45,0-14.91-.05-22.36A8.53,8.53,0,0,0,38.86,33c-3,0-6-.05-8.92,0a8.52,8.52,0,0,0-8.34,8.39c0,7.33,0,14.67,0,22,0,1.09.34,1.45,1.43,1.44C26.86,64.81,30.7,64.84,34.55,64.84ZM50.67,48.13c0,3,0,5.55,0,8,0,.92.27,1.26,1.22,1.25q6.67-.06,13.33,0c1,0,1.28-.36,1.27-1.32,0-3.72,0-7.45,0-11.18a11.84,11.84,0,0,0-.7-4.2c-2.37-6.1-10.4-7.84-14.81-3.2-.34.37-.8.71-.66,1.32C51,42.09,50.48,45.4,50.67,48.13ZM10.89,57.4H16.6c1.78,0,1.78,0,1.78-1.71,0-4.52,0-9,0-13.56a11,11,0,0,1,.47-3.86A1,1,0,0,0,18.49,37a8.74,8.74,0,0,0-8.83-1.56,8.37,8.37,0,0,0-5.88,7.13c-.54,4.61-.12,9.26-.23,13.89,0,.76.37.94,1,.93C6.69,57.39,8.79,57.4,10.89,57.4Z"/><path class="cls-1" d="M34.66,9.55a9.62,9.62,0,0,1,9.55,9.65,9.63,9.63,0,0,1-9.64,9.32,9.49,9.49,0,1,1,.09-19Zm-6.35,9.29a6.46,6.46,0,0,0,6.25,6.36A6.57,6.57,0,0,0,41,19a6.34,6.34,0,0,0-12.68-.15Z"/><path class="cls-1" d="M12.56,30a7.46,7.46,0,1,1,7.52-7.42A7.51,7.51,0,0,1,12.56,30Zm4.21-7.19a4.16,4.16,0,0,0-4.14-4.3,4.22,4.22,0,0,0-4.32,4.28,4.29,4.29,0,0,0,4.33,4.17A4,4,0,0,0,16.77,22.79Z"/><path class="cls-1" d="M57.21,30a7.34,7.34,0,0,1-7.39-7.51,7.46,7.46,0,1,1,14.92.18A7.26,7.26,0,0,1,57.21,30Zm4.3-7.22a4,4,0,0,0-4.14-4.25,4.23,4.23,0,1,0,4.14,4.25Z"/></g></svg>