<svg width="24" height="19" viewBox="0 0 24 19" fill="none" xmlns="http://www.w3.org/2000/svg">
<path d="M8.95361 19C7.91577 19 6.84754 18.9187 5.77291 18.7558C3.88016 18.4685 1.96416 17.5108 1.42199 17.2241L0 16.472L1.53954 15.9823C3.22245 15.4471 4.24618 15.115 5.51345 14.595C4.24454 14.0006 3.26658 12.9313 2.79582 11.5491L2.43766 10.4974L2.73136 10.5408C2.45286 10.2693 2.23295 9.9937 2.06248 9.74308C1.45623 8.85237 1.13525 7.76399 1.20354 6.83131L1.27093 5.91332L1.8391 6.12621C1.59941 5.68838 1.4262 5.2208 1.32439 4.73072C1.07629 3.53555 1.28393 2.26581 1.90923 1.15547L2.40416 0.276628L3.06608 1.04566C5.15951 3.47816 7.81104 4.92112 10.958 5.34354C10.8295 4.48648 10.9258 3.65935 11.2446 2.91795C11.6158 2.05469 12.276 1.32267 13.1535 0.800888C14.1279 0.221545 15.3097 -0.0591827 16.481 0.0104236C17.7237 0.0842806 18.852 0.534684 19.7481 1.31381C20.1858 1.20383 20.5082 1.0864 20.944 0.927703C21.2062 0.832238 21.5036 0.723843 21.8756 0.599863L23.2467 0.142906L22.3526 2.61295C22.4116 2.60817 22.4724 2.6041 22.5359 2.60144L24 2.53733L23.1346 3.68131C23.085 3.74684 23.0724 3.76544 23.0548 3.79112C22.9851 3.89279 22.8983 4.01925 21.7105 5.55342C21.4131 5.93758 21.2646 6.43793 21.2923 6.96255C21.3975 8.95615 21.1447 10.7599 20.5402 12.3235C19.9686 13.8027 19.0827 15.0719 17.9076 16.0958C16.4534 17.3626 14.5991 18.2299 12.396 18.6734C11.3153 18.8909 10.1548 19 8.95361 19Z" fill="white"/>
</svg>
