<svg id="Camada_1" data-name="Camada 1" xmlns="http://www.w3.org/2000/svg" viewBox="0 0 70 70"><defs><style>.cls-1{fill:#1c3c45;}</style></defs><g id="_1rOMxX.tif" data-name="1rOMxX.tif"><path class="cls-1" d="M34.88,8H55.36c2.23,0,2.71.48,2.71,2.73,0,4.17,0,8.33,0,12.5a4.74,4.74,0,0,0,.56,2.27c3.06,5.87,6,11.79,9.21,17.6a9.68,9.68,0,0,1,1.17,5c-.06,3.77,0,7.54,0,11.31,0,2.27-.48,2.74-2.7,2.74-1.9,0-3.81,0-5.71,0-.76,0-1.09.25-1.06,1,0,1,0,2,0,3A1.75,1.75,0,0,1,57.93,68c-1,0-1.6-.7-1.64-1.93,0-1,0-1.9,0-2.85s-.26-1.15-1.1-1.13c-1.7,0-3.41,0-5.11,0H15.2c-1.62,0-1.62,0-1.62,1.64,0,.83,0,1.66,0,2.49,0,1.1-.6,1.77-1.52,1.75a1.56,1.56,0,0,1-1.62-1.58,24.49,24.49,0,0,1,0-3.09c0-.94-.33-1.25-1.26-1.23-2.06,0-4.12,0-6.18,0-1.39,0-1.9-.49-1.91-1.85,0-4.91,0-9.83,0-14.75a2.92,2.92,0,0,1,.41-1.35q4.84-9.34,9.7-18.68a5.29,5.29,0,0,0,.65-2.61c0-4.12,0-8.25,0-12.37,0-2,.46-2.5,2.54-2.5ZM35,43.9c9.44,0,18.89,0,28.33,0,1.06,0,1.23-.19.72-1.16C61.48,37.87,58.93,33,56.49,28a2.57,2.57,0,0,0-2.84-1.69c-1,.07-1.64.19-1.62,1.42a1.74,1.74,0,0,1-1.81,1.95c-3.77,0-7.54,0-11.31,0a1.55,1.55,0,0,1-1.68-1.5c-.21-1.82-.23-1.82-2.07-1.82-.35,0-.71,0-1.07,0-.87-.07-1.29.21-1.32,1.19-.05,1.62-.67,2.17-2.32,2.18q-5.18,0-10.36,0c-1.59,0-2.07-.53-2.15-2.16,0-.38.1-.81-.32-1.08-1-.64-3.57.06-4.11,1.13L6,42.62c-.62,1.24-.6,1.27.81,1.27Zm-.07,3.22c-9.76,0-19.52,0-29.29,0-1,0-1.41.25-1.39,1.34.06,3.09,0,6.18,0,9.28,0,.94.34,1.24,1.26,1.22,2.38,0,4.76,0,7.14,0q25.83,0,51.66,0c1,0,1.38-.37,1.36-1.38,0-2.94,0-5.87,0-8.81,0-1.62,0-1.63-1.68-1.63Zm0-35.73c-6.19,0-12.38,0-18.57,0-1,0-1.41.27-1.39,1.34.06,3,0,6,0,8.92,0,1,.26,1.46,1.34,1.4.91-.06,1.75.09,1.67-1.31s.5-1.83,1.66-1.84c3.81,0,7.62,0,11.43,0a1.58,1.58,0,0,1,1.64,1.27c.18.58-.21,1.38.48,1.74a4.78,4.78,0,0,0,2,.13c.28,0,.56,0,.83,0,.83.07,1.22-.2,1.23-1.13,0-1.6.48-2,2.09-2,3.49,0,7,0,10.47,0,1.62,0,2.14.38,2.23,2C52.1,23.24,53,23,53.84,23c1.08.06,1.08-.65,1.08-1.41,0-2.9-.06-5.79,0-8.69,0-1.21-.39-1.56-1.58-1.55C47.22,11.42,41.07,11.39,34.92,11.39ZM25.4,26.52c.63,0,1.26,0,1.9,0,2.53,0,2.26.44,2.31-2.37,0-.87-.37-1.08-1.15-1.07-1.66,0-3.32,0-5,0-2.43,0-2.41,0-2.33,2.39,0,.74.26,1.08,1,1.05C23.26,26.49,24.33,26.52,25.4,26.52Zm19.09,0h2c2.28,0,2.25,0,2.22-2.25,0-.85-.28-1.22-1.17-1.19-1.58,0-3.16,0-4.74,0-2.68,0-2.31-.33-2.37,2.44,0,.69.24,1,1,1C42.44,26.49,43.47,26.52,44.49,26.52Z"/></g></svg>