<svg width="59" height="48" viewBox="0 0 59 48" fill="none" xmlns="http://www.w3.org/2000/svg">
<path d="M56.9992 17.3977L57.0024 17.3172L56.9927 17.2372C56.9632 16.9944 56.9344 16.7252 56.9026 16.4278C56.8948 16.3547 56.8868 16.2798 56.8786 16.2032C56.8774 16.1923 56.8762 16.1813 56.875 16.1703L55.8808 16.2774C55.8439 15.9348 55.8034 15.5709 55.7557 15.1975L56.7476 15.0706C56.7011 14.7076 56.6474 14.3314 56.5829 13.9537L56.5823 13.95C56.4708 13.3116 56.32 12.6878 56.1331 12.0809L55.1774 12.3752C54.9998 11.7984 54.7873 11.2377 54.5431 10.6954L55.4549 10.2847C54.9237 9.10539 54.2525 8.0083 53.4698 7.01202L52.6835 7.6298C52.3122 7.15719 51.9139 6.70849 51.492 6.28602L52.1997 5.57943C51.2918 4.67026 50.2811 3.87464 49.1966 3.21276L48.6757 4.06636C48.1628 3.75336 47.6326 3.47243 47.0885 3.226L47.5011 2.31509C46.3292 1.78424 45.0938 1.40151 43.8259 1.19019L43.6615 2.17658C43.0712 2.0782 42.4742 2.01994 41.8742 2.00429L41.9003 1.00463C41.2613 0.98797 40.6184 1.01609 39.9755 1.09178C39.2906 1.15541 38.6137 1.25885 37.948 1.4005L38.1562 2.3786C37.5187 2.51427 36.8922 2.6871 36.28 2.89551L35.9577 1.94887C34.6479 2.3948 33.3991 2.99454 32.2398 3.73474L32.778 4.57758C32.2311 4.92679 31.7055 5.3091 31.2047 5.72288L30.5678 4.95197C30.0369 5.3906 29.532 5.86265 29.0567 6.36644L29.0446 6.37922L29.033 6.39242C29.0229 6.40386 29.0131 6.41501 29.0036 6.42586C28.9883 6.40946 28.9725 6.39239 28.956 6.37461C28.4365 5.80862 27.8795 5.28522 27.2915 4.80565L26.6594 5.58057C26.1028 5.12657 25.5162 4.71396 24.9056 4.34405L25.4238 3.48879C24.1157 2.69619 22.7061 2.08871 21.2491 1.67673L20.977 2.639C20.2865 2.44375 19.5844 2.29506 18.8773 2.19429L19.0184 1.20429C17.5048 0.988598 15.9658 0.978978 14.4577 1.18942L14.5958 2.17982C13.8863 2.27883 13.185 2.42973 12.4988 2.63394L12.2135 1.67547C11.4799 1.89377 10.7611 2.16926 10.0645 2.50376C9.31776 2.86072 8.60938 3.27232 7.94239 3.73207L8.50992 4.55542C7.87504 4.99304 7.28021 5.47729 6.72832 6.00184L6.0394 5.277C4.8482 6.40918 3.84578 7.71585 3.05668 9.14053L3.93146 9.62505C3.56082 10.2942 3.2401 10.9915 2.97231 11.7104L2.03522 11.3613C1.46989 12.8788 1.12605 14.4867 1.02867 16.1306L2.02692 16.1898C1.98197 16.9486 1.99295 17.7155 2.06263 18.4844L1.06671 18.5747C1.13957 19.3787 1.27267 20.1847 1.46875 20.9865L1.46998 20.9915C1.65204 21.7199 1.87348 22.4255 2.13017 23.1102L3.06654 22.7592C3.31465 23.421 3.59769 24.063 3.91173 24.6875L3.01834 25.1368C3.67915 26.4508 4.46727 27.6834 5.34541 28.8533L6.14518 28.253C6.5644 28.8115 7.00638 29.3573 7.46731 29.8924L6.70961 30.545C7.17791 31.0887 7.66384 31.6203 8.16317 32.1416L8.16447 32.143C8.63612 32.6336 9.11567 33.1151 9.6026 33.5881L10.2993 32.8708C10.7789 33.3365 11.2659 33.794 11.7599 34.2437L11.0868 34.9832C12.0905 35.8967 13.1218 36.7774 14.1767 37.629L14.8048 36.8508C15.3245 37.2703 15.8502 37.6828 16.3815 38.0887L15.7744 38.8833C16.8482 39.7037 17.9437 40.497 19.0569 41.2665L19.6255 40.4439C20.1747 40.8235 20.7285 41.1975 21.2864 41.5663L20.735 42.4005C21.859 43.1434 22.9988 43.8646 24.1506 44.5676L24.6716 43.7141C25.2415 44.0619 25.8147 44.4055 26.3907 44.7451L25.8827 45.6065C26.4604 45.9471 27.0406 46.2837 27.6229 46.6166C27.7813 46.7094 27.9477 46.7857 28.1194 46.8452L28.4466 45.9002C28.5584 45.939 28.6741 45.9667 28.7918 45.9829L28.6551 46.9735C28.8361 46.9985 29.0201 47.006 29.2043 46.9953C29.3883 46.9846 29.57 46.956 29.7466 46.9103L29.4962 45.9421C29.611 45.9124 29.7224 45.8716 29.8287 45.8202L30.2639 46.7205C30.4069 46.6514 30.5443 46.5699 30.6743 46.4765C31.3789 46.0801 32.0783 45.6756 32.7725 45.2631L32.2616 44.4034C32.9674 43.984 33.6676 43.5563 34.3622 43.1203L34.8938 43.9673C36.2988 43.0855 37.6808 42.1703 39.0388 41.2226L38.4665 40.4026C39.1395 39.9328 39.8066 39.455 40.4675 38.9692L41.0598 39.7749C41.7277 39.284 42.3894 38.785 43.0447 38.2781L43.0447 38.2781L43.0519 38.2724C43.6901 37.7693 44.3231 37.2588 44.9479 36.7388L44.3081 35.9702C44.9273 35.4548 45.5372 34.9306 46.135 34.3953L46.8021 35.1402C48.024 34.0459 49.2017 32.9004 50.3091 31.6836L49.5695 31.0105C50.1104 30.4163 50.6331 29.8056 51.1348 29.1759L51.9169 29.799C52.4282 29.1573 52.9192 28.4954 53.3866 27.8107C53.7488 27.308 54.0854 26.7906 54.3957 26.2603L53.5326 25.7553C53.8313 25.2449 54.1041 24.722 54.3506 24.1885L55.2584 24.6079C55.7815 23.4756 56.192 22.2974 56.4841 21.0895L55.5121 20.8545C55.6505 20.2821 55.7608 19.7027 55.8424 19.1183L56.8328 19.2565C56.9186 18.6416 56.9743 18.0213 56.9992 17.3977ZM28.7053 7.54617L29.0001 7.20105L29.3117 7.55785C29.0883 7.75296 28.9438 7.74993 28.7053 7.54617Z" stroke="#1C3C45" stroke-width="2" stroke-miterlimit="16" stroke-dasharray="4 2"/>
</svg>
