<svg id="Camada_1" data-name="Camada 1" xmlns="http://www.w3.org/2000/svg" viewBox="0 0 600 320"><defs><style>.cls-1{fill:#addbd2;}.cls-2{fill:#f4f0e9;}</style></defs><path class="cls-1" d="M163.14,268.61a28.37,28.37,0,0,0-5.53,4.25,57.4,57.4,0,0,0-4.7,5.27c-.78,1-1.52,2-2.21,3s-1.35,2.09-2,3.19c-.32.56-.61,1.09-.86,1.6s-.52,1-.8,1.6c-.12.31-.29.73-.53,1.27a2.16,2.16,0,0,0-.24,1.33.9.9,0,0,0,.77-.15,3.66,3.66,0,0,0,.65-.44,7.93,7.93,0,0,0,1-.65l.85-.71a9.64,9.64,0,0,0,1.72-2l.18-.17a2,2,0,0,1-.36-.71,2,2,0,0,1,.27-1.36,1.37,1.37,0,0,1,1.15-.77c.59,0,1,.16,1.09.59a3,3,0,0,1,.09,1.42,7.48,7.48,0,0,0,1.57-.3,6.57,6.57,0,0,0,1-.35c.24-.12.54-.26.92-.41a6.07,6.07,0,0,1,1.12-.36,2.41,2.41,0,0,1,1.07,0,1.27,1.27,0,0,1,.8.65,2.12,2.12,0,0,1,.05,1.3,6.12,6.12,0,0,1-.32,1.18c-.14.36-.29.73-.44,1.13-.08.23-.19.52-.33.86a1.71,1.71,0,0,0-.15.91,3,3,0,0,0,.65-.29c.28-.16.54-.33.8-.51s.48-.34.68-.5a3,3,0,0,1,.42-.3c.51-.35,1-.72,1.5-1.12l1.51-1.18,2.19-1.83a4.3,4.3,0,0,0,.56-.42l.56-.47a1.56,1.56,0,0,1,.59-.12q.3,0,.42.36a.84.84,0,0,1-.12.71l-.42.71q-.94,1.83-2,3.63c-.71,1.2-1.45,2.38-2.24,3.52-.63,1-1.24,1.89-1.84,2.72a16.69,16.69,0,0,1,2-.12c.66,0,1.32,0,2,.06,1.26.16,2.6.39,4,.71a6.76,6.76,0,0,0,.94.29,8.68,8.68,0,0,1,.95.3.46.46,0,0,1,.38.5.52.52,0,0,1-.38.5,8.4,8.4,0,0,1-2,.57,7.91,7.91,0,0,1-2.22,0,26.38,26.38,0,0,0-5.91-.06l-.92.12a8,8,0,0,0-.91.17c-.95,1.3-1.92,2.58-2.9,3.82s-2,2.49-3,3.75c-.9,1.06-1.82,2.12-2.74,3.16s-1.89,2.06-2.87,3l-2.84,2.69a22.34,22.34,0,0,1-3.07,2.39l-1.54.89a11.7,11.7,0,0,1-1.72.8,10.37,10.37,0,0,1-1.8.47,3.9,3.9,0,0,1-1.74-.09,1.53,1.53,0,0,1-1.3-1.39,4.73,4.73,0,0,1,.17-2,16.71,16.71,0,0,1,1.6-3.4,26.14,26.14,0,0,1,2.19-3,41.83,41.83,0,0,1,5.32-5.8,40.15,40.15,0,0,1,6.59-4.64,30.57,30.57,0,0,1,7.42-3l1.54-.36,1.36-1.83,2.89-4.08-1.36,1.12-1.09.68a6.2,6.2,0,0,1-1.27.62,3.73,3.73,0,0,1-1.3.24,1.45,1.45,0,0,1-1.12-.53,1.72,1.72,0,0,1-.48-1.63,9.5,9.5,0,0,1,.48-1.74,4.76,4.76,0,0,1,.44-1,5.12,5.12,0,0,0,.44-1.16,21,21,0,0,0-2.63.77,6,6,0,0,1-2.63.36,9,9,0,0,1-1.77,2.48,12.05,12.05,0,0,1-2.43,1.89c-.31.16-.66.32-1,.47a4.84,4.84,0,0,1-1.15.33,3,3,0,0,1-1.13,0,1.43,1.43,0,0,1-.88-.65,2.35,2.35,0,0,1-.45-1.51,6.4,6.4,0,0,1,.33-1.77,15.21,15.21,0,0,1,.68-1.78c.25-.57.48-1.05.68-1.44a59.21,59.21,0,0,1,4.14-6.86,44.57,44.57,0,0,1,5.14-6.15l2.3-2.19a10,10,0,0,1,2.61-1.83,7.89,7.89,0,0,1,1.09-.41,2.45,2.45,0,0,1,1.21-.06l.39,0a.93.93,0,0,1,.38.14.59.59,0,0,1,.24.59A.58.58,0,0,1,163.14,268.61Zm-9.87,34.11q.82-1,1.71-2c.59-.69,1.17-1.39,1.72-2.1a29.6,29.6,0,0,0-6,2.6,46.64,46.64,0,0,0-4.7,3.19,36.39,36.39,0,0,0-4.17,3.79q-.95,1.06-1.83,2.16c-.6.72-1.17,1.48-1.72,2.27a16.37,16.37,0,0,0-1.42,2.43,7.7,7.7,0,0,0-.41.82,1.52,1.52,0,0,0-.12,1,1.64,1.64,0,0,0,1,0,6.47,6.47,0,0,0,1.13-.42,6.25,6.25,0,0,0,1.06-.62l.86-.59q1.19-.83,2.31-1.77c.74-.63,1.47-1.28,2.18-2q2.25-2.07,4.29-4.26C150.58,305.81,151.93,304.3,153.27,302.72Z"/><path class="cls-1" d="M180.58,307.57a3.3,3.3,0,0,1-.47-1.66,5.28,5.28,0,0,1,.26-1.62,10.34,10.34,0,0,1,.68-1.57c.28-.51.53-1,.77-1.54.55-1.1,1.11-2.19,1.69-3.28s1.15-2.16,1.74-3.22l-.77.12-1.42.23a4.23,4.23,0,0,1-1.42,0,1.63,1.63,0,0,1-.76-.5c-.24-.26-.16-.48.23-.68a2.76,2.76,0,0,1,1.1-.38c.41-.06.77-.13,1.09-.21l1.6-.35q.76-.18,1.59-.42c1.14-1.89,2.35-3.75,3.61-5.58s2.58-3.68,4-5.53c1.65-2.13,3.36-4.18,5.11-6.15a75.64,75.64,0,0,1,5.65-5.68,71.89,71.89,0,0,1,6.24-5.11,29.41,29.41,0,0,1,7-3.81,29,29,0,0,1,3.58-1.22,6.58,6.58,0,0,1,3.63,0,3.94,3.94,0,0,1,2.34,1.66,4.22,4.22,0,0,1,.56,2.78,9.52,9.52,0,0,1-1.06,3.57c-.6,1.13-1.23,2.2-1.9,3.23s-1.51,2-2.3,2.95-1.62,1.87-2.48,2.78A61.12,61.12,0,0,1,208,286.08a71.25,71.25,0,0,1-14.37,6.47l-4.13,1.12q-1.19,2-2.34,4T185,301.77c-.43.83-.85,1.66-1.27,2.49s-.79,1.65-1.15,2.48a7.47,7.47,0,0,0-.36.86,1.66,1.66,0,0,1-.53.79c-.31.28-.56.26-.74-.05S180.66,307.76,180.58,307.57Zm10.88-17a4.73,4.73,0,0,0-.42.71,74.19,74.19,0,0,0,14.1-6.44,62.88,62.88,0,0,0,12.33-9.52c.95-.91,1.84-1.84,2.69-2.81a37.16,37.16,0,0,0,2.39-3c.36-.52.69-1,1-1.57s.61-1.08.89-1.63l.68-1.65a2.71,2.71,0,0,0,.14-1.78c-.08-.31-.35-.52-.82-.62a4,4,0,0,0-1.19-.08,6.69,6.69,0,0,0-2,.29c-.65.2-1.27.41-1.86.65a20,20,0,0,0-3.61,1.66,37.77,37.77,0,0,0-3.31,2.18,57.82,57.82,0,0,0-11.67,10.76A131.7,131.7,0,0,0,191.46,290.54Z"/><path class="cls-1" d="M225.92,282.09a2.7,2.7,0,0,0-.44.17l-.83.39c-.29.14-.56.27-.8.41a3.43,3.43,0,0,0-.41.27,7.67,7.67,0,0,0-1.48,1.24,11.21,11.21,0,0,0-1.18,1.54,15,15,0,0,0-.83,1.44,8,8,0,0,0-.68,1.9,4.36,4.36,0,0,0,0,1.83,1.77,1.77,0,0,0,1.07,1.27,2.18,2.18,0,0,0,1.77,0,6.49,6.49,0,0,0,2-1.24,16.32,16.32,0,0,0,1.89-2,17,17,0,0,0,1.57-2.25,3.14,3.14,0,0,1-1.63-2.3,3,3,0,0,1,1-2.78,2.13,2.13,0,0,1,1.83-.62,1.89,1.89,0,0,1,1.48,1.09,3.65,3.65,0,0,1,.38,1.54,5.49,5.49,0,0,1-.2,1.65h.17a6,6,0,0,0,1.6-.2c.51-.14,1-.31,1.54-.51a2.67,2.67,0,0,0,.32-.17.79.79,0,0,1,.39-.12c.27-.12.38-.05.32.21a1.13,1.13,0,0,1-.21.5,6.91,6.91,0,0,1-2.21,1.57,6.54,6.54,0,0,1-2.63.56c-.16.31-.32.61-.48.88a7.84,7.84,0,0,1-.47.77,15.09,15.09,0,0,1-2.22,2.81,10,10,0,0,1-2.92,2,5.48,5.48,0,0,1-3.58.32,3.61,3.61,0,0,1-2.57-2.33,5.42,5.42,0,0,1-.38-2.45,9.63,9.63,0,0,1,.5-2.52,10.2,10.2,0,0,1,1.12-2.33,10.07,10.07,0,0,1,1.6-1.92,9.74,9.74,0,0,1,2-1.51,5.09,5.09,0,0,1,2.33-.74,2.13,2.13,0,0,1,.74.12l.68.24a.63.63,0,0,1-.12,1.24Zm1.84,2.83a.9.9,0,0,0,.59.48,7.88,7.88,0,0,0,.44-1.63.7.7,0,0,0-.44-.86.57.57,0,0,0-.48.24,1.49,1.49,0,0,0-.23.59,2.64,2.64,0,0,0,0,.68A1,1,0,0,0,227.76,284.92Z"/><path class="cls-1" d="M237.16,284.39a22.42,22.42,0,0,1-2.72,2c-.16.4-.31.78-.45,1.15s-.26.76-.38,1.16a11,11,0,0,0-.5,1.65,3.45,3.45,0,0,0,0,1.72.78.78,0,0,0,.39.53,1.07,1.07,0,0,0,.56.09,2,2,0,0,0,.62-.18c.22-.1.42-.19.62-.26a13.38,13.38,0,0,0,3.14-2.13l2.77-2.55c.4-.39.79-.76,1.19-1.12l1.18-1.06a1.94,1.94,0,0,0,.38-.3,2.74,2.74,0,0,1,.51-.35.6.6,0,0,1,.38-.09c.1,0,.13.17.09.44a3.15,3.15,0,0,1-.5,1c-.26.35-.49.65-.68.88a23.56,23.56,0,0,1-2.31,2.66,29.14,29.14,0,0,1-2.69,2.49,12.38,12.38,0,0,1-3.16,1.89,7.43,7.43,0,0,1-1.54.44,2.06,2.06,0,0,1-1.54-.32,2.47,2.47,0,0,1-1-1.21,4.59,4.59,0,0,1-.27-1.57,10.29,10.29,0,0,1,.62-3.79,33.93,33.93,0,0,1,1.51-3.54c.55-1.26,1.14-2.48,1.77-3.64s1.3-2.31,2-3.46q2.07-3.48,4.44-6.8a52.21,52.21,0,0,1,5.2-6.2c.36-.32.76-.7,1.21-1.16a8.81,8.81,0,0,1,1.48-1.18,6.42,6.42,0,0,1,1.63-.74,2.1,2.1,0,0,1,1.59.18,1.53,1.53,0,0,1,.77.71,3,3,0,0,1,.3,1,5.62,5.62,0,0,1,0,1.16,3.34,3.34,0,0,1-.24,1,12.72,12.72,0,0,1-2.07,3.58c-.91,1.12-1.77,2.22-2.6,3.28s-1.91,2.27-2.9,3.37-2,2.21-3,3.31-1.9,2-2.87,3S238.18,283.49,237.16,284.39Zm4.37-9.93q-1.54,2.19-3,4.46a43.93,43.93,0,0,0-2.75,4.76c1-1.18,2.06-2.35,3.1-3.52s2.08-2.35,3.1-3.57c.91-1.07,1.83-2.13,2.75-3.19s1.83-2.17,2.69-3.31c.44-.56.86-1.11,1.27-1.66s.82-1.12,1.22-1.71c.27-.4.58-.85.91-1.36a3.32,3.32,0,0,0,.56-1.6,5.66,5.66,0,0,0-1,.65c-.34.28-.6.51-.8.71a12.57,12.57,0,0,0-1.51,1.39c-.45.49-.91,1-1.39,1.57-.9,1-1.79,2.06-2.66,3.13S242.32,273.36,241.53,274.46Z"/><path class="cls-1" d="M249.51,281.67q-.82,1.18-1.71,2.34c-.59.77-1.17,1.55-1.72,2.33-.31.52-.64,1-1,1.54s-.66,1-1,1.6l-.47.79a3.34,3.34,0,0,0-.36.8c-.08.2-.17.43-.29.68a3.3,3.3,0,0,0-.24.68c.16,0,.47-.11.92-.44l1.48-1.12c.53-.42,1-.81,1.44-1.19s.69-.6.77-.68l2.37-2.24a20.47,20.47,0,0,1,2.54-2.07.35.35,0,0,1,.53,0,.38.38,0,0,1,0,.41c-.08.12-.16.24-.23.36-.32.43-.65.87-1,1.33s-.7.91-1.09,1.39c-.75.9-1.56,1.82-2.43,2.75a19.36,19.36,0,0,1-2.78,2.45,8.25,8.25,0,0,1-1,.59,4.68,4.68,0,0,1-1.18.44,2.67,2.67,0,0,1-1.19,0,1.57,1.57,0,0,1-1-.71,2.09,2.09,0,0,1-.42-1.45,6.45,6.45,0,0,1,.36-1.65,11.31,11.31,0,0,1,.71-1.63c.27-.51.51-1,.71-1.36a37.84,37.84,0,0,1,3.9-6,2.62,2.62,0,0,1,2.19-.94,2.15,2.15,0,0,1,.44.06,3.81,3.81,0,0,1,.47.14.55.55,0,0,1,.3.3C249.72,281.31,249.67,281.48,249.51,281.67Zm.18-3.37a1.52,1.52,0,0,1,.38-1.36,6.17,6.17,0,0,1,1-1.06,2,2,0,0,1,1.48-.47c.55,0,.9.39,1.06,1.06a1.3,1.3,0,0,1-.36,1.42,13.54,13.54,0,0,1-1.24,1,2.11,2.11,0,0,1-1.36.36C250.22,279.21,249.89,278.89,249.69,278.3Z"/><path class="cls-1" d="M261.33,281.79a4.2,4.2,0,0,0-1.77.27,9.58,9.58,0,0,0-1.71.82,10.43,10.43,0,0,0-1.57,1.16c-.49.43-.94.85-1.33,1.24a23.37,23.37,0,0,0-1.57,1.86,18.3,18.3,0,0,0-1.33,2,7.25,7.25,0,0,0-1,2.25,2.19,2.19,0,0,0-.12.56c0,.29,0,.46.06.5a1.86,1.86,0,0,0,1.27-.23,12.19,12.19,0,0,0,1.09-.71,11.27,11.27,0,0,0,1.54-1.19c.47-.43.93-.86,1.36-1.3l.77-.77c.31-.67.66-1.32,1-2s.76-1.24,1.16-1.83a5.88,5.88,0,0,1,.91-1.15,2,2,0,0,1,1.27-.62c.63,0,.89.33.77,1a6.26,6.26,0,0,1-.8,1.54l-1.09,1.54-.65,1.47c-.2.48-.39.94-.56,1.39a7,7,0,0,0-.39,1.39,2.19,2.19,0,0,0-.06,1.13,1.2,1.2,0,0,0,.71-.12,3.47,3.47,0,0,0,.8-.48,6.06,6.06,0,0,0,.71-.62c.22-.21.39-.38.5-.5a18.41,18.41,0,0,0,1.54-1.33c.47-.45.95-.92,1.42-1.39s.84-.79,1.21-1.18a14.32,14.32,0,0,1,1.21-1.12l.45-.33a2.93,2.93,0,0,1,.56-.35.75.75,0,0,1,.53-.09c.16,0,.26.18.3.41a1.75,1.75,0,0,1-.51,1.18c-.37.48-.64.83-.79,1.07l-2.49,2.89c-.35.4-.75.82-1.18,1.28s-.89.88-1.36,1.3a9.14,9.14,0,0,1-1.51,1.06,4.6,4.6,0,0,1-1.62.56,2.1,2.1,0,0,1-2.25-.68,3.09,3.09,0,0,1-.65-2.27,15.23,15.23,0,0,1-1.89,1.59c-.28.2-.57.41-.89.62a6.15,6.15,0,0,1-1,.57,3.89,3.89,0,0,1-1.1.29,2.07,2.07,0,0,1-1.09-.18,2.16,2.16,0,0,1-1.3-1.12,3.55,3.55,0,0,1-.33-1.66,6.47,6.47,0,0,1,.33-1.8,9.42,9.42,0,0,1,.65-1.57,14.56,14.56,0,0,1,2.6-3.72,13.18,13.18,0,0,1,3.61-2.66,10.72,10.72,0,0,1,2.13-1,6.59,6.59,0,0,1,2.3-.29,5.77,5.77,0,0,0,.62.09,2.16,2.16,0,0,1,.62.15.48.48,0,0,1,.39.56C261.82,281.7,261.65,281.83,261.33,281.79Z"/><path class="cls-1" d="M264.88,287.82a23,23,0,0,1,1.63-2.13q.86-1,1.86-2c.35-.31.73-.62,1.12-.91a6.07,6.07,0,0,1,1.24-.74,3.62,3.62,0,0,1,1.07-.09,1,1,0,0,1,.88.5,2,2,0,0,1-.08,2c-.38.65-.74,1.25-1.1,1.8s-.61,1-.89,1.45-.57.92-.88,1.39l-.12.21a2,2,0,0,0-.12.21l.71-.65c.59-.56,1.17-1.09,1.74-1.6l1.75-1.54c.55-.51,1.12-1,1.71-1.51s1.19-.95,1.78-1.38,1-.77,1.59-1.13a5.08,5.08,0,0,1,1.78-.71,1.39,1.39,0,0,1,.76,0,1.35,1.35,0,0,1,.71.39,1.5,1.5,0,0,1,.57,1.39,6.16,6.16,0,0,1-.33,1.5c-.28.71-.58,1.4-.92,2.07s-.66,1.34-1,2c-.12.32-.26.65-.41,1a10.11,10.11,0,0,0-.42,1l-.41.95a3.13,3.13,0,0,0,.88-.38c.28-.18.54-.33.77-.45l1.3-.94,1.3-1q1-.82,2-1.71c.69-.6,1.41-1.17,2.16-1.72l.24-.2a1.82,1.82,0,0,1,.35-.24.51.51,0,0,1,.33-.06c.1,0,.14.13.14.32a.74.74,0,0,1-.26.51,2.19,2.19,0,0,0-.38.44q-1.78,2.19-3.61,4.14l-1.45,1.42A13.08,13.08,0,0,1,281,293a5,5,0,0,1-2.1.83,1.91,1.91,0,0,1-1.83-.8,2,2,0,0,1-.45-1.15,4.27,4.27,0,0,1,.15-1.3,7.22,7.22,0,0,1,.48-1.3c.19-.41.37-.78.53-1.09.39-.79.83-1.59,1.33-2.4a11.81,11.81,0,0,0,1.15-2.51.24.24,0,0,0-.15,0,.12.12,0,0,1-.09,0c-.31.16-.6.31-.85.47s-.53.34-.8.53l-2.19,1.6c-.35.28-.69.54-1,.8a12.12,12.12,0,0,0-.95.85c-.83.68-1.62,1.39-2.39,2.16s-1.57,1.51-2.4,2.22l-.62.47a4.05,4.05,0,0,1-.77.48,2,2,0,0,1-.8.17.85.85,0,0,1-.7-.41,1.11,1.11,0,0,1-.27-.95,4.44,4.44,0,0,1,.35-1.09,9.83,9.83,0,0,1,.62-1.09l.6-.89,1.77-2.84c.2-.31.41-.64.65-1a11.27,11.27,0,0,0,.65-1,.17.17,0,0,1-.12.06.05.05,0,0,0-.06.06,2.87,2.87,0,0,0-.56.32l-.56.45a20.38,20.38,0,0,0-2.07,1.71l-.92.83a7.46,7.46,0,0,1-1,.77s0,.09-.12.15l-.18.14a.32.32,0,0,1-.41-.06A.32.32,0,0,1,264.88,287.82Z"/><path class="cls-1" d="M298.69,282.32a1.08,1.08,0,0,0-.7-.15c-.32,0-.58.05-.77.09a5.48,5.48,0,0,0-2.07.54,14.84,14.84,0,0,0-2.07,1.12,11,11,0,0,0-1.83,1.48c-.6.55-1.16,1.12-1.69,1.71s-1,1.2-1.51,1.83c-.31.48-.67,1.05-1.06,1.72a3.07,3.07,0,0,0-.47,1.95,2.23,2.23,0,0,0,1.39-.3l1.33-.65c.59-.31,1.15-.63,1.68-.94s1.07-.63,1.63-1a27.89,27.89,0,0,0,2.6-1.89,12.69,12.69,0,0,1,1.18-2.36A3.62,3.62,0,0,1,298.1,284a1.73,1.73,0,0,1,1.9.56,1.87,1.87,0,0,1,.35.92,1.72,1.72,0,0,1-.24,1.06,11.87,11.87,0,0,1-1.62,1.86,25,25,0,0,1-1.92,1.63.93.93,0,0,0-.12.41c0,.2-.1.48-.18.83a7,7,0,0,0-.12,2.22.86.86,0,0,0,.36.68v.06a2.72,2.72,0,0,0,1.33,0,5.28,5.28,0,0,0,1.33-.57,8,8,0,0,0,1.21-.88,11.11,11.11,0,0,0,1-1,9.93,9.93,0,0,0,2-2.95,5,5,0,0,0,.47-1.54,2.84,2.84,0,0,0,0-.74,1.67,1.67,0,0,1,.09-.74c.19-.27.45-.27.77,0s.53.47.65.59A3.6,3.6,0,0,1,306,288a4,4,0,0,1-.06,1.77,7.46,7.46,0,0,1-1.6,3.11,12.2,12.2,0,0,1-2.66,2.33,10.55,10.55,0,0,1-2.9,1.27,4.62,4.62,0,0,1-3.13-.2,2.39,2.39,0,0,1-1.6-1.9,8.28,8.28,0,0,1,0-2.72,29.93,29.93,0,0,1-3.37,1.95l-1.21.54c-.45.19-.91.37-1.36.53a4.39,4.39,0,0,1-1.39.26,2.8,2.8,0,0,1-1.36-.26,1.93,1.93,0,0,1-.94-.83,2.6,2.6,0,0,1-.33-1.18,5.07,5.07,0,0,1,.12-1.33,11.47,11.47,0,0,1,.33-1.21,14.38,14.38,0,0,1,2.77-4.94,15.2,15.2,0,0,1,4.44-3.58,16.61,16.61,0,0,1,2.78-1,6.7,6.7,0,0,1,2.89-.15l.56.12a3.71,3.71,0,0,1,.57.18.72.72,0,0,0,.26.14q.21.09.21,0a.72.72,0,0,1,.47.39.7.7,0,0,1,0,.53,1,1,0,0,1-.29.44A.56.56,0,0,1,298.69,282.32ZM286.4,292.55s.06,0,.06,0,0,0,.06,0l-.06-.06Z"/><path class="cls-1" d="M325.71,282.09a11.8,11.8,0,0,0-2.75,1.68,20.46,20.46,0,0,0-2.33,2.22,21.87,21.87,0,0,0-2.37,3.25,4.55,4.55,0,0,0-.38.62c-.14.26-.28.53-.42.83a6.48,6.48,0,0,0-.32.86,1.68,1.68,0,0,0-.06.76,2.62,2.62,0,0,0,1.36-.26l1.3-.62c.59-.36,1.17-.74,1.74-1.16s1.14-.83,1.69-1.27l1-.77a26.05,26.05,0,0,1,2.72-7,54.57,54.57,0,0,1,4.08-6.27c.75-1,1.54-2,2.37-3a21.18,21.18,0,0,1,2.72-2.72,5,5,0,0,1,1.09-.8,5.48,5.48,0,0,1,1.39-.56,2.41,2.41,0,0,1,1.36,0,1.67,1.67,0,0,1,1,1,1.85,1.85,0,0,1,.15,1.25,11.51,11.51,0,0,1-.38,1.18,10.79,10.79,0,0,1-.74,1.77c-.3.55-.62,1.11-1,1.66a35.71,35.71,0,0,1-2.3,3.28c-.83,1-1.7,2.08-2.6,3.1q-1.85,2.07-3.76,4.08t-4,3.84a7.56,7.56,0,0,0-.32,1.93,3.51,3.51,0,0,0,.38,1.74c.12.31.41.38.89.21a8.73,8.73,0,0,0,1.53-.8,14.24,14.24,0,0,0,1.54-1.13c.47-.39.77-.65.89-.76.9-.79,1.77-1.6,2.6-2.43s1.69-1.63,2.6-2.42l.33-.27a2.6,2.6,0,0,1,.5-.32.61.61,0,0,1,.38-.09c.1,0,.13.17.09.44a.8.8,0,0,1-.21.5,3.8,3.8,0,0,0-.32.51,4.76,4.76,0,0,0-.53.74,7.54,7.54,0,0,1-.53.73,41,41,0,0,1-5,5.15c-.36.31-.77.66-1.24,1a8.3,8.3,0,0,1-1.51.95,4.36,4.36,0,0,1-1.63.44,2.23,2.23,0,0,1-1.53-.47,2.94,2.94,0,0,1-1.13-1.6,7.55,7.55,0,0,1-.29-2.07l-1.54,1.13-1.33.91a10.45,10.45,0,0,1-1.57.89,5.78,5.78,0,0,1-1.68.5,2.94,2.94,0,0,1-1.63-.23,1.55,1.55,0,0,1-.91-.8,2.72,2.72,0,0,1-.27-1.18,6,6,0,0,1,.15-1.3c.1-.46.21-.86.32-1.22a14.6,14.6,0,0,1,2.19-3.87,18.79,18.79,0,0,1,3.14-3.16,13.57,13.57,0,0,1,1.59-1.15,4.28,4.28,0,0,1,1.89-.68h.65a1.67,1.67,0,0,1,.65.11,1.18,1.18,0,0,1,.54.54C326.12,281.73,326,281.93,325.71,282.09ZM330.5,280c-.51.79-1,1.59-1.42,2.42s-.87,1.68-1.3,2.54l1.83-1.77c1-1,1.94-2,2.87-3.07s1.8-2.09,2.63-3.2c.43-.55.85-1.1,1.24-1.65l1.18-1.66,1.07-1.89a5.43,5.43,0,0,0,.29-.74,1,1,0,0,0,.06-.74,2.54,2.54,0,0,0-1,.59c-.36.32-.63.58-.83.77a10.37,10.37,0,0,0-1.21,1.18l-1.15,1.31c-.79.94-1.53,1.91-2.22,2.89S331.17,279,330.5,280Z"/><path class="cls-1" d="M338.07,290l-.62.24-.63.23c0,.2.08.39.12.56a1,1,0,0,0,.3.51,2,2,0,0,0,1.06.88,4.5,4.5,0,0,0,1.36.27,4.91,4.91,0,0,0,1.42-.15,6.23,6.23,0,0,0,1.3-.47,9.44,9.44,0,0,0,3-1.92,7.4,7.4,0,0,0,2-3,2.6,2.6,0,0,0,.15-.56.82.82,0,0,1,.14-.44.52.52,0,0,1,.54-.33.64.64,0,0,1,.53.39,2,2,0,0,1,.35.91,4,4,0,0,1,0,1,4.08,4.08,0,0,1-.47,1.65,6.25,6.25,0,0,1-1,1.42,7,7,0,0,1-1.39,1.15c-.51.34-1,.65-1.47.92a12.39,12.39,0,0,1-3.37,1.21,6.22,6.22,0,0,1-3.55-.26,4.65,4.65,0,0,1-2.33-2.13,5,5,0,0,1-.57-3.13,6.93,6.93,0,0,1,1.22-3.23,15.07,15.07,0,0,1,2.33-2.69l1.3-1a8,8,0,0,1,1.63-1,6.5,6.5,0,0,1,1.74-.5,2.24,2.24,0,0,1,1.6.36,2,2,0,0,1,1.06,1.62,3.82,3.82,0,0,1-.53,1.86,9.12,9.12,0,0,1-1.36,1.81,17.07,17.07,0,0,1-1.42,1.33,19.56,19.56,0,0,1-2.1,1.39A20.59,20.59,0,0,1,338.07,290Zm.71-3.9a15.24,15.24,0,0,0-1,1.39,6.77,6.77,0,0,0-.8,1.56,17.1,17.1,0,0,0,3.9-2.6,17.42,17.42,0,0,0,1.33-1.21,6.75,6.75,0,0,0,1.1-1.45,1.94,1.94,0,0,0,.23-.59c.08-.27.1-.43.06-.47h-.06s-.12.05-.26,0a.57.57,0,0,0-.33,0,4.57,4.57,0,0,0-1.53.77,6.13,6.13,0,0,0-1.39,1.15C339.57,285.11,339.17,285.57,338.78,286.05Z"/><path class="cls-1" d="M361.89,307.57a3.3,3.3,0,0,1-.47-1.66,5.28,5.28,0,0,1,.26-1.62,10.34,10.34,0,0,1,.68-1.57c.28-.51.53-1,.77-1.54.55-1.1,1.11-2.19,1.69-3.28s1.15-2.16,1.74-3.22l-.77.12-1.42.23a4.23,4.23,0,0,1-1.42,0,1.71,1.71,0,0,1-.77-.5c-.23-.26-.15-.48.24-.68a2.76,2.76,0,0,1,1.1-.38c.41-.06.77-.13,1.09-.21l1.59-.35c.52-.12,1.05-.26,1.6-.42,1.14-1.89,2.35-3.75,3.61-5.58s2.58-3.68,4-5.53c1.65-2.13,3.36-4.18,5.11-6.15a75.64,75.64,0,0,1,5.65-5.68,73.28,73.28,0,0,1,6.23-5.11,29.67,29.67,0,0,1,7-3.81,29,29,0,0,1,3.58-1.22,6.58,6.58,0,0,1,3.63,0,4,4,0,0,1,2.34,1.66,4.22,4.22,0,0,1,.56,2.78,9.52,9.52,0,0,1-1.06,3.57c-.6,1.13-1.23,2.2-1.9,3.23s-1.51,2-2.3,2.95-1.62,1.87-2.48,2.78a61.12,61.12,0,0,1-12.42,9.67A71.25,71.25,0,0,1,375,292.55l-4.13,1.12q-1.19,2-2.34,4t-2.16,4.08c-.43.83-.85,1.66-1.27,2.49s-.8,1.65-1.15,2.48a7.47,7.47,0,0,0-.36.86,1.66,1.66,0,0,1-.53.79c-.31.28-.56.26-.74-.05S362,307.76,361.89,307.57Zm10.88-17a4.73,4.73,0,0,0-.42.71,74.19,74.19,0,0,0,14.1-6.44,63.18,63.18,0,0,0,12.33-9.52c1-.91,1.84-1.84,2.69-2.81a37.16,37.16,0,0,0,2.39-3c.36-.52.69-1,1-1.57s.61-1.08.88-1.63.43-1,.68-1.65a2.65,2.65,0,0,0,.15-1.78c-.08-.31-.35-.52-.83-.62a3.88,3.88,0,0,0-1.18-.08,6.69,6.69,0,0,0-2,.29c-.65.2-1.27.41-1.86.65a20,20,0,0,0-3.61,1.66,37.77,37.77,0,0,0-3.31,2.18,57.82,57.82,0,0,0-11.67,10.76A130.07,130.07,0,0,0,372.77,290.54Z"/><path class="cls-1" d="M409.6,281.79a4.27,4.27,0,0,0-1.78.27,9.58,9.58,0,0,0-1.71.82,11,11,0,0,0-1.57,1.16c-.49.43-.93.85-1.33,1.24a23.26,23.26,0,0,0-1.56,1.86,15.85,15.85,0,0,0-1.33,2,7.26,7.26,0,0,0-1,2.25,2.19,2.19,0,0,0-.12.56c0,.29,0,.46.06.5a1.85,1.85,0,0,0,1.27-.23,12.44,12.44,0,0,0,1.1-.71,11.18,11.18,0,0,0,1.53-1.19c.48-.43.93-.86,1.36-1.3l.77-.77c.32-.67.66-1.32,1-2s.75-1.24,1.15-1.83a6,6,0,0,1,.92-1.15,2,2,0,0,1,1.27-.62c.63,0,.88.33.77,1a6.62,6.62,0,0,1-.8,1.54l-1.1,1.54-.65,1.47c-.2.48-.38.94-.56,1.39a7,7,0,0,0-.38,1.39,2.19,2.19,0,0,0-.06,1.13,1.22,1.22,0,0,0,.71-.12,4,4,0,0,0,.8-.48,6,6,0,0,0,.7-.62l.51-.5a18.25,18.25,0,0,0,1.53-1.33c.48-.45.95-.92,1.42-1.39s.84-.79,1.22-1.18a11.8,11.8,0,0,1,1.21-1.12l.44-.33a3.27,3.27,0,0,1,.56-.35.76.76,0,0,1,.53-.09c.16,0,.26.18.3.41a1.73,1.73,0,0,1-.5,1.18c-.38.48-.64.83-.8,1.07L413,290.24c-.36.4-.75.82-1.19,1.28s-.88.88-1.36,1.3a9.06,9.06,0,0,1-1.5,1.06,4.72,4.72,0,0,1-1.63.56,2.12,2.12,0,0,1-2.25-.68,3.09,3.09,0,0,1-.65-2.27,15.23,15.23,0,0,1-1.89,1.59l-.88.62a6.25,6.25,0,0,1-1,.57,3.83,3.83,0,0,1-1.09.29,2.1,2.1,0,0,1-1.1-.18,2.19,2.19,0,0,1-1.3-1.12,3.68,3.68,0,0,1-.32-1.66,6.83,6.83,0,0,1,.32-1.8,10.35,10.35,0,0,1,.65-1.57,14.56,14.56,0,0,1,2.6-3.72,13.33,13.33,0,0,1,3.61-2.66,10.72,10.72,0,0,1,2.13-1,6.62,6.62,0,0,1,2.3-.29,6.17,6.17,0,0,0,.62.09,2.23,2.23,0,0,1,.63.15.48.48,0,0,1,.38.56C410.08,281.7,409.91,281.83,409.6,281.79Z"/><path class="cls-1" d="M420.89,281.32a8.63,8.63,0,0,1-.59,1.42,14.79,14.79,0,0,1-.83,1.3l-1,1.51c-.33.49-.66,1-1,1.5s-.6,1-.86,1.51a12.38,12.38,0,0,0-.68,1.57c-.12.31-.23.62-.35.91a7.07,7.07,0,0,0-.3.92,2,2,0,0,0-.12.44,1.08,1.08,0,0,0,0,.51,4.14,4.14,0,0,0,1.57-.3,6.93,6.93,0,0,0,1.45-.8,12.81,12.81,0,0,0,1.36-1.12c.43-.42.85-.8,1.24-1.15a49.32,49.32,0,0,0,5.44-6.09,12.87,12.87,0,0,0,.89-1.3A4.76,4.76,0,0,1,428,281a1.14,1.14,0,0,1,.71-.2,1.2,1.2,0,0,1,.62.23,1.3,1.3,0,0,1,.41.56,1,1,0,0,1,0,.77,2.08,2.08,0,0,1-.45.8c-.21.26-.42.52-.62.8l-1.06,1.71c-.36.59-.69,1.21-1,1.84a18.71,18.71,0,0,0-.83,1.95c0,.12-.1.31-.2.59a8.56,8.56,0,0,0-.27.89,3.47,3.47,0,0,0-.12.85q0,.39.24.45l1-.21a2.38,2.38,0,0,0,.91-.44,19.93,19.93,0,0,0,3.11-2.34c1-.89,1.94-1.74,2.92-2.57l1.48-1a11,11,0,0,1,1.54-.91c.27,0,.41,0,.41.18a1.27,1.27,0,0,1-.21.59,3.82,3.82,0,0,1-.5.68,3.8,3.8,0,0,0-.41.5,36.18,36.18,0,0,1-5.32,5.56,19.64,19.64,0,0,1-2.13,1.41,5.71,5.71,0,0,1-2.37.77,2.17,2.17,0,0,1-1.92-.68,3,3,0,0,1-.8-2,3.7,3.7,0,0,1,0-.94,7.94,7.94,0,0,1,.18-.95l-1.95,1.89c-.75.67-1.55,1.34-2.39,2a8.66,8.66,0,0,1-2.75,1.48,3.07,3.07,0,0,1-2.28-.15,2.5,2.5,0,0,1-1.33-1.86,6.91,6.91,0,0,1,.27-2.9,17,17,0,0,1,1.09-2.77,21.55,21.55,0,0,1,3.31-5.38,8.71,8.71,0,0,1,1-.95,3.68,3.68,0,0,1,1.21-.65,2.64,2.64,0,0,1,1-.06C420.87,280.53,421,280.81,420.89,281.32Z"/><path class="cls-1" d="M439.45,284.39a21.67,21.67,0,0,1-2.72,2c-.16.4-.3.78-.44,1.15s-.27.76-.39,1.16a14,14,0,0,0-.5,1.65,3.34,3.34,0,0,0,0,1.72.78.78,0,0,0,.39.53,1.06,1.06,0,0,0,.56.09,2,2,0,0,0,.62-.18,6.33,6.33,0,0,1,.62-.26,13.32,13.32,0,0,0,3.13-2.13l2.78-2.55c.39-.39.79-.76,1.18-1.12l1.18-1.06a2.24,2.24,0,0,0,.39-.3,2.7,2.7,0,0,1,.5-.35.64.64,0,0,1,.39-.09c.09,0,.12.17.08.44a2.79,2.79,0,0,1-.5,1c-.26.35-.48.65-.68.88a24.53,24.53,0,0,1-2.3,2.66,30.49,30.49,0,0,1-2.69,2.49,12.44,12.44,0,0,1-3.17,1.89,7.16,7.16,0,0,1-1.53.44,2,2,0,0,1-1.54-.32,2.49,2.49,0,0,1-1-1.21,4.83,4.83,0,0,1-.26-1.57,10.29,10.29,0,0,1,.62-3.79,30.13,30.13,0,0,1,1.51-3.54c.55-1.26,1.14-2.48,1.77-3.64s1.3-2.31,2-3.46q2.07-3.48,4.43-6.8a52.29,52.29,0,0,1,5.21-6.2c.35-.32.75-.7,1.21-1.16a8.43,8.43,0,0,1,1.48-1.18,6.52,6.52,0,0,1,1.62-.74,2.13,2.13,0,0,1,1.6.18,1.57,1.57,0,0,1,.77.71,3.22,3.22,0,0,1,.29,1,5.62,5.62,0,0,1,0,1.16,3.69,3.69,0,0,1-.23,1,13.22,13.22,0,0,1-2.07,3.58c-.91,1.12-1.78,2.22-2.6,3.28s-1.92,2.27-2.9,3.37-2,2.21-3,3.31-1.9,2-2.86,3S440.48,283.49,439.45,284.39Zm4.38-9.93c-1,1.46-2,3-3.05,4.46a47.5,47.5,0,0,0-2.75,4.76c1-1.18,2.06-2.35,3.11-3.52s2.07-2.35,3.1-3.57c.91-1.07,1.82-2.13,2.75-3.19s1.82-2.17,2.69-3.31c.43-.56.86-1.11,1.27-1.66s.82-1.12,1.21-1.71c.28-.4.58-.85.92-1.36a3.43,3.43,0,0,0,.56-1.6,5.72,5.72,0,0,0-1,.65c-.33.28-.6.51-.79.71a11.85,11.85,0,0,0-1.51,1.39c-.46.49-.92,1-1.39,1.57-.91,1-1.79,2.06-2.66,3.13S444.61,273.36,443.83,274.46Z"/><path class="cls-1" d="M457.48,282.32a1.11,1.11,0,0,0-.71-.15c-.31,0-.57.05-.77.09a5.48,5.48,0,0,0-2.07.54,14.84,14.84,0,0,0-2.07,1.12A11,11,0,0,0,450,285.4q-.88.83-1.68,1.71c-.53.59-1,1.2-1.51,1.83-.32.48-.67,1.05-1.06,1.72a3,3,0,0,0-.48,1.95,2.2,2.2,0,0,0,1.39-.3l1.33-.65c.59-.31,1.16-.63,1.69-.94l1.62-1a25.47,25.47,0,0,0,2.6-1.89,12.73,12.73,0,0,1,1.19-2.36,3.62,3.62,0,0,1,1.77-1.54,1.69,1.69,0,0,1,1.09,0,1.67,1.67,0,0,1,.8.56,1.79,1.79,0,0,1,.36.92,1.72,1.72,0,0,1-.24,1.06,11.44,11.44,0,0,1-1.63,1.86,25,25,0,0,1-1.92,1.63.93.93,0,0,0-.12.41c0,.2-.09.48-.17.83a7,7,0,0,0-.12,2.22.88.88,0,0,0,.35.68v.06a2.72,2.72,0,0,0,1.33,0,5,5,0,0,0,1.33-.57,7.56,7.56,0,0,0,1.22-.88,11.11,11.11,0,0,0,1-1,9.72,9.72,0,0,0,1.95-2.95,4.83,4.83,0,0,0,.48-1.54,4.12,4.12,0,0,0,0-.74,1.55,1.55,0,0,1,.08-.74c.2-.27.46-.27.77,0s.53.47.65.59a3.5,3.5,0,0,1,.71,1.6,3.75,3.75,0,0,1-.06,1.77,7.44,7.44,0,0,1-1.59,3.11,12.2,12.2,0,0,1-2.66,2.33,10.68,10.68,0,0,1-2.9,1.27,4.62,4.62,0,0,1-3.13-.2,2.39,2.39,0,0,1-1.6-1.9,7.77,7.77,0,0,1,0-2.72,30.85,30.85,0,0,1-3.37,1.95l-1.21.54c-.45.19-.91.37-1.36.53a4.44,4.44,0,0,1-1.39.26,2.78,2.78,0,0,1-1.36-.26,2,2,0,0,1-.95-.83,2.73,2.73,0,0,1-.32-1.18,5.07,5.07,0,0,1,.12-1.33,11.6,11.6,0,0,1,.32-1.21,14.41,14.41,0,0,1,2.78-4.94,15.29,15.29,0,0,1,4.43-3.58,17.28,17.28,0,0,1,2.78-1,6.75,6.75,0,0,1,2.9-.15l.56.12a3.3,3.3,0,0,1,.56.18.79.79,0,0,0,.27.14q.21.09.21,0a.75.75,0,0,1,.47.39.7.7,0,0,1,0,.53.92.92,0,0,1-.3.44A.54.54,0,0,1,457.48,282.32Zm-12.3,10.23s.06,0,.06,0,0,0,.06,0l-.06-.06Z"/><path class="cls-2" d="M37.65,185.12,24.09,214.05l-.66,1.39-.56-1.4L10.68,185.12H7.59L1,225.69H5.66l4.56-29.83v-.06l.06.14,11.43,27.74h.66l0,.55.18-.55h2L37.47,196l.22-.51,0,.19,4.32,30h4.83l-6.15-40.57Z"/><path class="cls-2" d="M69.2,204.94c-.24.42-.46.8-.64,1.14l-.61-1.2L56.49,185.35H51l15.22,25.91v14.43H70.8V211.38l15.22-26H80.66Z"/><path class="cls-2" d="M122.32,220a28.51,28.51,0,0,1-10.91,1.81A16.53,16.53,0,0,1,95.25,205.4a16.82,16.82,0,0,1,4.22-11.58,13.13,13.13,0,0,1,10.29-4.66A42.12,42.12,0,0,1,122.18,191l.93.28,1.3-4.11-.93-.3a43.12,43.12,0,0,0-13.37-2.12,18.55,18.55,0,0,0-14.23,6,21,21,0,0,0-5.49,14.76,19.63,19.63,0,0,0,6.31,14.82,20.66,20.66,0,0,0,14.57,5.94c5.4,0,9.71-.87,12.8-2.61l.8-.44-1.67-3.58Z"/><path class="cls-2" d="M151,184.76a19.44,19.44,0,0,0-14.49,6,21.51,21.51,0,0,0,0,29.45,20.41,20.41,0,0,0,29,0,21.51,21.51,0,0,0,0-29.45A19.42,19.42,0,0,0,151,184.76Zm0,37.07a14.47,14.47,0,0,1-11.11-4.69,17.49,17.49,0,0,1,0-23.27,15.41,15.41,0,0,1,22.18,0,17.57,17.57,0,0,1,0,23.28A14.39,14.39,0,0,1,151,221.83Z"/><path class="cls-2" d="M214.34,214.12c0,1,0,1.81,0,2.55q-.89-1.11-1.89-2.25L187,185.12h-2.73v40.57h4.69V197.1c0-1,0-1.92,0-2.68l1.42,1.73,26,29.78H219V185.35h-4.69Z"/><rect class="cls-2" x="234.2" y="185.35" width="4.69" height="40.34"/><path class="cls-2" d="M265.28,185.12l-16.9,40.57h4.91l5.5-13.3H274.5l5.56,13.3h5.15l-17-40.57Zm7.46,23H260.56l5.34-12.83c.23-.58.48-1.22.74-1.93.23.58.5,1.25.81,2Z"/><path class="cls-2" d="M324.76,214.12c0,1,0,1.81,0,2.55-.59-.74-1.23-1.5-1.89-2.25l-25.48-29.3h-2.73v40.57h4.69V197.1c0-1,0-1.92,0-2.68l1.42,1.73,25.95,29.78h2.74V185.35h-4.69Z"/><polygon class="cls-2" points="376.51 185.35 371.82 185.35 371.82 225.69 394.12 225.69 394.12 221.24 376.51 221.24 376.51 185.35"/><path class="cls-2" d="M430.57,208.15c0,9.25-3.95,13.74-12.08,13.74s-12.08-4.49-12.08-13.74v-22.8h-4.69v22.8c0,5.58,1.39,10,4.14,13.24s7,4.89,12.63,4.89,9.84-1.64,12.63-4.89h0c2.75-3.21,4.14-7.66,4.14-13.24v-22.8h-4.69Z"/><polygon class="cls-2" points="475.8 185.35 470.49 185.35 460.34 201.1 450.65 185.35 445 185.35 457.26 204.83 443.48 225.69 448.86 225.69 459.78 208.92 470.24 225.69 475.83 225.69 462.86 205.15 475.8 185.35"/><path class="cls-2" d="M513.74,208.15c0,9.25-3.95,13.74-12.08,13.74s-12.08-4.49-12.08-13.74v-22.8h-4.69v22.8c0,5.58,1.39,10,4.14,13.24s7,4.89,12.63,4.89,9.85-1.64,12.63-4.89h0c2.75-3.21,4.14-7.66,4.14-13.24v-22.8h-4.69Z"/><path class="cls-2" d="M558.3,218.67c-1-1.14-3.74-4.61-8-10.33a20.34,20.34,0,0,0,4-4.42,12.26,12.26,0,0,0,2.19-7,10.58,10.58,0,0,0-3.93-8.78,15,15,0,0,0-9.59-3c-2.38,0-5.31.14-8.71.41l-.91.08v40.08H538V210c2.59.14,5.24.22,7.91.23,4.51,6.24,7.37,10,8.74,11.45a14,14,0,0,0,4.43,3.34,15.22,15.22,0,0,0,5.76,1.06h1l.12-3.7-.9-.11A11.27,11.27,0,0,1,558.3,218.67Zm-20.32-29c1.73-.11,3.27-.17,4.57-.17a10.65,10.65,0,0,1,6.62,1.93,6.38,6.38,0,0,1,2.39,5.42,9.55,9.55,0,0,1-2.42,6.51c-1.57,1.82-3,2.73-4.22,2.73-2.16,0-4.49-.07-6.94-.23Z"/><path class="cls-2" d="M593.64,185.35l-11.46,19.59-.64,1.14-.61-1.2-11.46-19.53h-5.54l15.22,25.91v14.43h4.63V211.38l15.22-26Z"/><path class="cls-1" d="M370.62,68.14a29.24,29.24,0,0,0-.7-3.57c-.23-.91-.83-1.36-1.53-1.21-2.74.57-5.47,1.16-8.21,1.75l-2.66.59a61.31,61.31,0,0,0-4.56-13l3.15-1.57c.48,1,1,2,1.43,3,.69,1.72,1.29,3.48,1.92,5.23.41,1.13,1,1.43,2.09,1.11l5.29-1.49A1.52,1.52,0,0,0,368,56.91c-.58-1.74-1.14-3.49-1.83-5.18a51.3,51.3,0,0,0-2.44-5.33c-1.46-2.64-3.07-5.2-4.63-7.79a1.3,1.3,0,0,0-1.88-.39c-.66.43-1.31.88-1.95,1.33l-5.93,4.22c-.38.26-.8.47-1.23.72A58.84,58.84,0,0,0,339,34.25c.8-.91,1.53-1.76,2.28-2.63a19,19,0,0,1,1.5,1.26c1.66,1.74,3.29,3.51,4.92,5.28a1.45,1.45,0,0,0,2.1.19c1.46-1.19,2.91-2.38,4.35-3.59,1-.84,1.07-1.46.24-2.46s-1.6-1.8-2.41-2.71c-.52-.59-1-1.23-1.58-1.77-1.28-1.19-2.59-2.36-3.93-3.49-1.66-1.37-3.35-2.7-5-4-.58-.46-1.17-.92-1.79-1.33a1.52,1.52,0,0,0-2.38.51c-1.16,1.79-2.3,3.58-3.45,5.37l-2.36,3.69a55.81,55.81,0,0,0-12.48-6c.4-1.11.8-2.19,1.2-3.3,1.4.49,2.73.89,4,1.43,1.43.62,2.81,1.37,4.21,2.06,1.06.52,1.63.35,2.21-.68q1.31-2.37,2.6-4.76c.67-1.22.49-1.87-.76-2.53a29.28,29.28,0,0,0-3.12-1.56c-3.43-1.31-6.86-2.62-10.33-3.77a41,41,0,0,0-5.3-1.16c-1-.2-1.77.2-1.9.94-.36,2-.7,4.06-1,6.09-.26,1.59-.49,3.18-.74,4.84a59.72,59.72,0,0,0-13.86-.8c-.07-1.18-.15-2.3-.22-3.45a4.66,4.66,0,0,1,.56,0c2.75.05,5.51.09,8.26.17,1.19,0,1.77-.42,1.9-1.58q.3-2.85.63-5.7a1.23,1.23,0,0,0-.77-1.38,4.11,4.11,0,0,0-1.29-.3,63.18,63.18,0,0,0-11.83.09c-2.56.28-5.11.64-7.65,1-1.18.19-1.55.9-1.3,2,.72,3.27,1.45,6.53,2.17,9.8,0,.21.06.42.09.59a63.93,63.93,0,0,0-12.91,4.64l-1.61-3.21c1.48-.64,2.89-1.3,4.33-1.88s2.89-1,4.31-1.62a1.27,1.27,0,0,0,.78-1.76c-.52-1.83-1-3.67-1.58-5.5A1.51,1.51,0,0,0,278,10.15c-2.25.83-4.5,1.68-6.73,2.57-.87.35-1.7.8-2.54,1.23-1.82.93-3.67,1.84-5.45,2.84-1.23.68-2.39,1.5-3.57,2.27a1.42,1.42,0,0,0-.38,2c.49.74,1,1.46,1.51,2.18l4.29,6a1.48,1.48,0,0,1,.33.58.76.76,0,0,1-.17.61c-1,.85-2.12,1.62-3.13,2.49-1.73,1.5-3.42,3-5.11,4.6-.57.54-1.06,1.16-1.63,1.78L252.72,37c.55-.63,1-1.25,1.56-1.77,1.65-1.58,3.33-3.13,5-4.69a1.28,1.28,0,0,0,.15-2.07c-1.22-1.49-2.46-3-3.7-4.44-.72-.85-1.3-.93-2.17-.25s-1.61,1.39-2.4,2.09a26.93,26.93,0,0,0-2.1,1.89c-1.2,1.28-2.37,2.59-3.49,3.93-1.36,1.63-2.67,3.31-4,5a23.6,23.6,0,0,0-1.42,1.91,1.73,1.73,0,0,0,0,2.25c1,.67,2,1.33,3,2,1.44.91,2.9,1.8,4.35,2.7.71.44,1.43.86,2.17,1.31a56.14,56.14,0,0,0-6,12.55l-3.33-1.2c.53-1.46,1-2.87,1.55-4.23s1.32-2.72,2-4.08a1.34,1.34,0,0,0-.65-2q-2.47-1.36-5-2.7c-1.16-.61-1.76-.37-2.4.78a63.19,63.19,0,0,0-4.69,11.48c-.75,2.36-1.22,4.8-1.75,7.22A1.55,1.55,0,0,0,231,66.65c2.33.35,4.67.69,7,1.06,1.11.18,2.22.42,3.38.64a60.8,60.8,0,0,0-.77,13.4l-3.45.19c0-.24,0-.36,0-.48q.06-3.94.15-7.89c0-1.2-.38-1.74-1.58-1.88-1.83-.21-3.65-.41-5.48-.6a1.49,1.49,0,0,0-1.85,1.51,20,20,0,0,0-.17,2.67c.08,3.67.12,7.35.35,11a46.34,46.34,0,0,0,.91,5.94c.21,1.11.87,1.43,2,1.2l7.13-1.5c1.12-.24,2.24-.52,3.3-.77a62.71,62.71,0,0,0,4.58,13l-3.14,1.57c-.41-.83-.88-1.65-1.22-2.52-.75-1.89-1.44-3.8-2.14-5.7-.42-1.17-1-1.47-2.14-1.14l-5.22,1.47a1.55,1.55,0,0,0-1.18,2.27c.86,2.32,1.72,4.64,2.65,6.93a37.14,37.14,0,0,0,2.06,4.43c1.28,2.26,2.69,4.45,4,6.66a1.36,1.36,0,0,0,2.14.45l3.23-2.24c.42-.3.81-.65,1.23-1,.75-.53,1.51-1,2.27-1.54l2.2-1.49a58.87,58.87,0,0,0,9.14,10.29l-2.42,2.79c-2.13-2.27-4.17-4.43-6.19-6.6a1.47,1.47,0,0,0-2.26-.23c-1.46,1.18-2.89,2.39-4.34,3.59-.89.73-1,1.34-.29,2.22,1.32,1.59,2.67,3.18,4.12,4.66,1.24,1.26,2.62,2.4,4,3.54,1.61,1.35,3.27,2.64,4.92,3.95.62.49,1.24,1,1.9,1.42a1.51,1.51,0,0,0,2.28-.5c.52-.78,1.07-1.55,1.57-2.34.87-1.36,1.7-2.74,2.55-4.1.56-.89,1.14-1.78,1.73-2.69a56.37,56.37,0,0,0,12.46,6c-.38,1.09-.77,2.15-1.18,3.31-1.42-.51-2.77-.92-4.06-1.48-1.48-.63-2.89-1.41-4.35-2.1a1.26,1.26,0,0,0-1.89.56q-1.51,2.69-3,5.4a1,1,0,0,0,.29,1.52,22.91,22.91,0,0,0,3.55,2q5.75,2.22,11.59,4.19a31.13,31.13,0,0,0,4.29.9c1.07.19,1.8-.21,1.94-1,.38-2.3.75-4.6,1.13-6.9.22-1.31.44-2.62.67-4a59.35,59.35,0,0,0,13.82.8c.07,1.17.14,2.3.22,3.47-.36,0-.63,0-.9,0l-8.11-.19a1.51,1.51,0,0,0-1.69,1.49l-.63,5.7a1.34,1.34,0,0,0,.92,1.57,3.91,3.91,0,0,0,1,.19,62.34,62.34,0,0,0,11.83-.07c2.6-.27,5.2-.65,7.79-1.07,1.15-.19,1.52-.9,1.27-2l-2.19-9.94c0-.17-.06-.33-.08-.47a63.54,63.54,0,0,0,12.91-4.64l1.61,3.19c-1.45.65-2.83,1.32-4.25,1.89s-2.89,1-4.32,1.58a1.32,1.32,0,0,0-.85,1.8c.52,1.83,1,3.67,1.57,5.5a1.52,1.52,0,0,0,2.17,1.12c2.47-.94,4.94-1.89,7.4-2.87a17.62,17.62,0,0,0,1.79-.9c1.84-.95,3.71-1.85,5.52-2.86,1.21-.68,2.34-1.49,3.5-2.25a1.4,1.4,0,0,0,.4-2c-.6-.88-1.2-1.75-1.81-2.62-1.23-1.71-2.47-3.41-3.69-5.11a5.32,5.32,0,0,1-.63-1,.69.69,0,0,1,.16-.61c1-.84,2.12-1.61,3.13-2.49,1.73-1.5,3.43-3.05,5.11-4.61.58-.53,1.07-1.15,1.63-1.77l2.66,2.29c-.59.66-1.1,1.3-1.69,1.86-1.62,1.56-3.29,3.09-4.92,4.65a1.24,1.24,0,0,0-.14,2q1.85,2.27,3.74,4.5c.73.85,1.33.91,2.24.19s1.54-1.3,2.28-2c1.41-1.34,2.89-2.63,4.18-4.09,1.76-2,3.37-4.08,5-6.14.65-.81,1.27-1.65,1.85-2.51a1.64,1.64,0,0,0-.54-2.57c-2.39-1.54-4.77-3.1-7.17-4.63-.58-.37-1.2-.66-1.85-1a55.58,55.58,0,0,0,6-12.58l3.35,1.2c-.57,1.54-1.07,3-1.68,4.45s-1.26,2.59-1.87,3.89a1.32,1.32,0,0,0,.61,2c1.69.93,3.41,1.8,5.08,2.78a1.48,1.48,0,0,0,2.26-.73,24,24,0,0,0,1.56-3.13c1.31-3.42,2.62-6.85,3.77-10.33a42.06,42.06,0,0,0,1.17-5.37c.24-1.32-.22-1.9-1.5-2.1-1.84-.28-3.69-.53-5.53-.83-1.6-.26-3.2-.57-4.74-.84.23-2.3.52-4.5.65-6.7s.09-4.44.13-6.73l3.34-.19a6.79,6.79,0,0,1,.06.71q-.07,3.87-.18,7.74c0,1,.42,1.66,1.29,1.77,2,.22,3.9.44,5.85.64A1.47,1.47,0,0,0,371,84.41c0-.22,0-.44.06-.67A80.56,80.56,0,0,0,370.62,68.14Zm-2.08,14.72-3.85-.25c0-.59.1-1.15.1-1.71,0-2.48,0-5,0-7.44a1.55,1.55,0,0,0-1.92-1.61q-2.7.29-5.4.54c-.94.09-1.36.66-1.33,1.71.07,2.25.25,4.52.12,6.76-.16,2.69-.55,5.37-.92,8-.19,1.37.11,1.93,1.46,2.22l9.89,2.11c.1,0,.19.06.33.1-.82,5.41-3,10.32-5.14,15.36l-3.46-1.78c.53-1.18,1.09-2.28,1.53-3.43.68-1.75,1.3-3.53,1.89-5.32a1.37,1.37,0,0,0-1-1.92c-1.8-.57-3.6-1.11-5.42-1.62-.95-.27-1.49.07-1.84,1-.62,1.7-1.16,3.42-1.87,5.08s-1.48,3.08-2.3,4.58-1.75,3-2.63,4.48a1.26,1.26,0,0,0,.4,1.92c1,.72,2,1.39,3.05,2.11,1.21.86,2.39,1.76,3.61,2.62.78.56,1.59,1.07,2.44,1.64a72.8,72.8,0,0,1-10.75,12l-2.48-2.66c2.21-2.37,4.38-4.64,6.49-7,.71-.78.58-1.43-.24-2.1-1.39-1.15-2.78-2.3-4.18-3.43-1-.79-1.47-.67-2.31.22-1.61,1.71-3.21,3.45-5,5-1.92,1.71-4,3.23-6,4.83a3.6,3.6,0,0,0-.93.84,1.78,1.78,0,0,0-.23,1.22,5.87,5.87,0,0,0,.78,1.59c1.2,1.88,2.43,3.75,3.64,5.62l1.61,2.48a67.24,67.24,0,0,1-14.56,7L321,140.07c.7-.23,1.37-.39,2-.66,1.59-.68,3.17-1.41,4.75-2.12.58-.26,1.19-.49,1.76-.78,1.11-.57,1.28-1.25.68-2.34-.84-1.54-1.65-3.1-2.49-4.64a1.51,1.51,0,0,0-2.24-.72c-1.29.63-2.55,1.36-3.89,1.87-2.57,1-5.18,1.83-7.79,2.66-1,.31-2,.38-3,.61a1.37,1.37,0,0,0-1.13,1.83c.6,3.42,1.18,6.84,1.77,10.26,0,.14,0,.28,0,.42-2.12.71-13.77,1.4-16,.8.08-1.22.16-2.44.24-3.75h.8c2.83,0,5.66,0,8.48-.06,1.16,0,1.59-.68,1.46-1.85-.2-1.82-.42-3.65-.64-5.47-.11-.94-.51-1.28-1.49-1.25-1.54.06-3.07.19-4.61.2a54.47,54.47,0,0,1-10.58-1,3.23,3.23,0,0,0-1.63.14,1.36,1.36,0,0,0-.62.91c-.53,2.38-1,4.76-1.52,7.14-.24,1.13-.52,2.26-.81,3.48a38.69,38.69,0,0,1-3.95-.91c-2.52-.83-5-1.78-7.48-2.71-1.13-.43-2.24-.94-3.36-1.4-.36-.14-.52-.33-.31-.73.52-1,1-2,1.56-3,.66.33,1.25.68,1.89.93,2.27.88,4.54,1.74,6.81,2.56a1.36,1.36,0,0,0,1.93-1c.6-1.84,1.16-3.69,1.71-5.55.23-.77-.23-1.42-1.11-1.74-1.75-.63-3.54-1.17-5.22-1.94a51.13,51.13,0,0,1-8.59-4.7c-1.07-.75-1.62-.63-2.36.41l-5.73,8.13c-.15.23-.32.44-.55.74-.55-.44-1.09-.86-1.61-1.3-2.29-1.93-4.6-3.83-6.83-5.82-1.11-1-2.05-2.14-3.08-3.21-.4-.41-.27-.67.12-1,.77-.69,1.49-1.44,2.22-2.16a55.27,55.27,0,0,0,6.8,6.73,1.29,1.29,0,0,0,2.15-.19l3.46-4.17c.77-1,.69-1.44-.18-2.27a65.11,65.11,0,0,1-7.14-7.43c-1.08-1.41-2.14-2.85-3.23-4.25a1.27,1.27,0,0,0-2-.33l-6.68,4.16c-.83.52-1.64,1.07-2.55,1.66a66.89,66.89,0,0,1-6.92-14.56L238,99.51c.26.79.46,1.56.76,2.28.64,1.53,1.34,3,2,4.56.27.61.52,1.23.83,1.81.54,1,1.25,1.17,2.26.61,1.55-.87,3.14-1.69,4.71-2.53a1.48,1.48,0,0,0,.69-2.18c-.61-1.27-1.34-2.5-1.83-3.82-.94-2.53-1.79-5.09-2.61-7.66a28.55,28.55,0,0,1-.61-3.06c-.24-1.15-.82-1.48-2-1.27-3.51.62-7,1.2-10.52,1.8-.71-1.88-1.39-13.37-.82-16l3.77.24V75c0,2.75-.06,5.51,0,8.26,0,1.33.72,1.85,2,1.71,1.72-.19,3.45-.36,5.18-.52a1.37,1.37,0,0,0,1.43-1.67,50.88,50.88,0,0,1,.12-10.1c.16-1.63.43-3.25.71-4.86.21-1.21-.16-1.82-1.37-2.08l-10-2.12-.34-.11c.2-2.89,3.38-12.28,5.2-15.31L241,50c-.58,1.26-1.21,2.47-1.69,3.73-.65,1.71-1.23,3.45-1.77,5.2a1.25,1.25,0,0,0,.91,1.69c1.87.6,3.74,1.17,5.63,1.69.87.24,1.41-.14,1.74-1.06.65-1.79,1.2-3.63,2-5.36a53.48,53.48,0,0,1,4.65-8.54c.71-1,.58-1.58-.43-2.3-2.18-1.54-4.35-3.1-6.54-4.64-.75-.52-1.52-1-2.37-1.56a73,73,0,0,1,10.7-12l2.61,2.71L254,31.88c-.77.77-1.56,1.52-2.31,2.31s-1.3,1.43-1.91,2.17-.61,1.46.24,2.16c1.4,1.15,2.78,2.3,4.19,3.44,1,.77,1.46.64,2.3-.26,1.5-1.62,3-3.25,4.63-4.7,2-1.77,4.15-3.37,6.23-5,.31-.25.62-.5.91-.76a1.2,1.2,0,0,0,.24-1.67c-.77-1.24-1.54-2.49-2.32-3.72-.91-1.41-1.86-2.81-2.76-4.24a16.09,16.09,0,0,1-.77-1.5,67.52,67.52,0,0,1,14.47-6.91c.39,1.19.78,2.36,1.18,3.59l-1.14.48-5.67,2.41c-.59.25-1.21.46-1.77.76a1.42,1.42,0,0,0-.63,2.25c.84,1.52,1.64,3.05,2.47,4.57.62,1.16,1.3,1.34,2.5.73A40.55,40.55,0,0,1,278,26.13c2.5-.93,5-1.78,7.59-2.59,1-.3,2-.38,3-.6a1.42,1.42,0,0,0,1.18-1.87c-.63-3.54-1.23-7.08-1.85-10.61,1.66-.74,12.92-1.38,16-.91-.08,1.24-.16,2.49-.25,3.87-.53,0-1.07-.1-1.6-.1-2.38,0-4.77,0-7.15,0-1.66,0-2.12.68-1.9,2.33s.37,3.15.53,4.73c.15,1.34.56,1.69,1.87,1.58a54.31,54.31,0,0,1,15.11.86c1.22.24,1.82-.14,2.08-1.36q1-4.8,2.08-9.59c.05-.24.12-.47.18-.69,2.85.2,12.55,3.52,15.29,5.25-.56,1.11-1.14,2.24-1.74,3.41-.83-.41-1.58-.85-2.38-1.16q-3.12-1.2-6.27-2.31a1.37,1.37,0,0,0-2,1q-.87,2.7-1.66,5.41a1.33,1.33,0,0,0,.89,1.72c.88.34,1.75.71,2.65,1a32,32,0,0,1,7,3.22c1.57.89,3.1,1.83,4.66,2.75a1.26,1.26,0,0,0,1.91-.45c2-2.77,3.91-5.54,5.87-8.31.15-.22.32-.44.54-.74.61.49,1.19.94,1.75,1.41,2.15,1.82,4.34,3.6,6.45,5.47,1.09,1,2.06,2.06,3.06,3.12.76.81.72.83-.11,1.54s-1.36,1.24-2,1.8c-1.64-1.65-3.19-3.23-4.77-4.78-.65-.64-1.36-1.23-2.07-1.81a1.29,1.29,0,0,0-2.11.21c-1.17,1.41-2.34,2.82-3.49,4.24-.73.89-.63,1.42.2,2.2,1.59,1.52,3.23,3,4.69,4.65,1.75,2,3.32,4.11,5,6.17.1.12.17.25.26.36,1.14,1.42,1.31,1.51,2.87.57,2.39-1.45,4.72-3,7.09-4.48.54-.35,1.11-.64,1.76-1A67.36,67.36,0,0,1,365,56.12l-3.62,1.24c-.24-.75-.42-1.47-.7-2.15-.66-1.57-1.38-3.13-2.07-4.69-.27-.61-.53-1.23-.84-1.82-.54-1-1.25-1.16-2.26-.6-1.55.87-3.14,1.68-4.71,2.53a1.47,1.47,0,0,0-.69,2.17c.65,1.37,1.4,2.7,1.93,4.11.92,2.45,1.74,5,2.52,7.45.31,1,.41,2,.62,3.06a1.42,1.42,0,0,0,1.9,1.22q5.31-.93,10.58-1.82C368.37,68.28,369.1,79.88,368.54,82.86Z"/><path class="cls-2" d="M375.43,118l.19-2a209,209,0,0,1-24.41-4.25,37.3,37.3,0,0,1-3-8.47c-.05-4.79.05-12.52,1.11-16,1.25-4.09.86-21.6-3.13-21.86s-3.39,1-6.58,10.8c-2.32,7.13,3.36,20.42,6.61,27.1a34.37,34.37,0,0,0,2.58,7.88c-3.18-.79-6.49-1.69-9.85-2.71a23.13,23.13,0,0,0-1.56-7,58.7,58.7,0,0,0-2.22-21.88,63.3,63.3,0,0,0-11.82-22.66s-3.94,10.83,2,24.63A135.31,135.31,0,0,0,335,100.74a28,28,0,0,1,2,7.14c-3.95-1.26-7.93-2.7-11.8-4.34a21.57,21.57,0,0,0-1.31-6.27,3.06,3.06,0,0,0,1-.92s3.44-7.16-1-11.19-8.28-5.33-10.12-.66.11,7.11,1.53,10.37c1.17,2.69,4.32,3.55,6.77,3.09a23.2,23.2,0,0,1,1.14,4.7,84.76,84.76,0,0,1-13-7.14h0a41.15,41.15,0,0,1-3.07-8c-.18-1.14-.31-2.38-.41-3.65,0-.07,0-.15,0-.23h0a87.63,87.63,0,0,1-.05-11.2c.35-5.38-1.52-18.53-2.91-22.89S299.3,48.18,300,67.22c.38,11,3,17.54,5.23,21.14a36.41,36.41,0,0,0,1.63,4.8,121.69,121.69,0,0,1-16.13-15.45,27.09,27.09,0,0,0,2.71-7.94A31.88,31.88,0,0,0,294.73,54c-2-13.79-3-25.62-5.91-22.66-2.76,2.76-.36,34.82,1.58,42.19a18.12,18.12,0,0,1-1.09,2.65c-2.83-3.26-5.55-6.61-8.11-9.93A25.81,25.81,0,0,0,283.07,61c1.19-2.71,2.3-7.31.52-13.55-3-10.44-4.87-19.46-7.48-16.89-2.34,2.31,2.06,25,4.57,31.65a21.88,21.88,0,0,1-.82,2.27c-2.82-3.71-5.42-7.33-7.73-10.66l.18,0c1-3.23,0-8.73-.19-9.88-.19-5.15-.88-11.47-3-14.65-3.94-5.91-3.94-6.9-5.91-5.91s2,11.82,3.94,13.79c1,1,2.23,4.71,3.22,8.17a27.88,27.88,0,0,1,.36,6.36c-5.73-8.41-9.36-14.58-9.61-15a94.48,94.48,0,0,0-2.34-11.85c-2-6.89-1-22.66-4.93-23.64s-3.94,6.89-2,18.72,9.85,21.67,9.85,21.67v-.12c1.6,2.57,4,6.27,6.9,10.62-4.24-1.22-10.74-5.38-14.28-8-3.94-3-14.77-7.88-18.72-8.87s-3,3,11.83,11.82c11.77,7.07,19.09,6.29,21.58,5.68,2.76,4.06,6,8.64,9.6,13.34a43.1,43.1,0,0,1-5.63-.7,3,3,0,0,0,.07-.58s-1-7.88-6.9-8.87-9.85,0-8.87,4.93,3.94,5.91,6.9,7.88c2.67,1.78,6.14.44,7.84-1.56a48,48,0,0,0,8.18,1c2.4,3.08,4.93,6.2,7.57,9.23a46.84,46.84,0,0,1-6.22.84c-4.41-.69-10.8-3.25-14.46-5-4.43-2.15-16-4.91-20.07-5.13s-2.34,3.47,13.86,9.35c7.94,2.89,13.66,3.18,17.42,2.72a17.88,17.88,0,0,0,1.83.1,47.16,47.16,0,0,0,9.13-1.15q2.76,3.11,5.62,6a30.43,30.43,0,0,1-4.26,1.7,3.29,3.29,0,0,0-.66-1.44s-6.51-6-12.58-2.93-9,6.5-4.56,10,7.79,2.38,11.88,2.09a6.73,6.73,0,0,0,5.93-5.7,31.62,31.62,0,0,0,5.72-2.26c2.6,2.56,5.25,5,7.91,7.09a28.38,28.38,0,0,1-4.34,3.47c-7.81-.57-30.31-1.95-37.71,2.16,0,0,15.95,9.47,29.56,4.93,6.62-2.21,9.39-5,10.37-6.22a33.22,33.22,0,0,0,3.68-3.11c1,.8,2.09,1.56,3.13,2.26a78.56,78.56,0,0,0,8.83,5.16,30.11,30.11,0,0,1-3.05,2.51c-4.62,1.79-12.14,4.51-16,4.86-4.57.41-21.36,7.12-19.67,10.67s2.64,2.56,13.67,1.76c8.06-.58,18.23-10.4,23.11-15.64a33.79,33.79,0,0,0,3.87-3.23,149.25,149.25,0,0,0,27.49,9.6,16.33,16.33,0,0,1-5.58,1.54v.12c-4.65.6-10.29,1.13-13.38.71-4.55-.61-22.41,2.2-21.56,6s2,3.09,12.94,4.76c8.49,1.3,21.63-7,27.06-10.82a38.82,38.82,0,0,0,3.57-1.59A210.33,210.33,0,0,0,375.43,118Z"/></svg>