<svg id="Camada_1" data-name="Camada 1" xmlns="http://www.w3.org/2000/svg" viewBox="0 0 975 555"><defs><style>.cls-1{fill:#1c3c45;}</style></defs><title>map</title><path class="cls-1" d="M949.21,163.92c-1.15-.3-3.31-.31-4.84,3a8.71,8.71,0,0,1-4.13,4,30.1,30.1,0,0,1-5.78,2.28,45,45,0,0,0-4.34,1.53,1.47,1.47,0,0,0-.87,1.17c0,.21-.07.42-.11.63a4.36,4.36,0,0,0,0,2.36c1,3-.44,5.32-2.14,8-.22.33-.43.66-.64,1-.1.16-.18.27-.24.35a1.83,1.83,0,0,1-.21-.2c-1.41-1.46-2.65-1.54-3.45-1.35s-1.9.74-2.56,2.86c-.6,1.91-1.8,2.81-4.14,3.11a1.49,1.49,0,0,0-1.09.74l-.19.35a2.71,2.71,0,0,0-2-.63,1.45,1.45,0,0,0-1.31,1.87c.55,1.77.76,2.23,1.79,3.09a5.5,5.5,0,0,1-.71,2.33c-.38.32-2.11.18-3,.1a3.61,3.61,0,0,0-3.39,1.19,3.21,3.21,0,0,0-.32,3.17c1.3,3.7,1.14,7.48,1,11.47-.05,1.24-.11,2.52-.11,3.79a4.67,4.67,0,0,0,4.79,5.05c2.8.08,4,1.39,4.41,4.67.09.74.14,1.49.2,2.24a30,30,0,0,0,.54,4.46c.41,1.81,1,4.54,3.45,6.23a1.34,1.34,0,0,0,.5.23,7.39,7.39,0,0,0,8.3-3.16c.11-.15.21-.28.3-.38l.09.3a.94.94,0,0,0,.07.22l.72,1.73a2.1,2.1,0,0,0,.15.3,1.45,1.45,0,0,0,1,.65l.26.46c.48.83,1.12,2,2.45,2s2.26-1.07,2.85-1.93c.44-.63,1.09-1.39,1.69-1.45s1.21.34,2.08,1.15a11,11,0,0,0,1.91,1.45c.12.08.24.18.37.28a3.5,3.5,0,0,0,2.13.93,2.5,2.5,0,0,0,1.52-.55,3.21,3.21,0,0,0,1-3.38,4,4,0,0,1-.07-.48c-.24-3.29-1.77-5.93-3.25-8.49-.26-.44-.51-.88-.76-1.33-1.85-3.32-2.06-5.68-.71-8.11.48-.88,1.78-3.21.48-5.42-1-1.72-.59-3.37.14-5.58l.78-1.71a1.19,1.19,0,0,0,.08-.2l.34-1.12c1.85-5.72,3.57-11.34,4.19-17.24l.05-.55A8.93,8.93,0,0,1,949.6,187a4.13,4.13,0,0,0-.88-6.16c-.91-.73-1.18-1.2-.12-2.85a18,18,0,0,0,3.26-9.19C951.9,167.32,952,164.64,949.21,163.92Zm-.25,4.83a15.24,15.24,0,0,1-2.81,7.64c-.63,1-2.56,4,.75,6.67,1,.77,1,1.25.33,2.23a11.35,11.35,0,0,0-1.66,5.76l-.06.54c-.58,5.62-2.25,11.08-4.07,16.67l-.31,1.05-.77,1.6a2.5,2.5,0,0,0-.09.25l0,.17c-.84,2.58-1.47,5.12.14,7.87.32.55.17,1.32-.52,2.55-2.37,4.29-.86,8.1.72,10.93l.78,1.37c1.38,2.38,2.68,4.63,2.87,7.25,0,.23,0,.47.09.71a3.27,3.27,0,0,1,.05.35l-.06-.05a6.08,6.08,0,0,0-.72-.52,8,8,0,0,1-1.4-1.08,6.13,6.13,0,0,0-3.95-1.93l-.41,0c-1.38.15-2.61,1-3.76,2.69a2.89,2.89,0,0,1-.26.35l-.13-.24a4.32,4.32,0,0,0-1.6-1.84l-.37-.89c-.4-1.57-1.15-2.46-2.23-2.67-.8-.15-2,.05-3.3,1.88a4.45,4.45,0,0,1-5,2.06c-1.23-1-1.66-2.54-2.06-4.32a26.91,26.91,0,0,1-.48-4c-.06-.79-.12-1.57-.21-2.36-.53-4.68-3-7.12-7.21-7.24-1.37,0-2-.69-2-2.13,0-1.22.06-2.47.11-3.68.17-4.1.35-8.34-1.14-12.56-.1-.28-.11-.43-.13-.42a1.49,1.49,0,0,1,.87-.09c5.07.41,6.18-.49,7-5.77l.08-.72.81-1.49a7,7,0,0,0,5.8-5,3,3,0,0,1,.42-.9s.25,0,.73.54a3.16,3.16,0,0,0,2.6,1.16,3.48,3.48,0,0,0,2.41-1.79c.2-.32.4-.65.61-1,1.84-2.87,3.92-6.13,2.44-10.46a4.77,4.77,0,0,1,.12-.84,0,0,0,0,0,0,0c1.08-.42,2.19-.77,3.35-1.14a32.18,32.18,0,0,0,6.33-2.51A11.57,11.57,0,0,0,947,168.1c.74-1.57,1.28-1.43,1.49-1.37C948.86,166.82,949,167,949,168.75Z"/><path class="cls-1" d="M939.47,165.44a2.54,2.54,0,0,0,.61.07,2.82,2.82,0,0,0,1.73-.62,5.65,5.65,0,0,0,1.91-4.26,1.31,1.31,0,0,0-.37-1,2.87,2.87,0,0,1-.15-.7c-.16-.92-.51-3.08-3.09-3.22a4.48,4.48,0,0,0-3.38,1.29,3.9,3.9,0,0,0-1.23,2.86C935.56,162.1,937.1,164.86,939.47,165.44Zm.69-2.82Zm-1.4-3.54a1.6,1.6,0,0,1,1.11-.47H940a1.24,1.24,0,0,0,.21,0,3.93,3.93,0,0,1,.18.78,5.06,5.06,0,0,0,.45,1.58,2.68,2.68,0,0,1-.74,1.6,3.42,3.42,0,0,1-1.66-2.8A1.08,1.08,0,0,1,938.76,159.08Z"/><path class="cls-1" d="M955.09,166.4c1.53,0,2.36-1,2.47-2.86a3.55,3.55,0,0,1,.05-.57,1.16,1.16,0,0,0-.07-.8,2.47,2.47,0,0,1,0-.39c0-1.8-.79-2.79-2.26-2.93a2.7,2.7,0,0,0-2.1.61,4.47,4.47,0,0,0-1.21,3.18,3.78,3.78,0,0,0,.9,2.8,3,3,0,0,0,2.15,1Z"/><path class="cls-1" d="M206.84,427.26l-1.37-.48,1.38.46c2.29-6.31,2.11-6.95-3.18-11.46a4.13,4.13,0,0,1-1.71-4.11,4.86,4.86,0,0,0-.82-4.16,4.73,4.73,0,0,0-3.93-1.39,1.45,1.45,0,0,0-1.38,1.14c-.92,4.29-4.23,6.53-7.69,8.36a1.73,1.73,0,0,0-.49,0,1.78,1.78,0,0,0-1,.4,1.44,1.44,0,0,0-.4.38,6.82,6.82,0,0,1-3.2,2.76c-5.55,2.09-7.81,6.05-6.72,11.76a4.56,4.56,0,0,1-.6,3.65,5.34,5.34,0,0,1-3.81,1.85,3.2,3.2,0,0,1-2.46-.48c-.75-.62-1.22-1.87-1.38-3.73a8,8,0,0,1,0-1.09,6.68,6.68,0,0,0-.64-3.77,1.46,1.46,0,0,0-1.94-.6c-2.86,1.48-4,4.08-5,6.37-.11.28-.23.56-.36.83-.56,1.29-1,2.61-1.47,3.89l-.38,1.08c-.14.38-.26.78-.37,1.18-.56,1.9-.84,2.6-2.37,2.54-3.41-.05-5.4-1-6.65-3.2-1.13-2-1.37-4.26-1.62-6.67-.06-.59-.12-1.18-.2-1.76,0-.35,0-.7,0-1a13.61,13.61,0,0,1,0-2.14c.53-4-1.2-6.69-5-7.88-2.17-.67-2.64-1.72-2.82-2.55-.27-1.32-.57-2.64-.86-4a69.41,69.41,0,0,1-1.94-11.47,6.52,6.52,0,0,1,3-6.41c4.4-3,5.87-10.43,3-15.24a9.37,9.37,0,0,1-1.27-3c-.63-3.33.72-4.19,2.11-4.59,4.87-1.39,4.86-1.38,6.21,2,.1.25.18.51.27.76a9.86,9.86,0,0,0,.67,1.65,5.4,5.4,0,0,1,.23.61c.26.77,1,3.09,3.43,2.42,2.55-.71,2-3.57,1.76-4.64l0-.12c-.72-3.64-.22-6.07,1.7-8.11a1.33,1.33,0,0,0,.14-.19l.15-.22c.83-.31,2.1-.95,2.25-2.26a2.7,2.7,0,0,0-1.16-2.34,1.61,1.61,0,0,0,.42-.58,1.86,1.86,0,0,0,0-1.48,2.29,2.29,0,0,0-1.59-1.25l-.25-.09a1.59,1.59,0,0,0-.41-.12h0c-2.31-.29-5.26.25-6.23,4.51-.46,2-1,2.79-1.95,2.91-.82.09-1.09-.2-1.82-2-.08-.19-.15-.37-.23-.55l-.44-1.82a1.33,1.33,0,0,0-.13-.33h0a1,1,0,0,0,0-.3c-.2-.87-.4-1.74-.61-2.61-.45-1.89-.91-3.85-1.29-5.77-.41-2.08-.22-2.59-.12-2.71s.55-.4,2.62-.41c2.59,0,3.44-1.3,3.72-2.06s.54-1.35.86-2.06c1.24-2.78,2.64-5.92.72-9.61a6.06,6.06,0,0,1-.34-3.15c0-.3,0-.6,0-.91.16-6.4-1.5-8.76-7.4-10.53a38.89,38.89,0,0,1-11.92-6.49c-1.28-.94-1.44-1.43-1.45-1.59s.08-.65,1.17-1.71c2.43-2.36,3.43-4.52,3.06-6.6s-2.11-3.83-5.32-5.28c-.84-.38-1.68-.73-2.52-1.09l-1.08-.46c-2.6-.92-7-2.47-10.69,1.6-.11.12-.32.37-.56.36s-.83-.44-1.37-1.3a5.93,5.93,0,0,1-.54-3.4c0-.3,0-.61,0-.9v-.85a11.19,11.19,0,0,0-1.22-6.29c-2.74-4.63-2.67-5,1.56-8.1a13.91,13.91,0,0,0,5.87-9.53,5,5,0,0,0-1.8-5.1,4.77,4.77,0,0,0-5.46-.28c-1.29.66-2.68,1.37-4,2.12-1.06.59-1.91.67-3.32-.6-2.39-2.15-3.81-4.93-5.32-7.86-.31-.61-.62-1.22-.94-1.83a1.44,1.44,0,0,0-.45-.5,3.64,3.64,0,0,1-.43-.44,3.33,3.33,0,0,0-2.62-1.4,5.1,5.1,0,0,1-1.52-.42c-1.29-.47-3.68-1.37-5.09,1s.57,4.38,1.74,5.57c.32.33.63.64.86.93a11.82,11.82,0,0,0,1.37,1.37c1,.88,1.46,1.36,1.38,1.89s-.15,1.13-.23,1.7c-.43,3.32-.83,6.46-3,8.9a14.69,14.69,0,0,0-3.26,7.2c-.93,4.85.07,9.36,1.27,13.95,1.39,5.32-.71,11.19-4.83,13.84a2.22,2.22,0,0,0-2.15-.56,2.06,2.06,0,0,0-1.19,1.1l-.21-.06a7.83,7.83,0,0,1-5-2.74,6.07,6.07,0,0,0-7.53-1.54,19.57,19.57,0,0,1-2.35,1,16.15,16.15,0,0,1-.88-2l-.19-.48c-.66-1.66-.35-2.43,1.54-3.76l.36-.22a3.45,3.45,0,0,0,1.94-2.35,2.68,2.68,0,0,0-.92-2.23c-1.92-1.9-4.57-4-8.15-3.07-2.18.54-4.81,2.17-5,6.83a17.75,17.75,0,0,0,.11,2.33,14.09,14.09,0,0,1,.08,2.12,1.77,1.77,0,0,1-.63,1.44,1.9,1.9,0,0,1-1.7-.2A2.13,2.13,0,0,1,50.67,303c.84-3.69-.42-6.1-4-7.61a2.25,2.25,0,0,1-1.35-1.21,2.93,2.93,0,0,1,.42-2.28,16.84,16.84,0,0,1,2.54-3.64l.14-.14c3.83-4,3.84-4.86,0-9a1.44,1.44,0,0,0-.71-.42,4.32,4.32,0,0,0-4,.59c-1,.84-1.35,2.22-1.15,4.09.23,2.14-.42,2.81-1.55,3.2a3,3,0,0,1-3.85-1.2c-1.09-1.58-2.24-2.36-3.51-2.39s-2.47.7-3.66,2.23c-.67.87-1.21,1.15-1.43,1.13s-.83-.43-1.46-1.54a6.93,6.93,0,0,0-3.57-3.12,4.35,4.35,0,0,0-3.5,0,4.34,4.34,0,0,0-2.2,2.75c-.95,2.93,1.33,10.65,4.14,12.3.87.5,1.37,1,1.48,1.48a3.24,3.24,0,0,1-.72,2.22,15.51,15.51,0,0,0-2,10.29c.31,2.82.6,5.65.89,8.48.27,2.58.53,5.16.81,7.74.67,6.27,3.76,10.52,9.17,12.64,3.85,1.51,7,4.27,9.77,8.7l.41.65c.79,1.25,1.61,2.54,2.51,3.78,4.07,5.6,7.11,6.46,13.56,3.83a50.48,50.48,0,0,1,6.67-2.35,4.73,4.73,0,0,1,1.17-.18,1.52,1.52,0,0,1,.27,0s.19.35.07,1.51c-.43,4.19-2,7.33-4.74,9.61l-.3.22a2.9,2.9,0,0,0-1.51,2.31,2.65,2.65,0,0,0,1.34,2.09,23,23,0,0,1,4.82,5c.61.77,1.25,1.57,1.92,2.34.11.28.21.57.31.86a24.08,24.08,0,0,1,.78,2.36,2.15,2.15,0,0,1-.09,1.67,1.15,1.15,0,0,1-.89.38c-6.48.44-7.68,5.31-8.64,9.23l-.27,1.09c-.62,2.42.13,4.34,2.07,5.26,1.25.59,3.21.86,5.39-1.23a10.88,10.88,0,0,0,.81-.89,7.21,7.21,0,0,1,.58-.66c.78-.75,1.5-1,1.83-.85s.47.52.55,1.14a25,25,0,0,0,1.64,5.82A26.24,26.24,0,0,1,73,405.47a11.79,11.79,0,0,0,5.88,7.85l2.84,1.76,1.27.79a1.5,1.5,0,0,0,.77.22h0c1.44,0,3.21-.17,4.17-1.49s.56-2.89.21-4A11.29,11.29,0,0,0,87,408.33l-.1-.18a7.06,7.06,0,0,0-1.68-1.8c-.23-.2-.56-.48-.76-.69,1-.87,2.87-1.08,4.59-1.26l1-.11c.24,0,.46.32.91,1.46l.21.52a4.51,4.51,0,0,0,2.74,2.84,4.43,4.43,0,0,0,3.77-.92,12,12,0,0,1,5.1-2.14c3.14-.48,4.61-3.08,5.44-5a4.58,4.58,0,0,1,.2-.43c.11.15.24.34.4.6,1.18,1.93.47,3,.24,3.39-3,4.57-2.16,8.76,2.3,12.11a1.92,1.92,0,0,0,.31.18l.6.25a1.36,1.36,0,0,0,.77.1l2.07-.31a1.4,1.4,0,0,0,1-.6,12.64,12.64,0,0,0,1.93-8.84c-.15-1.63.18-1.93.18-1.93s.38-.3,2.17.16a5.48,5.48,0,0,1,4.2,3.66,41.5,41.5,0,0,0,6.84,12.9,4,4,0,0,1,.84,2.62c-.19,5.23-.39,10.63,1.44,15.93a4,4,0,0,1-.11.87c0,.08,0,.17,0,.26l-1,.7c-1.85,1.34-3.95,2.87-4.95,5.52a1.8,1.8,0,0,0-.09.45c-.13,3.28-1,5.68-2.57,7.12s-3.71,2-6.61,1.83c-2.41-.11-3.64.82-4.22,3.22-.11.48-.17,1-.23,1.42-.15,1.22-.27,1.93-1,2.37l-.1.08-.88.7a1.44,1.44,0,0,0-.55,1.29l0,.16a16.31,16.31,0,0,0,.41,6.19,3,3,0,0,1-.24,2.24,1.7,1.7,0,0,1-1.15.7c-3.74.75-6.44,3.12-8.26,7.26a24.38,24.38,0,0,1-8.31,10.14c-3.29,2.43-5,5.12-5.1,8.23-.16,3.79-1.83,7-5.42,10.38-1.57,1.48-2.53,1.45-3.65.88a4,4,0,0,0-4.48.07c-1.84,1.44-2.66,4.6-2.65,7.11,0,2.29.67,4.08,1.88,5a11.47,11.47,0,0,1,2.62,3.5c1.24,2.15,2.64,4.59,5.74,5.57,0,.17,0,.38,0,.53s0,.49,0,.71,0,.57,0,.86a13.25,13.25,0,0,0,.88,5.5c.52,1.15,1.38,2.69,3,2.9l.34,0a4.34,4.34,0,0,0,3.13-1.95,29.14,29.14,0,0,0,4.67-8.17c1.9-4.95,4.06-9.51,9.67-11a4.65,4.65,0,0,0,2.44-1.83c.48-.69.95-1.1,1.3-1.11.2,0,.74.09,1.7,1.22,2,2.31,5.37,4.44,10.52,1.5a33.14,33.14,0,0,0,4.51-3c1.88-1.51,3.83-3,5.71-4.46a129.15,129.15,0,0,0,12.39-10.35,1.48,1.48,0,0,0,.43-1.08l0-1a25.79,25.79,0,0,0-1-7.58c-.53-1.58,0-3.14,1.9-5.19,3.39-3.75,4-7.4,2-11.85-1-2.3-.74-3.11-.57-3.34s.94-.86,3.89-.63a12.09,12.09,0,0,0,4.18-.62l.57-.16c-1.21,3.77-.31,7.31,2.74,10.73.49.55.33,1.45,0,2.76l-.07.33c-.9,4.06.4,7.16,3.88,9.22a7.35,7.35,0,0,1,3.39,3.49,1.39,1.39,0,0,0,.51.64c.31.22.61.45.91.68a11.81,11.81,0,0,0,4.32,2.35c3.4.83,6.21-.31,8.34-3.39,1-1.41,1.41-1.47,1.41-1.47s.43.07,1.36,1.5a23.12,23.12,0,0,1,1.47,2.81c.21.45.43.91.65,1.36a8.16,8.16,0,0,0,5,4.41,9.3,9.3,0,0,0,7.35-1.3c5.37-3.29,7.64-7.81,7-13.83a1.4,1.4,0,0,0-.56-1,8.89,8.89,0,0,1-2.12-2.85c-.24-.41-.47-.83-.72-1.22-1.38-2.22-1.1-3.94.88-5.43a7.48,7.48,0,0,0,3.21-6.77,8.23,8.23,0,0,1,.85-3c.19-.47.39-.95.55-1.42l.08-.23c.47-1.31,1.1-3.12,0-4.75-1.34-2-.75-3.49,1-5.92a1.44,1.44,0,0,0,.19-1.29c-1.67-5.12-.9-9.25,2.43-13,1.85-2.09,1.53-5.29-.8-8C204.64,435.9,205.1,432.16,206.84,427.26Zm-.49,18.21c-3.87,4.37-4.93,9.33-3.23,15.13-1.37,2-3.05,5-.61,8.64.28.41,0,1.3-.33,2.16l-.09.23c-.14.43-.32.85-.49,1.28a10.06,10.06,0,0,0-1.06,4.18,4.6,4.6,0,0,1-2.07,4.37c-3.18,2.41-3.76,5.79-1.59,9.28.23.36.44.74.65,1.11a12.77,12.77,0,0,0,2.39,3.31c.36,4.56-1.45,7.9-5.64,10.46a6.41,6.41,0,0,1-5,1,5.31,5.31,0,0,1-3.23-2.92l-.62-1.29a24.73,24.73,0,0,0-1.67-3.17c-.84-1.3-2-2.79-3.74-2.81s-2.95,1.44-3.83,2.72c-1.46,2.1-3,2.77-5.28,2.23a9.45,9.45,0,0,1-3.26-1.86L167,499a10.64,10.64,0,0,0-4.43-4.5c-2.41-1.43-3.17-3.25-2.53-6.1l.07-.32c.35-1.53.82-3.62-.69-5.32-2.91-3.27-3.28-6.37-1.2-10.05a1.44,1.44,0,0,0-.05-1.5,1.42,1.42,0,0,0-1.35-.65,20.85,20.85,0,0,0-3.65.75,9.2,9.2,0,0,1-3.19.52c-2.11-.15-5.07-.14-6.48,1.86-1,1.43-.92,3.46.29,6.19,1.52,3.43,1.1,5.79-1.55,8.73-1.62,1.79-3.65,4.58-2.5,8a23.61,23.61,0,0,1,.85,6.76v.42a133.42,133.42,0,0,1-11.66,9.67c-1.9,1.46-3.87,3-5.77,4.51a30.7,30.7,0,0,1-4.13,2.75c-2.9,1.66-5,1.41-6.87-.86-1.33-1.57-2.66-2.31-4-2.24a4.71,4.71,0,0,0-3.54,2.36,1.79,1.79,0,0,1-.8.68c-6.93,1.86-9.64,7.56-11.63,12.77a26.9,26.9,0,0,1-4.22,7.39,3.9,3.9,0,0,1-.84.82,3.64,3.64,0,0,1-.69-1.16,10.79,10.79,0,0,1-.63-4.34c0-.3,0-.6,0-.9a4.09,4.09,0,0,1,0-.49c.05-.86.15-2.86-1.77-3.38-2.18-.59-3.18-2.32-4.33-4.32a14.08,14.08,0,0,0-3.34-4.34c-.36-.28-.77-1.16-.78-2.75,0-2.23.8-4.24,1.54-4.82a.49.49,0,0,1,.34-.12,2.64,2.64,0,0,1,1.06.36c3.22,1.62,5.5,0,6.94-1.36,2.59-2.45,6.07-6.39,6.33-12.36.09-2.18,1.38-4.15,3.92-6a27.66,27.66,0,0,0,9.25-11.32c1.42-3.25,3.39-5,6.17-5.58a4.56,4.56,0,0,0,3-1.94,5.85,5.85,0,0,0,.65-4.43,13.66,13.66,0,0,1-.36-5.23l.27-.22a5.58,5.58,0,0,0,2.18-4.39,9.85,9.85,0,0,1,.17-1.1c.25-1.05.25-1.05,1.27-1,3.69.18,6.63-.7,8.69-2.59s3.3-4.93,3.5-8.89c.74-1.72,2.26-2.83,3.87-4,.5-.37,1-.73,1.5-1.12a1.44,1.44,0,0,0,.39-.49,1.5,1.5,0,0,0,.15-.51c0-.21.06-.42.1-.64a4.45,4.45,0,0,0,0-2.35c-1.66-4.79-1.47-9.92-1.29-14.88a6.88,6.88,0,0,0-1.44-4.51,38.79,38.79,0,0,1-6.37-12,8.31,8.31,0,0,0-6.24-5.58c-1.52-.39-3.44-.7-4.77.44s-1.31,3.06-1.19,4.41c.25,2.77-.07,4.73-1.08,6.4l-1,.15-.06,0c-3.14-2.42-3.57-4.86-1.47-8.12a5.83,5.83,0,0,0-.2-6.48c-.52-.85-1.47-2.44-3.09-2.33-1.42.1-2.19,1.49-2.64,2.52-.92,2.13-1.86,3.08-3.22,3.29a14.86,14.86,0,0,0-6.31,2.62c-.85.58-1.22.54-1.32.51s-.45-.19-.87-1.19c-.06-.14-.12-.3-.19-.45-.49-1.25-1.4-3.58-4-3.27l-1,.11c-2.4.25-5.12.54-6.73,2.51s.43,3.77,1.32,4.52a5.61,5.61,0,0,1,1,1l.11.19a9.14,9.14,0,0,1,.84,1.69c.35,1.12.21,1.42.21,1.42s-.23.25-1.43.29l-.91-.56-2.85-1.77c-2.7-1.66-4.06-3.44-4.56-5.94a28.88,28.88,0,0,0-1.43-4.59,22.31,22.31,0,0,1-1.49-5.15,4,4,0,0,0-2.45-3.52c-1.51-.54-3.27,0-4.81,1.5a9.61,9.61,0,0,0-.8.88,7.49,7.49,0,0,1-.59.66c-1.2,1.15-1.81.86-2.14.7s-.89-.42-.5-1.92l.28-1.12c1-4.3,1.85-6.75,6-7a3.92,3.92,0,0,0,3-1.57,4.85,4.85,0,0,0,.55-4.1c-.24-.91-.56-1.78-.86-2.62-.13-.36-.27-.72-.39-1.09a1.49,1.49,0,0,0-.29-.5c-.69-.77-1.33-1.57-2-2.43a27.4,27.4,0,0,0-5.1-5.3l.32-.25c3.38-2.78,5.28-6.56,5.78-11.54.13-1.22.15-3-1-4s-2.89-.76-4.06-.47a53.68,53.68,0,0,0-7.06,2.47c-5.22,2.14-6.83,1.68-10.12-2.85-.84-1.15-1.63-2.41-2.4-3.62l-.41-.65c-3.16-5-6.71-8.11-11.16-9.85s-6.8-5.07-7.35-10.25c-.28-2.57-.54-5.15-.81-7.73q-.44-4.25-.88-8.5a12.52,12.52,0,0,1,1.57-8.43,5.87,5.87,0,0,0,1.09-4.44,5.43,5.43,0,0,0-2.83-3.31c-1.45-.84-3.44-7.08-2.86-8.89a1.77,1.77,0,0,1,.71-1,1.67,1.67,0,0,1,1.22.09,4,4,0,0,1,2.07,1.84c1.08,1.89,2.35,2.89,3.77,3s2.7-.65,3.93-2.24c.68-.88,1.13-1.11,1.29-1.11h0c.15,0,.58.25,1.2,1.14A5.91,5.91,0,0,0,42,289.37c2.67-.91,3.84-3,3.49-6.25-.11-1.05.07-1.5.17-1.6a1.59,1.59,0,0,1,1,0,9.15,9.15,0,0,1,1.74,2.21,11.5,11.5,0,0,1-2.07,2.48l-.14.14a19.65,19.65,0,0,0-3,4.26,5.69,5.69,0,0,0-.6,4.61,5,5,0,0,0,3,2.92c2.25,1,2.8,2,2.28,4.3s.62,4.4,3,5.56a4.63,4.63,0,0,0,4.42.1,4.47,4.47,0,0,0,2.08-3.75,15.5,15.5,0,0,0-.09-2.57,14.81,14.81,0,0,1-.09-2c.13-3.08,1.57-3.83,2.81-4.14,2-.5,3.53.49,5.24,2.16l-.33.21-.5.32c-2.11,1.47-4.06,3.48-2.57,7.2L62,306c.83,2.07,1.28,3.21,2.48,3.68s2.39,0,4.75-1.15a3.14,3.14,0,0,1,4,.78A10.68,10.68,0,0,0,79.43,313a2.07,2.07,0,0,0,1.81.91,2.17,2.17,0,0,0,1.61-1.23,1.46,1.46,0,0,0,1.55.16c5.85-2.95,9-10.7,7.18-17.66-1.11-4.25-2-8.41-1.22-12.66a11.7,11.7,0,0,1,2.6-5.84c2.71-3.1,3.19-6.83,3.66-10.44.07-.55.14-1.1.22-1.65.31-2.14-1.21-3.49-2.32-4.48a9.21,9.21,0,0,1-1-1c-.32-.4-.69-.77-1-1.14-1.23-1.24-1.52-1.71-1.31-2.08a.5.5,0,0,1,.13-.16,4.38,4.38,0,0,1,1.45.38,6.73,6.73,0,0,0,2.54.58,3.6,3.6,0,0,1,.44.44,6.3,6.3,0,0,0,.63.65l.78,1.52c1.56,3,3.18,6.19,6,8.7,2.16,1.94,4.34,2.26,6.65,1,1.33-.73,2.68-1.43,4-2.07s1.81-.47,2.36,0,.94,1,.73,2.38a11,11,0,0,1-4.72,7.63c-5.4,3.95-5.81,6.07-2.34,11.92.86,1.44.84,3,.82,4.77,0,.3,0,.59,0,.89s0,.55,0,.83a8.5,8.5,0,0,0,1,5,5,5,0,0,0,3.55,2.65,3.49,3.49,0,0,0,3-1.29c2.08-2.26,4.11-2.07,7.5-.86l1,.43c.82.35,1.64.69,2.46,1.06,2.2,1,3.47,2.08,3.66,3.15.23,1.3-1.09,2.9-2.23,4s-2.15,2.32-2,4,1.45,2.87,2.61,3.73a41.34,41.34,0,0,0,12.82,6.93c4.67,1.4,5.46,2.55,5.33,7.69,0,.27,0,.55,0,.83a8.61,8.61,0,0,0,.67,4.64c1.27,2.44.31,4.6-.8,7.09-.32.73-.65,1.48-.91,2.21a1.89,1.89,0,0,1-1,.19c-2.2,0-3.87.27-4.85,1.47s-.91,2.92-.48,5.1c.39,2,.86,4,1.31,5.89.2.82.39,1.64.58,2.46a2.88,2.88,0,0,0,.22.93l0,.19a2.57,2.57,0,0,1-1.19-.06h0a1.45,1.45,0,0,0-1.33,2.58,5.78,5.78,0,0,0,3.4.3c.65,1.54,1.79,3.72,4.69,3.37,3.35-.4,4.11-3.72,4.43-5.14s.92-2.2,2.05-2.31h0l.08,1.22-.3,2.33-.17.25c-3.14,3.44-2.92,7.42-2.39,10.24a10.16,10.16,0,0,1-.42-1.08c-.1-.31-.2-.62-.32-.91-2-5.1-3.8-5.36-9.69-3.67-2,.57-5.21,2.36-4.17,7.91a12.3,12.3,0,0,0,1.62,4c2.06,3.49,1,9.23-2.17,11.38a9.47,9.47,0,0,0-4.28,9,73.07,73.07,0,0,0,2,12c.29,1.3.59,2.6.86,3.9.47,2.3,2.09,3.9,4.79,4.74,2.48.77,3.35,2.14,3,4.72a16.32,16.32,0,0,0-.08,2.6c0,.35,0,.7,0,1a1.23,1.23,0,0,0,0,.2c.07.6.14,1.19.2,1.79.27,2.61.55,5.3,2,7.81,2.33,4.09,6.33,4.61,9.13,4.65h.11c3.72,0,4.54-2.77,5.08-4.62.1-.34.2-.69.32-1l.38-1.09c.45-1.29.87-2.5,1.4-3.67l.37-.87a13.78,13.78,0,0,1,2-3.65c0,.12,0,.24,0,.36a10.54,10.54,0,0,0,0,1.49c.24,2.71,1,4.58,2.44,5.72a5.94,5.94,0,0,0,4.64,1.12,8.12,8.12,0,0,0,5.8-3,7.42,7.42,0,0,0,1.11-5.91c-.82-4.29.69-6.91,4.89-8.5a9.14,9.14,0,0,0,4.06-3.13h0a1.22,1.22,0,0,0,.38-.07l.09,0,.16-.06c3.81-2,7.94-4.48,9.52-9.44a1.17,1.17,0,0,1,.61.31,2.4,2.4,0,0,1,.15,1.78,7,7,0,0,0,2.69,6.8c2.05,1.74,3.28,2.8,3.51,3.62s-.28,2.16-1.18,4.63v0h0c-1.75,4.95-2.79,10.19,1.44,15C206.56,442.52,207.39,444.3,206.35,445.47Z"/><path class="cls-1" d="M43.49,269.59c.33.21.65.4.91.6a1.44,1.44,0,0,0,.89.31,1.5,1.5,0,0,0,.37,0,7.79,7.79,0,0,1,1.13-.19c1.49-.19,4.25-.55,4.5-3.78a2.86,2.86,0,0,0-.62-2.18,3.53,3.53,0,0,0-2.7-.93,3.6,3.6,0,0,1-.76-.08,1.46,1.46,0,0,0-.9,0l-4.8,1.41a1.48,1.48,0,0,0-.9.78,1.45,1.45,0,0,0,0,1.19A6.33,6.33,0,0,0,43.49,269.59Zm3.25-3.42a7.5,7.5,0,0,0,1.12.1l.54,0c0,.68-.16.86-2,1.09l-.8.12-.62-.39c-.17-.11-.33-.2-.47-.3Z"/><path class="cls-1" d="M855.93,166.49c-1.76-2.2-1.68-4.69-1.59-7.59a30.93,30.93,0,0,0,0-3.6,11.07,11.07,0,0,1,0-1.51,6.4,6.4,0,0,0-.62-3.89c-1.28-2-.81-3.5.44-5.51,2.59-4.18,2.41-8.75-.5-12.24-2.74-3.3-2.71-6.54-1.81-10.39.25-1.06.52-2.1.8-3.15l.48-1.86c.58-2.28.74-4-.32-5.22s-2.79-1.18-5.06-.84l-1.29.2c0-.06,0-.11,0-.17a1.44,1.44,0,0,0-.94-1.3l-.19-.09a4.1,4.1,0,0,0-1.05-.32,2.09,2.09,0,0,0-1.37.38,1.43,1.43,0,0,0-.57,2.14,28.84,28.84,0,0,1-5.32.3h-.21a2,2,0,0,0-1.52-.37,2.11,2.11,0,0,0-1.44,1l-.78.27c-1,.33-2,.68-3,1.12-1.64.72-3.25,1.35-3.89,1.09s-1.34-1.75-2-3.33-1.29-2.88-2.54-3.21a2,2,0,0,0-1.78.39,8.41,8.41,0,0,1-4.11,1.25c-2.44.34-5.48.76-7.26,4a3.91,3.91,0,0,1-.41.62c-.73-1.27-1.68-2.52-3.05-2.45s-2.11,1.45-2.64,2.58l-.31.64a19.53,19.53,0,0,1-1,1.68c-.19.28-.37.56-.55.84a1.58,1.58,0,0,0-.16.35l-.51,1.72c-.35,1.21-.68,2.37-1.1,3.5a7.58,7.58,0,0,0-2.69-2.57,5.26,5.26,0,0,1-1.08-.84c-3.56-5.35-8.06-6.91-13.75-4.78a4.3,4.3,0,0,0-2.5-.84,8.87,8.87,0,0,0-8.32,3.37,6.9,6.9,0,0,1-6,2.89,14.62,14.62,0,0,0-9.56,3.26c-1.92.35-2.34.15-2.39.12s-.27-.54.14-2.8a16.17,16.17,0,0,0,.19-1.77c0-.23,0-.46.05-.68a72.32,72.32,0,0,1,1.84-9.65,59.66,59.66,0,0,0,2.08-12.85c0-.32.23-.63.71-1.23,1.47-1.85,2-3.58,1.58-5.14s-1.69-2.7-3.79-3.5c-1.11-.42-1.31-.77-1.34-.87s-.1-.49.52-1.53c.25-.42.49-.85.72-1.28s.52-1,.81-1.42c1.6-2.58-.38-4.15-1.23-4.82l-.44-.36a3.49,3.49,0,0,0-2.84-1,3.31,3.31,0,0,0-2.35,1.66c-1,1.69-2.68,2.46-4.6,3.36a22.6,22.6,0,0,0-3,1.61c-.22.15-.46.28-.68.42a8.08,8.08,0,0,0-2.38,1.92l-.4.55a4.65,4.65,0,0,1-.42.57c-.05,0-.13-.09-.23-.18-1.56-1.34-1.38-2-1-2.66l.15-.25a11.23,11.23,0,0,0,2-5.16,4,4,0,0,0-1.08-3.28,3.09,3.09,0,0,0-2.66-.72c-.74.11-1.52.15-2.35.19-2.21.11-4.73.24-6.93,1.94a1.42,1.42,0,0,0-.56,1.28c0,.18,0,.37,0,.55s0,.24,0,.37a1.76,1.76,0,0,0-.83.18,1.46,1.46,0,0,0-.95,1.46l0,.29a1.46,1.46,0,0,0,.66,1.12,1.41,1.41,0,0,0,.79.24,1.43,1.43,0,0,0,.5-.09l.33-.13a4.42,4.42,0,0,1-1.41,3.18l0,0a5.83,5.83,0,0,1-.65-.53,5.39,5.39,0,0,0-2-1.26c-1.12-1.05-2.31-2-3.46-2.93a32.91,32.91,0,0,1-5.33-5,3.73,3.73,0,0,0-3.32-1.59A4.32,4.32,0,0,0,706,75a20.91,20.91,0,0,1-3.71,4.64c-1.95,2-4,4.11-5,7.1,0,0,0,0,0,.08a1.63,1.63,0,0,1-.31-.37l-.37-.55c-1.19-1.74-1.73-2.65-1-4.34,1.47-3.35.43-7-.4-9.84-.6-2.05-1.69-2.75-2.51-3S690.62,68.51,689,70c-.57.52-1.09,1.08-1.6,1.61-.36.39-.73.78-1.11,1.15a6.87,6.87,0,0,1-4.82,2.32H681c-2,0-3.24,0-3.93-1.14-.33-.53-.13-1,.7-2.3.22-.34.44-.67.62-1a19.24,19.24,0,0,0,1.46-4c.62-2.17,1.15-4,2.89-5.31a2.64,2.64,0,0,0,1-2,3.14,3.14,0,0,0-.94-2.49c-1.74-1.61-1.66-3.47-1.38-6.36l.05-.53a7.36,7.36,0,0,0-3-7.11,4.48,4.48,0,0,1-.9-.83c-.51-5-4.05-6.16-6.68-6.64a.48.48,0,0,1-.25-.09c-.06-.09-.18-.43.05-1.65.61-3.16-.74-5.32-3.79-6.07a1.56,1.56,0,0,1-1-.74,7.6,7.6,0,0,0-5.38-3.49,7.13,7.13,0,0,0-5.77,2c-1.36,1.26-2.28,1.26-4.57.61-4.86-1.37-11.28-2.59-17.77.26a1.39,1.39,0,0,0-.71.66c-1.68,3.24-2.93,3.85-5.34,2.61a3.9,3.9,0,0,0-3.3.33c-.43.23-.81.48-1.15.7a4.57,4.57,0,0,1-1.14.62h0s-.4-.14-1.09-1.49c-.95-1.85-3.06-2.75-5.68-2.41s-5.58,2-6.2,4.81c-.54,2.49-1.85,3.12-4.33,3.42l-.15,0a2.8,2.8,0,0,0-2.94,2.6L600,38c-1.16-.1-3.49-.31-4.47,2.25-2.22,1.57-1.8,4-1.54,5.44,0,.2.07.41.1.62s.11.69.17,1c.44,2.62.61,4.17-1.14,5.58-1.55,1.26-1,3.12-.72,4.23l.05.21c1,3.68,2.34,7.9,5.35,11.41a6.22,6.22,0,0,1,1.63,4.9c-1,6.27.19,12.09,1.53,17l1.94,6.77a30.9,30.9,0,0,0,1.9,8.66c2.61,7.85,3.59,16,4.52,25.13.4,3.92-2.06,6-4.85,8-6.05,4.27-9.4,9.38-10.53,16.06a12.47,12.47,0,0,1-5.83,8.51c-2.81,1.81-5.78,1.86-9.08.18a5.53,5.53,0,0,1-3.14-6.44c1.39-8-3-13.29-7.28-18.42l-.74-.89a5,5,0,0,0-6.53-1.12c-1,.54-1.6.54-2.38-.82l-.09-.14c-.54-2-2.66-2.36-3.83-2.55l-.79-.14h0a6.39,6.39,0,0,0-.87-6.14c-.16-.29-.33-.57-.49-.87a2.15,2.15,0,0,1-.21-.49c1.26-7.82-4.59-10.22-9.3-12.15l-.37-.15c-3.77-1.55-6.5-4.76-6.73-7.88a8.38,8.38,0,0,0-.72-7c-1.67-2.87-1.66-5.81,0-9.23,1.87-3.77,1.42-7.33-1.37-10.88-1.8-2.29-2.5-3.64-2.36-4.5s1.26-1.94,3.75-3.56c.39-.25.79-.49,1.19-.72,1.65-1,3.53-2.08,4.52-4.3a1.46,1.46,0,0,0-.45-1.76L538.44,62a.71.71,0,0,0-.14-.1c-3-1.7-3.62-2.87-3.64-3.56s.54-1.87,3.35-3.72a4.47,4.47,0,0,1,.54-.27,3.46,3.46,0,0,0,2.5-3.09,1.48,1.48,0,0,0-.37-1l-.48-.53c-2.83-3.16-5.51-6.14-6.05-10.31a2.56,2.56,0,0,0-1.73-1.9,1.62,1.62,0,0,1-.39-.16,7,7,0,0,1,.25-.93l.14-.44c2.46-8.13.28-12-8.34-14.72-.43-.14-.89-.26-1.38-.39-2.78-.72-4.35-1.26-4.16-4,.08-1.28-1.31-2.11-1.59-2.26a2.73,2.73,0,0,0-3,0,2.58,2.58,0,0,1-1.61.65c-.68-.12-1.42-1.18-2.13-2.22a5.52,5.52,0,0,0-3.55-2.71,5.05,5.05,0,0,0-3.92,1.15,8.56,8.56,0,0,0-3.52,2.9c-1.05,1.62-2,1.68-2.75,1.46l-.25-.17a3.25,3.25,0,0,0-2.55-.82,2.68,2.68,0,0,0-.77.3,3.29,3.29,0,0,0-.79-1.31,3.52,3.52,0,0,0-2.32-1,3.66,3.66,0,0,0-4.73-.46c-1.19.75-2.33.64-4.42.11-.4-.11-.84-.28-1.31-.46-1.66-.64-4.18-1.61-6.58.58-.75.68-1.82,1.24-4.1.27a5.27,5.27,0,0,0-6,.77,5.12,5.12,0,0,0-1.47,4.18c0,.76,0,1.31-.22,1.4a4.2,4.2,0,0,1-1.82.13,6.17,6.17,0,0,0-4.71,1.18,2.88,2.88,0,0,1-1.95.89,2.45,2.45,0,0,1-1.41-1.18,3.76,3.76,0,0,0-3.17-2,3.87,3.87,0,0,0-3.14,2c-1.1,1.76-2.25,2.1-4.56,1.37a3.76,3.76,0,0,0-3.21.09,2.33,2.33,0,0,0-1,1.82c-.15,2.49-1.61,3.57-4,5.13-.72.48-1.46,1-2.16,1.54-.89.71-1.83,1.36-2.83,2.05-3.1,2.13-6.3,4.33-7.68,8.63-.26.79-1.39,1-2.27.92A14.52,14.52,0,0,1,413,40.8c-.48-.19-1-.38-1.44-.55-7.13-2.56-15.21-5.47-21.71,3a3.15,3.15,0,0,1-1.12.82,2.09,2.09,0,0,1-2,.11,2.14,2.14,0,0,1-.87-1.77c-.25-4.09-2.33-5.84-7.18-6.06a1.45,1.45,0,0,0-1.3,2.22c3.42,5.45,3.38,11.35-.12,17.55l-.49.86a13.88,13.88,0,0,0-2.35,6.2c-.37,6.78-2.48,13.58-6.64,21.4a8,8,0,0,0-.74,5.36v.14a3,3,0,0,0,1.05,2.24,2.64,2.64,0,0,0-.25,1.49,2.46,2.46,0,0,0,1.35,1.83,2.24,2.24,0,0,0,2.18.17,1.67,1.67,0,0,0,.28-.18,35.6,35.6,0,0,0,8.22,5.1l.33.16a8.38,8.38,0,0,1,3.67,3.71,12.59,12.59,0,0,1-4.79,17.48l-.21.12-.74.44c-1.14.74-2.7,1.93-3,3.75s.73,3.5,1.55,4.6c4.05,5.4,12.29,8.24,18.76,6.47,1.87-.51,2.76-.29,3.66.88,2,2.56,4.71,4.08,8.61,4.77,9.63,1.7,16.44,5.24,21.4,11.11,1.8,4.39,2,9,2.17,13.85a75.59,75.59,0,0,0,.61,8.17,8.66,8.66,0,0,1-.84,4.9c-1.33,3-1.39,6.65-.18,10.81,1.51,5.18,1.66,9,.5,12.66a6.65,6.65,0,0,0-.16,4.76c1.1,2.48.44,3.87-2.73,5.71l-.57.33c-2,1.14-4.5,2.56-5.14,5.7a3.43,3.43,0,0,0-.37,2.71,9.88,9.88,0,0,0,1.52,6.57c.72,2.25.58,3.9-.45,5.49-1.37,2.11-.67,4.24.19,6,1.58,3.27.22,11.26-2.38,14a15.19,15.19,0,0,0-4.09,9.58,38.28,38.28,0,0,0,.37,8.27c.05.36.11.72.17,1.09.37,2.43.72,4.72-.62,6.65-2.27,3.25-2.22,6.73-1.84,10l.06.51a19.2,19.2,0,0,1,.22,4c-.27,2.83-2.82,4.81-6.09,4.69-2.78-.11-3.8-1.18-4.56-4.78-.72-3.45-1.11-7-1.49-10.5-.29-2.73-.6-5.54-1.06-8.31-1.05-6.16-3.71-8.56-10.18-9.14-1.61-.15-3.13-.29-3.43-.59s-.41-1.78-.54-3.48v-.14c-.17-2.19-.8-3.67-1.92-4.53a4.21,4.21,0,0,0-3.46-.64,5.5,5.5,0,0,1-1.8-.06,7.12,7.12,0,0,0-2.07-.07c-1.5.21-2.7-.47-4.1-1.27a9.94,9.94,0,0,0-4.16-1.6c-2.28-.19-3.51-.36-4.4-1.89a3,3,0,0,0-1.85-1.43,3.35,3.35,0,0,0-2.62.51c-.37.23-.76.44-1.14.66-2.23,1.26-5.28,3-4.15,7.46.18.7-.18,1.15-1.16,2.18l-.33.35-.38.39c-.77.78-1.83,1.85-1.62,3.29a3.23,3.23,0,0,0,1.38,2.06l-.83.81c-.91.89-1.76,1.72-2.68,2.5a4.61,4.61,0,0,0-1.47,5.48c.55,1.65.31,2.1.25,2.18s-.46.5-2.47.5h-.33c-1.38,0-3.47,0-4.59,2.21-1.27,2.56.59,7.59,1,8.58.73,1.84,2.26,5.06,4.36,5.85,1.89.71,2.1,1.54,1.84,2.81a6.17,6.17,0,0,0,3.44,7.33c1.92,1,2.52,2.42,2,4.79-.26,1.17-.85,3.9,1.65,5.05,2.78,1.29,4.2,3.74,5.33,6.19a3.54,3.54,0,0,0,2.09,2.12,3.77,3.77,0,0,0,2.95-.58l.16-.09c2.23-1.33,4.66-2.78,6-5.49.65,2,1.38,3.94,3.42,5.21s3.31,3.23,4.3,6.54a75.89,75.89,0,0,1,2.72,11.93c.05.38.12.78.2,1.18.34,1.94.5,3.17-.57,4.09-3.59,3.06-5,7-4.4,12.09a2.37,2.37,0,0,1-.29,1.75,2.21,2.21,0,0,1-1.57.51,1.55,1.55,0,0,0-.63.16l-.51.27a7.82,7.82,0,0,1-.86.44c-6.37,2.48-6.77,3-7.07,9.78l0,.5c-.32,6.94-1.91,11.73-5.15,15.55-1.74,2-3.56,4.57-3.81,7.82-.1,1.32-.41,5.34,3.26,6.31a5.25,5.25,0,0,0,1.36.19c1.59,0,3.53-.77,5.36-3.54a4.29,4.29,0,0,0,.58-1.71c0-.13.05-.29.08-.41,3.81-1,3.55-4.18,3.39-6.07,0-.2,0-.4,0-.59a2.56,2.56,0,0,1,1.67-2.81,21.12,21.12,0,0,0,3.23-1.41c.71-.36,1.37-.7,2.06-1a3,3,0,0,1,2.47,0,2.1,2.1,0,0,1,1,1.55c.41,2.24.93,3.81,2.23,4.67s3,.75,5.47.22a1.57,1.57,0,0,0,.57-.27c2.42-1.87,3.75-2.89,3.88-4.49s-1.05-2.94-3.44-5.56a11.62,11.62,0,0,1-1-1.18c-2.06-2.88-1.72-5.16,1.1-7.38a21,21,0,0,1,6-3.17c4.57-1.69,6.86-5.24,6.63-10.28a8.54,8.54,0,0,1,3.49-7.81c2.68-2.07,3.82-4.19,3.38-6.3a25.41,25.41,0,0,1-.28-5.63c.07-2.83.15-5.76-1.07-8.67-.62-1.48-.32-2.26.33-3,2.8-3.05,9.61-3.9,12.79-1.6a7.07,7.07,0,0,1,.94.9,10.47,10.47,0,0,0,1.21,1.17c1.7,1.34,1.84,2,1.82,2.3s-.29.94-2.29,2a7.15,7.15,0,0,1-1,.4c-1.28.44-3.41,1.19-3.33,3.69.06,2.2,1.91,3,3.13,3.5a6.5,6.5,0,0,1,1.09.54,6.64,6.64,0,0,0,1.57.83c2.66.9,3.56,2.57,3.11,5.77-.87,6.12,0,7.84,5.54,10.77,1.73.92,2.75,1.8,3.15,3.79a5.69,5.69,0,0,0,6.93,4.59,5.19,5.19,0,0,1,3.92.81l1.62,1.06c1.17.76,2.37,1.56,3.62,2.28.88.5,2.56,1.24,3.95.47a2.81,2.81,0,0,0,1.38-2.56c.05-1.18.18-2.37.31-3.62.42-4,.86-8.09-1.3-12.14a3.23,3.23,0,0,1-.54-2.36,1.83,1.83,0,0,1,.76-.89,7,7,0,0,0,8.95-.18c3.41.37,6.33.79,8,3.94,1,1.76,3,2,4.42,2.2l.69.09c3.13.49,6.28,2.56,6.6,3.6a17.38,17.38,0,0,0,6.94,9.33,3,3,0,0,1,.67.63,3.3,3.3,0,0,1-.77.52,15.2,15.2,0,0,0-5.9,5.83c-.59.95-2.38,3.83-1,5.84a32,32,0,0,1,2.64,5,37.49,37.49,0,0,0,2.66,5.09c1.27,1.91,2.94,3.92,5.79,4.34l.22,0c1.05.16,2.8.44,4.05-1s.56-3.26.13-4.17l-.14-.29q-1.36-3-2.77-6c-.62-1.32-.37-1.47.11-1.76s.67-.4,1.78.79a5.44,5.44,0,0,1,1,2l.08.23c1.25,3.63,4.38,4.91,8.6,3.48a4.88,4.88,0,0,0,3.05-2.4c.83-1.77.06-3.78-.45-5.11a13.56,13.56,0,0,0-.83-1.76c-.08-.16-.15-.29-.19-.39l.38,0c1.4,0,3.34-.19,4.14-1.69s-.09-3.23-1-4.56a2.3,2.3,0,0,1-.47-1.95,2.41,2.41,0,0,1,1.75-1.21c6.27-1.69,8.81-1.3,11.46,4.33,2.78,5.9,7.8,6.44,11.85,6.24a19.49,19.49,0,0,1,7.86,1.11c3,1.11,5.58-.06,7.84-1.09a11,11,0,0,1,4.24-1.31,3.2,3.2,0,0,0,2.71-2.42,3.73,3.73,0,0,0-1.53-4.24,4.78,4.78,0,0,1-.2-.52c-.06-.19-.13-.37-.2-.55a16.35,16.35,0,0,1-.29-3.23,10.49,10.49,0,0,1,2.5-.58,4.57,4.57,0,0,1,.67-.05c1,0,3.2-.1,3.65-2.6.49-2.78-1.79-3.76-3-4.29l-.32-.13c-3.27-1.46-4.56-4.3-5.57-8.4-.08-.31-.07-.47-.09-.5a2.11,2.11,0,0,1,.74-.16,5.4,5.4,0,0,1,2.73.91,6.06,6.06,0,0,0,3.34,1c5.09-.46,7.76,2.1,11.57,6.36,2.48,2.79,6.62,3.4,11.37,1.69,3.5-1.27,3.5-4.17,3.49-6.09a12.89,12.89,0,0,1,.06-1.57l.18-1.21c.1-.64.2-1.28.28-1.92.05-.46.11-.92.17-1.37.43-3.45.89-7-.83-10.67-.23-.5-.19-.74-.17-.78s.41-.27,1.14-.25c1.33,0,2.67.09,4,.16,1.09.05,2.18.11,3.27.14a5.44,5.44,0,0,0,4.13-1.2,3.88,3.88,0,0,0,1.16-2.83c.05-2.75,1.34-4.48,4.3-5.77A7.83,7.83,0,0,0,614,326.3a11.86,11.86,0,0,1,6.24-5.07l1-.11c.44,0,.9,0,1.35-.05a17.25,17.25,0,0,0,3.32-.31c2.72-.6,4.79.26,6.92,2.91a18.81,18.81,0,0,1,2.79,5.66c.27.74.54,1.48.86,2.27l.52,1.12.28,1.18a7.12,7.12,0,0,0,3.43,4.07l.09.06a2.41,2.41,0,0,0-.5,1.71,2,2,0,0,0,.9,1.46,1.89,1.89,0,0,0,1.6.39,3,3,0,0,0,.72-.29,2.08,2.08,0,0,0,.21.21,1.55,1.55,0,0,0,.84.27,1.43,1.43,0,0,0,.54-.13,3.13,3.13,0,0,1,.67.73,41.68,41.68,0,0,0,6,7.78,52.21,52.21,0,0,1,4.43,5.36c.78,1.13,2,2.49,3.55,2.42a2.59,2.59,0,0,0,2.16-1.41,20,20,0,0,1,2.65-3.33c2-2.16,4.2-4.6,4.36-8.29.1-2.45.37-5,.62-7.4.54-5.09,1.09-10.35.3-15.68-.51-3.45-.16-5.66,1.14-7.18A26.45,26.45,0,0,0,676.79,303c1-3.88.27-7.22-.4-10.46a32.27,32.27,0,0,1-.78-5,1.76,1.76,0,0,0-.07-.4c-.68-2-.12-3.4,2.07-5.23a24.31,24.31,0,0,1,11.22-5.33c2.93,0,5.06,1.51,7.32,5.17.87,1.4,2.67,4.31,6.55,3.92.36,0,.77,0,.87.28,1.09,2.48,3.13,3.79,4.93,4.94l1,.65a1.4,1.4,0,0,0,.93.25c1.43-.12,2.84-.39,4.2-.64a20.86,20.86,0,0,1,6.72-.55,2.38,2.38,0,0,0,1.92-.54,3.91,3.91,0,0,0,1-3,22.87,22.87,0,0,0-.57-6.86,5.84,5.84,0,0,1,.78-5.09,6.52,6.52,0,0,1,5.06-2.58c.87-.05,1.42.17,1.84,1.47a10.44,10.44,0,0,1,.33,3.31c0,.61,0,1.22,0,1.82a6.35,6.35,0,0,1-.08.88c-.16,1-.47,3.17,1.69,4.1,1.54.67,3.85.77,6.08-2.51h0a3.66,3.66,0,0,0,.67-2.32c1-.47,2-1,2.94-1.51,3.72-2,7.23-3.85,11.55-2.54a3.82,3.82,0,0,0,5-2.89c.25-1,1-4.06-1.88-5.85s-5.53-1.19-7.88-.42c-3.5,1.14-6.46,1.8-9.49,1.34h-.14l-1.17-.06-.88-.35a1.89,1.89,0,0,0-.34-.09c-3.6-.47-7.23-3.23-9.46-7.19-2-3.54-2.47-7.33-1.24-10.13,1-2.38,2.34-3.56,4.35-3.95a23.27,23.27,0,0,0,3.5-1.05c2.38-.85,4.43-1.58,6.69-.63a1.58,1.58,0,0,0,.43.1c7.89.69,16.31-.25,25.76-2.86.94,0,3.06-.18,3.5-2.48l.71-1c.69-1,1.41-2,2-3,1.14-2,2.15-2.07,3.47-1.45,2.4,2.73,5.64,3.85,8.77,4.76a4.08,4.08,0,0,0,3.4-.49,4.67,4.67,0,0,0,1.91-2.6c.24-.84.58-1.4.91-1.51.15-.05.75-.14,2.16.89a9.58,9.58,0,0,0,8.31,1.84,1.46,1.46,0,0,0,.77-.46c.41-.47.84-.66,2-.39a27.76,27.76,0,0,0,7.9.33c.94,0,1.87-.11,2.81-.12,2.82,0,4.58-2,6-3.61l.11-.13c1.36-1.52,2.33-2.27,2.95-2.27h0c.62,0,1.58.81,2.93,2.44a23.17,23.17,0,0,0,1.72,1.83l.76.75a1.44,1.44,0,0,0,1.69.28,11.35,11.35,0,0,1,3.56-.84c2.51-.33,5.62-.73,7.51-4a3.87,3.87,0,0,1,1.17-.33c2-.3,4.45-1.51,4.57-5.52.06-2,.33-3.57,1.49-4.87s2.6-3.93-.79-7.14a17.75,17.75,0,0,0-4.15-2.72c-.7-.36-1.35-.7-2-1.09-1.41-.88-1.76-1.4-1.81-1.68s.1-.85,1-2a13.39,13.39,0,0,0,2.28-5.2c.2-.74.39-1.43.64-2.09.57-1.54,1.1-3.09,1.64-4.65.89-2.6,1.81-5.28,2.9-7.8a11.12,11.12,0,0,1,2.26-2.93,19.47,19.47,0,0,0,2.32-2.76,1.72,1.72,0,0,0,.19-.44,19.13,19.13,0,0,0,.32-5.51,15.1,15.1,0,0,1,.31-5,1.86,1.86,0,0,0-.33-1.64ZM724.6,80.28A1.48,1.48,0,0,1,724,80l.8-.62.34,1A1.12,1.12,0,0,1,724.6,80.28Zm128.45,92.94a17.2,17.2,0,0,1-.18,4.45,18.7,18.7,0,0,1-1.85,2.14,13.62,13.62,0,0,0-2.83,3.78c-1.13,2.62-2.07,5.36-3,8-.52,1.53-1.05,3.07-1.61,4.58-.29.78-.51,1.57-.71,2.33a11.07,11.07,0,0,1-1.76,4.16c-.91,1.15-1.92,2.68-1.64,4.34s1.75,2.78,3.13,3.65c.72.44,1.45.83,2.16,1.2a15.12,15.12,0,0,1,3.5,2.25c1.71,1.62,1.3,2.37.63,3.11-1.85,2.06-2.16,4.45-2.23,6.72-.06,2-.81,2.54-2.1,2.74-1.64.24-2.72.81-3.2,1.67-1.12,2-2.79,2.3-5.42,2.65a17.21,17.21,0,0,0-3.51.71l-.09-.1c-.55-.54-1.07-1.05-1.53-1.6-1.7-2.07-3.23-3.46-5.11-3.5s-3.67,1.54-5.19,3.25l-.1.12c-1.25,1.4-2.34,2.62-3.88,2.64-1,0-1.95.07-2.93.12a25.21,25.21,0,0,1-7.08-.25,4.67,4.67,0,0,0-4.52.93,6.73,6.73,0,0,1-5.55-1.44c-1.84-1.35-3.41-1.77-4.81-1.29s-2.22,1.59-2.76,3.44a1.77,1.77,0,0,1-.69,1,1.18,1.18,0,0,1-1,.14c-2.9-.85-5.66-1.8-7.56-4.07a1.39,1.39,0,0,0-.44-.36c-1.77-.92-5.11-1.84-7.57,2.46a30.31,30.31,0,0,1-1.87,2.8l-.81,1.14-1.85,1.24c-9.13,2.52-16.92,3.41-24.48,2.77-3.21-1.24-6.05-.23-8.56.67a22.37,22.37,0,0,1-3.08.94,8.74,8.74,0,0,0-6.46,5.63c-1.58,3.63-1.07,8.38,1.37,12.72,2.64,4.67,7,8,11.43,8.61l.94.37a1.4,1.4,0,0,0,.45.1l1.34.07c4,.58,7.63-.45,10.75-1.47,2.08-.68,3.8-.91,5.44.12.71.45,1,1,.61,2.72a1.23,1.23,0,0,1-.49.77,1.15,1.15,0,0,1-.89,0c-5.46-1.65-9.87.69-13.75,2.77-1.32.7-2.57,1.37-3.86,1.9v0a1.25,1.25,0,0,0-.47.3,1.42,1.42,0,0,0-.41,1.24,1.46,1.46,0,0,0-.35.94v.09a4,4,0,0,0,.1.73c-1.15,1.47-1.83,1.18-2.25,1a3.49,3.49,0,0,1,.07-1,6.49,6.49,0,0,0,.11-1.49c0-.54,0-1.08,0-1.62a13.06,13.06,0,0,0-.47-4.24,4.48,4.48,0,0,0-4.75-3.46,9.45,9.45,0,0,0-7.27,3.79,8.68,8.68,0,0,0-1.21,7.57,20.29,20.29,0,0,1,.46,6.08,4.32,4.32,0,0,1,0,.62,24.5,24.5,0,0,0-7.26.62c-1.17.22-2.29.43-3.41.55l-.61-.4c-1.67-1.06-3.11-2-3.84-3.66a3.61,3.61,0,0,0-3.83-2c-1.56.16-2.48-.45-3.78-2.56-1.89-3.05-4.7-6.54-9.8-6.54h-.15a1,1,0,0,0-.25,0,27.06,27.06,0,0,0-12.67,6c-1.91,1.59-4.29,4.17-3,8.19a37.2,37.2,0,0,0,.82,5.29c.63,3.05,1.23,5.94.43,9.18a23.71,23.71,0,0,1-5.2,10.44c-2.45,2.87-2.21,6.79-1.81,9.49.74,5,.23,9.82-.31,15-.26,2.47-.53,5-.64,7.58s-1.73,4.41-3.6,6.45a24,24,0,0,0-2.92,3.67,5.07,5.07,0,0,1-.91-1,54,54,0,0,0-4.67-5.66,39.18,39.18,0,0,1-5.58-7.23,7.19,7.19,0,0,0-1.77-1.93c-.17-.14-.35-.28-.51-.43a3.13,3.13,0,0,0-2-1.74,13.29,13.29,0,0,0-1.74-1.32c-1.22-.82-2-1.38-2.24-2.38l-.31-1.29a1.34,1.34,0,0,0-.09-.26l-.55-1.2c-.28-.69-.54-1.4-.8-2.1a21.26,21.26,0,0,0-3.25-6.49c-1.79-2.22-4.76-5-9.8-3.92a15.23,15.23,0,0,1-2.78.24c-.49,0-1,0-1.52.07l-1.24.12a1.65,1.65,0,0,0-.32.07,14.86,14.86,0,0,0-7.91,6.32,4.88,4.88,0,0,1-2.1,2.05c-4,1.75-6,4.48-6,8.37,0,.56-.2.73-.25.78s-.7.45-2,.42l-3.22-.14c-1.36-.07-2.73-.14-4.09-.17a4,4,0,0,0-3.63,1.57,3.56,3.56,0,0,0,0,3.59c1.36,2.9,1,5.9.57,9.07-.06.47-.12.94-.17,1.41s-.17,1.2-.26,1.8c-.06.42-.13.84-.19,1.26a14.8,14.8,0,0,0-.09,2c0,2.1-.11,2.82-1.58,3.35-2.1.76-6,1.65-8.22-.89-3.49-3.9-7.09-7.95-14-7.31a4.85,4.85,0,0,1-1.72-.69,7.83,7.83,0,0,0-4.32-1.24,3.64,3.64,0,0,0-2.85,1.35,3.36,3.36,0,0,0-.37,2.9c1,4.16,2.61,8.3,7.2,10.34l.35.16c1.4.6,1.37.73,1.31,1.11a.87.87,0,0,0,0,.13,4.13,4.13,0,0,1-.86.09,7.35,7.35,0,0,0-1.15.1c-5,.85-5.23,1.79-4.48,7.24a1.55,1.55,0,0,0,.12.42c.07.15.12.31.18.48a3.49,3.49,0,0,0,1.18,1.88c.58.41.57.74.57.84a1.05,1.05,0,0,1-.27.63,13.74,13.74,0,0,0-5.17,1.57c-2,.91-3.72,1.7-5.63,1a22.21,22.21,0,0,0-9-1.29c-4.08.19-7.17-.5-9.09-4.57-2.68-5.7-5.84-8.32-14.84-5.89a5.17,5.17,0,0,0-3.7,3,5,5,0,0,0,.76,4.57,5.51,5.51,0,0,1,.79,1.57,4.57,4.57,0,0,1-1.55.19c-.58,0-2.32,0-3.09,1.34s.1,2.88.39,3.39a10.32,10.32,0,0,1,.64,1.38c.41,1.06.82,2.23.54,2.83a2.34,2.34,0,0,1-1.36.89c-3.46,1.17-4.45-.28-4.93-1.67l-.07-.22a8,8,0,0,0-1.61-3.06c-.8-.87-2.7-2.92-5.39-1.3-2,1.19-2.39,3-1.24,5.47q1.39,3,2.75,6l.16.35c.13.27.38.79.31,1s-.57.17-1.42,0l-.24,0c-1.62-.24-2.69-1.41-3.8-3.08a35.71,35.71,0,0,1-2.44-4.69,35.48,35.48,0,0,0-2.88-5.43s-.2-.65,1.06-2.68a12.3,12.3,0,0,1,4.78-4.79c.55-.29,2.24-1.17,2.38-2.86s-1.4-2.82-1.9-3.19c-3.22-2.38-4.92-4.65-5.89-7.84-.88-2.9-5.75-5.13-8.93-5.62l-.76-.11c-.94-.11-2-.25-2.24-.7-2.49-4.6-6.81-5.07-10.63-5.48l-.23,0a1.43,1.43,0,0,0-1.1.34c-2.26,1.93-4.25,1.92-6.44,0a1.46,1.46,0,0,0-1.57-.23,5.28,5.28,0,0,0-3.07,3,5.8,5.8,0,0,0,.73,4.65c1.74,3.27,1.37,6.77,1,10.48-.13,1.24-.27,2.53-.32,3.81,0,0,0,.06,0,.09a3.48,3.48,0,0,1-1-.41c-1.17-.67-2.34-1.44-3.47-2.18q-.81-.56-1.65-1.08a8.07,8.07,0,0,0-6-1.22,2.81,2.81,0,0,1-3.55-2.32,7.93,7.93,0,0,0-4.63-5.77c-4.46-2.37-4.73-2.88-4-7.81.64-4.56-1.05-7.56-5-8.92a3.69,3.69,0,0,1-.88-.48,8.46,8.46,0,0,0-1.59-.8c-1.08-.46-1.36-.65-1.37-.93s.05-.39,1.39-.86a9.79,9.79,0,0,0,1.43-.59c1.54-.84,3.61-2.2,3.79-4.34s-1.57-3.76-2.9-4.81a9,9,0,0,1-.89-.87,8.41,8.41,0,0,0-1.36-1.28c-4.41-3.18-12.8-2.18-16.62,2a5.28,5.28,0,0,0-.88,6c1,2.33.92,4.83.86,7.48a27.37,27.37,0,0,0,.33,6.29c.24,1.16-1.13,2.5-2.32,3.42a11.45,11.45,0,0,0-4.6,10.23c.17,3.81-1.34,6.17-4.74,7.43a25.19,25.19,0,0,0-6.83,3.61c-4,3.18-4.61,7.21-1.66,11.35a16,16,0,0,0,1.24,1.47c1.3,1.42,2.65,2.89,2.68,3.32A11.13,11.13,0,0,1,390,390c-.87.18-2.42.46-2.93.13s-.79-1.74-1-2.79a5,5,0,0,0-2.44-3.56,5.68,5.68,0,0,0-4.93-.12c-.82.32-1.58.71-2.31,1.08a18.92,18.92,0,0,1-2.79,1.24,5.47,5.47,0,0,0-3.7,5.76c0,.21,0,.42.05.64.19,2.2.09,2.71-1.39,3.06a2.89,2.89,0,0,0-2.05,2.68,2.78,2.78,0,0,1-.14.61c-1.74,2.64-3.06,2.29-3.55,2.15-.68-.18-1.33-.58-1.12-3.29.19-2.41,1.61-4.39,3.13-6.16,4.72-5.56,5.6-12.16,5.84-17.3l0-.5c.12-2.7.19-4.19.71-4.91s1.83-1.25,4.52-2.3a11.21,11.21,0,0,0,1.2-.59l.18-.1a4.6,4.6,0,0,0,3.33-1.5,4.91,4.91,0,0,0,1-4c-.51-4.09.57-7.12,3.4-9.54,2.4-2,1.9-4.8,1.54-6.8q-.1-.54-.18-1.05a78.07,78.07,0,0,0-2.81-12.38c-.81-2.69-2.17-6.05-5.55-8.16-1.19-.75-1.63-1.95-2.3-4a21.18,21.18,0,0,0-1.87-4.45,1.45,1.45,0,0,0-2.69.76c.07,4.57-2.41,6.05-5.54,7.92l-.16.09a2.26,2.26,0,0,1-.6.28,2.05,2.05,0,0,1-.33-.54c-1.29-2.81-3.1-5.92-6.75-7.6-.22-.11-.36-.3,0-1.81,1-4.6-1.35-6.88-3.5-8a3.33,3.33,0,0,1-1.94-4.16c.61-2.91-.62-5-3.64-6.11-.47-.18-1.62-1.48-2.69-4.2-1.2-3.06-1.4-5.58-1.08-6.23s.54-.62,2-.61h.36c1.68,0,3.74-.2,4.83-1.71s.59-3.45.13-4.8a1.74,1.74,0,0,1,.62-2.34c1-.85,1.92-1.76,2.82-2.64l1-1,.11-.11a2.56,2.56,0,0,0,1.07-2.19,2.12,2.12,0,0,0-1.21-1.61,3,3,0,0,1-.65-.45,9.22,9.22,0,0,1,.75-.83l.44-.45.31-.33c1-1.08,2.46-2.57,1.87-4.89s.44-2.91,2.76-4.22c.43-.24.86-.49,1.27-.74.21-.14.35-.15.42-.08,1.68,2.91,4.33,3.13,6.66,3.33a7.55,7.55,0,0,1,3,1.22c1.63.93,3.47,2,6,1.63a4.84,4.84,0,0,1,1.26.08,8.16,8.16,0,0,0,2.76,0,1.45,1.45,0,0,1,1.14.11c.24.18.66.74.79,2.45v.13c.44,5.66,1,6.23,6.6,6.73,5.19.47,6.75,1.86,7.58,6.74.45,2.69.75,5.46,1,8.14a107.75,107.75,0,0,0,1.54,10.79c.75,3.56,2.15,6.88,7.28,7.07,4.8.18,8.68-3,9.08-7.32a21.57,21.57,0,0,0-.22-4.63l-.06-.5c-.37-3.12-.28-5.68,1.34-8,2-2.88,1.52-6,1.1-8.75,0-.35-.11-.7-.16-1.05a35.78,35.78,0,0,1-.35-7.65,12.26,12.26,0,0,1,3.3-7.81c3.4-3.59,5-13,2.9-17.26-.78-1.6-.88-2.44-.38-3.2a9,9,0,0,0,.71-8.16,1.26,1.26,0,0,0-.16-.33c-.17-.26-.31-.51-.45-.77l.68-.87-.48.6.46-.61a1.44,1.44,0,0,0-1.14-.29,8.13,8.13,0,0,1-.27-1.39l.11,0a1.45,1.45,0,0,0,1.71-1.13h0v-.07h0a1.72,1.72,0,0,0-.33-1.21h0a1.46,1.46,0,0,0-1.53-.55,1.51,1.51,0,0,1,.12-.2,1.39,1.39,0,0,0,.23-.58c.32-2,1.92-2.89,3.77-3.95l.59-.34c1.92-1.11,6.43-3.73,3.92-9.38a4.15,4.15,0,0,1,.28-2.72c1.69-5.38.7-10.27-.48-14.34-1-3.49-1-6.46,0-8.83a11.53,11.53,0,0,0,1.06-6.49,73.63,73.63,0,0,1-.59-7.86c-.19-5-.39-10.13-2.47-15.06a1.51,1.51,0,0,0-.22-.37c-5.44-6.53-12.83-10.43-23.27-12.28-3.14-.55-5.31-1.72-6.81-3.68-2.12-2.74-4.71-2.46-6.73-1.9-5.31,1.45-12.34-1-15.67-5.42a3.63,3.63,0,0,1-1-2.35c.1-.52.68-1.14,1.74-1.82.2-.13.4-.25.61-.36l.23-.14c7.74-4.49,10.21-13.48,5.86-21.37a11.22,11.22,0,0,0-4.9-4.91l-.34-.17c-3.37-1.68-6.55-3.27-8.91-6a1.45,1.45,0,0,0-.77-.47,1.92,1.92,0,0,0-.7-1.16,1.54,1.54,0,0,0-.53-.26.82.82,0,0,1-.28-.11,1.37,1.37,0,0,0,0-.45,5.14,5.14,0,0,1,.4-3.72c4.36-8.21,6.58-15.39,7-22.61a11.43,11.43,0,0,1,2-4.91l.51-.89c3.45-6.12,3.93-12.24,1.45-17.87,1.39.5,1.64,1.44,1.73,2.91a4.64,4.64,0,0,0,7,4.1,6.13,6.13,0,0,0,2.17-1.67c5.2-6.83,11.33-4.63,18.42-2.08.46.16.91.34,1.36.52a17.2,17.2,0,0,0,4.95,1.37c2.56.21,4.63-.94,5.26-2.93,1.08-3.35,3.75-5.18,6.57-7.12,1-.69,2-1.4,3-2.19.59-.48,1.25-.91,1.94-1.37,2.25-1.48,4.79-3.15,5.23-6.83l.46.13c2.25.72,5.52,1.23,7.9-2.6.3-.48.59-.66.72-.66h0c.1,0,.37.14.72.65a5,5,0,0,0,3.41,2.45,5.36,5.36,0,0,0,4.24-1.56c.66-.56,1.45-.55,2.68-.49a6.29,6.29,0,0,0,3.25-.41c1.8-.89,1.82-2.74,1.84-4,0-1,0-1.67.46-2a2.43,2.43,0,0,1,2.95-.29c2.86,1.21,5.27,1,7.19-.79,1-.91,1.77-.72,3.58,0a16.63,16.63,0,0,0,1.64.56c2.23.57,4.42,1,6.68-.46.41-.26.71-.45,1.52.43a1.48,1.48,0,0,0,1.15.47,1.21,1.21,0,0,1,.79.12,1.6,1.6,0,0,1,.16,1.05,1.47,1.47,0,0,0,.37,1,1.45,1.45,0,0,0,1,.48l1.35.07a1.44,1.44,0,0,0,1.31-.69v0l.28.2c.19.13.37.26.56.37a1.3,1.3,0,0,0,.29.14c1.4.47,4.07.77,6.26-2.57a6,6,0,0,1,2.54-2l.2-.13a2.42,2.42,0,0,1,1.77-.67c.64.11,1.23.84,1.67,1.5,1,1.46,2.14,3.11,4,3.43a4.89,4.89,0,0,0,3.64-1.05l.12.07c0,4.83,3.94,5.86,6.36,6.49.42.11.84.22,1.22.34,7.11,2.26,8.44,4.55,6.45,11.12l-.12.39a3.94,3.94,0,0,0-.09,3.17,3.26,3.26,0,0,0,1.9,1.51c.76,4.74,3.68,8.07,6.55,11.26a5.26,5.26,0,0,1-.51.24,7.48,7.48,0,0,0-1,.5c-2,1.35-4.74,3.46-4.65,6.24s2.89,4.7,5,5.93l1.28,1a10.37,10.37,0,0,1-2.74,2c-.44.26-.88.52-1.3.79-2.85,1.86-4.69,3.43-5,5.52s.87,4.12,3,6.76,2.4,5.06,1,7.81c-2.13,4.31-2.11,8.23.07,12a5.52,5.52,0,0,1,.4,4.82,1.65,1.65,0,0,0-.09.54c.13,4.37,3.56,8.68,8.53,10.73l.38.15c5.25,2.15,8.41,3.74,7.52,9.07a3.62,3.62,0,0,0,.52,2.23c.18.35.38.68.57,1,.76,1.28,1.22,2.05.64,3.68a2.85,2.85,0,0,0,.09,2.52c.65,1.1,1.93,1.3,3,1.46s1.46.27,1.49.51a1.82,1.82,0,0,0,.41.83c1.47,2.52,3.67,3.19,6.19,1.88a2.16,2.16,0,0,1,3,.4l.74.89c4,4.84,7.82,9.41,6.65,16.07a8.47,8.47,0,0,0,4.68,9.52c4.18,2.13,8.32,2,12-.32a15.54,15.54,0,0,0,7.12-10.47c1-5.87,4-10.37,9.34-14.18,2.33-1.64,6.67-4.7,6.07-10.63-1-9.28-2-17.63-4.66-25.76a28,28,0,0,1-1.76-8,2,2,0,0,0-.06-.35l-2-6.92c-1.26-4.57-2.41-10-1.46-15.73A8.89,8.89,0,0,0,600,66.9c-2.62-3.05-3.78-6.76-4.75-10.29l-.06-.22a4.49,4.49,0,0,1-.24-1.2c3.14-2.55,2.6-5.75,2.17-8.32-.06-.32-.11-.65-.16-1l-.12-.69c-.3-1.74-.28-2.24.61-2.73a1.49,1.49,0,0,0,.69-.9c.2-.73.22-.79,1.6-.67a6,6,0,0,0,2.29-.11,1.47,1.47,0,0,0,1-.9l1.11-1.58h0c2.79-.39,5.59-1.48,6.5-5.64.26-1.19,1.91-2.32,3.75-2.56,1-.13,2.29,0,2.72.86.88,1.73,1.82,2.67,2.93,3a4.33,4.33,0,0,0,3.47-1c.29-.19.59-.39.91-.56a2.5,2.5,0,0,1,.76-.26c5.2,2.59,7.75-1.38,8.87-3.45,4.29-1.74,9.06-1.71,15.36.07,2.4.68,4.77,1.1,7.33-1.28a4.34,4.34,0,0,1,3.45-1.24,4.7,4.7,0,0,1,3.31,2.21,4.47,4.47,0,0,0,2.78,2c1.54.38,1.95,1.06,1.64,2.71a5,5,0,0,0,.4,3.83,3.15,3.15,0,0,0,2.12,1.3c2.9.53,4.07,1.64,4.32,4.09a4.57,4.57,0,0,0,2.07,2.88,4.53,4.53,0,0,1,1.82,4.49l-.05.52c-.28,2.86-.59,6.1,2.26,8.74a.42.42,0,0,1,.05.17c-2.41,1.85-3.15,4.44-3.81,6.74a17.05,17.05,0,0,1-1.22,3.36c-.14.27-.32.54-.5.82-.83,1.28-2.09,3.22-.73,5.4C676.19,78,679,78,681,78h.5a9.66,9.66,0,0,0,6.83-3.15c.41-.4.8-.81,1.19-1.23s1-1,1.46-1.47a2.15,2.15,0,0,1,1-.61c.07,0,.31.29.51,1,.74,2.57,1.59,5.47.53,7.86-1.42,3.24.06,5.41,1.24,7.15l.36.52a3.33,3.33,0,0,0,3.15,1.72,2.93,2.93,0,0,0,2.34-2.11c.8-2.38,2.5-4.14,4.31-6a23.27,23.27,0,0,0,4.2-5.32c.34-.65.76-1,1-1s.64.35.77.51a35.08,35.08,0,0,0,5.78,5.43c1.27,1,2.46,2,3.57,3a1.45,1.45,0,0,0,.87.41,3.44,3.44,0,0,1,.89.65c.78.7,2.63,2.33,4.62.41A7.32,7.32,0,0,0,728,77.89a3.06,3.06,0,0,1-.09-.77,10.52,10.52,0,0,1,4.71-.93c.85,0,1.74-.09,2.63-.22l.18,0h.1a1.63,1.63,0,0,1,.14,1,8.7,8.7,0,0,1-1.57,3.85l-.15.25c-1.31,2.2-.78,4.33,1.56,6.34a3.2,3.2,0,0,0,2.51.92,3.63,3.63,0,0,0,2.42-1.86q.15-.23.3-.42a5.61,5.61,0,0,1,1.58-1.22l.8-.49a19.26,19.26,0,0,1,2.64-1.39c2-1,4.37-2,5.85-4.5.12-.19.23-.27.29-.28s.24,0,.48.25.38.32.59.49a3.75,3.75,0,0,1,.72.65,1,1,0,0,1-.17.37c-.31.51-.59,1-.88,1.55s-.44.79-.67,1.18a4.79,4.79,0,0,0-.77,4,4.67,4.67,0,0,0,3.05,2.63c1.15.44,1.87,1,2,1.55s-.21,1.52-1.06,2.57a4.77,4.77,0,0,0-1.34,3,56.86,56.86,0,0,1-2,12.22,76.26,76.26,0,0,0-1.91,10c0,.26,0,.51-.05.76,0,.51-.07,1-.15,1.44-.44,2.4-.49,4.23.67,5.37s3,1.07,5.3.62a1.66,1.66,0,0,0,.59-.27c2.89-2.16,5.27-3,7.94-2.88a9.86,9.86,0,0,0,8.41-3.94,6.08,6.08,0,0,1,5.74-2.35l.12,0a1.65,1.65,0,0,1,.93.21,1.47,1.47,0,0,0,.62.48,1.87,1.87,0,0,0,1.66.18c4.69-2,7.94-.92,10.86,3.46a6.36,6.36,0,0,0,1.89,1.65,4.57,4.57,0,0,1,1.87,1.79,2.61,2.61,0,0,0,2.46,1.91,3,3,0,0,0,2.57-2.24c.5-1.33.9-2.68,1.28-4,.14-.5.29-1,.44-1.5.13-.21.27-.41.41-.62.4-.62.82-1.25,1.18-1.95.13-.24.24-.49.36-.73s.14-.31.22-.47c.11.17.25.39.41.66A2.63,2.63,0,0,0,808,117.8c1.51,0,2.54-1.48,3-2.36,1-1.84,2.61-2.15,5.12-2.5a12.33,12.33,0,0,0,4.82-1.37c.21.4.43.93.54,1.19,1.15,2.76,2,4.27,3.59,4.9,1.73.69,3.72-.07,6.13-1.13.88-.39,1.8-.7,2.77-1l1.36-.47a1.32,1.32,0,0,0,.48-.29,1.82,1.82,0,0,0,1.53,0,44.42,44.42,0,0,0,8.61-.84l2.18-.35a12.12,12.12,0,0,1,1.8-.16,2.49,2.49,0,0,1,.65,0c0,.08.2.55-.32,2.6-.15.61-.31,1.22-.47,1.83-.29,1.08-.57,2.15-.82,3.23-.9,3.87-1.32,8.43,2.41,12.9,2.09,2.52,2.19,5.75.26,8.86-1.37,2.21-2.66,5.18-.41,8.63a5,5,0,0,1,.15,2.15,15,15,0,0,0,0,1.9,29.64,29.64,0,0,1,0,3.27c-.09,2.88-.19,6.13,1.89,9.05A19.5,19.5,0,0,0,853.05,173.22Z"/><path class="cls-1" d="M160.5,338.74a2.08,2.08,0,0,0,1.17.35,9.51,9.51,0,0,0,3.27-1c2.35-1,3.44-2.94,4.36-4.76l2.6-1.65.58-.13c1.23-.25,3.51-.71,3.77-3.65.29-3.34-2.44-4.57-3.47-5a21.61,21.61,0,0,1-2.56-1.46,16.41,16.41,0,0,0-4.68-2.27,1.45,1.45,0,0,0-1.55.58,25.33,25.33,0,0,0-4.56,14.71v.14C159.43,336.79,159.42,338,160.5,338.74Zm1.83-4.18v-.15a22.37,22.37,0,0,1,3.46-12.17,19.23,19.23,0,0,1,2.88,1.6,23.5,23.5,0,0,0,2.92,1.65c1.61.73,1.85,1.25,1.77,2.14-.05.6-.1.76-1,1a1.45,1.45,0,0,0-2.61.86v.14l-2.34,1.48a1.44,1.44,0,0,0-.53.59c-.83,1.67-1.55,3.11-3.06,3.74h0c-.44.19-1,.43-1.48.6C162.33,335.59,162.33,335.07,162.33,334.56Z"/><path class="cls-1" d="M274.63,377c.13-.07.34-.16.49-.22a8,8,0,0,0,1-.51c2.61-1.68,3.91-4.07,3.58-6.56a21.13,21.13,0,0,0-2.35-7.27,6.21,6.21,0,0,0-7.05-2.8,3.47,3.47,0,0,0-2.36,1.77,4.35,4.35,0,0,0-.13,3.56c.58,1.51-.06,2.62-1.15,4.31-.25.39-.5.78-.72,1.17A16.9,16.9,0,0,1,264,373a19.76,19.76,0,0,0-2.4,3.26c-.55,1-1.18,1.61-1.73,1.65s-1.29-.48-2-1.42c-1.44-1.9-3.41-4.5-7.32-3.89a.56.56,0,0,1-.39,0,.31.31,0,0,1,0-.17A5,5,0,0,0,249,368.2a4.41,4.41,0,0,0-2.57-1.19,1.64,1.64,0,0,0,1.17-1.09h0c.28-1,.18-2.27-1.79-3l-.06,0-.08,0h-.07a1.36,1.36,0,0,0-.35-.07h0a1.43,1.43,0,0,0-1.07.39,1.4,1.4,0,0,0-.44,1.1v0a2.13,2.13,0,0,0,0,.25.32.32,0,0,0,0,.09s0,0,0,0l0,.16c.16.46.31.93.5,1.42a1.51,1.51,0,0,0,.62.68c-.41,0-.83,0-1.23.05a1.5,1.5,0,0,0-.88.38,5.27,5.27,0,0,0-2,4.53,8.47,8.47,0,0,1-1,4.08c-.27.66-.55,1.34-.77,2.07a49.6,49.6,0,0,0-2,11.95l0,.88c-.14,3.46-.17,4.16-3,5.3a2.23,2.23,0,0,0-2.07.15,2.37,2.37,0,0,0-.77,2.36,2.23,2.23,0,0,1,0,.36,1.43,1.43,0,0,0,.38,1.08,6.82,6.82,0,0,1-.46,4.32,8.82,8.82,0,0,0,.2,8.62c.6,1,.34,1.28.2,1.42-3.41,3.42-.62,6.48.43,7.63a5.39,5.39,0,0,0,.69.61l.08.06c-2.76,3.16-1.46,6.61-.56,8.93.41,1.63.36,2.65-.17,3.39-2.41,3.37-2.65,7.08-2.89,10.66-.05.77-.1,1.54-.17,2.3-.51,5.37,2,6.81,6.23,7.41,2.21.31,3.4.6,4,1.73a2,2,0,0,0-.2.84,2.07,2.07,0,0,0,.38,1.29,4.07,4.07,0,0,1-.43,2.83,1.47,1.47,0,0,0-.24.84,20.31,20.31,0,0,1-2.57,9.71,9.92,9.92,0,0,0-.59,4.53,9.63,9.63,0,0,1-.26,3.23c-.29.93-.54,1.88-.79,2.82-.75,2.79-1.45,5.43-3.17,7.68a1.59,1.59,0,0,0-.28,1.25,1.41,1.41,0,0,0,.76,1.23,4.33,4.33,0,0,1,2.32,2.29,3.29,3.29,0,0,1-.49,2.52c-1.46,2.67-1.28,5.38.57,8.28,1.09,1.72,1,3.61.72,6.08a10.39,10.39,0,0,1-7,9.2,1.44,1.44,0,0,0-.75.69c-1.48,3-1.47,6.19-1.47,9,0,.44,0,.88,0,1.31,0,3.55,3.5,3.72,5.19,3.79l.81.05.16,0c.36,0,.79.07,1.23.07a3.17,3.17,0,0,0,2.51-.9,2.2,2.2,0,0,0,.41-2c-.8-3.09.75-4.52,3.4-6.5a2,2,0,0,0,.69-1.57,1,1,0,0,0,0-.25c0-.49,0-1,0-1.47,0-1.13,0-2.2,0-3.27s.24-1.32.27-1.35a.63.63,0,0,1,.19,0c3.89.16,6.29-1.83,8.12-4.07a1.93,1.93,0,0,0,1.28,0,1.87,1.87,0,0,0,1.08-1h0a1.91,1.91,0,0,0,0-1.71,1.45,1.45,0,0,0-.31-.44l0-.06a2.72,2.72,0,0,0,.11-.25,30.65,30.65,0,0,1,3.77-6.77l.85-1.27c.79-1.21,1.48-1.86,2-1.94s1.43.35,2.55,1.29a3.49,3.49,0,0,0,5.71-.68l1-1.33a37.13,37.13,0,0,0,5.81-9.3,1.54,1.54,0,0,0,.09-.52v-.93a3.9,3.9,0,0,0,.44-3.57,3.53,3.53,0,0,0-2.87-1.77c-2.44-1.83-3.75-4.51-5.12-7.34-.54-1.1-1.1-2.24-1.7-3.3-2-3.71-1.81-4.45,1.55-7.23,3.16-2.6,6.22-5.39,9.19-8.08,1.3-1.18,2.59-2.35,3.9-3.52a1.45,1.45,0,0,0,.4-1.56,9.91,9.91,0,0,0-2.28-3.36,14.74,14.74,0,0,1-1-1.17c-2.43-3.22-2.43-3.22.39-5.77a4.16,4.16,0,0,0,1.65-3.09,4.76,4.76,0,0,0-1.46-2.9c-.64-.71-1.34-1.36-2-2-1.69-1.6-3.29-3.12-3.87-5.29v-.14l0-2.14c.83-3.61.13-7.26-2.11-11.13-.57-1-1.12-1.95-1.56-2.92-1.17-2.58-1.17-5.12,0-6.8a4.37,4.37,0,0,1,3.66-1.81,2,2,0,0,0,1.19.6,2.35,2.35,0,0,0,2-.87l1.25-1.18a1.45,1.45,0,0,0,.46-1.16c-.53-7.11-1.41-8-8.58-8.56-1.41-.11-2-.26-2.21-.92-.1-.27-.14-.38.81-1.17l.14-.12c1-.84,3.66-3.08,1.61-6.54A15.35,15.35,0,0,0,274.63,377Zm-9.23,6.26a2.5,2.5,0,0,0-1.3,1.57,3,3,0,0,0,.34,2.37c.59.95.67,1.47-1,2.84l-.13.11c-.82.69-2.53,2.11-1.66,4.42.94,2.5,3.38,2.69,4.69,2.79,2.59.21,4.33.39,4.94,1s.75,2.08.92,4.2l-.46.43a1.56,1.56,0,0,0-.67-.22,7.47,7.47,0,0,0-6.9,3c-1.77,2.53-1.87,6.14-.27,9.66a34.52,34.52,0,0,0,1.69,3.17c1.92,3.31,2.48,6.22,1.77,9.16a1.24,1.24,0,0,0,0,.33l0,2.16a2.08,2.08,0,0,0,0,.86c.74,3.07,2.86,5.08,4.73,6.85.66.62,1.28,1.21,1.85,1.84s.71,1,.71,1,0,.24-.69.85c-4.32,3.9-4,5.41-.77,9.67.38.5.8.95,1.2,1.39a12.65,12.65,0,0,1,1.26,1.52l-3.1,2.8c-2.94,2.67-6,5.44-9.08,8-4.11,3.39-5.07,5.54-2.25,10.87.58,1,1.09,2.06,1.63,3.17,1.53,3.13,3.11,6.37,6.35,8.64a1.48,1.48,0,0,0,.67.25,2.63,2.63,0,0,1,1,.23,3.26,3.26,0,0,1-.5,1.12,1.46,1.46,0,0,0-.22.76v1.05a35.5,35.5,0,0,1-5.3,8.33c-.35.44-.69.89-1,1.35-.49.65-.7.71-.7.71s-.24,0-.84-.51c-1.25-1.05-2.94-2.22-4.84-1.93s-3.15,1.86-4,3.21l-.84,1.25a33.77,33.77,0,0,0-4.05,7.3l-.75,1.3-.22.3-.17.23h0c-1.77,2.38-3.56,3.94-6.39,3.82-1.47,0-3.28.61-3.47,4.1-.07,1.16-.06,2.33-.05,3.45,0,.43,0,.86,0,1.29-2.18,1.64-5,4.07-4.19,8.5-.34,0-.72,0-.92-.06l-.17,0-.92,0c-2.44-.11-2.43-.4-2.43-.87s0-.89,0-1.34c0-2.59,0-5,.95-7.27a13.28,13.28,0,0,0,8.2-11.33c.25-2.34.56-5.24-1.16-8-1.29-2-1.43-3.58-.46-5.34a6.08,6.08,0,0,0,.72-4.73,6.26,6.26,0,0,0-2.52-3.28,26.79,26.79,0,0,0,2.91-7.6c.24-.9.48-1.81.76-2.71a12.43,12.43,0,0,0,.39-4.18,7.58,7.58,0,0,1,.31-3.21,23.06,23.06,0,0,0,2.85-10.58,7.61,7.61,0,0,0,.6-4.79,2,2,0,0,1,0-1.61c-1.14-3.59-4.33-4-6.65-4.36-3.49-.49-4.05-1.13-3.75-4.27.07-.79.12-1.58.18-2.38.21-3.33.42-6.47,2.35-9.16,1.37-1.93,1-4.16.6-5.88,0-.06,0-.12-.05-.17-1-2.65-1.55-4.38.1-6.17a2.67,2.67,0,0,0,.82-2.05,3,3,0,0,0-1.4-2.09,3.19,3.19,0,0,1-.33-.27c-1.69-1.86-1.61-2.53-.52-3.63.74-.74,1.76-2.37.25-4.94a6,6,0,0,1-.08-5.92,9.74,9.74,0,0,0,.59-6.52l.18-.06c4.94-1.88,5.23-3.84,5.4-8.1l0-.87A46.57,46.57,0,0,1,242,378.89c.18-.6.43-1.19.68-1.82a11.06,11.06,0,0,0,1.17-5.47,2.11,2.11,0,0,1,.68-1.76c.83,0,2,0,2.47.41a2.56,2.56,0,0,1,.33,1.89,3,3,0,0,0,.94,2.53,3.35,3.35,0,0,0,2.81.78c2.06-.32,3.09.83,4.56,2.77,1.71,2.26,3.4,2.64,4.52,2.56s2.72-.69,4.06-3.15a16.91,16.91,0,0,1,2.07-2.77,19.61,19.61,0,0,0,2.23-3c.19-.34.41-.69.64-1,1.07-1.67,2.55-4,1.43-6.91a1.49,1.49,0,0,1,0-1.17.6.6,0,0,1,.47-.31,3.36,3.36,0,0,1,3.84,1.37,18.42,18.42,0,0,1,2,6.26c.24,1.83-1.33,3.13-2.28,3.74a4.87,4.87,0,0,1-.6.29,3.17,3.17,0,0,0-2,1.68A12.7,12.7,0,0,1,265.4,383.26Z"/><path class="cls-1" d="M221.87,422.34h0c-1.74-.57-5-.82-6.89,3.79a24.63,24.63,0,0,0-1.74,8.26,1.62,1.62,0,0,0,0,.22l.14,1.39a3.49,3.49,0,0,0-.55-.43l-.17-.11a1.44,1.44,0,0,0-1.75,0l-.77.55a1.47,1.47,0,0,0-.57,1,1.51,1.51,0,0,0,.35,1.13l.08.1a2.19,2.19,0,0,0,1.25.94,2.6,2.6,0,0,0,.61.07,2.12,2.12,0,0,0,1.39-.49,1.83,1.83,0,0,0,.37-.46l.25,2.46a1.88,1.88,0,0,1,0,.34,2.73,2.73,0,0,0,2.05,2.9,2.33,2.33,0,0,0,2.74-1.41l.11-.19a1.48,1.48,0,0,0,.3-.26,13.27,13.27,0,0,0,3.17-5.47l.91-3.59.34-1.16c.29-.94.58-1.91.83-2.89l0-.14C224.85,427,225.73,423.59,221.87,422.34ZM211.05,437.5a1.55,1.55,0,0,1,0-.21.45.45,0,0,1,0-.11l.13.19Zm0-.37a1,1,0,0,1,.33-.58.84.84,0,0,1,.51-.21h0Zm10.54-9,0,.15c-.24.92-.52,1.84-.79,2.76l-.37,1.24-.92,3.63a10.12,10.12,0,0,1-2.39,4.12,2.08,2.08,0,0,0-.32.27l-.61-5.9a21.42,21.42,0,0,1,1.52-7.18c1-2.5,2.21-2.51,3.32-2.15S222.19,425.74,221.56,428.16Z"/><path class="cls-1" d="M227.68,410.75c0-.19.06-.38.1-.55l0-.19c.2-2.35-.65-3.84-2.53-4.45-1.15-.36-3.54-1.13-5.1.62-1.09,1.23-.93,2.55.48,3.94a5.53,5.53,0,0,1,.38.41,4.14,4.14,0,0,0,.29.55l.08.12a6.18,6.18,0,0,1,.16.65,3.34,3.34,0,0,0,1.29,2.41,2.42,2.42,0,0,0,1.33.37,3.74,3.74,0,0,0,.85-.11C227.18,414,227.51,411.88,227.68,410.75Zm-2.75-1.07c0,.2-.08.41-.11.63a3.63,3.63,0,0,1-.34,1.3c0-.11,0-.22-.07-.31a4.87,4.87,0,0,0-.4-1.36,3.11,3.11,0,0,0-.22-.4.37.37,0,0,1-.07-.12,4.47,4.47,0,0,0-1-1.36l-.07-.07a5.12,5.12,0,0,1,1.78.33C224.74,408.44,225,408.52,224.93,409.68Z"/><path class="cls-1" d="M346.13,431.92c-1.4-.92-3.16-.07-3.74.22a3.45,3.45,0,0,1-.68.14l-.62.1a1.54,1.54,0,0,0-.58.27c-2.37,1.8-3.54,4.26-4.66,6.63-.33.69-.66,1.38-1,2.05a4.71,4.71,0,0,0,1.6,6.51,3.47,3.47,0,0,0,1.75.52c1.7,0,2.84-1.55,3.4-2.32l.27-.37a14.09,14.09,0,0,0,1.24-2l.16-.29a1.34,1.34,0,0,0,.34-.26l.08-.08,2.5-2.92a1.51,1.51,0,0,0,.18-.26,9.77,9.77,0,0,0,1.08-4.2C347.49,434.47,347.41,432.76,346.13,431.92Zm-1.59,3.62a7.12,7.12,0,0,1-.68,2.85l-2.06,2.4a1.43,1.43,0,0,0-.75.62c-.17.29-.33.58-.49.87a12,12,0,0,1-1,1.63l-.31.42c-.92,1.25-1,1.2-1.35,1-1.42-.83-.6-2.46-.5-2.64.38-.71.73-1.44,1.07-2.18,1-2,1.9-4,3.54-5.35l.12,0a5.28,5.28,0,0,0,1.54-.41,3.76,3.76,0,0,1,.83-.31A4.87,4.87,0,0,1,344.54,435.54Z"/><path class="cls-1" d="M355.57,438c-.8,0-3.05-.11-3.75,2.13l-.13.13a7.32,7.32,0,0,1-.88.76l-.28.19c-1,.64-3,2-1.79,4.56a4.31,4.31,0,0,0,4.28,2.58c.31,0,.63,0,1-.05a6,6,0,0,0,3.92-2.47,8.83,8.83,0,0,1,.88-.93,1.66,1.66,0,0,0,.31-.39c1.1-2,1.88-3.66,1.09-5S357.64,438,355.57,438Zm1.1,4.9c-.36.34-.66.69-1,1-.77.89-1.25,1.39-2.06,1.49-1.65.19-2-.28-2.28-.86a.94.94,0,0,1-.09-.26,3.9,3.9,0,0,1,.85-.68l.33-.21a10.23,10.23,0,0,0,1.23-1.06l.44-.41h0a1.07,1.07,0,0,0,.18-.19,1.39,1.39,0,0,0,.3-.81,2.54,2.54,0,0,1,.85,0h0a13.36,13.36,0,0,1,2,.14A12.71,12.71,0,0,1,356.67,442.86Z"/><path class="cls-1" d="M332.34,451.23c-.17-.21-.34-.4-.48-.58a1.44,1.44,0,0,0-1.6-.5,4.05,4.05,0,0,0-2.54,1.83,2.46,2.46,0,0,0,0,2c.4,1.06,1.22,3.21,3.58,3.21l.46,0a3.16,3.16,0,0,0,2.33-1.47,2,2,0,0,0,.06-1.92A12.51,12.51,0,0,0,332.34,451.23Z"/><path class="cls-1" d="M551.27,48.8a4.59,4.59,0,0,0,.87.09c2.42,0,3.16-2.2,3.49-3.33L557,43a4.13,4.13,0,0,1,.41-.55c.61-.75,2.24-2.74-.07-4.8s-4.36-.5-5.53.29a6.85,6.85,0,0,0-3.3,6.21c0,.2,0,.41,0,.62C548.46,45.81,548.4,48.26,551.27,48.8Zm.11-3.95a8,8,0,0,0,0-.85,4,4,0,0,1,2-3.67c1.39-.94,1.57-.88,2-.52a.89.89,0,0,1,.2.21,4.26,4.26,0,0,1-.45.6,9.23,9.23,0,0,0-.68,1L553,44.34a1.69,1.69,0,0,0-.11.27c-.43,1.47-.52,1.45-1.09,1.34a1.4,1.4,0,0,1-.36-.11A3.57,3.57,0,0,1,551.38,44.85Z"/><path class="cls-1" d="M361.36,247.83a5.07,5.07,0,0,0,.94.09,4.26,4.26,0,0,0,2.52-.79,4.37,4.37,0,0,0,1.72-3.13,14.66,14.66,0,0,0-.93-6.3c-.68-1.87-2.55-1.64-3.35-1.55a4.17,4.17,0,0,1-.72,0c-.31-.11-.62-.2-.93-.29a7.73,7.73,0,0,1-1.46-.52,4.07,4.07,0,0,0-5.17.68,4.85,4.85,0,0,0-1.44,4.83C353.26,244,358.14,247.75,361.36,247.83ZM356,238.14a1.25,1.25,0,0,1,1.77-.2,11.07,11.07,0,0,0,2,.76c.27.07.54.15.8.24a4.35,4.35,0,0,0,2,.09l.39,0a11.44,11.44,0,0,1,.65,4.72,1.44,1.44,0,0,1-.53,1.07,1.59,1.59,0,0,1-1.3.18,1.63,1.63,0,0,0-.31,0h-.07c-2,0-5.69-3.06-6.08-4.7A2,2,0,0,1,356,238.14Z"/><path class="cls-1" d="M341.09,237.53a5.57,5.57,0,0,0,2.22-.59,5.38,5.38,0,0,1,.55-.24c4.77-1.86,4.1-6,3.65-8.77-.41-2.54-2.16-4.05-4.34-3.75a2.81,2.81,0,0,0-2,1.1,3.62,3.62,0,0,0-.28,2.95l-1.28,1.54a3.9,3.9,0,0,0-1.9,2.27,4.82,4.82,0,0,0,.79,3.84A2.93,2.93,0,0,0,341.09,237.53Zm-.62-4.69c.08-.28.49-.52.72-.64a1.37,1.37,0,0,0,.46-.37l1.88-2.26a1.47,1.47,0,0,0,.32-1.1c0-.26-.08-.53-.14-.81a5.7,5.7,0,0,1-.11-.62c.72-.06,1,.82,1,1.35.53,3.27.51,4.69-1.85,5.61l-.68.29a6.77,6.77,0,0,1-.94.38,1.22,1.22,0,0,1-.2-.27C340.42,233.46,340.42,233,340.47,232.84Z"/><path class="cls-1" d="M480.84,209.54a1.26,1.26,0,0,0-.54.56l-9.67,17.57c-.18.34-.35.69-.49,1s-.29.69-.42,1.06c-.14-.36-.27-.71-.41-1.06a6.74,6.74,0,0,0-.49-1L459,210.1a1.17,1.17,0,0,0-.54-.56,2.69,2.69,0,0,0-.8-.1h-2.85V238h3.39V217c0-.28,0-.58,0-.92s-.05-.67-.09-1L468,233a1.54,1.54,0,0,0,1.4.9H470a1.54,1.54,0,0,0,1.39-.9l9.79-17.86-.06,1c0,.32,0,.62,0,.9v21h3.39V209.44h-2.85A2.74,2.74,0,0,0,480.84,209.54Z"/><path class="cls-1" d="M504.62,218a1.13,1.13,0,0,0-.41.53L499,231.26c-.12.3-.23.6-.32.9s-.19.59-.28.89a8.93,8.93,0,0,0-.23-.89,7.08,7.08,0,0,0-.31-.88l-5.4-12.72a1.42,1.42,0,0,0-.38-.51,1.05,1.05,0,0,0-.72-.23h-3.07l8.34,19-3.69,8h2.63a1.23,1.23,0,0,0,.83-.24,1.83,1.83,0,0,0,.45-.64l11.26-26.16h-2.83A1.06,1.06,0,0,0,504.62,218Z"/><path class="cls-1" d="M520.22,227.34a3.79,3.79,0,0,0-.65-.55,2.79,2.79,0,0,0,.61-.46c.18-.17.36-.37.55-.59l7.43-7.92h-3.23a1.38,1.38,0,0,0-.8.2,3.38,3.38,0,0,0-.59.52l-6.38,6.84a2,2,0,0,1-.58.44,1.63,1.63,0,0,1-.66.11H515V208.65h-3.57V238H515v-9.65h1a2.31,2.31,0,0,1,.9.13,1.46,1.46,0,0,1,.59.54l6.64,8.28a2,2,0,0,0,.59.53,1.6,1.6,0,0,0,.75.17h3.19l-7.9-10A5.08,5.08,0,0,0,520.22,227.34Z"/><path class="cls-1" d="M546.22,220.33a8.43,8.43,0,0,0-3-2.09,11.18,11.18,0,0,0-8,0,8.56,8.56,0,0,0-3,2.09,9.22,9.22,0,0,0-1.93,3.28,14,14,0,0,0,0,8.61,9.36,9.36,0,0,0,1.93,3.27,8.54,8.54,0,0,0,3,2.08,11.32,11.32,0,0,0,8,0,8.41,8.41,0,0,0,3-2.08,9.32,9.32,0,0,0,1.91-3.27,14.17,14.17,0,0,0,0-8.61A9.18,9.18,0,0,0,546.22,220.33Zm-2.56,13.19a5.2,5.2,0,0,1-4.47,2,6.26,6.26,0,0,1-2.63-.52,5,5,0,0,1-1.87-1.49,6.4,6.4,0,0,1-1.11-2.38,14.15,14.15,0,0,1,0-6.43,6.62,6.62,0,0,1,1.11-2.41,5,5,0,0,1,1.87-1.49,6.11,6.11,0,0,1,2.63-.52,5.2,5.2,0,0,1,4.47,2,9.42,9.42,0,0,1,1.47,5.63A9.29,9.29,0,0,1,543.66,233.52Z"/><path class="cls-1" d="M568.27,219.6a5.57,5.57,0,0,0-2.11-1.55,7.21,7.21,0,0,0-2.92-.55,7.63,7.63,0,0,0-3.76.9,11.27,11.27,0,0,0-2.94,2.35l-.28-2.19a.9.9,0,0,0-1-.74h-2.11V238h3.55V223.14a9.63,9.63,0,0,1,2.52-2,5.91,5.91,0,0,1,2.94-.76,3.89,3.89,0,0,1,3.2,1.27,5.42,5.42,0,0,1,1.05,3.56V238H570V225.16a10.57,10.57,0,0,0-.44-3.13A6.73,6.73,0,0,0,568.27,219.6Z"/><path class="cls-1" d="M590.57,220.33a8.43,8.43,0,0,0-3-2.09,11.18,11.18,0,0,0-8,0,8.56,8.56,0,0,0-3,2.09,9.22,9.22,0,0,0-1.93,3.28,14,14,0,0,0,0,8.61,9.36,9.36,0,0,0,1.93,3.27,8.54,8.54,0,0,0,3,2.08,11.32,11.32,0,0,0,8,0,8.41,8.41,0,0,0,3-2.08,9.32,9.32,0,0,0,1.91-3.27,14.17,14.17,0,0,0,0-8.61A9.18,9.18,0,0,0,590.57,220.33ZM588,233.52a5.2,5.2,0,0,1-4.47,2,6.26,6.26,0,0,1-2.63-.52,5,5,0,0,1-1.87-1.49,6.4,6.4,0,0,1-1.11-2.38,14.15,14.15,0,0,1,0-6.43A6.62,6.62,0,0,1,579,222.3a5,5,0,0,1,1.87-1.49,6.11,6.11,0,0,1,2.63-.52,5.2,5.2,0,0,1,4.47,2,9.42,9.42,0,0,1,1.47,5.63A9.29,9.29,0,0,1,588,233.52Z"/><path class="cls-1" d="M609.79,229.75a4.66,4.66,0,0,0-1.18-1.46,7.39,7.39,0,0,0-1.68-1c-.62-.27-1.27-.51-1.93-.73s-1.29-.42-1.92-.62a10.38,10.38,0,0,1-1.67-.66,4.18,4.18,0,0,1-1.19-.9,1.92,1.92,0,0,1-.45-1.3,2.46,2.46,0,0,1,.27-1.14,2.66,2.66,0,0,1,.78-.93,3.81,3.81,0,0,1,1.22-.63,5.42,5.42,0,0,1,1.62-.23,6.28,6.28,0,0,1,1.79.23,8,8,0,0,1,1.31.5c.37.18.68.34.93.49a1.45,1.45,0,0,0,.68.22.78.78,0,0,0,.73-.44l.8-1.3a8.45,8.45,0,0,0-2.74-1.72,9.64,9.64,0,0,0-3.58-.63,9,9,0,0,0-3.05.48,7,7,0,0,0-2.25,1.28,5.42,5.42,0,0,0-1.4,1.88,5.34,5.34,0,0,0-.48,2.22,5,5,0,0,0,.45,2.21,4.71,4.71,0,0,0,1.19,1.52,6.76,6.76,0,0,0,1.68,1c.63.27,1.28.51,1.94.73l1.93.6a10.62,10.62,0,0,1,1.69.68,3.74,3.74,0,0,1,1.18.94,2.12,2.12,0,0,1,.45,1.38,3.21,3.21,0,0,1-.25,1.28,2.92,2.92,0,0,1-.77,1.06,3.92,3.92,0,0,1-1.29.73,5.59,5.59,0,0,1-1.82.26,6.45,6.45,0,0,1-2-.27,8.19,8.19,0,0,1-1.38-.62c-.38-.23-.7-.43-1-.62a1.32,1.32,0,0,0-.76-.28,1.08,1.08,0,0,0-.58.14,1.22,1.22,0,0,0-.38.4l-.84,1.35a9.76,9.76,0,0,0,2.91,1.77,10.2,10.2,0,0,0,3.83.69,9.86,9.86,0,0,0,3.27-.5,7.11,7.11,0,0,0,2.4-1.37,5.62,5.62,0,0,0,1.47-2.05,6.63,6.63,0,0,0,.5-2.58A4.51,4.51,0,0,0,609.79,229.75Z"/><path class="cls-1" d="M826.38,263.6a12.64,12.64,0,0,0-4.45-2.91,15.35,15.35,0,0,0-5.74-1H805.5v28.58h10.69a15.55,15.55,0,0,0,5.74-1,12.76,12.76,0,0,0,4.45-2.9,12.9,12.9,0,0,0,2.87-4.51,17.23,17.23,0,0,0,0-11.68A13,13,0,0,0,826.38,263.6Zm-.8,15.07a9.68,9.68,0,0,1-2,3.49,8.71,8.71,0,0,1-3.19,2.19,11.14,11.14,0,0,1-4.17.76h-6.8V262.79h6.8a10.94,10.94,0,0,1,4.17.76,8.83,8.83,0,0,1,3.19,2.19,9.94,9.94,0,0,1,2,3.51,15.77,15.77,0,0,1,0,9.42Z"/><path class="cls-1" d="M844.49,267.68a5.65,5.65,0,0,0-3.58,1.18,9.37,9.37,0,0,0-2.57,3.3L838.1,269a1.32,1.32,0,0,0-.29-.75,1.13,1.13,0,0,0-.8-.22h-2v20.2h3.55V275.38a8.17,8.17,0,0,1,2.09-3.14,4.6,4.6,0,0,1,3.1-1.07,5.23,5.23,0,0,1,1.61.19,3.38,3.38,0,0,0,.86.19.6.6,0,0,0,.62-.5l.46-2.65a5,5,0,0,0-1.26-.53A5.48,5.48,0,0,0,844.49,267.68Z"/><path class="cls-1" d="M863.31,269.79a6.26,6.26,0,0,0-2.21-1.55,7.52,7.52,0,0,0-3-.56,11,11,0,0,0-4.29.8,11.48,11.48,0,0,0-3.61,2.41l.64,1.13a1.29,1.29,0,0,0,.43.47,1,1,0,0,0,.62.19,1.6,1.6,0,0,0,.93-.33c.31-.22.69-.46,1.12-.73a7.79,7.79,0,0,1,1.53-.74,6.35,6.35,0,0,1,2.19-.33,3.65,3.65,0,0,1,3,1.21,5.53,5.53,0,0,1,1,3.59v1.58a25.94,25.94,0,0,0-5.8.55,14.1,14.1,0,0,0-3.84,1.41,5.82,5.82,0,0,0-2.12,2,4.46,4.46,0,0,0-.66,2.31,5.82,5.82,0,0,0,.45,2.39,4.74,4.74,0,0,0,1.21,1.68,5,5,0,0,0,1.78,1,7.2,7.2,0,0,0,2.21.33,10.4,10.4,0,0,0,2.1-.2,8.45,8.45,0,0,0,1.78-.59,9,9,0,0,0,1.6-1c.5-.38,1-.81,1.56-1.28l.39,1.87a.9.9,0,0,0,.42.68,2,2,0,0,0,.84.16h1.58V275.32a10.31,10.31,0,0,0-.46-3.12A6.69,6.69,0,0,0,863.31,269.79Zm-1.68,13.56a10,10,0,0,1-1.22,1.14,8.46,8.46,0,0,1-1.32.85,6.51,6.51,0,0,1-1.46.53,7.08,7.08,0,0,1-1.72.19,4.47,4.47,0,0,1-1.29-.17,2.65,2.65,0,0,1-1-.54,2.62,2.62,0,0,1-.7-1,3.45,3.45,0,0,1-.26-1.39,2.53,2.53,0,0,1,.49-1.52,3.92,3.92,0,0,1,1.57-1.18,11.27,11.27,0,0,1,2.79-.82,24.46,24.46,0,0,1,4.16-.31Z"/><path class="cls-1" d="M879.77,268a10.56,10.56,0,0,0-5.54.17,7.25,7.25,0,0,0-2.43,1.3,6,6,0,0,0-1.58,2.06,6.16,6.16,0,0,0-.57,2.68,6,6,0,0,0,.85,3.24,6.25,6.25,0,0,0,2.34,2.22,5.06,5.06,0,0,0-1.12.74,5.35,5.35,0,0,0-.8.87,3.48,3.48,0,0,0-.49.93,2.73,2.73,0,0,0-.16.91,2.87,2.87,0,0,0,.51,1.78,3.47,3.47,0,0,0,1.36,1.06,6.57,6.57,0,0,0-2.6,1.67,3.68,3.68,0,0,0-.95,2.55,4.09,4.09,0,0,0,.55,2,5,5,0,0,0,1.65,1.71,9.28,9.28,0,0,0,2.76,1.18,15.41,15.41,0,0,0,3.88.44,12.78,12.78,0,0,0,4-.58,9.72,9.72,0,0,0,3-1.53,6.85,6.85,0,0,0,1.86-2.19,5.43,5.43,0,0,0,.65-2.55,4.11,4.11,0,0,0-.58-2.3,4,4,0,0,0-1.54-1.39,7.39,7.39,0,0,0-2.17-.73,13.62,13.62,0,0,0-2.48-.22h-2.48a12.87,12.87,0,0,1-2.18-.17,4,4,0,0,1-1.53-.54,1.26,1.26,0,0,1-.58-1.13,1.6,1.6,0,0,1,.33-.92,3.25,3.25,0,0,1,1-.89,10,10,0,0,0,2.67.34,9.55,9.55,0,0,0,3-.46,7,7,0,0,0,2.39-1.32,6.4,6.4,0,0,0,1.47-7.63l2.29-.32q.84-.18.84-.84v-1.32h-5.49A7.69,7.69,0,0,0,879.77,268Zm-5.51,18.54a7.63,7.63,0,0,0,2,.27h2.11a15.72,15.72,0,0,1,2,.12,7.87,7.87,0,0,1,1.65.38,2.73,2.73,0,0,1,1.14.72,1.79,1.79,0,0,1,.42,1.24,2.77,2.77,0,0,1-.42,1.49,3.75,3.75,0,0,1-1.21,1.16,6.52,6.52,0,0,1-1.92.75,11.23,11.23,0,0,1-2.57.26,11.41,11.41,0,0,1-2.57-.25,6,6,0,0,1-1.8-.68,3,3,0,0,1-1.07-1,2.51,2.51,0,0,1-.35-1.27,2.68,2.68,0,0,1,.71-1.86A5.81,5.81,0,0,1,874.26,286.53Zm7.18-10.59a3.52,3.52,0,0,1-.84,1.29,4,4,0,0,1-1.39.84,5.57,5.57,0,0,1-1.9.3,5.45,5.45,0,0,1-1.88-.3,3.86,3.86,0,0,1-1.37-.84,3.54,3.54,0,0,1-.85-1.29,4.52,4.52,0,0,1-.29-1.64,3.93,3.93,0,0,1,1.13-2.95,4.48,4.48,0,0,1,3.26-1.1,4.53,4.53,0,0,1,3.28,1.1,3.92,3.92,0,0,1,1.12,2.95A4.74,4.74,0,0,1,881.44,275.94Z"/><path class="cls-1" d="M906.09,270.55a8.43,8.43,0,0,0-3-2.09,11.18,11.18,0,0,0-8,0,8.65,8.65,0,0,0-3,2.09,9.37,9.37,0,0,0-1.93,3.28,13.94,13.94,0,0,0,0,8.6A9.33,9.33,0,0,0,892,285.7a8.52,8.52,0,0,0,3,2.09,11.32,11.32,0,0,0,8,0,8.31,8.31,0,0,0,3-2.09,9.31,9.31,0,0,0,1.92-3.27,14.13,14.13,0,0,0,0-8.6A9.35,9.35,0,0,0,906.09,270.55Zm-2.56,13.19a5.17,5.17,0,0,1-4.47,2,6.26,6.26,0,0,1-2.63-.51,4.92,4.92,0,0,1-1.86-1.49,6.57,6.57,0,0,1-1.12-2.38,14.15,14.15,0,0,1,0-6.43,6.72,6.72,0,0,1,1.12-2.41,4.83,4.83,0,0,1,1.86-1.49,6.11,6.11,0,0,1,2.63-.52,5.17,5.17,0,0,1,4.47,2,9.42,9.42,0,0,1,1.48,5.63A9.31,9.31,0,0,1,903.53,283.74Z"/><path class="cls-1" d="M928.15,269.82a5.61,5.61,0,0,0-2.12-1.55,7.18,7.18,0,0,0-2.92-.55,7.66,7.66,0,0,0-3.76.9,11.27,11.27,0,0,0-2.94,2.35l-.28-2.2a.89.89,0,0,0-1-.73h-2.12v20.2h3.55V273.36a9.63,9.63,0,0,1,2.52-2.05,6,6,0,0,1,3-.76,3.91,3.91,0,0,1,3.2,1.27,5.42,5.42,0,0,1,1,3.56v12.86h3.55V275.38a10.36,10.36,0,0,0-.44-3.14A6.91,6.91,0,0,0,928.15,269.82Z"/><rect class="cls-1" x="935.63" y="268.04" width="3.55" height="20.2"/><path class="cls-1" d="M939.21,259.89a2.78,2.78,0,0,0-.8-.55,2.53,2.53,0,0,0-1-.2,2.4,2.4,0,0,0-1,.2,2.93,2.93,0,0,0-.8.55,2.54,2.54,0,0,0-.54.82,2.37,2.37,0,0,0-.2,1,2.23,2.23,0,0,0,.2,1,2.57,2.57,0,0,0,.54.8,2.72,2.72,0,0,0,.8.55,2.4,2.4,0,0,0,1,.2,2.53,2.53,0,0,0,1-.2,2.6,2.6,0,0,0,.8-.55,2.63,2.63,0,0,0,.56-.8,2.24,2.24,0,0,0,.21-1,2.38,2.38,0,0,0-.21-1A2.6,2.6,0,0,0,939.21,259.89Z"/><path class="cls-1" d="M956.51,278.51a7.11,7.11,0,0,0-1.67-1c-.63-.27-1.27-.51-1.93-.73s-1.3-.42-1.92-.62a10,10,0,0,1-1.68-.67,3.93,3.93,0,0,1-1.18-.89,1.92,1.92,0,0,1-.45-1.3,2.53,2.53,0,0,1,.27-1.15,2.72,2.72,0,0,1,.78-.92,3.7,3.7,0,0,1,1.22-.63,5.42,5.42,0,0,1,1.62-.23,6.28,6.28,0,0,1,1.79.23,8.39,8.39,0,0,1,1.31.5c.36.18.67.34.93.49a1.42,1.42,0,0,0,.67.22.79.79,0,0,0,.74-.44l.8-1.3a8.28,8.28,0,0,0-2.74-1.72,9.64,9.64,0,0,0-3.58-.63,9,9,0,0,0-3,.48,6.8,6.8,0,0,0-2.26,1.28,5.51,5.51,0,0,0-1.39,1.88,5.34,5.34,0,0,0-.48,2.22,4.87,4.87,0,0,0,.45,2.2,4.62,4.62,0,0,0,1.18,1.53,7.34,7.34,0,0,0,1.69,1c.63.27,1.28.51,1.93.72s1.31.42,1.94.61a10.13,10.13,0,0,1,1.68.68,3.68,3.68,0,0,1,1.19.94,2.1,2.1,0,0,1,.45,1.38,3.39,3.39,0,0,1-.25,1.28,2.92,2.92,0,0,1-.77,1.06,3.73,3.73,0,0,1-1.29.72,5.58,5.58,0,0,1-1.82.27,6.11,6.11,0,0,1-2-.28,7.48,7.48,0,0,1-1.38-.61c-.38-.23-.7-.44-1-.62a1.3,1.3,0,0,0-.75-.28,1.08,1.08,0,0,0-.58.14,1.13,1.13,0,0,0-.38.4l-.84,1.35a9.76,9.76,0,0,0,2.91,1.77,10.17,10.17,0,0,0,3.83.69,9.86,9.86,0,0,0,3.27-.5,7.28,7.28,0,0,0,2.4-1.37,5.62,5.62,0,0,0,1.47-2.05,6.63,6.63,0,0,0,.5-2.58,4.3,4.3,0,0,0-1.64-3.55Z"/><rect class="cls-1" x="963.15" y="268.04" width="3.55" height="20.2"/><path class="cls-1" d="M967.29,260.71a2.6,2.6,0,0,0-.56-.82,2.78,2.78,0,0,0-.8-.55,2.53,2.53,0,0,0-1-.2,2.4,2.4,0,0,0-1,.2,2.93,2.93,0,0,0-.8.55,2.54,2.54,0,0,0-.54.82,2.37,2.37,0,0,0-.2,1,2.23,2.23,0,0,0,.2,1,2.57,2.57,0,0,0,.54.8,2.72,2.72,0,0,0,.8.55,2.4,2.4,0,0,0,1,.2,2.53,2.53,0,0,0,1-.2,2.6,2.6,0,0,0,.8-.55,2.63,2.63,0,0,0,.56-.8,2.24,2.24,0,0,0,.21-1A2.38,2.38,0,0,0,967.29,260.71Z"/><path class="cls-1" d="M314.65,487.68a12.64,12.64,0,0,0-4.45-2.91,15.31,15.31,0,0,0-5.74-1H293.77v28.57h10.69a15.51,15.51,0,0,0,5.74-1,12.59,12.59,0,0,0,7.32-7.41,17.26,17.26,0,0,0,0-11.69A13,13,0,0,0,314.65,487.68Zm-.8,15.06a9.58,9.58,0,0,1-2,3.5,8.83,8.83,0,0,1-3.19,2.19,11.14,11.14,0,0,1-4.17.75h-6.8V486.87h6.8a10.94,10.94,0,0,1,4.17.76,8.59,8.59,0,0,1,3.19,2.19,9.79,9.79,0,0,1,2,3.51,15.73,15.73,0,0,1,0,9.41Z"/><path class="cls-1" d="M337.24,494.16a7.5,7.5,0,0,0-2.65-1.76,9.11,9.11,0,0,0-3.35-.6,9.8,9.8,0,0,0-3.95.76,8.53,8.53,0,0,0-3,2.12,9.24,9.24,0,0,0-1.86,3.18,11.57,11.57,0,0,0-.65,3.95,13.66,13.66,0,0,0,.72,4.62,9.28,9.28,0,0,0,2,3.38,8.46,8.46,0,0,0,3.05,2.08,10.31,10.31,0,0,0,3.86.7,13.82,13.82,0,0,0,2.21-.18,13.05,13.05,0,0,0,2.17-.57,9.93,9.93,0,0,0,2-1,6.83,6.83,0,0,0,1.58-1.39l-1-1.29a.78.78,0,0,0-.68-.34,1.56,1.56,0,0,0-.81.31c-.31.2-.7.43-1.16.67a10.38,10.38,0,0,1-1.67.66,7.44,7.44,0,0,1-2.3.31,6.87,6.87,0,0,1-2.59-.46,5.43,5.43,0,0,1-2-1.42,6.8,6.8,0,0,1-1.31-2.36,11.31,11.31,0,0,1-.52-3.34h13.44a.74.74,0,0,0,.68-.28,2.26,2.26,0,0,0,.18-1.11A10.89,10.89,0,0,0,339,497,8,8,0,0,0,337.24,494.16ZM325.44,500a7,7,0,0,1,1.83-4.12,5.47,5.47,0,0,1,4.05-1.48,5.27,5.27,0,0,1,2.16.41,4.36,4.36,0,0,1,1.61,1.15,5.08,5.08,0,0,1,1,1.78,7.34,7.34,0,0,1,.34,2.26Z"/><rect class="cls-1" x="344.54" y="482.94" width="3.55" height="29.37"/><path class="cls-1" d="M369.56,494.63a8.46,8.46,0,0,0-3-2.1,11.32,11.32,0,0,0-8,0,8.59,8.59,0,0,0-3,2.1,9.14,9.14,0,0,0-1.93,3.28,13.94,13.94,0,0,0,0,8.6,9.18,9.18,0,0,0,1.93,3.27,8.29,8.29,0,0,0,3,2.08,11.32,11.32,0,0,0,8,0,8.17,8.17,0,0,0,3-2.08,9.14,9.14,0,0,0,1.91-3.27,14.13,14.13,0,0,0,0-8.6A9.1,9.1,0,0,0,369.56,494.63ZM367,507.82a5.19,5.19,0,0,1-4.46,2,6.19,6.19,0,0,1-2.64-.52,5,5,0,0,1-1.86-1.48,6.65,6.65,0,0,1-1.12-2.38,14.58,14.58,0,0,1,0-6.44,6.67,6.67,0,0,1,1.12-2.4,4.9,4.9,0,0,1,1.86-1.49,6.19,6.19,0,0,1,2.64-.52,5.17,5.17,0,0,1,4.46,2,11.37,11.37,0,0,1,0,11.22Z"/><path class="cls-1" d="M388.78,504.05a4.59,4.59,0,0,0-1.18-1.47,7.36,7.36,0,0,0-1.68-1c-.62-.27-1.27-.51-1.93-.73s-1.3-.43-1.92-.62a10,10,0,0,1-1.68-.67,3.93,3.93,0,0,1-1.18-.89,1.92,1.92,0,0,1-.45-1.3,2.5,2.5,0,0,1,.27-1.15,2.72,2.72,0,0,1,.78-.92,3.7,3.7,0,0,1,1.22-.63,5.11,5.11,0,0,1,1.62-.23,5.94,5.94,0,0,1,1.79.23,8.39,8.39,0,0,1,1.31.5c.37.18.67.34.93.48a1.35,1.35,0,0,0,.67.22.78.78,0,0,0,.74-.43l.8-1.3a8.47,8.47,0,0,0-2.74-1.73,9.85,9.85,0,0,0-3.58-.62,9.26,9.26,0,0,0-3.05.47,6.84,6.84,0,0,0-2.25,1.29,5.4,5.4,0,0,0-1.88,4.1,4.9,4.9,0,0,0,.45,2.2,4.62,4.62,0,0,0,1.18,1.53,7,7,0,0,0,1.69,1,19.58,19.58,0,0,0,1.93.73c.66.22,1.31.42,1.94.61a9.33,9.33,0,0,1,1.68.68,3.68,3.68,0,0,1,1.19.94,2.08,2.08,0,0,1,.45,1.38,3.25,3.25,0,0,1-.25,1.28,2.8,2.8,0,0,1-.77,1.05,3.75,3.75,0,0,1-1.29.73,5.58,5.58,0,0,1-1.82.27,6.11,6.11,0,0,1-2-.28,6.86,6.86,0,0,1-1.38-.62c-.38-.22-.7-.43-1-.61a1.3,1.3,0,0,0-.75-.28,1,1,0,0,0-.58.14,1.13,1.13,0,0,0-.38.4l-.84,1.35a9.76,9.76,0,0,0,2.91,1.77,10.2,10.2,0,0,0,3.83.68,9.87,9.87,0,0,0,3.27-.49,7.28,7.28,0,0,0,2.4-1.37,5.62,5.62,0,0,0,1.47-2,6.72,6.72,0,0,0,.5-2.59A4.47,4.47,0,0,0,388.78,504.05Z"/><path class="cls-1" d="M51.93,222.54a11.3,11.3,0,0,0,3-1.12,8.15,8.15,0,0,0,2.21-1.79,7.29,7.29,0,0,0,1.39-2.36,8.2,8.2,0,0,0,.48-2.83,8.41,8.41,0,0,0-.62-3.28,6.28,6.28,0,0,0-1.91-2.5,9,9,0,0,0-3.26-1.59,17.78,17.78,0,0,0-4.68-.55H40.42V235.1h3.85V223.18H47.2a2.71,2.71,0,0,1,1.2.2,2.14,2.14,0,0,1,.73.69l7.42,10.21a1.69,1.69,0,0,0,1.56.82h3.43L53.2,223.75A4,4,0,0,0,51.93,222.54Zm-3.61-2.18h-4V209.58H48.5a8.15,8.15,0,0,1,5,1.29,4.54,4.54,0,0,1,1.69,3.85,5.84,5.84,0,0,1-.44,2.29,4.8,4.8,0,0,1-1.31,1.79A6.13,6.13,0,0,1,51.3,220,9.63,9.63,0,0,1,48.32,220.36Z"/><rect class="cls-1" x="65.55" y="214.9" width="3.55" height="20.2"/><path class="cls-1" d="M69.13,206.75a3,3,0,0,0-.81-.55,2.48,2.48,0,0,0-1-.19,2.43,2.43,0,0,0-1,.19,2.88,2.88,0,0,0-.79.55,2.52,2.52,0,0,0-.55.82,2.37,2.37,0,0,0-.2,1,2.28,2.28,0,0,0,.2,1,2.73,2.73,0,0,0,1.34,1.34,2.44,2.44,0,0,0,1,.2,2.49,2.49,0,0,0,1-.2,2.59,2.59,0,0,0,.81-.55,2.91,2.91,0,0,0,.56-.79,2.44,2.44,0,0,0,.2-1,2.54,2.54,0,0,0-.2-1A2.91,2.91,0,0,0,69.13,206.75Z"/><path class="cls-1" d="M90.44,216.68a5.57,5.57,0,0,0-2.11-1.55,7.24,7.24,0,0,0-2.92-.55,7.63,7.63,0,0,0-3.76.9,11.32,11.32,0,0,0-2.94,2.35l-.28-2.19a.91.91,0,0,0-1-.74H75.36v20.2h3.55V220.22a9.84,9.84,0,0,1,2.52-2.05,5.91,5.91,0,0,1,2.94-.76,3.89,3.89,0,0,1,3.2,1.27,5.42,5.42,0,0,1,1.05,3.56V235.1h3.55V222.24a10.62,10.62,0,0,0-.44-3.13A6.81,6.81,0,0,0,90.44,216.68Z"/><path class="cls-1" d="M101.51,206.75a2.7,2.7,0,0,0-.81-.55,2.43,2.43,0,0,0-1-.19,2.4,2.4,0,0,0-1,.19,2.78,2.78,0,0,0-.8.55,2.69,2.69,0,0,0-.55.82,2.54,2.54,0,0,0-.2,1,2.44,2.44,0,0,0,.2,1,2.68,2.68,0,0,0,.55.79,2.44,2.44,0,0,0,.8.55,2.4,2.4,0,0,0,1,.2,2.44,2.44,0,0,0,1-.2,2.38,2.38,0,0,0,.81-.55,2.91,2.91,0,0,0,.56-.79,2.29,2.29,0,0,0,.21-1,2.38,2.38,0,0,0-.21-1A2.91,2.91,0,0,0,101.51,206.75Z"/><rect class="cls-1" x="97.93" y="214.9" width="3.55" height="20.2"/><path class="cls-1" d="M122.12,219.07a6.53,6.53,0,0,0-1.36-2.41,6.07,6.07,0,0,0-2.21-1.56,7.69,7.69,0,0,0-3-.56,11.19,11.19,0,0,0-4.29.8,11.48,11.48,0,0,0-3.61,2.41l.64,1.14a1.45,1.45,0,0,0,.43.46,1.05,1.05,0,0,0,.63.2,1.6,1.6,0,0,0,.92-.33c.32-.22.69-.47,1.12-.74a8.39,8.39,0,0,1,1.53-.74,6.35,6.35,0,0,1,2.19-.33,3.61,3.61,0,0,1,3,1.22,5.5,5.5,0,0,1,1,3.58v1.58a26.64,26.64,0,0,0-5.81.55,13.56,13.56,0,0,0-3.83,1.42,5.69,5.69,0,0,0-2.13,2,4.45,4.45,0,0,0-.66,2.3,5.87,5.87,0,0,0,.45,2.4,4.7,4.7,0,0,0,1.21,1.67,5,5,0,0,0,1.78,1,7.2,7.2,0,0,0,2.21.33,10.4,10.4,0,0,0,2.1-.2,8.17,8.17,0,0,0,1.79-.59,9,9,0,0,0,1.59-1c.51-.38,1-.8,1.56-1.28l.4,1.87a.87.87,0,0,0,.41.68,1.88,1.88,0,0,0,.84.16h1.58V222.18A10.2,10.2,0,0,0,122.12,219.07Zm-3,11.14a10.79,10.79,0,0,1-1.23,1.14,8.87,8.87,0,0,1-1.31.85,7.16,7.16,0,0,1-1.47.54,7.61,7.61,0,0,1-1.72.19,4.85,4.85,0,0,1-1.29-.17,2.8,2.8,0,0,1-1-.55,2.64,2.64,0,0,1-.7-1,3.43,3.43,0,0,1-.26-1.38,2.63,2.63,0,0,1,.49-1.53,3.92,3.92,0,0,1,1.57-1.18,11.57,11.57,0,0,1,2.79-.81,23.51,23.51,0,0,1,4.17-.31Z"/></svg>