<svg id="Camada_1" data-name="Camada 1" xmlns="http://www.w3.org/2000/svg" viewBox="0 0 100 100"><defs><style>.cls-1{fill:#1c3c45;}</style></defs><title>Rascunho</title><path class="cls-1" d="M64.88,53.69c0,.84,0,1-1,1.08C53.45,55.71,44.6,65.44,44.58,76a2.28,2.28,0,0,0,.49,1.65,2.23,2.23,0,0,0,1.64.48c4.94,0,9.95,0,14.8,0H71.64c4.79,0,9.74,0,14.61,0h.07A2.21,2.21,0,0,0,88,77.62a2.33,2.33,0,0,0,.45-1.78c-.54-11.16-8.48-19.66-19.77-21.15l-.22,0a1.19,1.19,0,0,1-.27,0s0,0,0-.12a1.74,1.74,0,0,1,0-1.39c.22-.29.82-.36,1.29-.36h.44c.3,0,.6,0,.89,0a1.42,1.42,0,0,0,1.07-.31,1.66,1.66,0,0,0,.42-1.28v-.11a1.53,1.53,0,0,0-.35-1.19,1.43,1.43,0,0,0-1.1-.38c-2.49,0-5.44,0-8.37,0h0a1.52,1.52,0,0,0-1.3.53,1.84,1.84,0,0,0-.17,1.59A1.62,1.62,0,0,0,63,52.76a1.57,1.57,0,0,1,.59,0,2.93,2.93,0,0,0,.77.05,2,2,0,0,1,.46,0,.82.82,0,0,1,0,.43C64.89,53.38,64.88,53.54,64.88,53.69Zm1.63,4.11h0A18.73,18.73,0,0,1,85,73.87c.09.65,0,.82,0,.86s-.17.14-.83.14c-2.74,0-5.5-.05-8.23-.05H61.79c-4.29,0-8.73,0-13.09,0-.61,0-.72-.1-.74-.12s-.1-.17,0-.8A18.71,18.71,0,0,1,66.51,57.8Z"/><path class="cls-1" d="M91.53,84.86a3,3,0,0,1-3-3C88.37,80.11,87.36,80,86.34,80h0Q66.46,80,46.6,80c-.75,0-2,0-2.06,1.82,0,1.27-.72,2.7-2.08,2.82A3.37,3.37,0,0,0,40,85.67a4.11,4.11,0,0,0-.49,3.12,4,4,0,0,1,0,1.2,2.12,2.12,0,0,0,.32,1.71,2.35,2.35,0,0,0,1.84.59h.06c6.26,0,12.62,0,18.78,0H88.44c4.81,0,5.09-.28,5.11-5v-.14A2,2,0,0,0,91.53,84.86Zm-1.26,4c0,.11,0,.16,0,.18a1.41,1.41,0,0,1-.39,0,3.77,3.77,0,0,0-.44,0h0q-9.33,0-18.67,0H62Q53,89,43.87,89a2.88,2.88,0,0,0-.55.06,1.58,1.58,0,0,1-.49,0s0,0-.08-.19c-.13-.58-.06-.91.74-1.17a5.89,5.89,0,0,0,3.88-3.91c.2-.64.42-.68,1.07-.68H78c2.18,0,4.36,0,6.54,0,.75,0,1,.12,1.17.73a6.24,6.24,0,0,0,4,4C90.28,88,90.34,88.2,90.27,88.87Z"/><path class="cls-1" d="M61.51,42.76c4.09-.55,5-3.55,5-6a2.17,2.17,0,0,1,.7-1.76A1.89,1.89,0,0,1,69,34.88l.21,0a106.83,106.83,0,0,1,16.45,4,6.27,6.27,0,0,0,5-.45,4.56,4.56,0,0,0,2.26-2.93c.36-1.55,0-3.06-1.26-4.89a25,25,0,0,0-5.67-5.55,110.92,110.92,0,0,0-20.4-12.41C60.51,10.33,55,9.49,48.23,10c-7.23.56-14.66,1.27-22.73,2.18a2.78,2.78,0,0,1-3.17-1.45A3.46,3.46,0,0,0,20.18,9c-4-1-7.31-.93-10.23.2A4.45,4.45,0,0,0,7.1,13.6c0,8.9-.08,18.44,0,27.87a5,5,0,0,0,4.85,5c1,.07,2,.1,3.11.1s2.12,0,3.22-.09c2.1-.12,3.06-.79,4.9-3.45l.58-.84,1.05.65a1.86,1.86,0,0,1,.48.35c4.2,4.52,9,5.85,15.19,4.19A166.29,166.29,0,0,1,61.51,42.76ZM20.18,24v7.18c0,3,0,6.09,0,9.13a3,3,0,0,1-.77,2.32,3,3,0,0,1-2.31.71c-.92,0-1.84,0-2.77,0H12.73a2.36,2.36,0,0,1-2.54-2.55q0-13.2,0-26.39a2.64,2.64,0,0,1,.71-2,2.72,2.72,0,0,1,2-.68l.79,0c1.11,0,2.26,0,3.37,0h.35a2.81,2.81,0,0,1,2,.68,3.23,3.23,0,0,1,.8,2.47C20.16,17.92,20.17,21,20.18,24Zm9.09,18.54A47.29,47.29,0,0,1,25,38.26a6.08,6.08,0,0,1-1.61-4.62c.08-1.65.06-3.34.05-5,0-.72,0-1.45,0-2.17V24.1c0-2,0-4.06,0-6.09a2.23,2.23,0,0,1,2.26-2.58l2.38-.26c7.23-.78,14.71-1.59,22.12-2,1-.06,2-.1,3-.1a22.07,22.07,0,0,1,8.56,1.49A92.76,92.76,0,0,1,86.82,30.11a14.55,14.55,0,0,1,2,2.29l.11.15a2.12,2.12,0,0,1,.28,2.74,2.24,2.24,0,0,1-2.7.5,94.17,94.17,0,0,0-12.18-3.13c-7.67-1.37-15.86-2.6-24.17-1.31a14.53,14.53,0,0,0-2.49.49,9.24,9.24,0,0,0,.4,2.32l0,.16c.11.46.2.6.18.61a2,2,0,0,0,.76-.1c3.44-.8,7.52-1.48,11.66-.42l.11,0A2.67,2.67,0,0,1,63.32,37c0,2.12-1.81,2.51-2.6,2.68l-.13,0c-.78.17-1.57.27-2.34.37s-1.5.19-2.21.34l-2,.44C48.58,42,42.91,43.3,37.38,44.66A8.59,8.59,0,0,1,29.27,42.55Z"/></svg>