<svg id="Camada_1" data-name="Camada 1" xmlns="http://www.w3.org/2000/svg" viewBox="0 0 70 70"><defs><style>.cls-1{fill:#fff;}</style></defs><title>a</title><path class="cls-1" d="M42.84,19H27.16a8.1,8.1,0,0,0-8.1,8.1V42.79a8.11,8.11,0,0,0,8.1,8.11H42.84a8.11,8.11,0,0,0,8.1-8.11V27.11A8.1,8.1,0,0,0,42.84,19ZM35.16,44.63A9.68,9.68,0,1,1,44.83,35,9.69,9.69,0,0,1,35.16,44.63ZM45.4,26.93a2.3,2.3,0,1,1,2.3-2.3A2.3,2.3,0,0,1,45.4,26.93Z"/><path class="cls-1" d="M35,1.5A33.5,33.5,0,1,0,68.5,35,33.5,33.5,0,0,0,35,1.5ZM54.64,42.79a11.81,11.81,0,0,1-11.8,11.8H27.16a11.81,11.81,0,0,1-11.8-11.8V27.11a11.82,11.82,0,0,1,11.8-11.8H42.84a11.82,11.82,0,0,1,11.8,11.8Z"/><circle class="cls-1" cx="35.16" cy="34.95" r="6.2"/></svg>