<svg id="Camada_1" data-name="Camada 1" xmlns="http://www.w3.org/2000/svg" viewBox="0 0 70 70"><defs><style>.cls-1{fill:#1c3c45;}</style></defs><g id="Wj3KsZ.tif"><path class="cls-1" d="M31.76,38.69H60.65c1.71,0,1.71,0,1.71-1.72V6.86c0-1.7,0-1.7-1.73-1.7-2.79,0-5.57,0-8.36,0-1,0-1.35.3-1.34,1.3a4.13,4.13,0,0,0,1.21,3.37c2.26,2.18,1.88,6-.53,8.1a1.46,1.46,0,0,1-1.88.1q-4.95-3.33-9.87-6.71a1.31,1.31,0,0,1-.32-1.9c1.62-2.81,4.13-4.21,7.28-3.07.63.22.79.06.79-.53,0-.75,0-1.51,0-2.26A1.55,1.55,0,0,1,49.38,2H64c1.14,0,1.63.65,1.63,1.75,0,2.78,0,5.55,0,8.33,0,8.37,0,16.74,0,25.11,0,1.21.35,1.59,1.56,1.55,2.3-.06,2.78.67,2.63,3a21,21,0,0,1-7,14.76,19.94,19.94,0,0,1-9.08,4.78c-.42.1-1.08,0-1.15.65a5.33,5.33,0,0,0,.12,2.69c.17.4.71.25,1.1.25h7.88c1.39,0,2.08.54,2.08,1.57S63,68,61.6,68c-5,0-10,0-14.93,0H9.31a13.85,13.85,0,0,1-1.44,0A1.58,1.58,0,1,1,8,64.84c1.91,0,3.82,0,5.73,0,1,0,1.92,0,2.87,0s1.09-.32,1.09-1.13c0-2,0-2-1.88-2.55C6.91,58.36,1.76,52.36.32,43.21a18.16,18.16,0,0,1-.08-2.86,1.51,1.51,0,0,1,1.43-1.6,8.56,8.56,0,0,1,1.43-.06Zm3.18,3.37q-15,0-30.08,0c-1.39,0-1.43.06-1.2,1.42A18,18,0,0,0,21.53,58.62q13.72,0,27.45,0a15.5,15.5,0,0,0,3.19-.34A18,18,0,0,0,66.31,43.84c.29-1.57.11-1.78-1.53-1.78Q49.87,42,34.94,42.06ZM35,64.82c4.26,0,8.52,0,12.77,0,1.11,0,1.46-.33,1.43-1.42s-.08-1.61-1.38-1.6q-12.78.07-25.55,0c-1.22,0-1.45.48-1.44,1.55s.24,1.49,1.4,1.47C26.5,64.78,30.75,64.82,35,64.82ZM45,9c-.67,0-1.26.05-1.41.55s.46.66.79.89q2.28,1.62,4.59,3.18c.36.24.74.85,1.2.45s.21-1,0-1.54a2.07,2.07,0,0,0-.79-.87L46.09,9.43A1.87,1.87,0,0,0,45,9Z"/></g></svg>