<svg id="Camada_1" data-name="Camada 1" xmlns="http://www.w3.org/2000/svg" viewBox="0 0 70 70"><defs><style>.cls-1{fill:#fff;}</style></defs><title>a</title><path class="cls-1" d="M35,1.5A33.49,33.49,0,0,0,21.33,65.56c0-.94-.08-1.88,0-2.82.11-3.26.51-4.38,4.71-22A1.17,1.17,0,0,0,25.9,40a12.37,12.37,0,0,1-.33-8.25c1.9-6,8.73-6.49,9.93-1.52.73,3.08-1.22,7.1-2.71,13.05-1.24,4.9,4.54,8.39,9.48,4.81,4.55-3.3,6.32-11.22,6-16.83-.66-11.19-12.93-13.6-20.71-10-8.92,4.12-10.95,15.18-6.92,20.24.51.64.9,1,.73,1.68-.26,1-.49,2-.76,3a1.09,1.09,0,0,1-1.6.72,9.09,9.09,0,0,1-3.72-2.8c-3.42-4.23-4.4-12.61.12-19.7,5-7.86,14.33-11,22.84-10.08,10.17,1.16,16.59,8.1,17.79,16,.55,3.59.16,12.44-4.88,18.7-5.8,7.18-15.19,7.66-19.53,3.25a13.83,13.83,0,0,1-.92-1.14c-.05.16-.1.3-.13.44-2.08,8.15-2.31,10-4.45,13.75-.33.58-.7,1.14-1.05,1.7A33.5,33.5,0,1,0,35,1.5Z"/></svg>