<svg id="Camada_1" data-name="Camada 1" xmlns="http://www.w3.org/2000/svg" viewBox="0 0 70 70"><defs><style>.cls-1{fill:#1c3c45;}</style></defs><title>icon5</title><g id="MW0zxQ.tif"><path class="cls-1" d="M68.5,26.41a23.91,23.91,0,0,1-4.26,12.73c-3.39,5.16-7.84,9.33-12.58,13.21a124.83,124.83,0,0,1-15.27,10.5A2.18,2.18,0,0,1,33.9,63c-8.71-5.17-17-11-23.88-18.43-3.69-4-6.7-8.39-8-13.79-2.12-9,2.08-18.42,10-22.35,7.16-3.57,16.45-1.58,22,4.7,1,1.12,1,1.11,1.94,0a19.82,19.82,0,0,1,12.78-6.4C57.5,5.65,66.37,12.55,68,22.24,68.25,23.76,68.37,25.3,68.5,26.41Zm-3.29-.64a16.24,16.24,0,0,0-5.27-12.18C55.3,9.35,49.9,9,44.2,11a14.69,14.69,0,0,0-7.61,6.39c-1,1.51-2.12,1.52-3.16.08-.45-.63-.87-1.28-1.34-1.89a15.76,15.76,0,0,0-19.74-3.73c-6.15,3.69-8.7,11.68-7.2,18.21,1.12,4.83,3.91,8.74,7.17,12.31,6.31,6.93,14,12.18,21.84,17.1a1.59,1.59,0,0,0,1.9-.15,132.71,132.71,0,0,0,14-9.79A55.13,55.13,0,0,0,61.57,37.35,19.46,19.46,0,0,0,65.21,25.77Z"/></g></svg>