<svg id="Camada_1" data-name="Camada 1" xmlns="http://www.w3.org/2000/svg" viewBox="0 0 70 70"><defs><style>.cls-1{fill:#1c3c45;}</style></defs><title>icon6</title><path class="cls-1" d="M68,22.24C66.37,12.55,57.5,5.65,48.73,6.78A19.82,19.82,0,0,0,36,13.18c-1,1.09-1,1.1-1.94,0-5.55-6.28-14.84-8.27-22-4.7C4.13,12.39-.07,21.83,2.05,30.81c1.27,5.4,4.28,9.81,8,13.79C16.94,52.08,25.19,57.86,33.9,63a2.18,2.18,0,0,0,2.49-.18,125.72,125.72,0,0,0,15.28-10.5c4.73-3.88,9.18-8.05,12.57-13.21A23.91,23.91,0,0,0,68.5,26.41C68.37,25.3,68.25,23.76,68,22.24Z"/></svg>