<svg id="Camada_1" data-name="Camada 1" xmlns="http://www.w3.org/2000/svg" viewBox="0 0 100 100"><defs><style>.cls-1{fill:#1c3c45;}</style></defs><title>Rascunho</title><g id="bA9PQ2.tif"><path class="cls-1" d="M56.2,27.15c-7-2.68-13.79-5.3-20.6-7.9-2.53-1-2.72-1.86-.78-3.78,1.51-1.5,3.06-3,4.54-4.5a2.17,2.17,0,0,1,2.48-.59c2.49.78,5,1.41,7.5,2.22A1.79,1.79,0,0,0,51.6,12a8.88,8.88,0,0,1,.92-.92,1.54,1.54,0,1,1,2.2,2.14c-.19.21-.37.43-.65.77,3.84,1.12,7.59,2.2,11.34,3.32.63.18.88-.24,1.2-.56,1.79-1.78,3.61-3.51,5.31-5.37a8.39,8.39,0,0,1,5-2.59,37.11,37.11,0,0,1,6.65-.44c2,0,2.4.48,2.43,2.39a30.13,30.13,0,0,1-.63,7.64,7.81,7.81,0,0,1-2.21,4c-1.85,1.77-3.63,3.62-5.46,5.41a1.43,1.43,0,0,0-.5,1.63c1.34,4.44,2.61,8.9,3.92,13.41.77-.26,1.12-.94,1.66-1.38.76-.62,1.58-.85,2.33-.07a1.4,1.4,0,0,1-.22,2.27c-2.68,1.8-2.61,4-1.65,6.79,1.47,4.33,1.72,3-1.59,6.4-1,1-2,2.07-3.07,3.09-1.49,1.47-2.58,1.25-3.33-.71Q71.63,49.58,68,40c-.2-.53-.42-1.05-.83-2.09A25.77,25.77,0,0,1,65.43,40C61,44.54,56.48,49,52,53.5A18.9,18.9,0,0,1,49,56.17a1.22,1.22,0,0,0-.52,1.69c.45,1.27.76,2.59,1.16,3.88a2.18,2.18,0,0,1-.6,2.38C47.07,66,45.17,68,43.24,69.85c-1.36,1.34-2.47,1.12-3.17-.65-1.25-3.19-2.49-6.39-3.66-9.61A2.46,2.46,0,0,0,34.77,58c-3.17-1.17-6.32-2.4-9.47-3.62-1.91-.74-2.12-1.75-.68-3.21,1.86-1.9,3.76-3.76,5.61-5.68a2.24,2.24,0,0,1,2.49-.64c1.38.42,2.78.8,4.17,1.22.45.14.79.22,1.13-.25,2.45-3.39,5.69-6,8.58-9C49.69,33.57,52.88,30.46,56.2,27.15ZM83,13.1c.1-1.77.1-1.77-1.65-1.72h-.29A11.66,11.66,0,0,0,72.46,15c-9.85,10.19-20,20.11-30,30.14-.41.41-.8.83-1.18,1.27-.17.21-.41.42-.1.74a3.86,3.86,0,0,0,3.81.05l4-4c.76-.76,1.61-1.22,2.5-.3s.4,1.77-.36,2.52c-1.37,1.36-2.71,2.76-4.12,4.09a1.35,1.35,0,0,0-.46,1.66c.33.72.12,1.91.89,2.11s1.22-.8,1.76-1.34C59.6,41.58,70,31.15,80.41,20.8a7.63,7.63,0,0,0,2.35-5C82.84,14.93,82.91,14,83,13.1ZM74.51,30.87c-1.45,1.52-2.7,2.91-4.05,4.21A1.46,1.46,0,0,0,70.08,37c1.38,3.49,2.7,7,4,10.52,1.13,3,2.27,5.92,3.61,9.41.5-.7.71-1.26,1.12-1.53,2-1.36,2.32-3.05,1.31-5.18-.32-.68-.4-1.32-1.42-.79a1.17,1.17,0,0,1-1.49-.58,1.46,1.46,0,0,1,0-1.76,6.49,6.49,0,0,1,.87-.95,1.15,1.15,0,0,0,.4-1.38C77.2,40.23,75.92,35.74,74.51,30.87ZM48.08,15.4c-2.23-.64-4.22-1.19-6.2-1.81a1,1,0,0,0-1.15.29c-.92.92-1.88,1.8-2.81,2.68.2.23.25.33.32.36Q48.11,20.7,58,24.48a.83.83,0,0,0,1-.19c1.45-1.41,2.92-2.8,4.57-4.39L52.15,16.58a1.2,1.2,0,0,0-1.27.45A17.72,17.72,0,0,1,49,18.81,1.34,1.34,0,0,1,47,18.62a1.39,1.39,0,0,1-.07-2C47.26,16.28,47.59,15.93,48.08,15.4Zm-6.4,35.35c-1.88-.6-3.42-1.11-5-1.57s-3.14-1.4-4.42-1-2.33,2-3.47,3.15l-.1.1c-.6.49-.68.83.19,1.14,2.36.85,4.7,1.77,7.05,2.65.39.15.75.33,1.17-.08C38.57,53.68,40.05,52.3,41.68,50.75Zm2,2-4.34,4.52c-.24.25-.43.46-.27.87,1.06,2.7,2.09,5.42,3.28,8.52,1.39-1.49,2.52-2.74,3.7-3.94a1.12,1.12,0,0,0,.19-1.31C45.45,58.64,44.64,55.87,43.72,52.74Z"/><path class="cls-1" d="M93,61.31V89.47c0,2.16-.77,2.67-2.8,1.84-7.9-3.25-15.81-6.48-23.69-9.79a4.25,4.25,0,0,0-3.32-.11C54.12,84.65,45.05,87.82,36,91A3.13,3.13,0,0,1,33.24,91Q21,84.67,8.69,78.5A2.6,2.6,0,0,1,7,75.84c0-17,0-34.06,0-51.08,0-2.46.76-3,3-2.07,7.8,3.12,15.61,6.23,23.39,9.39a2.73,2.73,0,0,0,2.32,0C39,30.69,42.28,29.44,45.5,28c1.26-.56,1.36.26,1.63,1s.95,1.36-.4,1.86c-3.17,1.18-6.26,2.55-9.41,3.78-.9.35-1.38.79-1.21,1.79a7.48,7.48,0,0,1,0,1.16c0,1.67-.91,2.27-2.55,1.75-.54-.17-.53-.57-.45-.91.67-2.83-1-3.73-3.3-4.59-6.16-2.29-12.23-4.8-18.3-7.3-1.2-.49-1.43-.26-1.43,1q0,23.52,0,47a1.72,1.72,0,0,0,1.06,1.8Q21.53,81.54,31.86,86.8c1,.49,1.27.43,1.26-.77,0-6,0-12,0-18,0-1.25.39-1.51,1.56-1.52s1.53.36,1.52,1.55c-.06,6.1,0,12.19,0,18.29,0,1.08.2,1.32,1.28.93Q49.67,82.9,62,78.63c.92-.32,1.11-.8,1.11-1.69q0-14.22,0-28.44c0-.51-.39-1.3.4-1.5a3.88,3.88,0,0,1,2.43.06c.51.23.25.88.25,1.33,0,9.34,0,18.68,0,28a2.09,2.09,0,0,0,1.52,2.33c7,2.82,13.93,5.73,20.89,8.61,1.44.6,1.45.59,1.45-1q0-25.75,0-51.52a1.69,1.69,0,0,0-1.26-1.92c-1.45-.51-2.84-1.2-4.28-1.77-.69-.27-1-.53-.63-1.37.81-1.91.75-1.94,2.68-1.11,1.6.69,3.17,1.44,4.8,2A2.26,2.26,0,0,1,93,33.16C93,42.55,93,51.93,93,61.31Z"/></g></svg>