<?xml version="1.0" encoding="UTF-8"?>
<svg id="Objects" xmlns="http://www.w3.org/2000/svg" viewBox="0 0 600 360">
  <defs>
    <style>
      .cls-1 {
        fill: #f4f0e9;
      }

      .cls-2 {
        fill: #addbd2;
      }
    </style>
  </defs>
  <g>
    <path class="cls-2" d="m161.08,308.89c-2.04,1.2-3.92,2.65-5.62,4.33-1.7,1.68-3.3,3.47-4.78,5.35-.8,1-1.55,2.02-2.25,3.07-.7,1.04-1.37,2.13-2.01,3.25-.32.56-.61,1.1-.87,1.62-.26.52-.53,1.06-.81,1.62-.12.32-.3.75-.54,1.29s-.32.99-.24,1.35c.2.08.46.03.78-.15.32-.18.54-.33.66-.45.36-.2.69-.42.99-.66.3-.24.59-.48.87-.72.72-.64,1.3-1.3,1.74-1.98l.18-.18c-.2-.28-.32-.52-.36-.72-.08-.44,0-.9.27-1.38.26-.48.65-.74,1.17-.78.6-.04.97.16,1.11.6.14.44.17.92.09,1.44.52-.04,1.05-.14,1.59-.3.54-.16.89-.28,1.05-.36.24-.12.55-.26.93-.42.38-.16.76-.28,1.14-.36.38-.08.74-.08,1.08,0,.34.08.61.3.81.66.16.4.18.84.06,1.32-.08.44-.19.84-.33,1.2-.14.36-.29.74-.45,1.14-.08.24-.19.53-.33.87-.14.34-.19.65-.15.93.16-.04.38-.14.66-.3.28-.16.55-.33.81-.51.26-.18.49-.35.69-.51.2-.16.34-.26.42-.3.52-.36,1.03-.74,1.53-1.14.5-.4,1.01-.8,1.53-1.2l2.22-1.86c.2-.12.39-.26.57-.42.18-.16.37-.32.57-.48.2-.08.4-.12.6-.12s.34.12.42.36c.08.2.04.44-.12.72-.16.28-.3.52-.42.72-.64,1.24-1.32,2.48-2.04,3.7-.72,1.22-1.48,2.42-2.28,3.58-.64,1-1.26,1.92-1.86,2.77.68-.08,1.35-.12,2.01-.12s1.33.02,2.01.06c1.28.16,2.65.4,4.09.72.32.12.64.22.96.3.32.08.64.18.96.3.28.08.41.25.39.51-.02.26-.15.43-.39.51-.68.28-1.37.47-2.07.57-.7.1-1.45.09-2.25-.03-1.88-.24-3.89-.26-6.01-.06-.32.04-.63.08-.93.12-.3.04-.61.1-.93.18-.96,1.32-1.94,2.62-2.95,3.88-1,1.26-2.02,2.54-3.07,3.82-.92,1.08-1.85,2.15-2.8,3.22-.94,1.06-1.91,2.09-2.92,3.1-.96.92-1.92,1.83-2.89,2.74s-2,1.71-3.13,2.44c-.48.28-1,.58-1.56.9-.56.32-1.14.59-1.74.81-.6.22-1.21.38-1.83.48-.62.1-1.21.07-1.77-.09-.8-.2-1.24-.67-1.32-1.41-.08-.74-.02-1.41.18-2.01.4-1.2.94-2.36,1.62-3.46.68-1.1,1.42-2.13,2.23-3.1,1.68-2.21,3.49-4.17,5.41-5.89,2.08-1.8,4.32-3.38,6.71-4.72,2.38-1.34,4.9-2.35,7.55-3.04l1.56-.36,1.38-1.86,2.95-4.15-1.38,1.14c-.32.2-.69.43-1.11.69-.42.26-.85.47-1.29.63-.44.16-.88.24-1.32.24s-.82-.18-1.14-.54c-.44-.44-.6-.99-.48-1.65s.28-1.25.48-1.77c.08-.28.23-.63.45-1.05.22-.42.37-.81.45-1.17-.92.2-1.81.46-2.68.78-.86.32-1.75.44-2.68.36-.44.92-1.04,1.76-1.8,2.53-.76.76-1.58,1.4-2.47,1.92-.32.16-.67.32-1.05.48-.38.16-.77.27-1.17.33-.4.06-.78.05-1.14-.03-.36-.08-.66-.3-.9-.66-.32-.44-.47-.95-.45-1.53.02-.58.13-1.18.33-1.8.2-.62.43-1.22.69-1.8.26-.58.49-1.07.69-1.47,1.24-2.41,2.65-4.73,4.21-6.98,1.56-2.25,3.31-4.33,5.23-6.25.72-.68,1.5-1.42,2.34-2.22.84-.8,1.72-1.42,2.65-1.86.36-.16.73-.3,1.11-.42.38-.12.79-.14,1.23-.06.12,0,.25,0,.39.03.14.02.27.07.39.15.2.16.28.36.24.6-.04.24-.16.4-.36.48Zm-10.04,34.7c.56-.68,1.14-1.37,1.74-2.07.6-.7,1.18-1.41,1.74-2.13-2.09.64-4.11,1.52-6.07,2.65-1.68,1-3.28,2.09-4.78,3.25-1.5,1.16-2.92,2.44-4.24,3.85-.64.72-1.26,1.45-1.86,2.2-.6.74-1.18,1.51-1.74,2.31-.52.72-1,1.54-1.44,2.47-.12.2-.26.48-.42.84-.16.36-.2.7-.12,1.02.32.12.67.13,1.05.03.38-.1.76-.24,1.14-.42.38-.18.74-.39,1.08-.63.34-.24.63-.44.87-.6.8-.56,1.58-1.16,2.34-1.8.76-.64,1.5-1.3,2.22-1.98,1.52-1.4,2.98-2.85,4.36-4.33,1.38-1.48,2.76-3.03,4.12-4.63Z"/>
    <path class="cls-2" d="m178.82,348.52c-.32-.56-.48-1.12-.48-1.68s.09-1.11.27-1.65.41-1.07.69-1.59c.28-.52.54-1.04.78-1.56.56-1.12,1.13-2.23,1.71-3.34.58-1.1,1.17-2.19,1.77-3.28l-.78.12c-.48.08-.96.16-1.44.24-.48.08-.96.08-1.44,0-.28-.08-.54-.25-.78-.51-.24-.26-.16-.49.24-.69.32-.2.69-.33,1.11-.39.42-.06.79-.13,1.11-.21.56-.12,1.1-.24,1.62-.36.52-.12,1.06-.26,1.62-.42,1.16-1.92,2.38-3.82,3.67-5.68,1.28-1.86,2.62-3.74,4.03-5.62,1.68-2.16,3.42-4.25,5.2-6.25,1.78-2,3.7-3.93,5.74-5.77,2-1.84,4.12-3.58,6.34-5.2,2.23-1.62,4.6-2.92,7.13-3.88,1.16-.48,2.38-.89,3.64-1.23,1.26-.34,2.5-.33,3.7.03,1.08.32,1.87.88,2.37,1.68.5.8.69,1.74.57,2.83-.12,1.28-.48,2.5-1.08,3.64-.6,1.14-1.24,2.24-1.92,3.28-.76,1.04-1.54,2.04-2.34,3.01-.8.96-1.64,1.9-2.53,2.83-3.77,3.81-7.98,7.09-12.63,9.83-4.65,2.75-9.52,4.94-14.61,6.58l-4.21,1.14c-.8,1.36-1.59,2.73-2.37,4.09-.78,1.36-1.51,2.75-2.2,4.15-.44.84-.87,1.68-1.29,2.53s-.81,1.68-1.17,2.53c-.12.24-.24.53-.36.87-.12.34-.3.61-.54.81-.32.28-.57.26-.75-.06-.18-.32-.31-.58-.39-.78Zm11.06-17.32c-.12.16-.26.4-.42.72,5.01-1.68,9.79-3.87,14.34-6.55,4.55-2.69,8.73-5.91,12.54-9.68.96-.92,1.87-1.87,2.74-2.86.86-.98,1.67-2.01,2.44-3.1.36-.52.7-1.05,1.02-1.59.32-.54.62-1.09.9-1.65.2-.48.43-1.04.69-1.68.26-.64.31-1.24.15-1.8-.08-.32-.36-.53-.84-.63-.48-.1-.88-.13-1.2-.09-.68,0-1.35.1-2.02.3-.66.2-1.29.42-1.89.66-1.28.44-2.51,1-3.67,1.68-1.16.68-2.29,1.42-3.37,2.22-4.45,3.09-8.41,6.73-11.88,10.94-3.47,4.21-6.64,8.58-9.53,13.11Z"/>
    <path class="cls-2" d="m224.94,322.6s-.19.06-.45.18c-.26.12-.54.25-.84.39-.3.14-.57.28-.81.42-.24.14-.38.23-.42.27-.56.36-1.06.78-1.5,1.26-.44.48-.84,1-1.2,1.56-.24.36-.52.85-.84,1.47-.32.62-.55,1.26-.69,1.93-.14.66-.15,1.28-.03,1.86.12.58.48,1.01,1.08,1.29.52.24,1.12.23,1.8-.03.68-.26,1.35-.68,2.02-1.26.66-.58,1.3-1.25,1.92-2.01.62-.76,1.15-1.52,1.59-2.29-.92-.52-1.47-1.3-1.65-2.34-.18-1.04.17-1.98,1.05-2.83.56-.52,1.18-.73,1.86-.63.68.1,1.18.47,1.5,1.11.24.48.37,1,.39,1.56.02.56-.05,1.12-.21,1.68h.18c.56,0,1.1-.07,1.62-.21.52-.14,1.04-.31,1.56-.51.08-.04.19-.1.33-.18.14-.08.27-.12.39-.12.28-.12.39-.05.33.21-.06.26-.13.43-.21.51-.64.68-1.39,1.21-2.25,1.59s-1.75.57-2.68.57c-.16.32-.32.62-.48.9-.16.28-.32.54-.48.78-.64,1.04-1.39,1.99-2.25,2.86-.86.86-1.85,1.55-2.98,2.07-1.2.52-2.42.63-3.64.33-1.22-.3-2.09-1.09-2.62-2.38-.32-.8-.45-1.63-.39-2.5.06-.86.23-1.71.51-2.56.28-.84.66-1.63,1.14-2.38.48-.74,1.02-1.39,1.62-1.95.56-.56,1.23-1.07,2.01-1.53.78-.46,1.57-.71,2.38-.75.28,0,.53.04.75.12.22.08.45.16.69.24.36.08.52.31.48.69s-.24.57-.6.57Zm1.86,2.89c.08.2.28.36.6.48.24-.64.39-1.19.45-1.65.06-.46-.09-.75-.45-.87-.2,0-.36.08-.48.24-.12.16-.2.36-.24.6-.04.24-.05.47-.03.69.02.22.07.39.15.51Z"/>
    <path class="cls-2" d="m236.36,324.95c-.88.76-1.8,1.44-2.77,2.04-.16.4-.31.79-.45,1.17-.14.38-.27.77-.39,1.17-.2.52-.37,1.08-.51,1.68-.14.6-.13,1.18.03,1.74.08.28.21.46.39.54.18.08.37.11.57.09.2-.02.41-.08.63-.18.22-.1.43-.19.63-.27,1.16-.56,2.22-1.28,3.19-2.16.96-.88,1.9-1.74,2.83-2.59.4-.4.8-.78,1.2-1.14.4-.36.8-.72,1.2-1.08.08-.04.21-.14.39-.3.18-.16.35-.28.51-.36.16-.08.29-.11.39-.09.1.02.13.17.09.45-.08.32-.25.66-.51,1.02-.26.36-.49.66-.69.9-.72.96-1.5,1.86-2.35,2.71-.84.88-1.75,1.72-2.74,2.53-.98.8-2.06,1.44-3.22,1.92-.48.2-1,.35-1.56.45-.56.1-1.08,0-1.56-.33-.48-.32-.81-.73-.99-1.23s-.27-1.03-.27-1.59c-.04-1.28.17-2.56.63-3.85.46-1.28.97-2.48,1.53-3.61.56-1.28,1.16-2.52,1.8-3.7.64-1.18,1.32-2.35,2.04-3.52,1.4-2.36,2.91-4.67,4.51-6.92,1.6-2.24,3.37-4.35,5.29-6.31.36-.32.77-.71,1.23-1.17s.96-.86,1.5-1.2c.54-.34,1.09-.59,1.65-.75.56-.16,1.1-.1,1.62.18.36.16.62.4.78.72.16.32.26.67.3,1.05.04.38.04.77,0,1.17-.04.4-.12.74-.24,1.02-.48,1.28-1.18,2.49-2.11,3.64-.92,1.14-1.8,2.25-2.65,3.34-.96,1.16-1.94,2.31-2.95,3.43-1,1.12-2.02,2.25-3.07,3.37-.96,1.04-1.93,2.07-2.92,3.1-.98,1.02-1.99,1.99-3.04,2.92Zm4.45-10.1c-1.04,1.48-2.07,3-3.1,4.54-1.02,1.54-1.95,3.16-2.8,4.84,1.04-1.2,2.09-2.39,3.16-3.58,1.06-1.18,2.11-2.39,3.16-3.64.92-1.08,1.85-2.16,2.8-3.25.94-1.08,1.85-2.21,2.74-3.37.44-.56.87-1.12,1.29-1.68.42-.56.83-1.14,1.23-1.74.28-.4.59-.86.93-1.38.34-.52.53-1.06.57-1.62-.32.16-.65.38-.99.66-.34.28-.61.52-.81.72-.56.44-1.07.91-1.53,1.41-.46.5-.93,1.03-1.41,1.59-.92,1.04-1.82,2.1-2.71,3.19s-1.72,2.19-2.53,3.31Z"/>
    <path class="cls-2" d="m248.93,322.18c-.56.8-1.14,1.59-1.74,2.38s-1.18,1.57-1.74,2.38c-.32.52-.65,1.04-.99,1.56-.34.52-.67,1.06-.99,1.62-.16.28-.32.55-.48.81-.16.26-.28.53-.36.81-.08.2-.18.43-.3.69-.12.26-.2.49-.24.69.16.04.47-.11.93-.45.46-.34.96-.72,1.5-1.14s1.03-.82,1.47-1.2c.44-.38.7-.61.78-.69.8-.76,1.6-1.52,2.41-2.29.8-.76,1.66-1.46,2.58-2.1.16-.16.34-.16.54,0,.08.16.08.3,0,.42s-.16.24-.24.36c-.32.44-.65.89-.99,1.35-.34.46-.71.93-1.11,1.41-.76.92-1.58,1.85-2.47,2.8s-1.82,1.77-2.83,2.49c-.28.2-.61.4-.99.6-.38.2-.78.35-1.2.45s-.82.11-1.2.03c-.38-.08-.71-.32-.99-.72-.32-.44-.46-.93-.42-1.47.04-.54.16-1.1.36-1.68.2-.58.44-1.13.72-1.65.28-.52.52-.98.72-1.38,1.12-2.16,2.44-4.21,3.97-6.13.6-.68,1.34-1,2.22-.96.12,0,.27.02.45.06.18.04.34.09.48.15.14.06.24.16.3.3.06.14,0,.31-.15.51Zm.18-3.43c-.12-.44,0-.9.39-1.38s.73-.84,1.05-1.08c.44-.36.94-.52,1.5-.48.56.04.92.4,1.08,1.08.16.6.04,1.08-.36,1.44-.4.36-.82.7-1.26,1.02-.44.28-.9.4-1.38.36-.48-.04-.82-.36-1.02-.96Z"/>
    <path class="cls-2" d="m260.96,322.3c-.6-.04-1.2.05-1.8.27-.6.22-1.18.5-1.74.84-.56.34-1.09.73-1.59,1.17-.5.44-.95.86-1.35,1.26-.56.6-1.09,1.23-1.59,1.89-.5.66-.95,1.35-1.35,2.07-.44.64-.78,1.4-1.02,2.29-.04.08-.08.27-.12.57-.04.3-.02.47.06.51.44.08.87,0,1.29-.24s.79-.48,1.11-.72c.56-.36,1.08-.76,1.56-1.2.48-.44.94-.88,1.38-1.32l.78-.78c.32-.68.67-1.34,1.05-1.98.38-.64.77-1.26,1.17-1.86.24-.4.55-.79.93-1.17.38-.38.81-.59,1.29-.63.64,0,.9.34.78,1.02-.2.56-.47,1.08-.81,1.56-.34.48-.71,1-1.11,1.56l-.66,1.5c-.2.48-.39.95-.57,1.41-.18.46-.31.93-.39,1.41-.12.4-.14.78-.06,1.14.2.04.44,0,.72-.12.28-.12.55-.28.81-.48.26-.2.5-.41.72-.63.22-.22.39-.39.51-.51.56-.44,1.08-.89,1.56-1.35.48-.46.96-.93,1.44-1.41.44-.4.85-.8,1.23-1.2.38-.4.79-.78,1.23-1.14.12-.08.27-.19.45-.33.18-.14.37-.26.57-.36s.38-.13.54-.09c.16.04.26.18.3.42.04.32-.13.72-.51,1.2-.38.48-.65.84-.81,1.08l-2.53,2.95c-.36.4-.76.83-1.2,1.29-.44.46-.9.9-1.38,1.32-.48.42-.99.78-1.53,1.08-.54.3-1.09.49-1.65.57-1,.2-1.76-.03-2.28-.69-.52-.66-.74-1.43-.66-2.32-.56.56-1.2,1.1-1.92,1.62-.28.2-.58.41-.9.63-.32.22-.66.41-1.02.57-.36.16-.73.26-1.11.3-.38.04-.75-.02-1.11-.18-.64-.24-1.08-.62-1.32-1.14-.24-.52-.35-1.08-.33-1.68.02-.6.13-1.21.33-1.83.2-.62.42-1.15.66-1.59.68-1.4,1.56-2.67,2.65-3.79,1.08-1.12,2.3-2.02,3.67-2.71.68-.4,1.4-.72,2.16-.96.76-.24,1.54-.34,2.34-.3.2.04.41.07.63.09.22.02.43.07.63.15.28.08.41.27.39.57-.02.3-.19.43-.51.39Z"/>
    <path class="cls-2" d="m264.56,328.43c.52-.76,1.07-1.48,1.65-2.16.58-.68,1.21-1.36,1.89-2.04.36-.32.74-.63,1.14-.93.4-.3.82-.55,1.26-.75.32-.08.68-.11,1.08-.09.4.02.7.19.9.51.32.68.29,1.35-.09,2.01-.38.66-.75,1.27-1.11,1.83-.32.52-.62,1.01-.9,1.47-.28.46-.58.93-.9,1.41-.04.08-.08.15-.12.21-.04.06-.08.13-.12.21l.72-.66c.6-.56,1.19-1.1,1.77-1.62.58-.52,1.17-1.04,1.77-1.56.56-.52,1.14-1.03,1.74-1.53.6-.5,1.2-.97,1.8-1.41.52-.4,1.06-.78,1.62-1.14.56-.36,1.16-.6,1.8-.72.24-.08.5-.09.78-.03.28.06.52.19.72.39.44.36.63.83.57,1.41-.06.58-.17,1.09-.33,1.53-.28.72-.59,1.42-.93,2.11-.34.68-.67,1.36-.99,2.04-.12.32-.26.65-.42.99-.16.34-.3.69-.42,1.05l-.42.96c.32-.08.62-.21.9-.39.28-.18.54-.33.78-.45.44-.32.88-.64,1.32-.96.44-.32.88-.64,1.32-.96.68-.56,1.37-1.14,2.07-1.74.7-.6,1.43-1.18,2.2-1.74.04-.04.12-.11.24-.21s.24-.18.36-.24c.12-.06.23-.08.33-.06.1.02.15.13.15.33,0,.16-.09.33-.27.51-.18.18-.31.33-.39.45-1.2,1.48-2.43,2.89-3.67,4.21-.36.36-.85.84-1.47,1.44-.62.6-1.28,1.13-1.98,1.59-.7.46-1.41.74-2.13.84-.72.1-1.34-.17-1.86-.81-.28-.36-.43-.75-.45-1.17s.03-.86.15-1.32c.12-.46.28-.9.48-1.32.2-.42.38-.79.54-1.11.4-.8.85-1.61,1.35-2.44.5-.82.89-1.67,1.17-2.56-.08,0-.13.01-.15.03-.02.02-.05.03-.09.03-.32.16-.61.32-.87.48-.26.16-.53.34-.81.54l-2.22,1.62c-.36.28-.7.55-1.02.81-.32.26-.64.55-.96.87-.84.68-1.65,1.41-2.44,2.2-.78.78-1.59,1.53-2.44,2.25-.16.12-.37.28-.63.48-.26.2-.52.36-.78.48-.26.12-.53.18-.81.18s-.52-.14-.72-.42c-.24-.28-.33-.6-.27-.96.06-.36.18-.73.36-1.11.18-.38.39-.75.63-1.11.24-.36.44-.66.6-.9l1.8-2.89c.2-.32.42-.65.66-.99.24-.34.46-.69.66-1.05-.04.04-.08.06-.12.06-.04,0-.06.02-.06.06-.2.08-.39.19-.57.33-.18.14-.37.29-.57.45-.72.52-1.42,1.1-2.11,1.74-.32.28-.63.56-.93.84s-.63.54-.99.78c0,.04-.04.09-.12.15-.08.06-.14.11-.18.15-.16.08-.3.06-.42-.06s-.14-.26-.06-.42Z"/>
    <path class="cls-2" d="m298.96,322.84c-.16-.12-.4-.17-.72-.15-.32.02-.58.05-.78.09-.72.04-1.42.22-2.1.54-.72.32-1.42.7-2.1,1.14-.68.44-1.3.94-1.86,1.5-.6.56-1.17,1.14-1.71,1.74-.54.6-1.05,1.22-1.53,1.86-.32.48-.68,1.06-1.08,1.74-.4.68-.56,1.34-.48,1.98.36.08.83-.02,1.41-.3.58-.28,1.03-.5,1.35-.66.6-.32,1.17-.64,1.71-.96s1.09-.64,1.65-.96c.88-.56,1.76-1.2,2.65-1.92.32-.84.72-1.64,1.2-2.4.48-.76,1.08-1.28,1.8-1.56.4-.12.77-.12,1.11,0,.34.12.61.31.81.57.2.26.32.57.36.93.04.36-.04.72-.24,1.08-.48.68-1.03,1.31-1.65,1.89s-1.27,1.13-1.95,1.65c-.08.16-.12.3-.12.42-.04.2-.1.48-.18.84-.08.36-.13.74-.15,1.14-.02.4-.01.77.03,1.11.04.34.16.57.36.69v.06c.44.12.89.12,1.35,0,.46-.12.91-.31,1.35-.57.44-.26.85-.56,1.23-.9.38-.34.71-.67.99-.99.84-.88,1.5-1.88,1.98-3.01.28-.6.44-1.12.48-1.56.04-.2.05-.45.03-.75-.02-.3,0-.55.09-.75.2-.28.46-.28.78,0,.32.28.54.48.66.6.36.44.6.98.72,1.62.12.64.1,1.24-.06,1.8-.28,1.16-.82,2.22-1.62,3.16-.8.94-1.7,1.73-2.71,2.38-.88.56-1.86.99-2.95,1.29s-2.14.23-3.19-.21c-.92-.36-1.46-1-1.62-1.92-.16-.92-.16-1.84,0-2.77-1.08.72-2.22,1.38-3.43,1.98-.36.16-.77.34-1.23.54-.46.2-.92.38-1.38.54-.46.16-.93.25-1.41.27-.48.02-.94-.07-1.38-.27-.44-.2-.76-.48-.96-.84-.2-.36-.31-.76-.33-1.2-.02-.44.02-.89.12-1.35.1-.46.21-.87.33-1.23.6-1.84,1.54-3.52,2.83-5.02s2.79-2.72,4.51-3.64c.92-.44,1.86-.79,2.83-1.05.96-.26,1.94-.31,2.95-.15.2.04.39.08.57.12.18.04.37.1.57.18.04.04.13.09.27.15.14.06.21.07.21.03.24.08.4.21.48.39.08.18.09.36.03.54-.06.18-.16.33-.3.45-.14.12-.33.14-.57.06Zm-12.51,10.4s.06.01.06.03c0,.02.02.03.06.03l-.06-.06h-.06Z"/>
    <path class="cls-2" d="m326.44,322.6c-1,.44-1.93,1.01-2.8,1.71-.86.7-1.65,1.45-2.38,2.25-.88,1-1.68,2.11-2.4,3.31-.12.16-.25.37-.39.63-.14.26-.28.54-.42.84-.14.3-.25.59-.33.87-.08.28-.1.54-.06.78.44.04.9-.05,1.38-.27.48-.22.92-.43,1.32-.63.6-.36,1.19-.75,1.77-1.17s1.15-.85,1.71-1.29l1.02-.78c.56-2.48,1.48-4.87,2.77-7.16,1.28-2.29,2.67-4.41,4.15-6.37.76-1.04,1.56-2.06,2.41-3.07s1.76-1.92,2.77-2.77c.28-.28.65-.55,1.11-.81.46-.26.93-.45,1.41-.57.48-.12.94-.11,1.38.03.44.14.78.47,1.02.99.2.44.25.86.15,1.26-.1.4-.23.8-.39,1.2-.2.64-.45,1.24-.75,1.8-.3.56-.63,1.12-.99,1.68-.72,1.16-1.5,2.28-2.34,3.34-.84,1.06-1.72,2.11-2.65,3.16-1.24,1.4-2.52,2.79-3.82,4.15-1.3,1.36-2.66,2.67-4.06,3.91-.2.68-.31,1.33-.33,1.95-.02.62.11,1.21.39,1.77.12.32.42.39.9.21.48-.18,1-.45,1.56-.81.56-.36,1.08-.74,1.56-1.14.48-.4.78-.66.9-.78.92-.8,1.8-1.62,2.65-2.47s1.72-1.66,2.65-2.47c.04-.04.15-.13.33-.27.18-.14.35-.25.51-.33.16-.08.29-.11.39-.09.1.02.13.17.09.45,0,.16-.07.33-.21.51s-.25.35-.33.51c-.2.24-.38.49-.54.75-.16.26-.34.51-.54.75-1.52,1.88-3.21,3.63-5.05,5.23-.36.32-.78.67-1.26,1.05-.48.38-.99.7-1.53.96-.54.26-1.09.41-1.65.45-.56.04-1.08-.12-1.56-.48-.56-.4-.94-.94-1.14-1.62-.2-.68-.3-1.38-.3-2.1l-1.56,1.14c-.4.28-.85.59-1.35.93-.5.34-1.03.64-1.59.9-.56.26-1.13.43-1.71.51-.58.08-1.13,0-1.65-.24-.44-.16-.75-.43-.93-.81-.18-.38-.27-.78-.27-1.2s.05-.86.15-1.32c.1-.46.21-.87.33-1.23.52-1.4,1.26-2.71,2.22-3.94.96-1.22,2.02-2.3,3.19-3.22.48-.4,1.02-.79,1.62-1.17.6-.38,1.24-.61,1.92-.69h.66c.24,0,.46.04.66.12.24.12.42.3.54.54.12.24.02.44-.3.6Zm4.87-2.1c-.52.8-1,1.62-1.44,2.47s-.88,1.7-1.32,2.59l1.86-1.8c1-1.04,1.97-2.08,2.92-3.13.94-1.04,1.83-2.12,2.68-3.25.44-.56.86-1.12,1.26-1.68.4-.56.8-1.12,1.2-1.68l1.08-1.92c.08-.16.18-.41.3-.75.12-.34.14-.59.06-.75-.32.08-.66.28-1.02.6-.36.32-.64.58-.84.78-.44.36-.85.76-1.23,1.2-.38.44-.77.88-1.17,1.32-.8.96-1.55,1.94-2.25,2.95-.7,1-1.39,2.02-2.07,3.07Z"/>
    <path class="cls-2" d="m339,330.6c-.2.08-.41.16-.63.24-.22.08-.43.16-.63.24.04.2.08.39.12.57.04.18.14.35.3.51.28.44.64.74,1.08.9.44.16.9.25,1.38.27.48.02.96-.03,1.44-.15.48-.12.92-.28,1.32-.48,1.12-.44,2.14-1.09,3.07-1.95.92-.86,1.58-1.87,1.98-3.04.08-.2.13-.39.15-.57.02-.18.07-.33.15-.45.12-.24.3-.35.54-.33.24.02.42.15.54.39.2.28.32.59.36.93.04.34.04.67,0,.99-.04.6-.2,1.16-.48,1.68-.28.52-.63,1-1.05,1.44s-.89.83-1.41,1.17c-.52.34-1.02.65-1.5.93-1.04.56-2.19.97-3.43,1.23-1.24.26-2.45.17-3.61-.27-1.04-.44-1.83-1.16-2.38-2.16-.54-1-.73-2.06-.57-3.19.12-1.16.53-2.25,1.23-3.28.7-1.02,1.49-1.93,2.38-2.74.36-.28.8-.62,1.32-1.02.52-.4,1.07-.73,1.65-.99.58-.26,1.17-.43,1.77-.51.6-.08,1.14.04,1.62.36.72.48,1.08,1.03,1.08,1.65s-.18,1.25-.54,1.89c-.36.64-.82,1.25-1.38,1.83-.56.58-1.04,1.03-1.44,1.35-.68.52-1.39.99-2.13,1.41-.74.42-1.51.79-2.31,1.11Zm.72-3.97c-.36.44-.71.91-1.05,1.41-.34.5-.61,1.03-.81,1.59,1.52-.76,2.85-1.64,3.97-2.65.48-.4.93-.81,1.35-1.23s.79-.91,1.11-1.47c.08-.12.16-.32.24-.6.08-.28.1-.44.06-.48h-.06s-.13.05-.27.03c-.14-.02-.25,0-.33.03-.64.2-1.16.46-1.56.78-.52.32-.99.71-1.41,1.17-.42.46-.83.93-1.23,1.41Z"/>
    <path class="cls-2" d="m363.23,348.52c-.32-.56-.48-1.12-.48-1.68s.09-1.11.27-1.65.41-1.07.69-1.59c.28-.52.54-1.04.78-1.56.56-1.12,1.13-2.23,1.71-3.34.58-1.1,1.17-2.19,1.77-3.28l-.78.12c-.48.08-.96.16-1.44.24-.48.08-.96.08-1.44,0-.28-.08-.54-.25-.78-.51-.24-.26-.16-.49.24-.69.32-.2.69-.33,1.11-.39.42-.06.79-.13,1.11-.21.56-.12,1.1-.24,1.62-.36.52-.12,1.06-.26,1.62-.42,1.16-1.92,2.38-3.82,3.67-5.68,1.28-1.86,2.62-3.74,4.03-5.62,1.68-2.16,3.42-4.25,5.2-6.25,1.78-2,3.7-3.93,5.74-5.77,2-1.84,4.12-3.58,6.34-5.2,2.23-1.62,4.6-2.92,7.13-3.88,1.16-.48,2.38-.89,3.64-1.23,1.26-.34,2.5-.33,3.7.03,1.08.32,1.87.88,2.37,1.68.5.8.69,1.74.57,2.83-.12,1.28-.48,2.5-1.08,3.64-.6,1.14-1.24,2.24-1.92,3.28-.76,1.04-1.54,2.04-2.34,3.01-.8.96-1.64,1.9-2.53,2.83-3.77,3.81-7.98,7.09-12.63,9.83-4.65,2.75-9.52,4.94-14.61,6.58l-4.21,1.14c-.8,1.36-1.59,2.73-2.37,4.09-.78,1.36-1.51,2.75-2.2,4.15-.44.84-.87,1.68-1.29,2.53s-.81,1.68-1.17,2.53c-.12.24-.24.53-.36.87-.12.34-.3.61-.54.81-.32.28-.57.26-.75-.06-.18-.32-.31-.58-.39-.78Zm11.06-17.32c-.12.16-.26.4-.42.72,5.01-1.68,9.79-3.87,14.34-6.55,4.55-2.69,8.73-5.91,12.54-9.68.96-.92,1.87-1.87,2.74-2.86.86-.98,1.67-2.01,2.44-3.1.36-.52.7-1.05,1.02-1.59.32-.54.62-1.09.9-1.65.2-.48.43-1.04.69-1.68.26-.64.31-1.24.15-1.8-.08-.32-.36-.53-.84-.63-.48-.1-.88-.13-1.2-.09-.68,0-1.35.1-2.02.3-.66.2-1.29.42-1.89.66-1.28.44-2.51,1-3.67,1.68-1.16.68-2.29,1.42-3.37,2.22-4.45,3.09-8.41,6.73-11.88,10.94-3.47,4.21-6.64,8.58-9.53,13.11Z"/>
    <path class="cls-2" d="m411.76,322.3c-.6-.04-1.2.05-1.8.27-.6.22-1.18.5-1.74.84-.56.34-1.09.73-1.59,1.17-.5.44-.95.86-1.35,1.26-.56.6-1.09,1.23-1.59,1.89-.5.66-.95,1.35-1.35,2.07-.44.64-.78,1.4-1.02,2.29-.04.08-.08.27-.12.57-.04.3-.02.47.06.51.44.08.87,0,1.29-.24.42-.24.79-.48,1.11-.72.56-.36,1.08-.76,1.56-1.2.48-.44.94-.88,1.38-1.32l.78-.78c.32-.68.67-1.34,1.05-1.98.38-.64.77-1.26,1.17-1.86.24-.4.55-.79.93-1.17s.81-.59,1.29-.63c.64,0,.9.34.78,1.02-.2.56-.47,1.08-.81,1.56-.34.48-.71,1-1.11,1.56l-.66,1.5c-.2.48-.39.95-.57,1.41-.18.46-.31.93-.39,1.41-.12.4-.14.78-.06,1.14.2.04.44,0,.72-.12.28-.12.55-.28.81-.48.26-.2.5-.41.72-.63.22-.22.39-.39.51-.51.56-.44,1.08-.89,1.56-1.35.48-.46.96-.93,1.44-1.41.44-.4.85-.8,1.23-1.2.38-.4.79-.78,1.23-1.14.12-.08.27-.19.45-.33.18-.14.37-.26.57-.36.2-.1.38-.13.54-.09.16.04.26.18.3.42.04.32-.13.72-.51,1.2-.38.48-.65.84-.81,1.08l-2.53,2.95c-.36.4-.76.83-1.2,1.29-.44.46-.9.9-1.38,1.32-.48.42-.99.78-1.53,1.08-.54.3-1.09.49-1.65.57-1,.2-1.76-.03-2.29-.69-.52-.66-.74-1.43-.66-2.32-.56.56-1.2,1.1-1.92,1.62-.28.2-.58.41-.9.63-.32.22-.66.41-1.02.57-.36.16-.73.26-1.11.3-.38.04-.75-.02-1.11-.18-.64-.24-1.08-.62-1.32-1.14-.24-.52-.35-1.08-.33-1.68.02-.6.13-1.21.33-1.83.2-.62.42-1.15.66-1.59.68-1.4,1.56-2.67,2.65-3.79,1.08-1.12,2.3-2.02,3.67-2.71.68-.4,1.4-.72,2.16-.96.76-.24,1.54-.34,2.34-.3.2.04.41.07.63.09.22.02.43.07.63.15.28.08.41.27.39.57-.02.3-.19.43-.51.39Z"/>
    <path class="cls-2" d="m423.24,321.82c-.16.52-.36,1-.6,1.44-.24.44-.52.88-.84,1.32-.36.52-.71,1.03-1.05,1.53s-.67,1.01-.99,1.53c-.32.52-.61,1.03-.87,1.53-.26.5-.49,1.03-.69,1.59-.12.32-.24.63-.36.93-.12.3-.22.61-.3.93-.04.08-.08.23-.12.45-.04.22-.04.39,0,.51.56,0,1.09-.1,1.59-.3s.99-.47,1.47-.81c.48-.34.94-.72,1.38-1.14.44-.42.86-.81,1.26-1.17,1.96-1.84,3.81-3.91,5.53-6.19.32-.4.62-.84.9-1.32.28-.48.6-.88.96-1.2.24-.16.48-.23.72-.21.24.02.45.1.63.24.18.14.32.33.42.57.1.24.09.5-.03.78-.08.28-.23.55-.45.81-.22.26-.43.53-.63.81l-1.08,1.74c-.36.6-.7,1.22-1.02,1.86-.32.64-.6,1.3-.84,1.98-.04.12-.11.32-.21.6-.1.28-.19.58-.27.9-.08.32-.12.61-.12.87s.08.41.24.45c.36-.08.69-.15.99-.21.3-.06.61-.21.93-.45,1.12-.68,2.17-1.47,3.16-2.38.98-.9,1.97-1.77,2.98-2.62.52-.36,1.02-.71,1.5-1.05.48-.34,1-.65,1.56-.93.28-.04.42.02.42.18s-.07.36-.21.6c-.14.24-.31.47-.51.69-.2.22-.34.39-.42.51-.8,1.04-1.65,2.04-2.56,2.98-.9.94-1.85,1.83-2.86,2.68-.68.52-1.4,1-2.16,1.44-.76.44-1.56.7-2.4.78-.8.08-1.45-.15-1.95-.69-.5-.54-.77-1.21-.81-2.01-.04-.32-.04-.64,0-.96.04-.32.1-.64.18-.96l-1.98,1.92c-.76.68-1.57,1.36-2.44,2.04-.86.68-1.79,1.18-2.8,1.5-.84.24-1.61.19-2.31-.15-.7-.34-1.15-.97-1.35-1.89-.12-.96-.03-1.94.27-2.95.3-1,.67-1.94,1.11-2.83.84-1.96,1.96-3.79,3.37-5.47.32-.36.65-.68.99-.96.34-.28.75-.5,1.23-.66.28-.08.62-.1,1.02-.06.4.04.54.32.42.84Z"/>
    <path class="cls-2" d="m442.12,324.95c-.88.76-1.8,1.44-2.77,2.04-.16.4-.31.79-.45,1.17-.14.38-.27.77-.39,1.17-.2.52-.37,1.08-.51,1.68-.14.6-.13,1.18.03,1.74.08.28.21.46.39.54.18.08.37.11.57.09.2-.02.41-.08.63-.18.22-.1.43-.19.63-.27,1.16-.56,2.22-1.28,3.19-2.16.96-.88,1.9-1.74,2.83-2.59.4-.4.8-.78,1.2-1.14.4-.36.8-.72,1.2-1.08.08-.04.21-.14.39-.3.18-.16.35-.28.51-.36.16-.08.29-.11.39-.09.1.02.13.17.09.45-.08.32-.25.66-.51,1.02-.26.36-.49.66-.69.9-.72.96-1.5,1.86-2.35,2.71-.84.88-1.75,1.72-2.74,2.53-.98.8-2.06,1.44-3.22,1.92-.48.2-1,.35-1.56.45-.56.1-1.08,0-1.56-.33-.48-.32-.81-.73-.99-1.23s-.27-1.03-.27-1.59c-.04-1.28.17-2.56.63-3.85.46-1.28.97-2.48,1.53-3.61.56-1.28,1.16-2.52,1.8-3.7.64-1.18,1.32-2.35,2.04-3.52,1.4-2.36,2.91-4.67,4.51-6.92,1.6-2.24,3.37-4.35,5.29-6.31.36-.32.77-.71,1.23-1.17s.96-.86,1.5-1.2c.54-.34,1.09-.59,1.65-.75.56-.16,1.1-.1,1.62.18.36.16.62.4.78.72.16.32.26.67.3,1.05.04.38.04.77,0,1.17-.04.4-.12.74-.24,1.02-.48,1.28-1.18,2.49-2.11,3.64-.92,1.14-1.8,2.25-2.65,3.34-.96,1.16-1.94,2.31-2.95,3.43-1,1.12-2.02,2.25-3.07,3.37-.96,1.04-1.93,2.07-2.92,3.1-.98,1.02-1.99,1.99-3.04,2.92Zm4.45-10.1c-1.04,1.48-2.07,3-3.1,4.54-1.02,1.54-1.95,3.16-2.8,4.84,1.04-1.2,2.09-2.39,3.16-3.58,1.06-1.18,2.11-2.39,3.16-3.64.92-1.08,1.85-2.16,2.8-3.25.94-1.08,1.85-2.21,2.74-3.37.44-.56.87-1.12,1.29-1.68.42-.56.83-1.14,1.23-1.74.28-.4.59-.86.93-1.38.34-.52.53-1.06.57-1.62-.32.16-.65.38-.99.66-.34.28-.61.52-.81.72-.56.44-1.07.91-1.53,1.41-.46.5-.93,1.03-1.41,1.59-.92,1.04-1.82,2.1-2.71,3.19s-1.72,2.19-2.53,3.31Z"/>
    <path class="cls-2" d="m460.46,322.84c-.16-.12-.4-.17-.72-.15-.32.02-.58.05-.78.09-.72.04-1.42.22-2.1.54-.72.32-1.42.7-2.11,1.14-.68.44-1.3.94-1.86,1.5-.6.56-1.17,1.14-1.71,1.74-.54.6-1.05,1.22-1.53,1.86-.32.48-.68,1.06-1.08,1.74-.4.68-.56,1.34-.48,1.98.36.08.83-.02,1.41-.3.58-.28,1.03-.5,1.35-.66.6-.32,1.17-.64,1.71-.96s1.09-.64,1.65-.96c.88-.56,1.76-1.2,2.65-1.92.32-.84.72-1.64,1.2-2.4.48-.76,1.08-1.28,1.8-1.56.4-.12.77-.12,1.11,0s.61.31.81.57c.2.26.32.57.36.93.04.36-.04.72-.24,1.08-.48.68-1.03,1.31-1.65,1.89-.62.58-1.27,1.13-1.95,1.65-.08.16-.12.3-.12.42-.04.2-.1.48-.18.84-.08.36-.13.74-.15,1.14-.02.4,0,.77.03,1.11.04.34.16.57.36.69v.06c.44.12.89.12,1.35,0,.46-.12.91-.31,1.35-.57.44-.26.85-.56,1.23-.9.38-.34.71-.67.99-.99.84-.88,1.5-1.88,1.98-3.01.28-.6.44-1.12.48-1.56.04-.2.05-.45.03-.75-.02-.3,0-.55.09-.75.2-.28.46-.28.78,0,.32.28.54.48.66.6.36.44.6.98.72,1.62.12.64.1,1.24-.06,1.8-.28,1.16-.82,2.22-1.62,3.16-.8.94-1.7,1.73-2.71,2.38-.88.56-1.86.99-2.95,1.29s-2.15.23-3.19-.21c-.92-.36-1.46-1-1.62-1.92-.16-.92-.16-1.84,0-2.77-1.08.72-2.23,1.38-3.43,1.98-.36.16-.77.34-1.23.54-.46.2-.92.38-1.38.54-.46.16-.93.25-1.41.27-.48.02-.94-.07-1.38-.27-.44-.2-.76-.48-.96-.84-.2-.36-.31-.76-.33-1.2-.02-.44.02-.89.12-1.35.1-.46.21-.87.33-1.23.6-1.84,1.54-3.52,2.83-5.02,1.28-1.5,2.79-2.72,4.51-3.64.92-.44,1.86-.79,2.83-1.05.96-.26,1.94-.31,2.95-.15.2.04.39.08.57.12.18.04.37.1.57.18.04.04.13.09.27.15.14.06.21.07.21.03.24.08.4.21.48.39s.09.36.03.54c-.06.18-.16.33-.3.45-.14.12-.33.14-.57.06Zm-12.51,10.4s.06.01.06.03c0,.02.02.03.06.03l-.06-.06h-.06Z"/>
  </g>
  <g>
    <path class="cls-1" d="m41.16,181.51l-13.38,28.54c-.24.5-.46.95-.65,1.38-.16-.39-.34-.85-.55-1.39l-12.03-28.53h-3.05l-6.5,40.03h4.6l4.5-29.44s0-.04,0-.06c.02.04.04.09.06.13l11.27,27.37h.65l.02.54.18-.54h2l12.69-27.29.22-.5c0,.06.02.13.03.19l4.26,29.59h4.77l-6.07-40.03h-3.03Z"/>
    <path class="cls-1" d="m72.29,201.07c-.24.41-.45.79-.64,1.12-.16-.32-.36-.71-.6-1.18l-11.31-19.26h-5.46l15.02,25.56v14.24h4.57v-14.12l15.01-25.67h-5.28l-11.31,19.33Z"/>
    <path class="cls-1" d="m124.7,215.94c-2.82,1.19-6.44,1.79-10.76,1.79s-7.93-1.59-11.13-4.74c-3.24-3.18-4.81-6.93-4.81-11.47s1.4-8.34,4.16-11.43c2.77-3.1,6.09-4.6,10.15-4.6s8.32.61,12.25,1.82l.92.28,1.28-4.06-.92-.3c-4.28-1.39-8.72-2.09-13.19-2.09-5.7,0-10.43,1.99-14.04,5.91-3.6,3.9-5.42,8.8-5.42,14.57s2.09,10.71,6.22,14.62c4.11,3.89,8.95,5.87,14.38,5.87s9.59-.87,12.64-2.57l.79-.44-1.66-3.53-.86.36Z"/>
    <path class="cls-1" d="m152.98,181.16c-5.65,0-10.46,2-14.29,5.95-3.82,3.94-5.76,8.83-5.76,14.53s1.94,10.59,5.76,14.53c3.83,3.95,8.63,5.95,14.29,5.95s10.46-2,14.29-5.95c3.82-3.94,5.76-8.83,5.76-14.53s-1.94-10.59-5.76-14.53c-3.83-3.95-8.64-5.95-14.29-5.95Zm.03,36.57c-4.45,0-8.03-1.51-10.96-4.62-2.9-3.08-4.37-6.94-4.37-11.47s1.47-8.39,4.37-11.5c2.93-3.13,6.51-4.65,10.96-4.65s8.02,1.52,10.92,4.65c2.89,3.1,4.35,6.97,4.35,11.5s-1.46,8.38-4.35,11.47c-2.91,3.11-6.48,4.62-10.93,4.62Z"/>
    <path class="cls-1" d="m215.49,210.13c0,.95,0,1.78.01,2.51-.58-.73-1.21-1.47-1.87-2.22l-25.14-28.91h-2.7v40.03h4.63v-28.21c0-1.01,0-1.89-.01-2.64l1.4,1.71,25.6,29.38h2.7v-40.03h-4.63v28.39Z"/>
    <rect class="cls-1" x="235.08" y="181.75" width="4.63" height="39.8"/>
    <path class="cls-1" d="m265.74,181.51l-16.68,40.03h4.85l5.42-13.12h15.5l5.48,13.12h5.08l-16.8-40.03h-2.87Zm7.36,22.69h-12.02l5.28-12.67c.23-.56.47-1.2.72-1.9.23.58.5,1.23.8,1.97l5.22,12.6Z"/>
    <path class="cls-1" d="m324.43,210.13c0,.95,0,1.78.01,2.51-.59-.73-1.21-1.48-1.87-2.22l-25.14-28.91h-2.7v40.03h4.63v-28.21c0-1.01,0-1.89-.01-2.64l1.4,1.71,25.6,29.38h2.7v-40.03h-4.63v28.39Z"/>
    <polygon class="cls-1" points="375.48 181.75 370.86 181.75 370.86 221.54 392.86 221.54 392.86 217.15 375.48 217.15 375.48 181.75"/>
    <path class="cls-1" d="m428.82,204.24c0,9.12-3.9,13.55-11.92,13.55s-11.92-4.43-11.92-13.55v-22.5h-4.63v22.5c0,5.5,1.37,9.89,4.08,13.06,2.75,3.2,6.94,4.83,12.46,4.83s9.71-1.63,12.46-4.83h0c2.71-3.16,4.08-7.55,4.08-13.06v-22.5h-4.63v22.5Z"/>
    <polygon class="cls-1" points="473.45 181.75 468.21 181.75 458.2 197.28 448.63 181.75 443.06 181.75 455.16 200.96 441.56 221.54 446.87 221.54 457.64 205 467.97 221.54 473.48 221.54 460.68 201.27 473.45 181.75"/>
    <path class="cls-1" d="m510.88,204.24c0,9.12-3.9,13.55-11.92,13.55s-11.92-4.43-11.92-13.55v-22.5h-4.63v22.5c0,5.5,1.37,9.89,4.08,13.06,2.75,3.2,6.94,4.83,12.46,4.83s9.71-1.63,12.46-4.83h0c2.71-3.16,4.08-7.55,4.08-13.06v-22.5h-4.63v22.5Z"/>
    <path class="cls-1" d="m554.84,214.61c-1.01-1.12-3.68-4.55-7.94-10.19,1.45-1.18,2.77-2.64,3.94-4.36,1.43-2.1,2.15-4.42,2.15-6.9,0-3.72-1.3-6.63-3.87-8.67-2.5-1.98-5.68-2.98-9.47-2.98-2.34,0-5.23.14-8.59.41l-.89.07v39.55h4.63v-15.45c2.55.14,5.17.22,7.81.23,4.45,6.16,7.27,9.85,8.62,11.3,1.42,1.53,2.89,2.64,4.37,3.29,1.47.65,3.39,1.01,5.68,1.05l.96.02.12-3.66-.89-.11c-2.36-.28-4.6-1.5-6.63-3.59Zm-20.05-28.65c1.71-.11,3.22-.17,4.51-.17,2.68,0,4.88.64,6.52,1.9,1.59,1.22,2.36,2.97,2.36,5.35s-.78,4.57-2.39,6.42c-1.55,1.79-2.95,2.7-4.16,2.7-2.13,0-4.43-.08-6.84-.23v-15.97Z"/>
    <path class="cls-1" d="m589.72,181.75l-11.31,19.33c-.24.41-.45.79-.64,1.12-.16-.32-.36-.71-.6-1.18l-11.31-19.26h-5.46l15.02,25.56v14.24h4.57v-14.12l15.01-25.67h-5.28Z"/>
  </g>
  <path class="cls-2" d="m369.95,66.1c-.13-1.19-.4-2.36-.69-3.52-.22-.9-.82-1.34-1.5-1.2-2.7.56-5.4,1.15-8.1,1.73-.89.19-1.79.39-2.62.58-1.09-4.48-2.48-8.74-4.5-12.79,1.05-.52,2.05-1.02,3.11-1.55.48,1,1.02,1.97,1.42,2.99.67,1.7,1.27,3.44,1.89,5.16.4,1.12.94,1.41,2.06,1.1,1.74-.49,3.48-.98,5.22-1.47,1.08-.3,1.52-1.05,1.17-2.12-.57-1.72-1.13-3.44-1.8-5.11-.72-1.79-1.48-3.57-2.41-5.26-1.44-2.61-3.02-5.13-4.56-7.68-.4-.66-1.21-.81-1.86-.39-.65.43-1.29.86-1.93,1.31-1.95,1.38-3.89,2.78-5.85,4.16-.37.26-.79.46-1.22.71-2.62-3.73-5.59-7.07-8.99-10.1.78-.9,1.51-1.74,2.25-2.6.55.46,1.07.81,1.48,1.24,1.63,1.72,3.24,3.47,4.85,5.21.59.64,1.4.74,2.07.19,1.44-1.17,2.87-2.35,4.29-3.54.99-.83,1.06-1.44.24-2.42-.76-.92-1.58-1.78-2.37-2.68-.52-.58-.99-1.22-1.56-1.75-1.27-1.18-2.56-2.33-3.89-3.44-1.63-1.36-3.3-2.67-4.96-3.99-.57-.46-1.15-.91-1.76-1.31-.95-.62-1.74-.44-2.35.51-1.14,1.76-2.27,3.53-3.4,5.3-.77,1.2-1.55,2.41-2.33,3.63-3.89-2.4-7.9-4.51-12.31-5.91.4-1.1.79-2.16,1.19-3.26,1.38.49,2.69.88,3.94,1.42,1.41.61,2.77,1.35,4.15,2.03,1.05.52,1.61.35,2.18-.67.86-1.56,1.72-3.13,2.57-4.69.66-1.2.48-1.84-.75-2.5-1.02-.54-2.02-1.13-3.09-1.54-3.38-1.29-6.76-2.58-10.19-3.72-1.68-.56-3.48-.81-5.23-1.15-1.02-.2-1.75.2-1.88.93-.35,2-.69,4-1.02,6.01-.26,1.56-.48,3.13-.74,4.77-4.57-.8-9.07-1.06-13.67-.79-.08-1.16-.15-2.27-.22-3.41.26-.02.4-.05.55-.04,2.72.05,5.44.1,8.15.17,1.18.03,1.75-.41,1.87-1.56.21-1.88.41-3.75.63-5.62.08-.66-.21-1.11-.77-1.36-.39-.18-.84-.26-1.27-.29-3.89-.32-7.79-.33-11.67.09-2.52.27-5.04.63-7.54,1.03-1.17.19-1.54.88-1.29,2.01.72,3.22,1.43,6.44,2.14,9.66.05.21.07.42.09.58-4.4,1.17-8.68,2.5-12.74,4.58-.53-1.05-1.04-2.06-1.59-3.16,1.46-.64,2.85-1.28,4.28-1.86,1.4-.57,2.85-1.03,4.25-1.6.79-.32,1.01-.91.77-1.74-.52-1.81-1.03-3.62-1.56-5.42-.3-1.02-1.1-1.48-2.07-1.12-2.22.82-4.43,1.66-6.63,2.53-.86.34-1.68.79-2.51,1.21-1.8.92-3.62,1.81-5.38,2.8-1.21.68-2.35,1.49-3.52,2.25-.63.41-.81,1.29-.38,1.94.48.73.99,1.45,1.5,2.16,1.4,1.97,2.82,3.93,4.23,5.89.13.18.29.36.32.56.03.19-.02.49-.16.6-1.02.84-2.1,1.6-3.09,2.46-1.71,1.48-3.38,3.01-5.04,4.54-.57.52-1.05,1.14-1.61,1.76-.89-.77-1.73-1.49-2.62-2.26.54-.62,1-1.23,1.55-1.75,1.62-1.56,3.28-3.08,4.92-4.62.74-.7.79-1.25.14-2.04-1.2-1.47-2.42-2.93-3.65-4.38-.71-.84-1.28-.92-2.14-.24-.82.65-1.58,1.37-2.37,2.06-.7.61-1.44,1.19-2.07,1.86-1.18,1.26-2.33,2.55-3.44,3.88-1.35,1.61-2.64,3.26-3.94,4.91-.49.61-.97,1.23-1.4,1.88-.52.8-.49,1.84.05,2.21.97.67,1.94,1.31,2.94,1.94,1.42.9,2.86,1.78,4.29,2.67.7.43,1.41.85,2.14,1.29-2.41,3.96-4.52,7.98-5.88,12.39-1.13-.41-2.19-.79-3.28-1.18.52-1.44.95-2.83,1.53-4.18.58-1.37,1.31-2.68,1.95-4.03.45-.94.28-1.51-.64-2.02-1.62-.9-3.25-1.79-4.89-2.66-1.14-.61-1.74-.37-2.37.77-1.99,3.59-3.38,7.44-4.62,11.33-.74,2.32-1.2,4.74-1.73,7.12-.27,1.25.24,1.9,1.46,2.09,2.3.35,4.6.68,6.9,1.05,1.1.18,2.19.42,3.34.64-.75,4.4-1,8.76-.76,13.21-1.17.06-2.27.12-3.41.19-.01-.24-.02-.36-.02-.47.05-2.6.09-5.19.16-7.78.03-1.18-.38-1.71-1.56-1.85-1.8-.21-3.6-.4-5.41-.59-1.1-.11-1.7.36-1.82,1.49-.1.88-.19,1.76-.17,2.64.08,3.62.12,7.25.34,10.86.12,1.96.52,3.92.9,5.86.21,1.1.86,1.42,1.95,1.19,2.34-.49,4.69-.98,7.03-1.48,1.11-.24,2.21-.52,3.26-.76,1.11,4.47,2.49,8.73,4.52,12.8-1.04.52-2.03,1.02-3.09,1.55-.4-.82-.87-1.63-1.21-2.49-.74-1.86-1.42-3.75-2.1-5.63-.42-1.15-.95-1.44-2.12-1.12-1.72.48-3.43.97-5.15,1.45-1.16.32-1.58,1.09-1.16,2.23.84,2.29,1.69,4.58,2.61,6.84.6,1.49,1.25,2.98,2.03,4.38,1.26,2.23,2.65,4.38,4,6.57.53.85,1.27,1.01,2.11.44,1.07-.73,2.13-1.46,3.19-2.21.42-.29.8-.64,1.22-.94.74-.52,1.49-1.02,2.23-1.52.72-.48,1.43-.97,2.18-1.47,2.65,3.82,5.65,7.13,9.01,10.16-.79.91-1.51,1.74-2.39,2.75-2.1-2.24-4.12-4.36-6.11-6.51-.71-.76-1.43-.87-2.23-.23-1.44,1.17-2.85,2.36-4.28,3.54-.88.72-1.01,1.32-.29,2.19,1.31,1.57,2.64,3.14,4.07,4.6,1.22,1.25,2.59,2.37,3.93,3.49,1.59,1.33,3.22,2.61,4.85,3.9.61.49,1.23.97,1.88,1.4.86.57,1.7.36,2.25-.49.51-.78,1.05-1.53,1.55-2.31.85-1.34,1.67-2.7,2.52-4.04.55-.88,1.12-1.75,1.7-2.66,3.88,2.42,7.9,4.49,12.3,5.93-.38,1.07-.76,2.12-1.17,3.27-1.4-.5-2.73-.91-4-1.46-1.46-.63-2.85-1.4-4.29-2.08-.84-.4-1.43-.22-1.87.56-.99,1.77-1.97,3.54-2.92,5.33-.29.54-.3,1.14.29,1.5,1.14.69,2.26,1.48,3.5,1.96,3.78,1.45,7.6,2.83,11.44,4.13,1.36.46,2.82.63,4.24.89,1.05.19,1.77-.21,1.91-.99.38-2.27.74-4.54,1.12-6.81.21-1.29.44-2.58.66-3.92,4.56.8,9.04,1.06,13.63.79.07,1.16.15,2.27.22,3.42-.35.01-.62.04-.89.03-2.67-.06-5.34-.13-8-.19-.98-.02-1.56.49-1.66,1.46-.21,1.87-.42,3.75-.62,5.63-.09.77.2,1.28.91,1.55.31.12.66.16,1,.19,3.89.34,7.79.34,11.67-.07,2.57-.27,5.14-.65,7.69-1.06,1.14-.18,1.5-.88,1.26-1.96-.73-3.27-1.45-6.54-2.16-9.81-.03-.16-.06-.32-.08-.46,4.4-1.16,8.68-2.49,12.74-4.57.53,1.05,1.04,2.06,1.59,3.15-1.43.64-2.79,1.3-4.19,1.86-1.4.57-2.85,1.02-4.26,1.56-.83.32-1.08.92-.84,1.77.51,1.81,1.02,3.62,1.55,5.43.31,1.05,1.12,1.5,2.14,1.11,2.44-.92,4.88-1.87,7.3-2.83.61-.24,1.18-.59,1.77-.89,1.82-.94,3.66-1.83,5.45-2.83,1.19-.66,2.31-1.47,3.45-2.21.64-.42.82-1.29.39-1.93-.58-.87-1.18-1.73-1.79-2.59-1.21-1.69-2.43-3.36-3.64-5.05-.23-.32-.47-.64-.62-.99-.06-.16.02-.49.15-.6,1.01-.84,2.1-1.6,3.09-2.46,1.71-1.48,3.38-3.01,5.04-4.55.57-.52,1.05-1.14,1.61-1.75.9.77,1.74,1.5,2.62,2.26-.59.65-1.09,1.28-1.67,1.84-1.6,1.54-3.24,3.05-4.86,4.59-.68.65-.72,1.22-.14,1.93,1.22,1.49,2.45,2.97,3.7,4.44.72.84,1.31.91,2.2.2.78-.62,1.52-1.29,2.25-1.97,1.4-1.32,2.86-2.6,4.13-4.04,1.73-1.95,3.32-4.03,4.95-6.06.64-.8,1.26-1.63,1.83-2.48.69-1.02.48-1.88-.53-2.53-2.36-1.52-4.71-3.06-7.08-4.57-.57-.36-1.18-.65-1.82-.99,2.42-3.97,4.52-7.98,5.9-12.41,1.12.4,2.18.78,3.3,1.19-.57,1.52-1.06,2.98-1.66,4.39-.55,1.3-1.24,2.55-1.84,3.83-.43.91-.25,1.51.6,1.97,1.67.92,3.37,1.78,5.01,2.75.94.56,1.7.24,2.24-.72.56-1,1.13-2.01,1.54-3.08,1.29-3.38,2.58-6.76,3.71-10.19.56-1.71.82-3.52,1.15-5.3.24-1.3-.21-1.87-1.48-2.07-1.82-.27-3.64-.52-5.45-.82-1.58-.26-3.16-.56-4.68-.83.23-2.27.51-4.43.64-6.6.13-2.19.09-4.39.13-6.64,1.07-.06,2.16-.13,3.29-.19.03.28.07.49.06.71-.05,2.54-.11,5.09-.18,7.63-.03.99.41,1.64,1.27,1.74,1.92.22,3.85.43,5.77.63.97.1,1.57-.38,1.73-1.36.03-.22.05-.44.06-.66.42-5.15.12-10.28-.45-15.39Zm-2.05,14.52c-1.22-.08-2.45-.16-3.8-.25.04-.58.1-1.13.11-1.69,0-2.45.02-4.89,0-7.34-.01-1.13-.75-1.71-1.89-1.59-1.77.19-3.55.37-5.33.54-.92.09-1.34.65-1.31,1.68.07,2.23.24,4.46.12,6.68-.16,2.65-.54,5.3-.91,7.93-.19,1.35.11,1.9,1.45,2.18,3.25.69,6.51,1.39,9.76,2.09.09.02.18.05.32.1-.81,5.34-3,10.18-5.07,15.15-1.2-.62-2.29-1.18-3.42-1.76.52-1.16,1.08-2.25,1.51-3.38.67-1.73,1.28-3.48,1.87-5.24.31-.92-.05-1.6-.97-1.9-1.77-.56-3.55-1.1-5.34-1.6-.94-.26-1.47.07-1.81,1-.61,1.67-1.15,3.38-1.85,5.01-.66,1.55-1.46,3.04-2.27,4.52-.82,1.5-1.72,2.95-2.59,4.42-.46.77-.36,1.36.39,1.9.99.71,2.02,1.37,3.01,2.08,1.2.85,2.36,1.74,3.56,2.59.77.55,1.57,1.05,2.41,1.61-3.18,4.35-6.61,8.35-10.61,11.85-.9-.96-1.74-1.87-2.45-2.63,2.19-2.34,4.32-4.58,6.4-6.86.7-.77.58-1.41-.23-2.07-1.38-1.13-2.75-2.27-4.13-3.38-.96-.77-1.45-.66-2.28.22-1.59,1.69-3.17,3.4-4.9,4.94-1.89,1.68-3.95,3.18-5.93,4.76-.33.26-.72.49-.91.83-.2.34-.33.84-.23,1.2.14.55.46,1.08.77,1.57,1.18,1.86,2.39,3.7,3.59,5.55.51.79,1.03,1.59,1.59,2.45-4.57,2.87-9.27,5.2-14.36,6.89-.38-1.19-.76-2.36-1.17-3.6.69-.22,1.35-.38,1.97-.65,1.57-.67,3.12-1.39,4.69-2.09.58-.26,1.17-.49,1.74-.77,1.1-.56,1.27-1.23.68-2.31-.83-1.52-1.64-3.05-2.46-4.58-.5-.93-1.24-1.17-2.21-.7-1.28.61-2.52,1.34-3.84,1.84-2.53.95-5.11,1.81-7.69,2.63-.95.3-1.96.37-2.94.6-.95.22-1.29.83-1.12,1.81.59,3.37,1.17,6.75,1.74,10.12.02.14.02.28.04.42-2.1.7-13.58,1.38-15.76.79.08-1.2.16-2.41.24-3.7.27,0,.53.01.79,0,2.79,0,5.58.02,8.36-.05,1.14-.03,1.57-.68,1.44-1.83-.2-1.8-.42-3.6-.63-5.4-.11-.93-.5-1.26-1.47-1.23-1.52.05-3.03.18-4.55.19-3.51.02-6.99-.31-10.44-.96-.52-.1-1.12-.04-1.61.13-.28.1-.53.56-.61.9-.53,2.34-.99,4.69-1.5,7.04-.24,1.12-.52,2.23-.8,3.44-1.34-.3-2.66-.48-3.9-.89-2.48-.82-4.93-1.76-7.37-2.68-1.12-.42-2.21-.92-3.32-1.37-.35-.15-.52-.33-.31-.72.51-.97,1.01-1.95,1.54-2.96.65.32,1.24.68,1.87.92,2.23.86,4.47,1.71,6.72,2.53.91.33,1.6-.02,1.9-.95.59-1.81,1.14-3.64,1.68-5.47.22-.77-.22-1.4-1.1-1.72-1.72-.62-3.49-1.15-5.15-1.91-2.93-1.34-5.82-2.77-8.48-4.64-1.05-.74-1.6-.63-2.33.4-1.89,2.67-3.77,5.35-5.65,8.02-.15.22-.32.43-.54.73-.55-.44-1.08-.85-1.6-1.28-2.26-1.91-4.54-3.78-6.74-5.75-1.09-.97-2.02-2.11-3.04-3.16-.39-.41-.26-.67.12-1.01.76-.68,1.47-1.43,2.19-2.13,2.13,2.56,4.37,4.65,6.71,6.64.83.71,1.45.63,2.13-.19,1.14-1.37,2.28-2.74,3.41-4.12.76-.93.68-1.42-.17-2.23-2.47-2.33-4.97-4.63-7.04-7.34-1.07-1.39-2.11-2.81-3.19-4.19-.61-.78-1.13-.84-1.97-.32-2.2,1.36-4.4,2.73-6.59,4.1-.82.51-1.62,1.05-2.51,1.64-2.86-4.62-5.19-9.31-6.83-14.36,1.17-.4,2.34-.8,3.57-1.22.26.78.45,1.54.75,2.25.63,1.51,1.32,3,1.99,4.5.27.6.52,1.21.82,1.79.53,1,1.24,1.15,2.23.6,1.54-.86,3.1-1.66,4.65-2.49.9-.48,1.13-1.22.68-2.15-.61-1.26-1.32-2.47-1.8-3.77-.93-2.49-1.77-5.02-2.57-7.56-.31-.97-.4-2.01-.61-3.01-.23-1.13-.8-1.46-1.97-1.25-3.46.61-6.93,1.19-10.38,1.77-.7-1.85-1.37-13.19-.81-15.82,1.2.08,2.42.16,3.72.24,0,.24,0,.5,0,.76-.02,2.72-.06,5.43-.04,8.15.01,1.31.71,1.83,2,1.69,1.7-.19,3.41-.35,5.11-.51,1.01-.09,1.51-.61,1.41-1.65-.32-3.33-.22-6.65.12-9.97.16-1.61.43-3.2.71-4.79.21-1.19-.16-1.79-1.36-2.05-3.28-.7-6.55-1.4-9.83-2.1-.12-.02-.23-.07-.33-.1.2-2.85,3.34-12.12,5.13-15.11,1.09.56,2.19,1.12,3.34,1.71-.57,1.25-1.19,2.44-1.67,3.68-.65,1.69-1.21,3.4-1.75,5.13-.25.79.1,1.41.9,1.67,1.84.59,3.69,1.15,5.55,1.67.87.24,1.39-.13,1.72-1.05.64-1.77,1.18-3.58,1.96-5.29,1.32-2.91,2.75-5.78,4.59-8.42.7-1.01.57-1.56-.43-2.27-2.15-1.52-4.29-3.06-6.45-4.57-.74-.52-1.51-.99-2.34-1.54,3.15-4.36,6.61-8.35,10.55-11.83.93.96,1.79,1.85,2.57,2.67-.82.83-1.56,1.57-2.3,2.31-.76.76-1.54,1.49-2.28,2.27-.65.69-1.28,1.41-1.88,2.15-.69.84-.61,1.44.24,2.13,1.37,1.13,2.74,2.27,4.13,3.39.95.77,1.44.64,2.27-.26,1.48-1.59,2.95-3.2,4.57-4.64,1.97-1.75,4.09-3.32,6.14-4.97.3-.24.61-.49.9-.75.53-.48.61-1.04.23-1.65-.76-1.22-1.51-2.45-2.29-3.66-.9-1.4-1.83-2.78-2.72-4.18-.28-.45-.49-.95-.76-1.48,4.51-2.78,9.19-5.15,14.28-6.82.39,1.18.76,2.32,1.16,3.54-.38.16-.76.32-1.13.48-1.86.79-3.73,1.59-5.59,2.38-.58.25-1.19.45-1.75.75-1.01.54-1.17,1.23-.62,2.22.82,1.5,1.62,3.01,2.43,4.51.62,1.14,1.29,1.32,2.48.72,1.25-.63,2.47-1.31,3.77-1.8,2.47-.92,4.97-1.76,7.49-2.55.95-.3,1.96-.37,2.94-.6,1-.23,1.34-.85,1.17-1.85-.62-3.49-1.22-6.98-1.82-10.46,1.63-.74,12.75-1.37,15.78-.9-.08,1.22-.16,2.45-.25,3.81-.53-.03-1.05-.1-1.58-.1-2.35-.01-4.7-.04-7.05,0-1.64.03-2.1.67-1.88,2.29.21,1.55.36,3.11.53,4.67.14,1.32.54,1.67,1.84,1.56,5.01-.43,9.98-.12,14.91.85,1.2.24,1.79-.15,2.05-1.35.68-3.16,1.36-6.31,2.05-9.47.05-.23.13-.46.18-.68,2.8.2,12.38,3.47,15.08,5.18-.56,1.1-1.13,2.22-1.72,3.37-.82-.4-1.56-.84-2.35-1.15-2.05-.79-4.11-1.55-6.18-2.28-1.02-.36-1.66-.03-1.99,1-.57,1.77-1.11,3.55-1.64,5.33-.23.77.11,1.39.88,1.7.87.34,1.73.7,2.62.95,2.47.7,4.7,1.93,6.91,3.18,1.55.88,3.07,1.81,4.6,2.71.75.44,1.35.32,1.89-.44,1.94-2.73,3.86-5.47,5.79-8.2.15-.22.32-.43.54-.73.6.48,1.17.93,1.72,1.39,2.13,1.79,4.28,3.55,6.36,5.4,1.07.95,2.03,2.03,3.02,3.08.75.8.71.82-.11,1.52-.69.59-1.33,1.22-1.94,1.77-1.62-1.63-3.15-3.19-4.71-4.72-.64-.63-1.34-1.21-2.04-1.78-.81-.66-1.42-.59-2.08.21-1.15,1.39-2.31,2.78-3.45,4.18-.72.88-.62,1.4.2,2.17,1.58,1.5,3.19,2.96,4.63,4.59,1.73,1.95,3.28,4.05,4.91,6.09.09.11.16.24.26.36,1.12,1.4,1.29,1.48,2.83.55,2.36-1.42,4.66-2.95,6.99-4.42.53-.34,1.1-.62,1.74-.99,2.83,4.56,5.15,9.29,6.8,14.31-1.18.4-2.33.8-3.57,1.22-.24-.74-.41-1.45-.69-2.11-.65-1.56-1.36-3.09-2.04-4.63-.27-.6-.52-1.21-.82-1.79-.53-1-1.23-1.15-2.23-.59-1.54.86-3.1,1.66-4.65,2.49-.9.48-1.13,1.21-.68,2.15.64,1.35,1.38,2.66,1.9,4.05.91,2.42,1.71,4.89,2.49,7.35.31.97.4,2.01.61,3.01.22,1.04.83,1.4,1.88,1.21,3.49-.62,6.97-1.21,10.44-1.8.68,1.45,1.4,12.88.84,15.83Z"/>
  <path class="cls-1" d="m374.42,115.3l.18-1.93c-.21-.02-10.69-1.06-24.08-4.19-.76-1.56-2.4-5.17-3-8.36-.05-4.73.05-12.35,1.09-15.81,1.23-4.04.85-21.31-3.09-21.57-3.94-.26-3.34,1.01-6.49,10.66-2.29,7.03,3.31,20.14,6.52,26.74.47,2.78,1.65,5.77,2.54,7.77-3.14-.77-6.4-1.66-9.71-2.67,0-2.25-.86-5.06-1.54-6.94.36-3.38.73-11.39-2.19-21.59-3.89-13.61-11.67-22.36-11.67-22.36,0,0-3.89,10.69,1.94,24.3,3.92,9.14,7.39,15.64,9.55,18.93.52,1.28,1.75,4.53,1.94,7.05-3.9-1.25-7.82-2.67-11.64-4.28-.01-1.97-.67-4.37-1.29-6.19.39-.25.73-.55.96-.91,0,0,3.39-7.07-.99-11.04-4.38-3.97-8.17-5.26-9.99-.65-1.81,4.61.11,7.01,1.51,10.22,1.16,2.65,4.26,3.5,6.68,3.06.48,1.4.97,3.12,1.12,4.63-4.57-2.04-8.94-4.38-12.86-7.04h0c-.53-1.06-2.23-4.57-3.03-7.9-.17-1.13-.3-2.35-.4-3.6,0-.07,0-.15,0-.22h-.03c-.28-3.93-.23-8.16-.05-11.05.34-5.31-1.5-18.28-2.87-22.59-1.37-4.3-4.25-1.34-3.61,17.45.37,10.83,3,17.3,5.15,20.85.43,1.68,1.04,3.34,1.62,4.74-5.44-4.19-10.84-9.53-15.92-15.24,1.49-2.45,2.36-6.25,2.67-7.84,1.26-3.4,2.32-8.59,1.32-15.59-1.94-13.61-2.92-25.28-5.83-22.36-2.73,2.73-.35,34.35,1.56,41.62-.3.92-.66,1.83-1.07,2.62-2.79-3.22-5.48-6.53-8.01-9.79.84-1.6,1.45-3.57,1.85-5.15,1.17-2.67,2.27-7.21.51-13.37-2.95-10.3-4.8-19.2-7.37-16.66-2.31,2.28,2.03,24.7,4.51,31.23-.23.75-.51,1.52-.82,2.23-2.78-3.65-5.34-7.22-7.62-10.51l.17.05c.99-3.19.03-8.62-.19-9.75-.19-5.09-.87-11.32-2.96-14.46-3.89-5.83-3.89-6.8-5.83-5.83s1.94,11.67,3.89,13.61c.98.98,2.2,4.65,3.17,8.06.24,1.51.57,4.15.35,6.27-5.65-8.29-9.23-14.39-9.47-14.8-.48-3.4-1.25-7.98-2.31-11.69-1.94-6.8-.97-22.36-4.86-23.33s-3.89,6.8-1.94,18.47c1.94,11.67,9.72,21.39,9.72,21.39,0,0,0-.04-.01-.12,1.57,2.53,3.9,6.19,6.8,10.47-4.18-1.2-10.59-5.31-14.08-7.92-3.89-2.92-14.58-7.78-18.47-8.75-3.89-.97-2.92,2.92,11.67,11.67,11.62,6.97,18.84,6.2,21.29,5.6,2.72,4,5.93,8.52,9.47,13.16-1.53-.1-3.62-.3-5.55-.7.04-.19.07-.38.07-.57,0,0-.97-7.78-6.8-8.75-5.83-.97-9.72,0-8.75,4.86s3.89,5.83,6.8,7.78c2.63,1.76,6.06.44,7.74-1.54,3.11.7,6.62.9,8.07.95,2.37,3.04,4.87,6.11,7.47,9.11-1.43.28-3.82.69-6.13.83-4.36-.68-10.66-3.21-14.27-4.96-4.37-2.12-15.8-4.85-19.8-5.06s-2.31,3.42,13.68,9.23c7.84,2.85,13.47,3.13,17.19,2.69.58.06,1.17.1,1.8.1,3.65,0,7.87-.88,9.01-1.13,1.81,2.04,3.66,4.02,5.54,5.93-1.12.54-2.68,1.22-4.2,1.68-.12-.54-.33-1.03-.65-1.42,0,0-6.42-5.92-12.41-2.89-5.99,3.03-8.84,6.41-4.5,9.87,4.34,3.46,7.68,2.35,11.72,2.07,3.31-.23,5.41-3.04,5.86-5.63,2.15-.57,4.37-1.58,5.64-2.22,2.56,2.52,5.17,4.88,7.8,7-1.03.98-2.67,2.43-4.28,3.42-7.7-.56-29.9-1.92-37.21,2.14,0,0,15.74,9.34,29.16,4.86,6.53-2.18,9.27-4.9,10.24-6.13,1.46-1.05,2.79-2.26,3.63-3.07,1.03.79,2.05,1.53,3.08,2.23,2.72,1.85,5.65,3.54,8.71,5.09-.81.75-1.88,1.68-3.01,2.48-4.56,1.77-11.97,4.44-15.82,4.79-4.51.41-21.07,7.03-19.41,10.53,1.66,3.5,2.61,2.53,13.49,1.74,7.96-.58,17.99-10.26,22.81-15.43,1.52-1.07,2.93-2.34,3.81-3.19,8.75,4.19,18.39,7.26,27.13,9.47-1.74.75-3.9,1.51-5.5,1.51v.13c-4.59.59-10.16,1.11-13.2.7-4.49-.61-22.11,2.16-21.27,5.95.84,3.78,1.98,3.04,12.76,4.69,8.39,1.28,21.35-6.95,26.7-10.68,1.43-.54,2.71-1.15,3.53-1.57,13.8,3.26,24.66,4.34,24.87,4.36Z"/>
  <g>
    <path class="cls-1" d="m309.57,251.9c-.57-.64-1.27-1.12-2.09-1.47-.82-.34-1.75-.51-2.78-.51h-4.1v14.84h4.1c1.03,0,1.96-.17,2.78-.51.82-.34,1.52-.83,2.09-1.46.57-.64,1.02-1.41,1.33-2.33.31-.92.47-1.96.47-3.11s-.16-2.19-.47-3.11c-.31-.92-.75-1.7-1.33-2.33Z"/>
    <path class="cls-1" d="m211.1,251.89c-.57-.64-1.27-1.13-2.09-1.47-.82-.34-1.75-.51-2.78-.51s-1.96.17-2.79.51c-.83.34-1.53.83-2.11,1.47s-1.02,1.42-1.33,2.34c-.31.92-.47,1.96-.47,3.11s.16,2.19.47,3.11c.31.92.76,1.7,1.33,2.33.58.64,1.28,1.12,2.11,1.46.83.34,1.75.51,2.79.51s1.96-.17,2.78-.51c.82-.34,1.52-.83,2.09-1.46.57-.64,1.01-1.41,1.32-2.33.31-.92.46-1.96.46-3.11s-.15-2.19-.46-3.11c-.31-.92-.75-1.7-1.32-2.34Z"/>
    <path class="cls-1" d="m412.8,251.9c-.57-.64-1.27-1.12-2.09-1.47-.82-.34-1.75-.51-2.78-.51h-4.1v14.84h4.1c1.03,0,1.96-.17,2.78-.51.82-.34,1.52-.83,2.09-1.46.57-.64,1.02-1.41,1.33-2.33.31-.92.47-1.96.47-3.11s-.16-2.19-.47-3.11c-.31-.92-.75-1.7-1.33-2.33Z"/>
    <path class="cls-1" d="m245.19,253.16c0-1.07-.35-1.89-1.06-2.46-.71-.57-1.78-.86-3.23-.86h-2.51v7h2.45c.74,0,1.38-.09,1.93-.28.55-.18,1-.44,1.36-.77s.62-.71.79-1.16.26-.94.26-1.47Z"/>
    <path class="cls-1" d="m5.22,240.67v33.35h589.33v-33.35H5.22Zm169,27.22h-3.54l-4.61-14.41c-.06-.18-.12-.38-.18-.6-.06-.21-.12-.44-.18-.69-.06.24-.12.47-.18.69-.06.21-.12.41-.18.6l-4.65,14.41h-3.54l-6.55-21.09h3.3c.34,0,.62.08.85.24.23.16.38.38.46.65l3.59,12.61c.09.31.17.65.24,1.01.07.36.14.75.21,1.16.08-.41.16-.79.26-1.16.09-.36.19-.7.3-1.01l4.14-12.61c.08-.22.23-.43.46-.61.23-.18.51-.28.84-.28h1.15c.34,0,.62.08.85.24.22.16.38.38.47.65l4.11,12.61c.21.62.4,1.31.55,2.07.07-.38.14-.74.21-1.09s.15-.68.23-.98l3.59-12.61c.07-.24.22-.45.45-.63.23-.17.51-.26.84-.26h3.08l-6.55,21.09Zm41.9-6.25c-.52,1.32-1.24,2.46-2.17,3.42s-2.06,1.71-3.37,2.25c-1.31.54-2.77.81-4.36.81s-3.05-.27-4.37-.81c-1.32-.54-2.44-1.29-3.38-2.25-.94-.96-1.67-2.1-2.18-3.42-.51-1.32-.77-2.75-.77-4.29s.26-2.98.77-4.29c.52-1.32,1.24-2.46,2.18-3.42.94-.96,2.07-1.71,3.38-2.25,1.32-.54,2.77-.81,4.37-.81s3.05.27,4.36.82c1.31.54,2.44,1.29,3.37,2.25s1.66,2.1,2.17,3.41c.52,1.32.77,2.75.77,4.29s-.26,2.98-.77,4.29Zm31.27,6.25c-.34,0-.63-.07-.87-.2s-.44-.33-.6-.58l-4.43-6.75c-.17-.25-.35-.43-.55-.54-.2-.11-.49-.16-.88-.16h-1.68v8.24h-3.92v-21.09h6.43c1.44,0,2.67.15,3.7.45,1.03.3,1.87.71,2.52,1.25s1.14,1.17,1.44,1.92c.31.74.46,1.56.46,2.46,0,.71-.1,1.38-.31,2.01s-.51,1.21-.9,1.72c-.39.52-.88.97-1.46,1.36-.58.39-1.24.7-1.98.93.5.28.92.69,1.28,1.21l5.28,7.79h-3.53Zm32.52,0h-12.37v-21.09h3.92v17.85h8.44v3.24Zm34.68-6.28c-.52,1.29-1.24,2.41-2.17,3.34s-2.06,1.66-3.37,2.17c-1.31.52-2.77.77-4.36.77h-8.05v-21.09h8.05c1.59,0,3.05.26,4.36.78,1.31.52,2.44,1.24,3.37,2.17s1.66,2.04,2.17,3.33.77,2.71.77,4.26-.26,2.96-.77,4.26Zm39.14,6.28h-3.54l-4.61-14.41c-.06-.18-.12-.38-.18-.6-.06-.21-.12-.44-.18-.69-.06.24-.12.47-.18.69-.06.21-.12.41-.18.6l-4.65,14.41h-3.54l-6.55-21.09h3.3c.34,0,.62.08.85.24.23.16.38.38.46.65l3.59,12.61c.09.31.17.65.24,1.01s.14.75.21,1.16c.08-.41.16-.79.25-1.16.09-.36.19-.7.3-1.01l4.14-12.61c.08-.22.23-.43.46-.61.23-.18.51-.28.84-.28h1.15c.34,0,.62.08.85.24.22.16.38.38.47.65l4.11,12.61c.21.62.4,1.31.55,2.07.07-.38.14-.74.21-1.09s.15-.68.23-.98l3.59-12.61c.07-.24.22-.45.45-.63s.52-.26.85-.26h3.08l-6.55,21.09Zm27.26,0h-3.94v-21.09h3.94v21.09Zm36.83-6.28c-.52,1.29-1.24,2.41-2.17,3.34s-2.06,1.66-3.37,2.17c-1.31.52-2.77.77-4.36.77h-8.05v-21.09h8.05c1.59,0,3.05.26,4.36.78,1.31.52,2.44,1.24,3.37,2.17s1.66,2.04,2.17,3.33.77,2.71.77,4.26-.26,2.96-.77,4.26Zm31.56-11.68h-9.35v5.85h7.36v3.02h-7.36v5.96h9.35v3.13h-13.3v-21.09h13.3v3.12Z"/>
  </g>
</svg>