<svg id="Camada_1" data-name="Camada 1" xmlns="http://www.w3.org/2000/svg" viewBox="0 0 600 117"><defs><style>.cls-1{fill:#1c3c45;}.cls-2{fill:#5d6d6a;}</style></defs><title>Logo</title><path class="cls-1" d="M169.68,43.59l-10.4,22.17c-.19.39-.35.74-.5,1.07-.13-.31-.27-.66-.43-1.08L149,43.59h-2.37l-5,31.1h3.58l3.49-22.87v0l0,.1,8.76,21.27H158v.42l.14-.42h1.55l9.87-21.21.17-.39a.77.77,0,0,0,0,.15l3.31,23h3.71L172,43.59Z"/><path class="cls-1" d="M193.86,58.78c-.18.32-.35.61-.49.87-.13-.24-.28-.55-.47-.92l-8.78-15h-4.25l11.67,19.86V74.69h3.55v-11l11.67-19.95h-4.11Z"/><path class="cls-1" d="M234.58,70.34a21.81,21.81,0,0,1-8.36,1.39,12.65,12.65,0,0,1-12.38-12.59,12.9,12.9,0,0,1,3.22-8.88A10.08,10.08,0,0,1,225,46.68a32.32,32.32,0,0,1,9.52,1.42l.72.22,1-3.15-.72-.23a33.09,33.09,0,0,0-10.25-1.63,14.23,14.23,0,0,0-10.91,4.6,16.16,16.16,0,0,0-4.21,11.32,15.08,15.08,0,0,0,4.84,11.36,15.84,15.84,0,0,0,11.17,4.55c4.14,0,7.45-.67,9.82-2l.61-.34-1.29-2.74Z"/><path class="cls-1" d="M256.56,43.31a14.9,14.9,0,0,0-11.1,4.63A15.67,15.67,0,0,0,241,59.23a15.69,15.69,0,0,0,4.48,11.29,15.64,15.64,0,0,0,22.2,0,15.68,15.68,0,0,0,4.47-11.29,15.66,15.66,0,0,0-4.47-11.29A14.91,14.91,0,0,0,256.56,43.31Zm0,28.42a11.11,11.11,0,0,1-8.51-3.59,12.56,12.56,0,0,1-3.4-8.91,12.65,12.65,0,0,1,3.4-8.94,11.81,11.81,0,0,1,17,0,12.7,12.7,0,0,1,3.38,8.94,12.63,12.63,0,0,1-3.38,8.91A11,11,0,0,1,256.58,71.73Z"/><path class="cls-1" d="M305.12,65.82c0,.74,0,1.39,0,2-.46-.56-.94-1.14-1.45-1.72L284.15,43.59h-2.09v31.1h3.59V52.77c0-.79,0-1.47,0-2.05L286.73,52l19.89,22.83h2.1V43.77h-3.6Z"/><rect class="cls-1" x="320.35" y="43.77" width="3.6" height="30.92"/><path class="cls-1" d="M344.17,43.59l-12.95,31.1H335l4.21-10.2h12l4.26,10.2h3.95L346.4,43.59Zm5.72,17.62h-9.34l4.1-9.84c.18-.44.37-.93.56-1.48l.63,1.54Z"/><path class="cls-1" d="M389.77,65.82c0,.74,0,1.39,0,2-.45-.57-.94-1.14-1.45-1.72L368.8,43.59h-2.1v31.1h3.6V52.77c0-.79,0-1.47,0-2.05L371.38,52l19.89,22.83h2.1V43.77h-3.6Z"/><polygon class="cls-1" points="429.44 43.77 425.84 43.77 425.84 74.69 442.94 74.69 442.94 71.28 429.44 71.28 429.44 43.77"/><path class="cls-1" d="M470.88,61.24c0,7.09-3,10.53-9.26,10.53s-9.26-3.44-9.26-10.53V43.77h-3.59V61.24c0,4.28,1.06,7.69,3.17,10.15s5.39,3.75,9.68,3.75,7.55-1.26,9.68-3.75h0c2.1-2.46,3.17-5.87,3.17-10.15V43.77h-3.6Z"/><polygon class="cls-1" points="505.56 43.77 501.48 43.77 493.71 55.84 486.28 43.77 481.95 43.77 491.35 58.7 480.78 74.69 484.9 74.69 493.27 61.83 501.3 74.69 505.58 74.69 495.63 58.94 505.56 43.77"/><path class="cls-1" d="M534.64,61.24c0,7.09-3,10.53-9.26,10.53s-9.26-3.44-9.26-10.53V43.77h-3.6V61.24c0,4.28,1.07,7.69,3.18,10.15s5.39,3.75,9.68,3.75,7.55-1.26,9.68-3.75h0c2.11-2.46,3.18-5.87,3.18-10.15V43.77h-3.6Z"/><path class="cls-1" d="M568.8,69.3c-.79-.87-2.86-3.53-6.17-7.91A16,16,0,0,0,565.69,58a9.39,9.39,0,0,0,1.67-5.37,8.14,8.14,0,0,0-3-6.73A11.52,11.52,0,0,0,557,43.59c-1.82,0-4.07.1-6.68.31l-.69.06V74.69h3.59v-12c2,.11,4,.17,6.07.18,3.46,4.78,5.65,7.66,6.7,8.78a10.48,10.48,0,0,0,3.39,2.55,11.65,11.65,0,0,0,4.42.82h.74l.1-2.84L574,72.1A8.61,8.61,0,0,1,568.8,69.3ZM553.22,47c1.33-.09,2.51-.13,3.51-.13a8.16,8.16,0,0,1,5.07,1.47,4.89,4.89,0,0,1,1.83,4.16,7.35,7.35,0,0,1-1.85,5c-1.21,1.39-2.3,2.1-3.24,2.1-1.65,0-3.44-.06-5.32-.18Z"/><path class="cls-1" d="M595.89,43.77l-8.78,15c-.19.32-.35.61-.5.87-.12-.25-.28-.55-.46-.92l-8.79-15h-4.24l11.67,19.86V74.69h3.55v-11L600,43.77Z"/><path class="cls-2" d="M109.2,51.34a19.81,19.81,0,0,0-.54-2.74c-.17-.7-.63-1-1.17-.93-2.1.44-4.19.89-6.29,1.35l-2,.45a46.34,46.34,0,0,0-3.5-9.94l2.41-1.2c.38.78.79,1.53,1.11,2.32.52,1.32,1,2.67,1.47,4,.31.86.73,1.09,1.6.85l4.06-1.14a1.16,1.16,0,0,0,.9-1.65c-.44-1.33-.87-2.67-1.4-4a38.49,38.49,0,0,0-1.87-4.08c-1.12-2-2.35-4-3.54-6A1,1,0,0,0,99,28.4c-.5.33-1,.67-1.49,1l-4.55,3.23a10.56,10.56,0,0,1-.94.55,45.34,45.34,0,0,0-7-7.84l1.74-2a13.78,13.78,0,0,1,1.16,1c1.27,1.33,2.52,2.69,3.77,4a1.12,1.12,0,0,0,1.61.15c1.11-.91,2.23-1.83,3.33-2.75.77-.64.82-1.12.18-1.89s-1.22-1.38-1.84-2.08c-.4-.45-.77-.94-1.21-1.35-1-.92-2-1.81-3-2.68-1.26-1.05-2.56-2.07-3.85-3.1-.45-.35-.9-.7-1.38-1a1.17,1.17,0,0,0-1.82.4L81,18.15,79.2,21a43,43,0,0,0-9.57-4.59l.92-2.53c1.08.38,2.1.68,3.07,1.1s2.15,1.05,3.22,1.58a1.08,1.08,0,0,0,1.7-.53c.67-1.21,1.33-2.43,2-3.64.51-.94.37-1.44-.58-1.94a22.38,22.38,0,0,0-2.4-1.2c-2.62-1-5.25-2-7.91-2.89a30.7,30.7,0,0,0-4.07-.89c-.79-.15-1.35.15-1.45.72-.28,1.56-.54,3.11-.8,4.67-.19,1.22-.37,2.43-.57,3.71a45.61,45.61,0,0,0-10.62-.61C52.07,13,52,12.16,52,11.28a2.56,2.56,0,0,1,.43,0c2.11,0,4.22.07,6.33.13.92,0,1.36-.32,1.46-1.21.15-1.46.31-2.91.48-4.37a1,1,0,0,0-.59-1.06,3.09,3.09,0,0,0-1-.22A48.22,48.22,0,0,0,50,4.58c-2,.21-3.91.49-5.86.8-.9.15-1.19.69-1,1.56q.84,3.76,1.66,7.51c0,.16.06.33.08.46A48.48,48.48,0,0,0,35,18.46L33.75,16c1.14-.49,2.22-1,3.33-1.44s2.21-.8,3.3-1.24A1,1,0,0,0,41,12c-.4-1.41-.8-2.81-1.21-4.21a1.16,1.16,0,0,0-1.61-.88c-1.73.64-3.45,1.29-5.15,2-.67.27-1.31.61-1.95.94-1.4.72-2.81,1.41-4.18,2.18-.95.52-1.83,1.15-2.74,1.75a1.08,1.08,0,0,0-.29,1.5c.37.57.76,1.12,1.16,1.68l3.28,4.57a1.34,1.34,0,0,1,.26.44.59.59,0,0,1-.13.47c-.79.65-1.63,1.24-2.4,1.91-1.33,1.15-2.63,2.34-3.91,3.53-.45.41-.82.88-1.26,1.36l-2-1.75c.42-.48.78-.95,1.2-1.36,1.26-1.21,2.55-2.39,3.83-3.59A1,1,0,0,0,24,20.89q-1.41-1.71-2.84-3.4a1,1,0,0,0-1.67-.19c-.63.5-1.22,1.06-1.83,1.6A20.26,20.26,0,0,0,16,20.35c-.92,1-1.82,2-2.68,3-1,1.25-2.05,2.54-3.06,3.82a17.19,17.19,0,0,0-1.08,1.46,1.32,1.32,0,0,0,0,1.72c.75.52,1.51,1,2.28,1.51,1.11.7,2.22,1.39,3.34,2.07.54.34,1.09.66,1.66,1a43.11,43.11,0,0,0-4.57,9.63l-2.55-.92c.4-1.12.74-2.21,1.18-3.25s1-2.08,1.52-3.13a1,1,0,0,0-.5-1.56c-1.26-.7-2.52-1.4-3.8-2.07-.89-.47-1.35-.29-1.84.6A48.09,48.09,0,0,0,2.35,43c-.58,1.8-.93,3.68-1.34,5.53a1.18,1.18,0,0,0,1.13,1.62c1.79.27,3.58.53,5.36.82.86.13,1.71.32,2.6.49a45.89,45.89,0,0,0-.59,10.27l-2.65.14c0-.18,0-.27,0-.37,0-2,.07-4,.12-6,0-.92-.29-1.34-1.21-1.44-1.4-.16-2.8-.32-4.2-.46A1.14,1.14,0,0,0,.13,54.75a17.63,17.63,0,0,0-.13,2c.06,2.82.1,5.63.27,8.44A33.34,33.34,0,0,0,1,69.79c.16.86.67,1.1,1.51.93l5.46-1.15c.86-.19,1.72-.41,2.53-.6a48.55,48.55,0,0,0,3.51,10l-2.4,1.21c-.32-.64-.68-1.27-.94-1.93-.57-1.45-1.1-2.91-1.64-4.38-.32-.89-.73-1.12-1.64-.86l-4,1.12a1.18,1.18,0,0,0-.9,1.74c.65,1.78,1.31,3.55,2,5.31a27.63,27.63,0,0,0,1.58,3.4c1,1.73,2.06,3.41,3.1,5.1a1,1,0,0,0,1.64.35c.83-.57,1.66-1.14,2.48-1.72.32-.23.62-.5.94-.73.57-.4,1.16-.79,1.74-1.18l1.69-1.14a45.22,45.22,0,0,0,7,7.89l-1.85,2.13c-1.64-1.73-3.2-3.39-4.75-5A1.13,1.13,0,0,0,16.33,90c-1.12.91-2.22,1.84-3.33,2.75-.68.56-.78,1-.22,1.7,1,1.22,2,2.44,3.16,3.58,1,1,2,1.84,3,2.71,1.24,1,2.51,2,3.77,3,.47.38.95.75,1.46,1.09a1.17,1.17,0,0,0,1.75-.38c.39-.6.82-1.19,1.2-1.8.66-1,1.3-2.1,2-3.14.43-.69.87-1.36,1.32-2.07A43.17,43.17,0,0,0,40,102.08c-.29.83-.59,1.65-.9,2.54-1.09-.4-2.13-.71-3.11-1.14-1.14-.49-2.22-1.08-3.34-1.61a1,1,0,0,0-1.45.43q-1.15,2.06-2.27,4.14a.8.8,0,0,0,.22,1.16,17.76,17.76,0,0,0,2.72,1.52q4.41,1.69,8.89,3.21a22.89,22.89,0,0,0,3.29.69c.82.15,1.38-.16,1.48-.77.3-1.76.58-3.53.87-5.29.17-1,.34-2,.52-3a45.87,45.87,0,0,0,10.59.61c.06.9.11,1.76.17,2.66-.28,0-.48,0-.69,0l-6.22-.14a1.15,1.15,0,0,0-1.29,1.13c-.16,1.46-.33,2.92-.49,4.38a1,1,0,0,0,.71,1.2,3,3,0,0,0,.78.15,48.21,48.21,0,0,0,9.07-.05c2-.21,4-.51,6-.83.88-.14,1.16-.68,1-1.52-.57-2.54-1.12-5.08-1.68-7.62a2.58,2.58,0,0,1-.06-.37A48.22,48.22,0,0,0,74.65,100l1.24,2.45c-1.11.49-2.17,1-3.26,1.44s-2.22.79-3.31,1.22a1,1,0,0,0-.66,1.38c.4,1.4.8,2.81,1.21,4.21a1.17,1.17,0,0,0,1.66.86q2.85-1.08,5.67-2.2a14.8,14.8,0,0,0,1.38-.69c1.41-.73,2.84-1.42,4.23-2.19.93-.52,1.79-1.14,2.68-1.72a1.08,1.08,0,0,0,.3-1.51q-.67-1-1.38-2l-2.83-3.92a3.82,3.82,0,0,1-.48-.77.51.51,0,0,1,.12-.46c.79-.65,1.63-1.24,2.4-1.91C85,93,86.25,91.83,87.54,90.63c.44-.41.82-.88,1.25-1.36l2,1.76c-.46.5-.85,1-1.3,1.42C88.29,93.65,87,94.82,85.76,96a1,1,0,0,0-.11,1.5q1.42,1.74,2.87,3.45a1,1,0,0,0,1.71.15c.61-.48,1.19-1,1.75-1.53,1.09-1,2.22-2,3.21-3.14,1.34-1.51,2.58-3.13,3.85-4.71.49-.62,1-1.26,1.41-1.92a1.25,1.25,0,0,0-.41-2c-1.83-1.19-3.66-2.38-5.5-3.55-.44-.28-.92-.5-1.41-.77a43,43,0,0,0,4.58-9.64l2.57.92c-.44,1.18-.82,2.32-1.29,3.41s-1,2-1.43,3A1,1,0,0,0,98,82.73c1.3.72,2.62,1.38,3.9,2.14.73.43,1.31.19,1.73-.57a17.79,17.79,0,0,0,1.2-2.39c1-2.63,2-5.25,2.89-7.92a30.21,30.21,0,0,0,.89-4.12c.19-1-.16-1.46-1.15-1.61-1.41-.21-2.82-.4-4.23-.63-1.23-.2-2.46-.44-3.64-.65.18-1.77.4-3.44.5-5.13s.07-3.41.1-5.16l2.56-.15c0,.21,0,.38,0,.54,0,2-.09,4-.14,5.94,0,.77.32,1.27,1,1.35,1.49.17,3,.34,4.48.49a1.13,1.13,0,0,0,1.35-1c0-.17,0-.34,0-.51A62.08,62.08,0,0,0,109.2,51.34Zm-1.6,11.28-2.95-.19c0-.45.08-.88.09-1.32,0-1.9,0-3.8,0-5.7a1.18,1.18,0,0,0-1.47-1.23l-4.14.42c-.72.07-1,.5-1,1.3.06,1.73.19,3.47.09,5.19-.12,2.06-.42,4.11-.71,6.16-.14,1,.09,1.48,1.13,1.7l7.58,1.62.25.08c-.62,4.14-2.33,7.91-3.94,11.77l-2.65-1.37c.4-.9.83-1.74,1.17-2.62.52-1.35,1-2.71,1.45-4.08a1,1,0,0,0-.75-1.47c-1.38-.44-2.76-.86-4.16-1.24-.73-.21-1.14,0-1.4.78-.48,1.3-.89,2.62-1.44,3.89S93.58,78.67,93,79.82s-1.34,2.29-2,3.43a1,1,0,0,0,.31,1.48c.77.55,1.56,1.07,2.33,1.62.93.66,1.84,1.35,2.77,2,.6.42,1.22.82,1.88,1.25A55.67,55.67,0,0,1,90,98.81l-1.9-2c1.7-1.81,3.36-3.55,5-5.33.55-.59.45-1.1-.17-1.61L89.67,87.2c-.74-.6-1.13-.51-1.77.17-1.24,1.31-2.46,2.64-3.8,3.84s-3.07,2.47-4.61,3.7a2.75,2.75,0,0,0-.71.64,1.43,1.43,0,0,0-.18.94,4.47,4.47,0,0,0,.6,1.22c.92,1.44,1.86,2.87,2.79,4.31l1.23,1.9a51.35,51.35,0,0,1-11.16,5.35c-.3-.92-.59-1.83-.9-2.8.53-.17,1-.29,1.53-.5,1.22-.52,2.43-1.08,3.64-1.62.45-.2.91-.38,1.35-.61.85-.43,1-.95.52-1.79-.64-1.18-1.27-2.37-1.91-3.56a1.16,1.16,0,0,0-1.71-.54c-1,.47-2,1-3,1.42-2,.74-4,1.41-6,2-.74.23-1.53.29-2.28.46a1.07,1.07,0,0,0-.87,1.41q.69,3.93,1.35,7.86c0,.11,0,.22,0,.32-1.63.55-10.55,1.08-12.24.62.06-.94.12-1.88.18-2.88h.62c2.16,0,4.33,0,6.5,0,.88,0,1.22-.53,1.12-1.42-.16-1.4-.32-2.8-.49-4.2-.09-.71-.39-1-1.15-.95-1.18,0-2.35.14-3.53.15a42.43,42.43,0,0,1-8.11-.75,2.52,2.52,0,0,0-1.25.1,1.07,1.07,0,0,0-.48.71c-.41,1.81-.77,3.64-1.16,5.46-.19.87-.4,1.73-.62,2.67a29.89,29.89,0,0,1-3-.69c-1.93-.64-3.83-1.37-5.73-2.08-.87-.33-1.72-.72-2.58-1.07-.27-.11-.4-.26-.24-.56.4-.76.79-1.52,1.2-2.31a15,15,0,0,0,1.45.72c1.73.67,3.47,1.33,5.22,2a1,1,0,0,0,1.48-.74c.46-1.41.89-2.82,1.31-4.25.17-.59-.18-1.09-.86-1.33-1.34-.49-2.71-.9-4-1.49a39.65,39.65,0,0,1-6.58-3.6c-.82-.58-1.24-.49-1.81.31L24.68,102c-.12.17-.25.33-.42.56-.43-.34-.84-.66-1.24-1-1.75-1.48-3.53-2.94-5.24-4.47-.84-.75-1.57-1.64-2.36-2.46-.3-.31-.2-.51.09-.78.6-.53,1.15-1.11,1.71-1.66a43,43,0,0,0,5.21,5.17,1,1,0,0,0,1.65-.15L26.73,94c.59-.72.53-1.1-.14-1.74a49.94,49.94,0,0,1-5.47-5.7c-.83-1.08-1.64-2.18-2.48-3.25-.47-.61-.87-.66-1.53-.25L12,86.22c-.64.4-1.26.82-2,1.27A50.83,50.83,0,0,1,4.73,76.34l2.78-1c.2.61.35,1.2.58,1.75.49,1.18,1,2.33,1.54,3.5.21.46.4.94.64,1.39.42.78,1,.89,1.73.46,1.2-.66,2.41-1.29,3.62-1.94a1.14,1.14,0,0,0,.53-1.67c-.47-1-1-1.92-1.41-2.93-.72-1.93-1.37-3.9-2-5.87-.23-.76-.31-1.56-.47-2.34s-.62-1.14-1.53-1L2.68,68.13c-.54-1.44-1.07-10.25-.63-12.29L4.94,56v.59c0,2.11-.05,4.22,0,6.33,0,1,.55,1.42,1.55,1.31,1.32-.15,2.65-.28,4-.4.79-.07,1.18-.47,1.1-1.28a39.26,39.26,0,0,1,.09-7.74c.12-1.25.33-2.49.55-3.73.16-.92-.13-1.39-1.05-1.59L3.48,47.89l-.26-.08c.16-2.22,2.6-9.42,4-11.74L9.8,37.4c-.44,1-.93,1.89-1.3,2.86-.5,1.31-.94,2.64-1.36,4a1,1,0,0,0,.71,1.3c1.42.46,2.86.89,4.31,1.3.67.18,1.08-.11,1.34-.82.5-1.37.91-2.78,1.51-4.11a41.05,41.05,0,0,1,3.57-6.54c.54-.78.44-1.21-.34-1.76-1.67-1.19-3.33-2.38-5-3.56-.57-.4-1.17-.77-1.81-1.2a55.79,55.79,0,0,1,8.2-9.18c.72.74,1.38,1.44,2,2.07-.64.65-1.21,1.23-1.79,1.8s-1.2,1.16-1.77,1.77-1,1.09-1.46,1.67-.47,1.11.18,1.65L20,31.26c.74.6,1.12.5,1.76-.2,1.15-1.23,2.3-2.48,3.56-3.6,1.53-1.36,3.18-2.58,4.77-3.86.24-.19.47-.38.7-.59A.9.9,0,0,0,31,21.74c-.59-1-1.18-1.91-1.78-2.85-.69-1.09-1.42-2.16-2.11-3.25-.22-.35-.38-.74-.59-1.15a51,51,0,0,1,11.1-5.3c.29.91.59,1.8.9,2.75l-.88.37-4.34,1.85c-.46.19-.93.35-1.36.58a1.08,1.08,0,0,0-.48,1.72c.64,1.17,1.25,2.34,1.89,3.51.48.89,1,1,1.92.56a30.19,30.19,0,0,1,2.93-1.4c1.92-.71,3.87-1.36,5.82-2,.74-.24,1.53-.29,2.28-.46a1.09,1.09,0,0,0,.91-1.44q-.72-4.07-1.42-8.13C47,6.55,55.66,6.06,58,6.42c-.06,1-.12,1.91-.19,3-.41,0-.82-.08-1.23-.08-1.83,0-3.65,0-5.48,0-1.27,0-1.63.52-1.46,1.79s.28,2.41.41,3.62c.11,1,.43,1.3,1.43,1.22a41.33,41.33,0,0,1,11.59.66,1.16,1.16,0,0,0,1.59-1.05L66.26,8.2c0-.18.1-.36.15-.53,2.18.15,9.61,2.7,11.72,4l-1.34,2.62c-.63-.31-1.21-.65-1.82-.89q-2.4-.91-4.81-1.77a1,1,0,0,0-1.54.78c-.45,1.37-.86,2.75-1.28,4.14A1,1,0,0,0,68,17.89c.67.26,1.34.54,2,.74a24.65,24.65,0,0,1,5.37,2.47c1.2.68,2.38,1.4,3.57,2.11a1,1,0,0,0,1.47-.35c1.51-2.12,3-4.24,4.5-6.37.12-.17.24-.33.42-.56.46.37.9.72,1.33,1.08,1.66,1.39,3.33,2.76,5,4.19.83.74,1.58,1.58,2.34,2.4.59.62.56.63-.08,1.17s-1,.95-1.51,1.38c-1.26-1.26-2.44-2.48-3.66-3.66a20.67,20.67,0,0,0-1.58-1.39,1,1,0,0,0-1.62.17c-.89,1.07-1.79,2.15-2.68,3.24-.55.69-.48,1.09.16,1.69,1.22,1.16,2.48,2.3,3.59,3.56,1.34,1.52,2.55,3.15,3.82,4.73.07.09.12.19.19.28.88,1.09,1,1.16,2.2.43,1.84-1.1,3.62-2.29,5.44-3.43.41-.26.85-.49,1.35-.77a51.66,51.66,0,0,1,5.28,11.12l-2.78,1c-.18-.58-.32-1.13-.53-1.64-.51-1.21-1.06-2.41-1.59-3.6-.21-.47-.4-.95-.64-1.4-.42-.78-1-.89-1.73-.46-1.2.67-2.41,1.29-3.61,1.94a1.13,1.13,0,0,0-.53,1.67c.49,1.05,1.07,2.06,1.48,3.14.7,1.89,1.33,3.8,1.93,5.72a22.53,22.53,0,0,1,.47,2.34,1.09,1.09,0,0,0,1.46.94c2.71-.48,5.42-.94,8.11-1.4C107.48,51.44,108,60.33,107.6,62.62Z"/><path class="cls-1" d="M112.89,89.57l.15-1.51a158,158,0,0,1-18.72-3.25A29,29,0,0,1,92,78.31c0-3.67,0-9.6.85-12.28,1-3.14.66-16.56-2.4-16.76s-2.6.78-5,8.28C83.62,63,88,73.2,90.47,78.32a26.76,26.76,0,0,0,2,6c-2.44-.6-5-1.29-7.54-2.08a17.91,17.91,0,0,0-1.2-5.39A45.12,45.12,0,0,0,82,60.11a48.73,48.73,0,0,0-9.07-17.37s-3,8.31,1.51,18.88a105.87,105.87,0,0,0,7.42,14.71,21,21,0,0,1,1.51,5.47c-3-1-6.08-2.07-9.05-3.33a16.63,16.63,0,0,0-1-4.8,2.51,2.51,0,0,0,.74-.71s2.64-5.49-.76-8.58-6.36-4.08-7.76-.5.08,5.45,1.17,7.94A4.65,4.65,0,0,0,71.9,74.2a17.21,17.21,0,0,1,.87,3.6,65.51,65.51,0,0,1-10-5.47h0a31.51,31.51,0,0,1-2.36-6.13c-.13-.88-.23-1.83-.31-2.8,0-.06,0-.12,0-.18h0a68.61,68.61,0,0,1,0-8.58c.27-4.13-1.16-14.21-2.23-17.55s-3.3-1-2.8,13.55c.29,8.42,2.33,13.45,4,16.21a29.31,29.31,0,0,0,1.26,3.68A93,93,0,0,1,47.92,58.67,21,21,0,0,0,50,52.59a24.64,24.64,0,0,0,1-12.12C49.52,29.9,48.76,20.83,46.5,23.1c-2.12,2.12-.28,26.69,1.2,32.34a13.37,13.37,0,0,1-.83,2c-2.17-2.5-4.26-5.07-6.22-7.61a19.37,19.37,0,0,0,1.44-4,15.07,15.07,0,0,0,.39-10.39c-2.29-8-3.73-14.92-5.73-12.94C35,24.3,38.33,41.72,40.26,46.79a17.2,17.2,0,0,1-.64,1.74c-2.15-2.84-4.15-5.62-5.92-8.17l.14,0c.77-2.48,0-6.7-.15-7.57-.14-4-.68-8.8-2.3-11.24-3-4.53-3-5.29-4.53-4.53s1.51,9.06,3,10.57c.76.76,1.71,3.62,2.46,6.27a21,21,0,0,1,.28,4.87c-4.39-6.44-7.18-11.18-7.36-11.5a74.6,74.6,0,0,0-1.8-9.08C22,12.9,22.7.82,19.68.06s-3,5.29-1.51,14.35S25.72,31,25.72,31v-.09c1.23,2,3,4.81,5.29,8.13-3.25-.93-8.23-4.12-10.94-6.15-3-2.27-11.33-6-14.35-6.8s-2.27,2.27,9.06,9.07c9,5.41,14.64,4.82,16.55,4.35,2.11,3.11,4.6,6.62,7.36,10.23a35,35,0,0,1-4.32-.54,2.3,2.3,0,0,0,0-.45s-.76-6-5.29-6.8-7.55,0-6.79,3.78,3,4.53,5.28,6c2.05,1.37,4.71.34,6-1.19a37.68,37.68,0,0,0,6.27.74c1.84,2.36,3.79,4.74,5.81,7.07a36.53,36.53,0,0,1-4.77.64,47.48,47.48,0,0,1-11.09-3.85c-3.4-1.65-12.27-3.77-15.38-3.93s-1.79,2.65,10.63,7.16c6.08,2.21,10.46,2.44,13.35,2.09a12.56,12.56,0,0,0,1.4.08,35.9,35.9,0,0,0,7-.89q2.11,2.39,4.31,4.62a23.68,23.68,0,0,1-3.27,1.3,2.43,2.43,0,0,0-.51-1.1s-5-4.6-9.64-2.25-6.87,5-3.49,7.67,6,1.83,9.1,1.61a5.16,5.16,0,0,0,4.55-4.38,24.66,24.66,0,0,0,4.39-1.72,81.26,81.26,0,0,0,6.06,5.43A22.66,22.66,0,0,1,55,73.56c-6-.44-23.23-1.49-28.91,1.66,0,0,12.23,7.25,22.66,3.77,5.08-1.69,7.2-3.8,8-4.76a27.12,27.12,0,0,0,2.82-2.39c.8.61,1.59,1.19,2.39,1.74a62.17,62.17,0,0,0,6.77,4,23.44,23.44,0,0,1-2.33,1.93c-3.55,1.37-9.31,3.45-12.3,3.72C50.56,83.5,37.7,88.64,39,91.36s2,2,10.48,1.35c6.18-.45,14-8,17.71-12a25.06,25.06,0,0,0,3-2.48A114,114,0,0,0,91.22,85.6,12.15,12.15,0,0,1,87,86.78v.1c-3.57.45-7.89.86-10.26.54C73.2,87,59.51,89.1,60.16,92s1.54,2.37,9.92,3.65c6.51,1,16.58-5.4,20.74-8.3,1.11-.42,2.11-.89,2.75-1.21A164.33,164.33,0,0,0,112.89,89.57Z"/></svg>